<?xml version="1.0" encoding="UTF-8"?>
<svg width="507px" height="258px" viewBox="0 0 507 258" version="1.1" xmlns="http://www.w3.org/2000/svg" xmlns:xlink="http://www.w3.org/1999/xlink">
    <!-- Generator: Sketch 59.1 (86144) - https://sketch.com -->
    <title>Black box diagram</title>
    <desc>Created with Sketch.</desc>
    <g id="Black-box-diagram" stroke="none" stroke-width="1" fill="none" fill-rule="evenodd">
        <g id="Group" transform="translate(40.000000, 32.000000)">
            <rect id="Rectangle" fill="#000000" x="109.5" y="0" width="196" height="195"></rect>
            <path d="M161.542969,103 L161.542969,88.6933594 L166.005859,88.6933594 C167.9004,88.6933594 169.313146,88.9700493 170.244141,89.5234375 C171.175135,90.0768257 171.640625,90.9980404 171.640625,92.2871094 C171.640625,92.4954437 171.627604,92.7005198 171.601562,92.9023438 C171.575521,93.1041677 171.516928,93.3336576 171.425781,93.5908203 C171.334635,93.8479831 171.214193,94.0807281 171.064453,94.2890625 C170.914713,94.4973969 170.706382,94.7008454 170.439453,94.8994141 C170.172525,95.0979828 169.860028,95.2526036 169.501953,95.3632812 C170.387374,95.5781261 171.064451,95.9899058 171.533203,96.5986328 C172.001955,97.2073598 172.236328,97.9576778 172.236328,98.8496094 C172.236328,100.197272 171.759445,101.225908 170.805664,101.935547 C169.851883,102.645186 168.531909,103 166.845703,103 L161.542969,103 Z M164.189453,101.085938 L166.484375,101.085938 C168.515635,101.085938 169.53125,100.291675 169.53125,98.703125 C169.53125,97.9023397 169.277346,97.3261736 168.769531,96.9746094 C168.261716,96.6230451 167.477219,96.4472656 166.416016,96.4472656 L164.189453,96.4472656 L164.189453,101.085938 Z M164.189453,94.6015625 L166.455078,94.6015625 C168.206389,94.6015625 169.082031,93.9342515 169.082031,92.5996094 C169.082031,91.8509077 168.829755,91.3365899 168.325195,91.0566406 C167.820635,90.7766913 167.018235,90.6367188 165.917969,90.6367188 L164.189453,90.6367188 L164.189453,94.6015625 Z M178.076172,103.146484 C177.340491,103.146484 176.730146,103.060222 176.245117,102.887695 C175.760089,102.715168 175.377606,102.440106 175.097656,102.0625 C174.817707,101.684894 174.622396,101.23568 174.511719,100.714844 C174.401041,100.194008 174.345703,99.5462278 174.345703,98.7714844 L174.345703,88.3125 L176.904297,88.1464844 L176.904297,98.7226562 C176.904297,99.6862027 177.018228,100.338865 177.246094,100.680664 C177.473959,101.022463 177.916663,101.193359 178.574219,101.193359 C178.899741,101.193359 179.313149,101.157552 179.814453,101.085938 L179.882812,102.912109 L179.418945,103.006104 L179.418945,103.006104 L179.204102,103.043945 C179.064127,103.066732 178.88672,103.089518 178.671875,103.112305 C178.45703,103.135091 178.258464,103.146484 178.076172,103.146484 Z M183.984375,103.205078 C182.988276,103.205078 182.18262,102.930016 181.567383,102.379883 C180.952145,101.82975 180.644531,101.037115 180.644531,100.001953 C180.644531,98.8886663 181.009111,98.0634792 181.738281,97.5263672 C182.467452,96.9892551 183.567701,96.6490893 185.039062,96.5058594 L185.693359,96.4277344 L185.693359,96.4277344 L186.201171,96.3756511 L186.201171,96.3756511 L187.06875,96.2933594 C187.107552,96.2891927 187.14388,96.2851563 187.177734,96.28125 L187.177734,95.7148438 C187.177734,95.0637988 187.027996,94.5901708 186.728516,94.2939453 C186.429035,93.9977199 185.97331,93.8496094 185.361328,93.8496094 C184.488928,93.8496094 183.411465,94.0937476 182.128906,94.5820312 L181.484375,92.8144531 L181.484375,92.8144531 C182.747402,92.2740858 184.114576,92.0039062 185.585938,92.0039062 C187.031257,92.0039062 188.082679,92.3180307 188.740234,92.9462891 C189.39779,93.5745474 189.726562,94.5917898 189.726562,95.9980469 L189.726562,103 L187.832031,103 L187.434896,101.781467 C187.419705,101.730107 187.412109,101.700087 187.412109,101.691406 C186.878253,102.212242 186.355797,102.594725 185.844727,102.838867 C185.333656,103.083009 184.713545,103.205078 183.984375,103.205078 Z M184.677734,101.388672 C185.270185,101.388672 185.786131,101.247072 186.225586,100.963867 C186.665041,100.680663 186.979166,100.337242 187.167969,99.9335938 L187.167969,97.8632812 L186.132812,97.9414062 L186.132812,97.9414062 C185.097651,98.0325525 184.339195,98.2278631 183.857422,98.5273438 C183.375649,98.8268244 183.134766,99.3085904 183.134766,99.9726562 C183.134766,100.428388 183.268228,100.778319 183.535156,101.022461 C183.802085,101.266603 184.18294,101.388672 184.677734,101.388672 Z M197.001953,103.205078 C195.36132,103.205078 194.083663,102.716802 193.168945,101.740234 C192.254227,100.763667 191.796875,99.3671966 191.796875,97.5507812 C191.796875,95.79296 192.277013,94.4290413 193.237305,93.4589844 C194.197596,92.4889274 195.462232,92.0039062 197.03125,92.0039062 C198.287767,92.0039062 199.348954,92.2740858 200.214844,92.8144531 L199.609375,94.640625 C198.723954,94.1783831 197.900394,93.9472656 197.138672,93.9472656 C196.272782,93.9472656 195.590823,94.2565073 195.092773,94.875 C194.594724,95.4934927 194.345703,96.3951764 194.345703,97.5800781 C194.345703,98.7780008 194.591469,99.68945 195.083008,100.314453 C195.574547,100.939456 196.269527,101.251953 197.167969,101.251953 C198.105473,101.251953 199.007157,100.975263 199.873047,100.421875 L200.117188,102.365234 C199.667967,102.664715 199.202476,102.879557 198.720703,103.009766 C198.23893,103.139975 197.666019,103.205078 197.001953,103.205078 Z M202.148438,103 L202.148438,88.3125 L204.707031,88.1464844 L204.707031,94.7382812 L204.648438,96.90625 L205.058594,96.5058594 L205.058594,96.5058594 C205.32715,96.188475 205.613098,95.8637687 205.916442,95.531738 L206.225586,95.1972656 C206.465542,94.9405679 206.741636,94.6509221 207.05387,94.328325 L209.072266,92.2675781 L209.072266,92.2675781 L212.119141,92.2675781 L207.705078,96.8378906 L212.402344,103 L209.306641,103 L205.771484,98.1269531 L204.707031,98.9667969 L204.707031,103 L202.148438,103 Z M219.130859,103 L219.130859,88.6933594 L223.59375,88.6933594 C225.488291,88.6933594 226.901037,88.9700493 227.832031,89.5234375 C228.763025,90.0768257 229.228516,90.9980404 229.228516,92.2871094 C229.228516,92.4954437 229.215495,92.7005198 229.189453,92.9023438 C229.163411,93.1041677 229.104818,93.3336576 229.013672,93.5908203 C228.922526,93.8479831 228.802084,94.0807281 228.652344,94.2890625 C228.502603,94.4973969 228.294272,94.7008454 228.027344,94.8994141 C227.760415,95.0979828 227.447918,95.2526036 227.089844,95.3632812 C227.975265,95.5781261 228.652341,95.9899058 229.121094,96.5986328 C229.589846,97.2073598 229.824219,97.9576778 229.824219,98.8496094 C229.824219,100.197272 229.347335,101.225908 228.393555,101.935547 C227.439774,102.645186 226.1198,103 224.433594,103 L219.130859,103 Z M221.777344,101.085938 L224.072266,101.085938 C226.103526,101.085938 227.119141,100.291675 227.119141,98.703125 C227.119141,97.9023397 226.865237,97.3261736 226.357422,96.9746094 C225.849607,96.6230451 225.065109,96.4472656 224.003906,96.4472656 L221.777344,96.4472656 L221.777344,101.085938 Z M221.777344,94.6015625 L224.042969,94.6015625 C225.79428,94.6015625 226.669922,93.9342515 226.669922,92.5996094 C226.669922,91.8509077 226.417646,91.3365899 225.913086,91.0566406 C225.408526,90.7766913 224.606125,90.6367188 223.505859,90.6367188 L221.777344,90.6367188 L221.777344,94.6015625 Z M236.582031,101.261719 C237.447921,101.261719 238.098956,100.945967 238.535156,100.314453 C238.971356,99.6829396 239.189453,98.7780007 239.189453,97.5996094 C239.189453,96.4081972 238.971356,95.5000031 238.535156,94.875 C238.098956,94.2499969 237.441411,93.9375 236.5625,93.9375 C235.69661,93.9375 235.043948,94.2516245 234.604492,94.8798828 C234.165037,95.5081412 233.945312,96.4179628 233.945312,97.609375 C233.945312,98.7812559 234.166664,99.6829396 234.609375,100.314453 C235.052086,100.945967 235.709631,101.261719 236.582031,101.261719 Z M236.513672,103.205078 C234.925122,103.205078 233.675135,102.69076 232.763672,101.662109 C231.852209,100.633458 231.396484,99.2793053 231.396484,97.5996094 C231.396484,95.8678299 231.852209,94.5022836 232.763672,93.5029297 C233.675135,92.5035757 234.960929,92.0039062 236.621094,92.0039062 C238.222664,92.0039062 239.477535,92.5133413 240.385742,93.5322266 C241.29395,94.5511119 241.748047,95.9068926 241.748047,97.5996094 C241.748047,99.3118575 241.289067,100.674149 240.371094,101.686523 C239.45312,102.698898 238.167326,103.205078 236.513672,103.205078 Z M242.744141,103 L246.5625,97.5019531 L242.929688,92.2675781 L245.830078,92.2675781 L248.212891,95.9199219 L250.664062,92.2675781 L253.515625,92.2675781 L249.853516,97.4921875 L253.642578,103 L250.712891,103 L248.212891,99.1035156 L245.634766,103 L242.744141,103 Z" id="BlackBox" fill="#FFFFFF" fill-rule="nonzero"></path>
            <path d="M380.3125,97.2265625 C380.3125,98.7109449 380.653642,99.8762979 381.335938,100.722656 C382.018233,101.569015 383.026035,101.992188 384.359375,101.992188 C385.692715,101.992188 386.696611,101.570317 387.371094,100.726562 C388.045576,99.8828083 388.382812,98.7161533 388.382812,97.2265625 C388.382812,95.7057216 388.042972,94.5260459 387.363281,93.6875 C386.68359,92.8489541 385.684902,92.4296875 384.367188,92.4296875 C383.049473,92.4296875 382.044274,92.8489541 381.351562,93.6875 C380.658851,94.5260459 380.3125,95.7057216 380.3125,97.2265625 Z M389.828125,97.2265625 C389.828125,98.1067752 389.707032,98.9114547 389.464844,99.640625 C389.222655,100.369795 388.8737,100.996091 388.417969,101.519531 C387.962237,102.042971 387.388024,102.449217 386.695312,102.738281 C386.002601,103.027345 385.223963,103.171875 384.359375,103.171875 C383.192702,103.171875 382.194015,102.92318 381.363281,102.425781 C380.532548,101.928383 379.910158,101.235682 379.496094,100.347656 C379.082029,99.459631 378.875,98.4166727 378.875,97.21875 C378.875,95.3697824 379.356766,93.9114637 380.320312,92.84375 C381.283859,91.7760363 382.632804,91.2421875 384.367188,91.2421875 C386.075529,91.2421875 387.412756,91.7799425 388.378906,92.8554688 C389.345057,93.930995 389.828125,95.3880116 389.828125,97.2265625 Z M391.523438,100.140625 L391.523438,94.4296875 L392.835938,94.4296875 L392.835938,100.15625 C392.835938,100.531252 392.889322,100.848957 392.996094,101.109375 C393.102865,101.369793 393.256509,101.571614 393.457031,101.714844 C393.657553,101.858074 393.884113,101.960937 394.136719,102.023438 C394.389324,102.085938 394.679686,102.117188 395.007812,102.117188 C395.684899,102.117188 396.212238,101.968751 396.589844,101.671875 C396.96745,101.374999 397.15625,100.869795 397.15625,100.15625 L397.15625,94.4296875 L398.46875,94.4296875 L398.46875,100.140625 C398.46875,100.578127 398.406251,100.971352 398.28125,101.320312 C398.156249,101.669273 397.988282,101.959634 397.777344,102.191406 C397.566405,102.423178 397.312501,102.614583 397.015625,102.765625 C396.718749,102.916667 396.40495,103.026041 396.074219,103.09375 C395.743488,103.161459 395.388023,103.195312 395.007812,103.195312 C394.632811,103.195312 394.278647,103.161459 393.945312,103.09375 C393.611978,103.026041 393.295574,102.915365 392.996094,102.761719 C392.696613,102.608072 392.438803,102.415366 392.222656,102.183594 C392.006509,101.951822 391.835938,101.66146 391.710938,101.3125 C391.585937,100.96354 391.523438,100.572919 391.523438,100.140625 Z M403.148438,103.15625 C402.304683,103.15625 401.705731,102.950523 401.351562,102.539062 C400.997394,102.127602 400.809896,101.463546 400.789062,100.546875 L400.789062,95.3984375 L399.515625,95.3984375 L399.570312,94.5390625 L400.78125,94.4296875 L401.226562,92.46875 L402.085938,92.4375 L402.085938,94.4296875 L404.46875,94.4296875 L404.46875,95.3984375 L402.085938,95.3984375 L402.085938,100.3125 C402.085938,100.963545 402.184895,101.421874 402.382812,101.6875 C402.58073,101.953126 402.919268,102.085938 403.398438,102.085938 C403.570313,102.085938 403.942705,102.044271 404.515625,101.960938 L404.570312,102.992188 L404.132811,103.063965 C403.722655,103.125489 403.394532,103.15625 403.148438,103.15625 Z M405.960938,106.71875 L405.960938,94.4296875 L407.109375,94.4296875 L407.234375,95.59375 C407.984379,94.6979122 408.885411,94.25 409.9375,94.25 C410.718754,94.25 411.380206,94.4453105 411.921875,94.8359375 C412.463544,95.2265645 412.86328,95.755205 413.121094,96.421875 C413.378908,97.088545 413.507812,97.867183 413.507812,98.7578125 C413.507812,99.6119834 413.367189,100.37109 413.085938,101.035156 C412.804686,101.699222 412.39193,102.222654 411.847656,102.605469 C411.303383,102.988283 410.66667,103.179688 409.9375,103.179688 C409.385414,103.179688 408.86719,103.055991 408.382812,102.808594 C407.898435,102.561197 407.510418,102.234377 407.21875,101.828125 C407.25,102.390628 407.265625,102.937497 407.265625,103.46875 L407.265625,106.632812 L405.960938,106.71875 Z M409.757812,102.078125 C410.153648,102.078125 410.507811,101.988282 410.820312,101.808594 C411.132814,101.628905 411.385416,101.382814 411.578125,101.070312 C411.770834,100.757811 411.916666,100.402346 412.015625,100.003906 C412.114584,99.6054668 412.164062,99.1744815 412.164062,98.7109375 C412.164062,97.7317659 411.958335,96.9283886 411.546875,96.3007812 C411.135415,95.6731739 410.533858,95.359375 409.742188,95.359375 C408.085929,95.359375 407.257812,96.4296768 407.257812,98.5703125 C407.257812,99.7317766 407.451821,100.606768 407.839844,101.195312 C408.227867,101.783857 408.867183,102.078125 409.757812,102.078125 Z M415.046875,100.140625 L415.046875,94.4296875 L416.359375,94.4296875 L416.359375,100.15625 C416.359375,100.531252 416.41276,100.848957 416.519531,101.109375 C416.626303,101.369793 416.779947,101.571614 416.980469,101.714844 C417.180991,101.858074 417.407551,101.960937 417.660156,102.023438 C417.912762,102.085938 418.203123,102.117188 418.53125,102.117188 C419.208337,102.117188 419.735675,101.968751 420.113281,101.671875 C420.490887,101.374999 420.679688,100.869795 420.679688,100.15625 L420.679688,94.4296875 L421.992188,94.4296875 L421.992188,100.140625 C421.992188,100.578127 421.929688,100.971352 421.804688,101.320312 C421.679687,101.669273 421.51172,101.959634 421.300781,102.191406 C421.089843,102.423178 420.835939,102.614583 420.539062,102.765625 C420.242186,102.916667 419.928387,103.026041 419.597656,103.09375 C419.266925,103.161459 418.91146,103.195312 418.53125,103.195312 C418.156248,103.195312 417.802085,103.161459 417.46875,103.09375 C417.135415,103.026041 416.819012,102.915365 416.519531,102.761719 C416.220051,102.608072 415.962241,102.415366 415.746094,102.183594 C415.529947,101.951822 415.359376,101.66146 415.234375,101.3125 C415.109374,100.96354 415.046875,100.572919 415.046875,100.140625 Z M426.671875,103.15625 C425.828121,103.15625 425.229168,102.950523 424.875,102.539062 C424.520832,102.127602 424.333333,101.463546 424.3125,100.546875 L424.3125,95.3984375 L423.039062,95.3984375 L423.09375,94.5390625 L424.304688,94.4296875 L424.75,92.46875 L425.609375,92.4375 L425.609375,94.4296875 L427.992188,94.4296875 L427.992188,95.3984375 L425.609375,95.3984375 L425.609375,100.3125 C425.609375,100.963545 425.708332,101.421874 425.90625,101.6875 C426.104168,101.953126 426.442706,102.085938 426.921875,102.085938 C427.093751,102.085938 427.466143,102.044271 428.039062,101.960938 L428.09375,102.992188 C427.473955,103.101563 427.000002,103.15625 426.671875,103.15625 Z" id="Output" fill="#000000" fill-rule="nonzero"></path>
            <path d="M1.7734375,103 L0.421875,103 L0.421875,91.4453125 L1.7734375,91.4453125 L1.7734375,103 Z M4.3359375,103 L4.3359375,94.4296875 L5.4296875,94.4296875 L5.59375,95.65625 C5.93229336,95.2343729 6.35546621,94.8945325 6.86328125,94.6367188 C7.37109629,94.378905 7.91926789,94.25 8.5078125,94.25 C9.49740078,94.25 10.2291643,94.527341 10.703125,95.0820312 C11.1770857,95.6367215 11.4140625,96.4895776 11.4140625,97.640625 L11.4140625,103 L10.109375,103 L10.1015625,97.4765625 L10.1015625,97.4765625 C10.0807291,96.7473922 9.93359512,96.2135434 9.66015625,95.875 C9.38671738,95.5364566 8.9296907,95.3671875 8.2890625,95.3671875 C7.61718414,95.3671875 7.05729391,95.5286442 6.609375,95.8515625 C6.16145609,96.1744808 5.86979234,96.5937474 5.734375,97.109375 C5.68229141,97.4583351 5.65625,97.8593727 5.65625,98.3125 L5.65625,103 L4.3359375,103 Z M13.5859375,106.71875 L13.5859375,94.4296875 L14.734375,94.4296875 L14.859375,95.59375 C15.6093788,94.6979122 16.5104114,94.25 17.5625,94.25 C18.3437539,94.25 19.0052056,94.4453105 19.546875,94.8359375 C20.0885444,95.2265645 20.48828,95.755205 20.7460938,96.421875 C21.0039075,97.088545 21.1328125,97.867183 21.1328125,98.7578125 C21.1328125,99.6119834 20.9921889,100.37109 20.7109375,101.035156 C20.4296861,101.699222 20.0169298,102.222654 19.4726562,102.605469 C18.9283827,102.988283 18.2916703,103.179688 17.5625,103.179688 C17.0104139,103.179688 16.4921899,103.055991 16.0078125,102.808594 C15.5234351,102.561197 15.1354181,102.234377 14.84375,101.828125 C14.8750002,102.390628 14.890625,102.937497 14.890625,103.46875 L14.890625,106.632812 L13.5859375,106.71875 Z M17.3828125,102.078125 C17.7786478,102.078125 18.1328109,101.988282 18.4453125,101.808594 C18.7578141,101.628905 19.0104157,101.382814 19.203125,101.070312 C19.3958343,100.757811 19.5416662,100.402346 19.640625,100.003906 C19.7395838,99.6054668 19.7890625,99.1744815 19.7890625,98.7109375 C19.7890625,97.7317659 19.5833354,96.9283886 19.171875,96.3007812 C18.7604146,95.6731739 18.1588581,95.359375 17.3671875,95.359375 C15.7109292,95.359375 14.8828125,96.4296768 14.8828125,98.5703125 C14.8828125,99.7317766 15.076821,100.606768 15.4648438,101.195312 C15.8528665,101.783857 16.492183,102.078125 17.3828125,102.078125 Z M22.671875,100.140625 L22.671875,94.4296875 L23.984375,94.4296875 L23.984375,100.15625 C23.984375,100.531252 24.0377599,100.848957 24.1445312,101.109375 C24.2513026,101.369793 24.4049469,101.571614 24.6054688,101.714844 C24.8059906,101.858074 25.0325508,101.960937 25.2851562,102.023438 C25.5377617,102.085938 25.8281234,102.117188 26.15625,102.117188 C26.8333367,102.117188 27.3606752,101.968751 27.7382812,101.671875 C28.1158873,101.374999 28.3046875,100.869795 28.3046875,100.15625 L28.3046875,94.4296875 L29.6171875,94.4296875 L29.6171875,100.140625 C29.6171875,100.578127 29.5546881,100.971352 29.4296875,101.320312 C29.3046869,101.669273 29.1367198,101.959634 28.9257812,102.191406 C28.7148427,102.423178 28.460939,102.614583 28.1640625,102.765625 C27.867186,102.916667 27.5533871,103.026041 27.2226562,103.09375 C26.8919254,103.161459 26.5364602,103.195312 26.15625,103.195312 C25.7812481,103.195312 25.427085,103.161459 25.09375,103.09375 C24.760415,103.026041 24.4440119,102.915365 24.1445312,102.761719 C23.8450506,102.608072 23.5872407,102.415366 23.3710938,102.183594 C23.1549468,101.951822 22.9843756,101.66146 22.859375,101.3125 C22.7343744,100.96354 22.671875,100.572919 22.671875,100.140625 Z M34.296875,103.15625 C33.4531208,103.15625 32.8541684,102.950523 32.5,102.539062 C32.1458316,102.127602 31.9583334,101.463546 31.9375,100.546875 L31.9375,95.3984375 L30.6640625,95.3984375 L30.71875,94.5390625 L31.9296875,94.4296875 L32.375,92.46875 L33.234375,92.4375 L33.234375,94.4296875 L35.6171875,94.4296875 L35.6171875,95.3984375 L33.234375,95.3984375 L33.234375,100.3125 C33.234375,100.963545 33.3333323,101.421874 33.53125,101.6875 C33.7291677,101.953126 34.0677059,102.085938 34.546875,102.085938 C34.7187509,102.085938 35.091143,102.044271 35.6640625,101.960938 L35.71875,102.992188 C35.0989552,103.101563 34.6250016,103.15625 34.296875,103.15625 Z" id="Input" fill="#000000" fill-rule="nonzero"></path>
            <path d="M373.5,97 L359.5,90 L359.5,104 L373.5,97 Z M306,98 L360.5,98 L361.5,98 L361.5,96 L360.5,96 L306,96 L305,96 L305,98 L306,98 Z" id="Line-2-Copy-3" fill="#000000" fill-rule="nonzero"></path>
            <path d="M109.5,97 L95.5,90 L95.5,104 L109.5,97 Z M42,98 L96.5,98 L97.5,98 L97.5,96 L96.5,96 L42,96 L41,96 L41,98 L42,98 Z" id="Line-2-Copy-3-Copy" fill="#000000" fill-rule="nonzero"></path>
        </g>
    </g>
</svg>