<?xml version="1.0" encoding="UTF-8"?>
<svg width="1214px" height="866px" viewBox="0 0 1214 866" version="1.1" xmlns="http://www.w3.org/2000/svg" xmlns:xlink="http://www.w3.org/1999/xlink">
    <!-- Generator: Sketch 59.1 (86144) - https://sketch.com -->
    <title>DL_static_1</title>
    <desc>Created with Sketch.</desc>
    <g id="DL_static_1" stroke="none" stroke-width="1" fill="none" fill-rule="evenodd">
        <path d="M127.34668,249 L125.657227,249 L125.657227,234.556641 L127.34668,234.556641 L127.34668,249 Z M130.549805,249 L130.549805,238.287109 L131.916992,238.287109 L132.12207,239.820312 C132.54525,239.292966 133.074216,238.868166 133.708984,238.545898 C134.343753,238.223631 135.028968,238.0625 135.764648,238.0625 C137.001634,238.0625 137.916338,238.409176 138.508789,239.102539 C139.10124,239.795902 139.397461,240.861972 139.397461,242.300781 L139.397461,249 L137.766602,249 L137.756836,242.095703 L137.756836,242.095703 C137.730794,241.18424 137.546877,240.516929 137.205078,240.09375 C136.86328,239.670571 136.291996,239.458984 135.491211,239.458984 C134.651363,239.458984 133.9515,239.660805 133.391602,240.064453 C132.831703,240.468101 132.467123,240.992184 132.297852,241.636719 C132.232747,242.072919 132.200195,242.574216 132.200195,243.140625 L132.200195,249 L130.549805,249 Z M142.112305,253.648438 L142.112305,238.287109 L143.547852,238.287109 L143.704102,239.742188 C144.641606,238.62239 145.767897,238.0625 147.083008,238.0625 C148.059575,238.0625 148.88639,238.306638 149.563477,238.794922 C150.240563,239.283206 150.740233,239.944006 151.0625,240.777344 C151.384767,241.610681 151.545898,242.583979 151.545898,243.697266 C151.545898,244.764979 151.370119,245.713863 151.018555,246.543945 C150.66699,247.374028 150.151045,248.028318 149.470703,248.506836 C148.790361,248.985354 147.994471,249.224609 147.083008,249.224609 C146.3929,249.224609 145.74512,249.069989 145.139648,248.760742 C144.534177,248.451496 144.049155,248.042971 143.68457,247.535156 C143.723633,248.238285 143.743164,248.921872 143.743164,249.585938 L143.743164,253.541016 L142.112305,253.648438 Z M146.858398,247.847656 C147.353193,247.847656 147.795896,247.735353 148.186523,247.510742 C148.57715,247.286132 148.892902,246.978518 149.133789,246.587891 C149.374676,246.197264 149.556966,245.752932 149.680664,245.254883 C149.804363,244.756833 149.866211,244.218102 149.866211,243.638672 C149.866211,242.414707 149.609052,241.410486 149.094727,240.625977 C148.580401,239.841467 147.828455,239.449219 146.838867,239.449219 C144.768544,239.449219 143.733398,240.787096 143.733398,243.462891 C143.733398,244.914721 143.975909,246.00846 144.460938,246.744141 C144.945966,247.479821 145.745112,247.847656 146.858398,247.847656 Z M153.469727,245.425781 L153.469727,238.287109 L155.110352,238.287109 L155.110352,245.445312 C155.110352,245.914065 155.177083,246.311196 155.310547,246.636719 C155.444011,246.962241 155.636066,247.214517 155.886719,247.393555 C156.137371,247.572592 156.420571,247.701171 156.736328,247.779297 C157.052085,247.857422 157.415037,247.896484 157.825195,247.896484 C158.671554,247.896484 159.330727,247.710939 159.802734,247.339844 C160.274742,246.968748 160.510742,246.337244 160.510742,245.445312 L160.510742,238.287109 L162.151367,238.287109 L162.151367,245.425781 C162.151367,245.972659 162.073243,246.464191 161.916992,246.900391 C161.760741,247.336591 161.550783,247.699543 161.287109,247.989258 C161.023436,248.278973 160.706057,248.518228 160.334961,248.707031 C159.963865,248.895834 159.571617,249.032552 159.158203,249.117188 C158.74479,249.201823 158.300458,249.244141 157.825195,249.244141 C157.356443,249.244141 156.913739,249.201823 156.49707,249.117188 C156.080402,249.032552 155.684898,248.894207 155.310547,248.702148 C154.936196,248.51009 154.613934,248.269207 154.34375,247.979492 C154.073566,247.689777 153.860352,247.326825 153.704102,246.890625 C153.547851,246.454425 153.469727,245.966149 153.469727,245.425781 Z M168.000977,249.195312 C166.946284,249.195312 166.197593,248.938154 165.754883,248.423828 C165.312172,247.909503 165.0778,247.079433 165.051758,245.933594 L165.051758,239.498047 L163.459961,239.498047 L163.52832,238.423828 L165.041992,238.287109 L165.598633,235.835938 L166.672852,235.796875 L166.672852,238.287109 L169.651367,238.287109 L169.651367,239.498047 L166.672852,239.498047 L166.672852,245.640625 C166.672852,246.454431 166.796548,247.027342 167.043945,247.359375 C167.291342,247.691408 167.714515,247.857422 168.313477,247.857422 L168.472461,247.851172 C168.724544,247.834505 169.137041,247.784506 169.709961,247.701172 L169.77832,248.990234 C169.003577,249.126954 168.411135,249.195312 168.000977,249.195312 Z M119.875977,274 L119.875977,263.287109 L121.243164,263.287109 L121.448242,264.820312 C121.871421,264.292966 122.400387,263.868166 123.035156,263.545898 C123.669925,263.223631 124.35514,263.0625 125.09082,263.0625 C126.327806,263.0625 127.24251,263.409176 127.834961,264.102539 C128.427412,264.795902 128.723633,265.861972 128.723633,267.300781 L128.723633,274 L127.092773,274 L127.083008,267.095703 L127.083008,267.095703 C127.056966,266.18424 126.873049,265.516929 126.53125,265.09375 C126.189451,264.670571 125.618168,264.458984 124.817383,264.458984 C123.977535,264.458984 123.277672,264.660805 122.717773,265.064453 C122.157875,265.468101 121.793295,265.992184 121.624023,266.636719 C121.558919,267.072919 121.526367,267.574216 121.526367,268.140625 L121.526367,274 L119.875977,274 Z M132.629883,268.667969 C132.629883,269.937506 132.911456,270.954749 133.474609,271.719727 C134.037763,272.484704 134.859695,272.867188 135.94043,272.867188 C137.008143,272.867188 137.813799,272.486332 138.357422,271.724609 C138.901044,270.962887 139.172852,269.937506 139.172852,268.648438 C139.172852,267.339837 138.9043,266.309574 138.367188,265.557617 C137.830075,264.80566 137.011399,264.429688 135.911133,264.429688 C134.843419,264.429688 134.029625,264.813798 133.469727,265.582031 C132.909828,266.350264 132.629883,267.3789 132.629883,268.667969 Z M140.862305,268.638672 C140.862305,270.298836 140.419601,271.644852 139.53418,272.676758 C138.648759,273.708664 137.424813,274.224609 135.862305,274.224609 C134.358391,274.224609 133.162114,273.703781 132.273438,272.662109 C131.384761,271.620437 130.94043,270.28256 130.94043,268.648438 C130.94043,266.981763 131.386389,265.63412 132.27832,264.605469 C133.170252,263.576818 134.394198,263.0625 135.950195,263.0625 C137.480151,263.0625 138.681311,263.578445 139.553711,264.610352 C140.426111,265.642258 140.862305,266.985018 140.862305,268.638672 Z M147.34668,272.818359 C148.420904,272.818359 149.220049,272.473311 149.744141,271.783203 C150.268232,271.093096 150.530273,270.106777 150.530273,268.824219 C150.530273,267.378899 150.277997,266.290043 149.773438,265.557617 C149.268878,264.825192 148.453456,264.458984 147.327148,264.458984 C146.825844,264.458984 146.38314,264.566405 145.999023,264.78125 C145.614907,264.996095 145.305665,265.295571 145.071289,265.679688 C144.836913,266.063804 144.659506,266.50488 144.539062,267.00293 C144.418619,267.500979 144.358398,268.046221 144.358398,268.638672 C144.358398,269.472009 144.460936,270.194658 144.666016,270.806641 C144.871095,271.418623 145.201495,271.906899 145.657227,272.271484 C146.112958,272.63607 146.676103,272.818359 147.34668,272.818359 Z M150.55957,272.447266 C150.208006,272.987633 149.739261,273.417316 149.15332,273.736328 C148.56738,274.05534 147.91309,274.214844 147.19043,274.214844 C145.777662,274.214844 144.670902,273.711919 143.870117,272.706055 C143.069332,271.70019 142.668945,270.331389 142.668945,268.599609 C142.668945,266.945955 143.075842,265.609706 143.889648,264.59082 C144.703455,263.571935 145.793938,263.0625 147.161133,263.0625 C147.870772,263.0625 148.53971,263.217121 149.167969,263.526367 C149.796227,263.835614 150.2666,264.250648 150.579102,264.771484 L150.549805,263.84375 L150.549805,259.126953 L152.161133,259.029297 L152.161133,274 L150.774414,274 L150.55957,272.447266 Z M161.165039,265.269531 C160.689776,264.696612 160.035486,264.410156 159.202148,264.410156 C158.368811,264.410156 157.688479,264.70475 157.161133,265.293945 C156.633786,265.883141 156.324545,266.688797 156.233398,267.710938 L161.887695,267.710938 C161.887695,266.649734 161.646812,265.83594 161.165039,265.269531 Z M159.524414,274.224609 C157.968417,274.224609 156.742843,273.729823 155.847656,272.740234 C154.952469,271.750646 154.504883,270.396493 154.504883,268.677734 C154.504883,267.01757 154.937821,265.671555 155.803711,264.639648 C156.669601,263.607742 157.808912,263.082031 159.22168,263.0625 C160.549811,263.0625 161.602861,263.516597 162.380859,264.424805 C163.106991,265.272465 163.494257,266.385244 163.542665,267.763171 L163.54707,268.1875 L163.54707,268.1875 L163.538086,268.941406 L163.538086,268.941406 L156.18457,268.941406 C156.204102,270.15886 156.518226,271.107744 157.126953,271.788086 C157.73568,272.468428 158.554357,272.808594 159.583008,272.808594 C160.715826,272.808594 161.851882,272.509118 162.991211,271.910156 L163.245117,273.228516 C162.157872,273.892581 160.91765,274.224609 159.524414,274.224609 Z M172.356445,259.390625 L173.90918,259.390625 L173.90918,274 L172.180664,274 L172.180664,261.197266 C171.523109,261.626955 170.71908,261.99479 169.768555,262.300781 L169.768555,260.669922 L171.121094,260.083984 L171.121094,260.083984 C171.2806,260.012369 171.480793,259.911459 171.72168,259.78125 C171.962566,259.651041 172.174153,259.520834 172.356445,259.390625 Z" id="Inputnode1" fill="#FFFFFF" fill-rule="nonzero"></path>
        <path d="M127.34668,462 L125.657227,462 L125.657227,447.556641 L127.34668,447.556641 L127.34668,462 Z M130.549805,462 L130.549805,451.287109 L131.916992,451.287109 L132.12207,452.820312 C132.54525,452.292966 133.074216,451.868166 133.708984,451.545898 C134.343753,451.223631 135.028968,451.0625 135.764648,451.0625 C137.001634,451.0625 137.916338,451.409176 138.508789,452.102539 C139.10124,452.795902 139.397461,453.861972 139.397461,455.300781 L139.397461,462 L137.766602,462 L137.756836,455.095703 L137.756836,455.095703 C137.730794,454.18424 137.546877,453.516929 137.205078,453.09375 C136.86328,452.670571 136.291996,452.458984 135.491211,452.458984 C134.651363,452.458984 133.9515,452.660805 133.391602,453.064453 C132.831703,453.468101 132.467123,453.992184 132.297852,454.636719 C132.232747,455.072919 132.200195,455.574216 132.200195,456.140625 L132.200195,462 L130.549805,462 Z M142.112305,466.648438 L142.112305,451.287109 L143.547852,451.287109 L143.704102,452.742188 C144.641606,451.62239 145.767897,451.0625 147.083008,451.0625 C148.059575,451.0625 148.88639,451.306638 149.563477,451.794922 C150.240563,452.283206 150.740233,452.944006 151.0625,453.777344 C151.384767,454.610681 151.545898,455.583979 151.545898,456.697266 C151.545898,457.764979 151.370119,458.713863 151.018555,459.543945 C150.66699,460.374028 150.151045,461.028318 149.470703,461.506836 C148.790361,461.985354 147.994471,462.224609 147.083008,462.224609 C146.3929,462.224609 145.74512,462.069989 145.139648,461.760742 C144.534177,461.451496 144.049155,461.042971 143.68457,460.535156 C143.723633,461.238285 143.743164,461.921872 143.743164,462.585938 L143.743164,466.541016 L142.112305,466.648438 Z M146.858398,460.847656 C147.353193,460.847656 147.795896,460.735353 148.186523,460.510742 C148.57715,460.286132 148.892902,459.978518 149.133789,459.587891 C149.374676,459.197264 149.556966,458.752932 149.680664,458.254883 C149.804363,457.756833 149.866211,457.218102 149.866211,456.638672 C149.866211,455.414707 149.609052,454.410486 149.094727,453.625977 C148.580401,452.841467 147.828455,452.449219 146.838867,452.449219 C144.768544,452.449219 143.733398,453.787096 143.733398,456.462891 C143.733398,457.914721 143.975909,459.00846 144.460938,459.744141 C144.945966,460.479821 145.745112,460.847656 146.858398,460.847656 Z M153.469727,458.425781 L153.469727,451.287109 L155.110352,451.287109 L155.110352,458.445312 C155.110352,458.914065 155.177083,459.311196 155.310547,459.636719 C155.444011,459.962241 155.636066,460.214517 155.886719,460.393555 C156.137371,460.572592 156.420571,460.701171 156.736328,460.779297 C157.052085,460.857422 157.415037,460.896484 157.825195,460.896484 C158.671554,460.896484 159.330727,460.710939 159.802734,460.339844 C160.274742,459.968748 160.510742,459.337244 160.510742,458.445312 L160.510742,451.287109 L162.151367,451.287109 L162.151367,458.425781 C162.151367,458.972659 162.073243,459.464191 161.916992,459.900391 C161.760741,460.336591 161.550783,460.699543 161.287109,460.989258 C161.023436,461.278973 160.706057,461.518228 160.334961,461.707031 C159.963865,461.895834 159.571617,462.032552 159.158203,462.117188 C158.74479,462.201823 158.300458,462.244141 157.825195,462.244141 C157.356443,462.244141 156.913739,462.201823 156.49707,462.117188 C156.080402,462.032552 155.684898,461.894207 155.310547,461.702148 C154.936196,461.51009 154.613934,461.269207 154.34375,460.979492 C154.073566,460.689777 153.860352,460.326825 153.704102,459.890625 C153.547851,459.454425 153.469727,458.966149 153.469727,458.425781 Z M168.000977,462.195312 C166.946284,462.195312 166.197593,461.938154 165.754883,461.423828 C165.312172,460.909503 165.0778,460.079433 165.051758,458.933594 L165.051758,452.498047 L163.459961,452.498047 L163.52832,451.423828 L165.041992,451.287109 L165.598633,448.835938 L166.672852,448.796875 L166.672852,451.287109 L169.651367,451.287109 L169.651367,452.498047 L166.672852,452.498047 L166.672852,458.640625 C166.672852,459.454431 166.796548,460.027342 167.043945,460.359375 C167.291342,460.691408 167.714515,460.857422 168.313477,460.857422 L168.472461,460.851172 C168.724544,460.834505 169.137041,460.784506 169.709961,460.701172 L169.77832,461.990234 C169.003577,462.126954 168.411135,462.195312 168.000977,462.195312 Z M117.483398,487 L117.483398,476.287109 L118.850586,476.287109 L119.055664,477.820312 C119.478843,477.292966 120.007809,476.868166 120.642578,476.545898 C121.277347,476.223631 121.962561,476.0625 122.698242,476.0625 C123.935228,476.0625 124.849932,476.409176 125.442383,477.102539 C126.034834,477.795902 126.331055,478.861972 126.331055,480.300781 L126.331055,487 L124.700195,487 L124.69043,480.095703 L124.69043,480.095703 C124.664388,479.18424 124.48047,478.516929 124.138672,478.09375 C123.796873,477.670571 123.22559,477.458984 122.424805,477.458984 C121.584957,477.458984 120.885094,477.660805 120.325195,478.064453 C119.765297,478.468101 119.400717,478.992184 119.231445,479.636719 C119.166341,480.072919 119.133789,480.574216 119.133789,481.140625 L119.133789,487 L117.483398,487 Z M130.237305,481.667969 C130.237305,482.937506 130.518877,483.954749 131.082031,484.719727 C131.645185,485.484704 132.467117,485.867188 133.547852,485.867188 C134.615565,485.867188 135.421221,485.486332 135.964844,484.724609 C136.508466,483.962887 136.780273,482.937506 136.780273,481.648438 C136.780273,480.339837 136.511721,479.309574 135.974609,478.557617 C135.437497,477.80566 134.618821,477.429688 133.518555,477.429688 C132.450841,477.429688 131.637047,477.813798 131.077148,478.582031 C130.51725,479.350264 130.237305,480.3789 130.237305,481.667969 Z M138.469727,481.638672 C138.469727,483.298836 138.027023,484.644852 137.141602,485.676758 C136.25618,486.708664 135.032234,487.224609 133.469727,487.224609 C131.965813,487.224609 130.769536,486.703781 129.880859,485.662109 C128.992183,484.620437 128.547852,483.28256 128.547852,481.648438 C128.547852,479.981763 128.993811,478.63412 129.885742,477.605469 C130.777674,476.576818 132.00162,476.0625 133.557617,476.0625 C135.087573,476.0625 136.288733,476.578445 137.161133,477.610352 C138.033533,478.642258 138.469727,479.985018 138.469727,481.638672 Z M144.954102,485.818359 C146.028326,485.818359 146.827471,485.473311 147.351562,484.783203 C147.875654,484.093096 148.137695,483.106777 148.137695,481.824219 C148.137695,480.378899 147.885419,479.290043 147.380859,478.557617 C146.8763,477.825192 146.060878,477.458984 144.93457,477.458984 C144.433266,477.458984 143.990562,477.566405 143.606445,477.78125 C143.222329,477.996095 142.913087,478.295571 142.678711,478.679688 C142.444335,479.063804 142.266928,479.50488 142.146484,480.00293 C142.026041,480.500979 141.96582,481.046221 141.96582,481.638672 C141.96582,482.472009 142.068358,483.194658 142.273438,483.806641 C142.478517,484.418623 142.808917,484.906899 143.264648,485.271484 C143.72038,485.63607 144.283525,485.818359 144.954102,485.818359 Z M148.166992,485.447266 C147.815428,485.987633 147.346683,486.417316 146.760742,486.736328 C146.174802,487.05534 145.520511,487.214844 144.797852,487.214844 C143.385084,487.214844 142.278324,486.711919 141.477539,485.706055 C140.676754,484.70019 140.276367,483.331389 140.276367,481.599609 C140.276367,479.945955 140.683264,478.609706 141.49707,477.59082 C142.310876,476.571935 143.40136,476.0625 144.768555,476.0625 C145.478194,476.0625 146.147132,476.217121 146.775391,476.526367 C147.403649,476.835614 147.874022,477.250648 148.186523,477.771484 L148.157227,476.84375 L148.157227,472.126953 L149.768555,472.029297 L149.768555,487 L148.381836,487 L148.166992,485.447266 Z M158.772461,478.269531 C158.297198,477.696612 157.642908,477.410156 156.80957,477.410156 C155.976233,477.410156 155.295901,477.70475 154.768555,478.293945 C154.241208,478.883141 153.931967,479.688797 153.84082,480.710938 L159.495117,480.710938 C159.495117,479.649734 159.254234,478.83594 158.772461,478.269531 Z M157.131836,487.224609 C155.575839,487.224609 154.350265,486.729823 153.455078,485.740234 C152.559891,484.750646 152.112305,483.396493 152.112305,481.677734 C152.112305,480.01757 152.545243,478.671555 153.411133,477.639648 C154.277023,476.607742 155.416334,476.082031 156.829102,476.0625 C158.157233,476.0625 159.210283,476.516597 159.988281,477.424805 C160.714413,478.272465 161.101679,479.385244 161.150087,480.763171 L161.155078,481.117188 L161.155078,481.117188 L161.145508,481.941406 L161.145508,481.941406 L153.791992,481.941406 C153.811524,483.15886 154.125648,484.107744 154.734375,484.788086 C155.343102,485.468428 156.161779,485.808594 157.19043,485.808594 C158.323248,485.808594 159.459304,485.509118 160.598633,484.910156 L160.852539,486.228516 C159.765294,486.892581 158.525072,487.224609 157.131836,487.224609 Z M168.118164,487 L167.893555,485.398438 L172.942383,479.792969 C173.280926,479.415363 173.608071,478.927086 173.923828,478.328125 C174.194477,477.81473 174.401746,477.368304 174.545639,476.98884 L174.836914,476.189453 C174.836914,475.382157 174.612307,474.755536 174.163086,474.30957 C173.713865,473.863605 173.07585,473.640625 172.249023,473.640625 C170.868808,473.640625 169.781579,474.041012 168.987305,474.841797 L168.420898,473.376953 C169.31934,472.530595 170.634431,472.107422 172.366211,472.107422 C173.694343,472.107422 174.752275,472.467119 175.540039,473.186523 C176.327803,473.905928 176.72168,474.867833 176.72168,476.072266 L176.641113,476.329529 L176.641113,476.329529 L176.554138,476.580383 C176.492493,476.74945 176.396973,476.999998 176.267578,477.332031 C176.095051,477.774742 175.914389,478.194659 175.725586,478.591797 C175.536783,478.988934 175.297527,479.425128 175.007812,479.900391 C174.718098,480.375653 174.423504,480.772785 174.124023,481.091797 L170.00293,485.496094 L176.770508,485.496094 L176.663086,487 L168.118164,487 Z" id="Inputnode2" fill="#FFFFFF" fill-rule="nonzero"></path>
        <path d="M1046.83447,457.618164 C1046.83447,460.030285 1047.38883,461.923984 1048.49756,463.299316 C1049.60629,464.674649 1051.24397,465.362305 1053.41064,465.362305 C1055.57732,465.362305 1057.20865,464.676765 1058.30469,463.305664 C1059.40072,461.934563 1059.94873,460.038749 1059.94873,457.618164 C1059.94873,455.146798 1059.39649,453.229825 1058.29199,451.867188 C1057.18749,450.50455 1055.56463,449.823242 1053.42334,449.823242 C1051.28205,449.823242 1049.64861,450.50455 1048.52295,451.867188 C1047.39729,453.229825 1046.83447,455.146798 1046.83447,457.618164 Z M1062.29736,457.618164 C1062.29736,459.04851 1062.10059,460.356114 1061.70703,461.541016 C1061.31347,462.725917 1060.74642,463.743648 1060.00586,464.594238 C1059.2653,465.444828 1058.3322,466.104978 1057.20654,466.574707 C1056.08089,467.044436 1054.8156,467.279297 1053.41064,467.279297 C1051.5148,467.279297 1049.89193,466.875167 1048.54199,466.066895 C1047.19205,465.258622 1046.18067,464.132982 1045.50781,462.689941 C1044.83496,461.2469 1044.49854,459.552093 1044.49854,457.605469 C1044.49854,454.600896 1045.2814,452.231128 1046.84717,450.496094 C1048.41293,448.761059 1050.60497,447.893555 1053.42334,447.893555 C1056.1994,447.893555 1058.37239,448.767407 1059.94238,450.515137 C1061.51238,452.262867 1062.29736,454.630519 1062.29736,457.618164 Z M1065.05225,462.353516 L1065.05225,453.073242 L1067.18506,453.073242 L1067.18506,462.378906 C1067.18506,462.988284 1067.27181,463.504555 1067.44531,463.927734 C1067.61882,464.350914 1067.86849,464.678873 1068.19434,464.911621 C1068.52018,465.14437 1068.88834,465.311523 1069.29883,465.413086 C1069.70931,465.514649 1070.18115,465.56543 1070.71436,465.56543 C1071.81462,465.56543 1072.67155,465.324221 1073.28516,464.841797 C1073.89877,464.359373 1074.20557,463.538417 1074.20557,462.378906 L1074.20557,453.073242 L1076.33838,453.073242 L1076.33838,462.353516 C1076.33838,463.064457 1076.23682,463.703448 1076.03369,464.270508 C1075.83057,464.837568 1075.55762,465.309406 1075.21484,465.686035 C1074.87207,466.062665 1074.45948,466.373697 1073.97705,466.619141 C1073.49463,466.864585 1072.9847,467.042317 1072.44727,467.152344 C1071.90983,467.26237 1071.3322,467.317383 1070.71436,467.317383 C1070.10498,467.317383 1069.52946,467.26237 1068.98779,467.152344 C1068.44612,467.042317 1067.93197,466.862469 1067.44531,466.612793 C1066.95866,466.363117 1066.53972,466.049969 1066.18848,465.67334 C1065.83724,465.29671 1065.56006,464.824873 1065.35693,464.257812 C1065.15381,463.690752 1065.05225,463.055993 1065.05225,462.353516 Z M1083.94287,467.253906 C1082.57177,467.253906 1081.59847,466.9196 1081.02295,466.250977 C1080.44743,465.582353 1080.14274,464.503263 1080.10889,463.013672 L1080.10889,454.647461 L1078.03955,454.647461 L1078.12842,453.250977 L1080.09619,453.073242 L1080.81982,449.886719 L1082.21631,449.835938 L1082.21631,453.073242 L1086.08838,453.073242 L1086.08838,454.647461 L1082.21631,454.647461 L1082.21631,462.632812 C1082.21631,463.69076 1082.37711,464.435545 1082.69873,464.867188 C1083.02035,465.29883 1083.57047,465.514648 1084.34912,465.514648 L1084.51592,465.509006 C1084.83918,465.490198 1085.38872,465.424371 1086.16455,465.311523 L1086.25342,466.987305 L1085.67756,467.083282 C1084.94766,467.197032 1084.36944,467.253906 1083.94287,467.253906 Z M1088.51318,473.042969 L1088.51318,453.073242 L1090.37939,453.073242 L1090.58252,454.964844 C1091.80128,453.509107 1093.26545,452.78125 1094.9751,452.78125 C1096.24464,452.78125 1097.31949,453.09863 1098.19971,453.733398 C1099.07992,454.368167 1099.72949,455.227208 1100.14844,456.310547 C1100.56738,457.393886 1100.77686,458.659172 1100.77686,460.106445 C1100.77686,461.494473 1100.54834,462.728022 1100.09131,463.807129 C1099.63428,464.886236 1098.96355,465.736813 1098.0791,466.358887 C1097.19466,466.98096 1096.16,467.291992 1094.9751,467.291992 C1094.07796,467.291992 1093.23584,467.090985 1092.44873,466.688965 C1091.66162,466.286945 1091.03109,465.755863 1090.55713,465.095703 C1090.60791,466.00977 1090.6333,466.898433 1090.6333,467.761719 L1090.6333,472.90332 L1088.51318,473.042969 Z M1094.68311,465.501953 C1095.32634,465.501953 1095.90185,465.355958 1096.40967,465.063965 C1096.91748,464.771971 1097.32796,464.372073 1097.64111,463.864258 C1097.95427,463.356443 1098.19124,462.778812 1098.35205,462.131348 C1098.51286,461.483883 1098.59326,460.783532 1098.59326,460.030273 C1098.59326,458.43912 1098.25896,457.133631 1097.59033,456.11377 C1096.92171,455.093908 1095.94418,454.583984 1094.65771,454.583984 C1091.9663,454.583984 1090.62061,456.323225 1090.62061,459.801758 C1090.62061,461.689137 1090.93587,463.110998 1091.56641,464.067383 C1092.19694,465.023768 1093.23583,465.501953 1094.68311,465.501953 Z M1103.27783,462.353516 L1103.27783,453.073242 L1105.41064,453.073242 L1105.41064,462.378906 C1105.41064,462.988284 1105.49739,463.504555 1105.6709,463.927734 C1105.8444,464.350914 1106.09407,464.678873 1106.41992,464.911621 C1106.74577,465.14437 1107.11393,465.311523 1107.52441,465.413086 C1107.9349,465.514649 1108.40674,465.56543 1108.93994,465.56543 C1110.04021,465.56543 1110.89713,465.324221 1111.51074,464.841797 C1112.12435,464.359373 1112.43115,463.538417 1112.43115,462.378906 L1112.43115,453.073242 L1114.56396,453.073242 L1114.56396,462.353516 C1114.56396,463.064457 1114.4624,463.703448 1114.25928,464.270508 C1114.05615,464.837568 1113.7832,465.309406 1113.44043,465.686035 C1113.09765,466.062665 1112.68506,466.373697 1112.20264,466.619141 C1111.72021,466.864585 1111.21029,467.042317 1110.67285,467.152344 C1110.13541,467.26237 1109.55778,467.317383 1108.93994,467.317383 C1108.33056,467.317383 1107.75505,467.26237 1107.21338,467.152344 C1106.67171,467.042317 1106.15755,466.862469 1105.6709,466.612793 C1105.18424,466.363117 1104.7653,466.049969 1104.41406,465.67334 C1104.06282,465.29671 1103.78565,464.824873 1103.58252,464.257812 C1103.37939,463.690752 1103.27783,463.055993 1103.27783,462.353516 Z M1122.16846,467.253906 C1120.79736,467.253906 1119.82406,466.9196 1119.24854,466.250977 C1118.67301,465.582353 1118.36833,464.503263 1118.33447,463.013672 L1118.33447,454.647461 L1116.26514,454.647461 L1116.354,453.250977 L1118.32178,453.073242 L1119.04541,449.886719 L1120.44189,449.835938 L1120.44189,453.073242 L1124.31396,453.073242 L1124.31396,454.647461 L1120.44189,454.647461 L1120.44189,462.632812 C1120.44189,463.69076 1120.6027,464.435545 1120.92432,464.867188 C1121.24593,465.29883 1121.79606,465.514648 1122.57471,465.514648 L1122.74151,465.509006 C1123.06477,465.490198 1123.61431,465.424371 1124.39014,465.311523 L1124.479,466.987305 L1123.90314,467.083282 C1123.17325,467.197032 1122.59502,467.253906 1122.16846,467.253906 Z" id="Output" fill="#FFFFFF" fill-rule="nonzero"></path>
        <path d="M1032.5,460 L1018.5,453 L1018.5,467 L1032.5,460 Z M935,461 L1019.5,461 L1020.5,461 L1020.5,459 L1019.5,459 L935,459 L934,459 L934,461 L935,461 Z" id="Line-2-Copy-3" fill="#FFFFFF" fill-rule="nonzero"></path>
        <path d="M466.645508,664 L464.956055,664 L464.956055,657.242188 L457.202148,657.242188 L457.202148,664 L455.512695,664 L455.512695,649.556641 L457.202148,649.556641 L457.202148,655.757812 L464.956055,655.757812 L464.956055,649.556641 L466.645508,649.556641 L466.645508,664 Z M471.665039,653.287109 L471.665039,664 L470.024414,664 L470.024414,653.287109 L471.665039,653.287109 Z M471.665039,649.390625 L471.665039,651.324219 L470.024414,651.324219 L470.024414,649.390625 L471.665039,649.390625 Z M478.911133,662.818359 C479.985357,662.818359 480.784503,662.473311 481.308594,661.783203 C481.832685,661.093096 482.094727,660.106777 482.094727,658.824219 C482.094727,657.378899 481.84245,656.290043 481.337891,655.557617 C480.833331,654.825192 480.017909,654.458984 478.891602,654.458984 C478.390297,654.458984 477.947593,654.566405 477.563477,654.78125 C477.17936,654.996095 476.870118,655.295571 476.635742,655.679688 C476.401366,656.063804 476.223959,656.50488 476.103516,657.00293 C475.983072,657.500979 475.922852,658.046221 475.922852,658.638672 C475.922852,659.472009 476.02539,660.194658 476.230469,660.806641 C476.435548,661.418623 476.765948,661.906899 477.22168,662.271484 C477.677411,662.63607 478.240557,662.818359 478.911133,662.818359 Z M482.124023,662.447266 C481.772459,662.987633 481.303714,663.417316 480.717773,663.736328 C480.131833,664.05534 479.477543,664.214844 478.754883,664.214844 C477.342115,664.214844 476.235356,663.711919 475.43457,662.706055 C474.633785,661.70019 474.233398,660.331389 474.233398,658.599609 C474.233398,656.945955 474.640295,655.609706 475.454102,654.59082 C476.267908,653.571935 477.358392,653.0625 478.725586,653.0625 C479.435225,653.0625 480.104164,653.217121 480.732422,653.526367 C481.36068,653.835614 481.831053,654.250648 482.143555,654.771484 L482.114258,653.84375 L482.114258,649.126953 L483.725586,649.029297 L483.725586,664 L482.338867,664 L482.124023,662.447266 Z M490.737305,662.818359 C491.811529,662.818359 492.610674,662.473311 493.134766,661.783203 C493.658857,661.093096 493.920898,660.106777 493.920898,658.824219 C493.920898,657.378899 493.668622,656.290043 493.164062,655.557617 C492.659503,654.825192 491.844081,654.458984 490.717773,654.458984 C490.216469,654.458984 489.773765,654.566405 489.389648,654.78125 C489.005532,654.996095 488.69629,655.295571 488.461914,655.679688 C488.227538,656.063804 488.050131,656.50488 487.929688,657.00293 C487.809244,657.500979 487.749023,658.046221 487.749023,658.638672 C487.749023,659.472009 487.851561,660.194658 488.056641,660.806641 C488.26172,661.418623 488.59212,661.906899 489.047852,662.271484 C489.503583,662.63607 490.066728,662.818359 490.737305,662.818359 Z M493.950195,662.447266 C493.598631,662.987633 493.129886,663.417316 492.543945,663.736328 C491.958005,664.05534 491.303715,664.214844 490.581055,664.214844 C489.168287,664.214844 488.061527,663.711919 487.260742,662.706055 C486.459957,661.70019 486.05957,660.331389 486.05957,658.599609 C486.05957,656.945955 486.466467,655.609706 487.280273,654.59082 C488.09408,653.571935 489.184563,653.0625 490.551758,653.0625 C491.261397,653.0625 491.930335,653.217121 492.558594,653.526367 C493.186852,653.835614 493.657225,654.250648 493.969727,654.771484 L493.94043,653.84375 L493.94043,649.126953 L495.551758,649.029297 L495.551758,664 L494.165039,664 L493.950195,662.447266 Z M504.555664,655.269531 C504.080401,654.696612 503.426111,654.410156 502.592773,654.410156 C501.759436,654.410156 501.079104,654.70475 500.551758,655.293945 C500.024411,655.883141 499.71517,656.688797 499.624023,657.710938 L505.27832,657.710938 C505.27832,656.649734 505.037437,655.83594 504.555664,655.269531 Z M502.915039,664.224609 C501.359042,664.224609 500.133468,663.729823 499.238281,662.740234 C498.343094,661.750646 497.895508,660.396493 497.895508,658.677734 C497.895508,657.01757 498.328446,655.671555 499.194336,654.639648 C500.060226,653.607742 501.199537,653.082031 502.612305,653.0625 C503.940436,653.0625 504.993486,653.516597 505.771484,654.424805 C506.497616,655.272465 506.884882,656.385244 506.93329,657.763171 L506.938281,658.117188 L506.938281,658.117188 L506.928711,658.941406 L506.928711,658.941406 L499.575195,658.941406 C499.594727,660.15886 499.908851,661.107744 500.517578,661.788086 C501.126305,662.468428 501.944982,662.808594 502.973633,662.808594 C504.106451,662.808594 505.242507,662.509118 506.381836,661.910156 L506.635742,663.228516 C505.548497,663.892581 504.308275,664.224609 502.915039,664.224609 Z M509.204102,664 L509.204102,653.287109 L510.571289,653.287109 L510.776367,654.820312 C511.199546,654.292966 511.728512,653.868166 512.363281,653.545898 C512.99805,653.223631 513.683265,653.0625 514.418945,653.0625 C515.655931,653.0625 516.570635,653.409176 517.163086,654.102539 C517.755537,654.795902 518.051758,655.861972 518.051758,657.300781 L518.051758,664 L516.420898,664 L516.411133,657.095703 L516.411133,657.095703 C516.385091,656.18424 516.201174,655.516929 515.859375,655.09375 C515.517576,654.670571 514.946293,654.458984 514.145508,654.458984 C513.30566,654.458984 512.605797,654.660805 512.045898,655.064453 C511.486,655.468101 511.12142,655.992184 510.952148,656.636719 C510.887044,657.072919 510.854492,657.574216 510.854492,658.140625 L510.854492,664 L509.204102,664 Z M525.756836,664 L525.756836,653.287109 L527.124023,653.287109 L527.329102,654.820312 C527.752281,654.292966 528.281247,653.868166 528.916016,653.545898 C529.550784,653.223631 530.235999,653.0625 530.97168,653.0625 C532.208665,653.0625 533.123369,653.409176 533.71582,654.102539 C534.308271,654.795902 534.604492,655.861972 534.604492,657.300781 L534.604492,664 L532.973633,664 L532.963867,657.095703 L532.963867,657.095703 C532.937825,656.18424 532.753908,655.516929 532.412109,655.09375 C532.070311,654.670571 531.499027,654.458984 530.698242,654.458984 C529.858394,654.458984 529.158531,654.660805 528.598633,655.064453 C528.038734,655.468101 527.674154,655.992184 527.504883,656.636719 C527.439778,657.072919 527.407227,657.574216 527.407227,658.140625 L527.407227,664 L525.756836,664 Z M538.510742,658.667969 C538.510742,659.937506 538.792315,660.954749 539.355469,661.719727 C539.918623,662.484704 540.740554,662.867188 541.821289,662.867188 C542.889003,662.867188 543.694659,662.486332 544.238281,661.724609 C544.781904,660.962887 545.053711,659.937506 545.053711,658.648438 C545.053711,657.339837 544.785159,656.309574 544.248047,655.557617 C543.710935,654.80566 542.892258,654.429688 541.791992,654.429688 C540.724279,654.429688 539.910485,654.813798 539.350586,655.582031 C538.790687,656.350264 538.510742,657.3789 538.510742,658.667969 Z M546.743164,658.638672 C546.743164,660.298836 546.30046,661.644852 545.415039,662.676758 C544.529618,663.708664 543.305672,664.224609 541.743164,664.224609 C540.23925,664.224609 539.042973,663.703781 538.154297,662.662109 C537.265621,661.620437 536.821289,660.28256 536.821289,658.648438 C536.821289,656.981763 537.267248,655.63412 538.15918,654.605469 C539.051111,653.576818 540.275057,653.0625 541.831055,653.0625 C543.36101,653.0625 544.56217,653.578445 545.43457,654.610352 C546.306971,655.642258 546.743164,656.985018 546.743164,658.638672 Z M553.227539,662.818359 C554.301763,662.818359 555.100909,662.473311 555.625,661.783203 C556.149091,661.093096 556.411133,660.106777 556.411133,658.824219 C556.411133,657.378899 556.158857,656.290043 555.654297,655.557617 C555.149737,654.825192 554.334316,654.458984 553.208008,654.458984 C552.706703,654.458984 552.263999,654.566405 551.879883,654.78125 C551.495766,654.996095 551.186525,655.295571 550.952148,655.679688 C550.717772,656.063804 550.540365,656.50488 550.419922,657.00293 C550.299479,657.500979 550.239258,658.046221 550.239258,658.638672 C550.239258,659.472009 550.341796,660.194658 550.546875,660.806641 C550.751954,661.418623 551.082354,661.906899 551.538086,662.271484 C551.993817,662.63607 552.556963,662.818359 553.227539,662.818359 Z M556.44043,662.447266 C556.088865,662.987633 555.62012,663.417316 555.03418,663.736328 C554.448239,664.05534 553.793949,664.214844 553.071289,664.214844 C551.658522,664.214844 550.551762,663.711919 549.750977,662.706055 C548.950191,661.70019 548.549805,660.331389 548.549805,658.599609 C548.549805,656.945955 548.956702,655.609706 549.770508,654.59082 C550.584314,653.571935 551.674798,653.0625 553.041992,653.0625 C553.751631,653.0625 554.42057,653.217121 555.048828,653.526367 C555.677086,653.835614 556.147459,654.250648 556.459961,654.771484 L556.430664,653.84375 L556.430664,649.126953 L558.041992,649.029297 L558.041992,664 L556.655273,664 L556.44043,662.447266 Z M567.045898,655.269531 C566.570636,654.696612 565.916345,654.410156 565.083008,654.410156 C564.24967,654.410156 563.569339,654.70475 563.041992,655.293945 C562.514646,655.883141 562.205404,656.688797 562.114258,657.710938 L567.768555,657.710938 C567.768555,656.649734 567.527672,655.83594 567.045898,655.269531 Z M565.405273,664.224609 C563.849276,664.224609 562.623702,663.729823 561.728516,662.740234 C560.833329,661.750646 560.385742,660.396493 560.385742,658.677734 C560.385742,657.01757 560.818681,655.671555 561.68457,654.639648 C562.55046,653.607742 563.689772,653.082031 565.102539,653.0625 C566.430671,653.0625 567.48372,653.516597 568.261719,654.424805 C568.987851,655.272465 569.375116,656.385244 569.423524,657.763171 L569.428516,658.117188 L569.428516,658.117188 L569.418945,658.941406 L569.418945,658.941406 L562.06543,658.941406 C562.084961,660.15886 562.399085,661.107744 563.007812,661.788086 C563.61654,662.468428 564.435216,662.808594 565.463867,662.808594 C566.596685,662.808594 567.732742,662.509118 568.87207,661.910156 L569.125977,663.228516 C568.038732,663.892581 566.79851,664.224609 565.405273,664.224609 Z M576.391602,664 L576.166992,662.398438 L581.21582,656.792969 C581.554364,656.415363 581.881509,655.927086 582.197266,655.328125 C582.467914,654.81473 582.675183,654.368304 582.819077,653.98884 L583.110352,653.189453 C583.110352,652.382157 582.885744,651.755536 582.436523,651.30957 C581.987302,650.863605 581.349288,650.640625 580.522461,650.640625 C579.142246,650.640625 578.055017,651.041012 577.260742,651.841797 L576.694336,650.376953 C577.592778,649.530595 578.907869,649.107422 580.639648,649.107422 C581.96778,649.107422 583.025712,649.467119 583.813477,650.186523 C584.601241,650.905928 584.995117,651.867833 584.995117,653.072266 L584.914551,653.329529 L584.914551,653.329529 L584.827576,653.580383 C584.76593,653.74945 584.670411,653.999998 584.541016,654.332031 C584.368489,654.774742 584.187826,655.194659 583.999023,655.591797 C583.81022,655.988934 583.570965,656.425128 583.28125,656.900391 C582.991535,657.375653 582.696942,657.772785 582.397461,658.091797 L578.276367,662.496094 L585.043945,662.496094 L584.936523,664 L576.391602,664 Z" id="Hiddennode2" fill="#FFFFFF" fill-rule="nonzero"></path>
        <path d="M469.038086,451 L467.348633,451 L467.348633,444.242188 L459.594727,444.242188 L459.594727,451 L457.905273,451 L457.905273,436.556641 L459.594727,436.556641 L459.594727,442.757812 L467.348633,442.757812 L467.348633,436.556641 L469.038086,436.556641 L469.038086,451 Z M474.057617,440.287109 L474.057617,451 L472.416992,451 L472.416992,440.287109 L474.057617,440.287109 Z M474.057617,436.390625 L474.057617,438.324219 L472.416992,438.324219 L472.416992,436.390625 L474.057617,436.390625 Z M481.303711,449.818359 C482.377935,449.818359 483.177081,449.473311 483.701172,448.783203 C484.225263,448.093096 484.487305,447.106777 484.487305,445.824219 C484.487305,444.378899 484.235029,443.290043 483.730469,442.557617 C483.225909,441.825192 482.410487,441.458984 481.28418,441.458984 C480.782875,441.458984 480.340171,441.566405 479.956055,441.78125 C479.571938,441.996095 479.262696,442.295571 479.02832,442.679688 C478.793944,443.063804 478.616537,443.50488 478.496094,444.00293 C478.37565,444.500979 478.31543,445.046221 478.31543,445.638672 C478.31543,446.472009 478.417968,447.194658 478.623047,447.806641 C478.828126,448.418623 479.158526,448.906899 479.614258,449.271484 C480.069989,449.63607 480.633135,449.818359 481.303711,449.818359 Z M484.516602,449.447266 C484.165037,449.987633 483.696292,450.417316 483.110352,450.736328 C482.524411,451.05534 481.870121,451.214844 481.147461,451.214844 C479.734693,451.214844 478.627934,450.711919 477.827148,449.706055 C477.026363,448.70019 476.625977,447.331389 476.625977,445.599609 C476.625977,443.945955 477.032874,442.609706 477.84668,441.59082 C478.660486,440.571935 479.75097,440.0625 481.118164,440.0625 C481.827803,440.0625 482.496742,440.217121 483.125,440.526367 C483.753258,440.835614 484.223631,441.250648 484.536133,441.771484 L484.506836,440.84375 L484.506836,436.126953 L486.118164,436.029297 L486.118164,451 L484.731445,451 L484.516602,449.447266 Z M493.129883,449.818359 C494.204107,449.818359 495.003253,449.473311 495.527344,448.783203 C496.051435,448.093096 496.313477,447.106777 496.313477,445.824219 C496.313477,444.378899 496.0612,443.290043 495.556641,442.557617 C495.052081,441.825192 494.236659,441.458984 493.110352,441.458984 C492.609047,441.458984 492.166343,441.566405 491.782227,441.78125 C491.39811,441.996095 491.088868,442.295571 490.854492,442.679688 C490.620116,443.063804 490.442709,443.50488 490.322266,444.00293 C490.201822,444.500979 490.141602,445.046221 490.141602,445.638672 C490.141602,446.472009 490.24414,447.194658 490.449219,447.806641 C490.654298,448.418623 490.984698,448.906899 491.44043,449.271484 C491.896161,449.63607 492.459307,449.818359 493.129883,449.818359 Z M496.342773,449.447266 C495.991209,449.987633 495.522464,450.417316 494.936523,450.736328 C494.350583,451.05534 493.696293,451.214844 492.973633,451.214844 C491.560865,451.214844 490.454106,450.711919 489.65332,449.706055 C488.852535,448.70019 488.452148,447.331389 488.452148,445.599609 C488.452148,443.945955 488.859045,442.609706 489.672852,441.59082 C490.486658,440.571935 491.577142,440.0625 492.944336,440.0625 C493.653975,440.0625 494.322914,440.217121 494.951172,440.526367 C495.57943,440.835614 496.049803,441.250648 496.362305,441.771484 L496.333008,440.84375 L496.333008,436.126953 L497.944336,436.029297 L497.944336,451 L496.557617,451 L496.342773,449.447266 Z M506.948242,442.269531 C506.472979,441.696612 505.818689,441.410156 504.985352,441.410156 C504.152014,441.410156 503.471682,441.70475 502.944336,442.293945 C502.41699,442.883141 502.107748,443.688797 502.016602,444.710938 L507.670898,444.710938 C507.670898,443.649734 507.430015,442.83594 506.948242,442.269531 Z M505.307617,451.224609 C503.75162,451.224609 502.526046,450.729823 501.630859,449.740234 C500.735673,448.750646 500.288086,447.396493 500.288086,445.677734 C500.288086,444.01757 500.721024,442.671555 501.586914,441.639648 C502.452804,440.607742 503.592115,440.082031 505.004883,440.0625 C506.333014,440.0625 507.386064,440.516597 508.164062,441.424805 C508.942061,442.333012 509.331055,443.545565 509.331055,445.0625 L509.321289,445.941406 L509.321289,445.941406 L501.967773,445.941406 C501.987305,447.15886 502.301429,448.107744 502.910156,448.788086 C503.518883,449.468428 504.33756,449.808594 505.366211,449.808594 C506.499029,449.808594 507.635085,449.509118 508.774414,448.910156 L509.02832,450.228516 C507.941075,450.892581 506.700853,451.224609 505.307617,451.224609 Z M511.59668,451 L511.59668,440.287109 L512.963867,440.287109 L513.168945,441.820312 C513.592125,441.292966 514.121091,440.868166 514.755859,440.545898 C515.390628,440.223631 516.075843,440.0625 516.811523,440.0625 C518.048509,440.0625 518.963213,440.409176 519.555664,441.102539 C520.148115,441.795902 520.444336,442.861972 520.444336,444.300781 L520.444336,451 L518.813477,451 L518.803711,444.095703 L518.803711,444.095703 C518.777669,443.18424 518.593752,442.516929 518.251953,442.09375 C517.910155,441.670571 517.338871,441.458984 516.538086,441.458984 C515.698238,441.458984 514.998375,441.660805 514.438477,442.064453 C513.878578,442.468101 513.513998,442.992184 513.344727,443.636719 C513.279622,444.072919 513.24707,444.574216 513.24707,445.140625 L513.24707,451 L511.59668,451 Z M528.149414,451 L528.149414,440.287109 L529.516602,440.287109 L529.72168,441.820312 C530.144859,441.292966 530.673825,440.868166 531.308594,440.545898 C531.943363,440.223631 532.628577,440.0625 533.364258,440.0625 C534.601243,440.0625 535.515948,440.409176 536.108398,441.102539 C536.700849,441.795902 536.99707,442.861972 536.99707,444.300781 L536.99707,451 L535.366211,451 L535.356445,444.095703 L535.356445,444.095703 C535.330404,443.18424 535.146486,442.516929 534.804688,442.09375 C534.462889,441.670571 533.891606,441.458984 533.09082,441.458984 C532.250972,441.458984 531.55111,441.660805 530.991211,442.064453 C530.431312,442.468101 530.066733,442.992184 529.897461,443.636719 C529.832356,444.072919 529.799805,444.574216 529.799805,445.140625 L529.799805,451 L528.149414,451 Z M540.90332,445.667969 C540.90332,446.937506 541.184893,447.954749 541.748047,448.719727 C542.311201,449.484704 543.133133,449.867188 544.213867,449.867188 C545.281581,449.867188 546.087237,449.486332 546.630859,448.724609 C547.174482,447.962887 547.446289,446.937506 547.446289,445.648438 C547.446289,444.339837 547.177737,443.309574 546.640625,442.557617 C546.103513,441.80566 545.284836,441.429688 544.18457,441.429688 C543.116857,441.429688 542.303063,441.813798 541.743164,442.582031 C541.183265,443.350264 540.90332,444.3789 540.90332,445.667969 Z M549.135742,445.638672 C549.135742,447.298836 548.693038,448.644852 547.807617,449.676758 C546.922196,450.708664 545.69825,451.224609 544.135742,451.224609 C542.631828,451.224609 541.435551,450.703781 540.546875,449.662109 C539.658199,448.620437 539.213867,447.28256 539.213867,445.648438 C539.213867,443.981763 539.659826,442.63412 540.551758,441.605469 C541.443689,440.576818 542.667635,440.0625 544.223633,440.0625 C545.753588,440.0625 546.954748,440.578445 547.827148,441.610352 C548.699549,442.642258 549.135742,443.985018 549.135742,445.638672 Z M555.620117,449.818359 C556.694341,449.818359 557.493487,449.473311 558.017578,448.783203 C558.541669,448.093096 558.803711,447.106777 558.803711,445.824219 C558.803711,444.378899 558.551435,443.290043 558.046875,442.557617 C557.542315,441.825192 556.726894,441.458984 555.600586,441.458984 C555.099281,441.458984 554.656577,441.566405 554.272461,441.78125 C553.888344,441.996095 553.579103,442.295571 553.344727,442.679688 C553.11035,443.063804 552.932943,443.50488 552.8125,444.00293 C552.692057,444.500979 552.631836,445.046221 552.631836,445.638672 C552.631836,446.472009 552.734374,447.194658 552.939453,447.806641 C553.144532,448.418623 553.474933,448.906899 553.930664,449.271484 C554.386396,449.63607 554.949541,449.818359 555.620117,449.818359 Z M558.833008,449.447266 C558.481444,449.987633 558.012698,450.417316 557.426758,450.736328 C556.840817,451.05534 556.186527,451.214844 555.463867,451.214844 C554.0511,451.214844 552.94434,450.711919 552.143555,449.706055 C551.342769,448.70019 550.942383,447.331389 550.942383,445.599609 C550.942383,443.945955 551.34928,442.609706 552.163086,441.59082 C552.976892,440.571935 554.067376,440.0625 555.43457,440.0625 C556.144209,440.0625 556.813148,440.217121 557.441406,440.526367 C558.069665,440.835614 558.540038,441.250648 558.852539,441.771484 L558.823242,440.84375 L558.823242,436.126953 L560.43457,436.029297 L560.43457,451 L559.047852,451 L558.833008,449.447266 Z M569.438477,442.269531 C568.963214,441.696612 568.308923,441.410156 567.475586,441.410156 C566.642248,441.410156 565.961917,441.70475 565.43457,442.293945 C564.907224,442.883141 564.597982,443.688797 564.506836,444.710938 L570.161133,444.710938 C570.161133,443.649734 569.92025,442.83594 569.438477,442.269531 Z M567.797852,451.224609 C566.241854,451.224609 565.016281,450.729823 564.121094,449.740234 C563.225907,448.750646 562.77832,447.396493 562.77832,445.677734 C562.77832,444.01757 563.211259,442.671555 564.077148,441.639648 C564.943038,440.607742 566.08235,440.082031 567.495117,440.0625 C568.823249,440.0625 569.876298,440.516597 570.654297,441.424805 C571.380429,442.272465 571.767694,443.385244 571.816102,444.763171 L571.821094,445.117188 L571.821094,445.117188 L571.811523,445.941406 L571.811523,445.941406 L564.458008,445.941406 C564.477539,447.15886 564.791664,448.107744 565.400391,448.788086 C566.009118,449.468428 566.827794,449.808594 567.856445,449.808594 C568.989263,449.808594 570.12532,449.509118 571.264648,448.910156 L571.518555,450.228516 C570.43131,450.892581 569.191088,451.224609 567.797852,451.224609 Z M580.629883,436.390625 L582.182617,436.390625 L582.182617,451 L580.454102,451 L580.454102,438.197266 C579.796546,438.626955 578.992518,438.99479 578.041992,439.300781 L578.041992,437.669922 L579.394531,437.083984 L579.394531,437.083984 C579.554037,437.012369 579.754231,436.911459 579.995117,436.78125 C580.236004,436.651041 580.44759,436.520834 580.629883,436.390625 Z" id="Hiddennode1" fill="#FFFFFF" fill-rule="nonzero"></path>
        <path d="M869.5,410 C897.942665,410 921,433.057335 921,461.5 C921,489.942665 897.942665,513 869.5,513 C841.057335,513 818,489.942665 818,461.5 C818,433.057335 841.057335,410 869.5,410 Z M869.5,414 C843.266474,414 822,435.266474 822,461.5 C822,487.733526 843.266474,509 869.5,509 C895.733526,509 917,487.733526 917,461.5 C917,435.266474 895.733526,414 869.5,414 Z" id="Oval-2-Copy-5" fill="#37C3BE" fill-rule="nonzero"></path>
        <path d="M127.34668,675 L125.657227,675 L125.657227,660.556641 L127.34668,660.556641 L127.34668,675 Z M130.549805,675 L130.549805,664.287109 L131.916992,664.287109 L132.12207,665.820312 C132.54525,665.292966 133.074216,664.868166 133.708984,664.545898 C134.343753,664.223631 135.028968,664.0625 135.764648,664.0625 C137.001634,664.0625 137.916338,664.409176 138.508789,665.102539 C139.10124,665.795902 139.397461,666.861972 139.397461,668.300781 L139.397461,675 L137.766602,675 L137.756836,668.095703 L137.756836,668.095703 C137.730794,667.18424 137.546877,666.516929 137.205078,666.09375 C136.86328,665.670571 136.291996,665.458984 135.491211,665.458984 C134.651363,665.458984 133.9515,665.660805 133.391602,666.064453 C132.831703,666.468101 132.467123,666.992184 132.297852,667.636719 C132.232747,668.072919 132.200195,668.574216 132.200195,669.140625 L132.200195,675 L130.549805,675 Z M142.112305,679.648438 L142.112305,664.287109 L143.547852,664.287109 L143.704102,665.742188 C144.641606,664.62239 145.767897,664.0625 147.083008,664.0625 C148.059575,664.0625 148.88639,664.306638 149.563477,664.794922 C150.240563,665.283206 150.740233,665.944006 151.0625,666.777344 C151.384767,667.610681 151.545898,668.583979 151.545898,669.697266 C151.545898,670.764979 151.370119,671.713863 151.018555,672.543945 C150.66699,673.374028 150.151045,674.028318 149.470703,674.506836 C148.790361,674.985354 147.994471,675.224609 147.083008,675.224609 C146.3929,675.224609 145.74512,675.069989 145.139648,674.760742 C144.534177,674.451496 144.049155,674.042971 143.68457,673.535156 C143.723633,674.238285 143.743164,674.921872 143.743164,675.585938 L143.743164,679.541016 L142.112305,679.648438 Z M146.858398,673.847656 C147.353193,673.847656 147.795896,673.735353 148.186523,673.510742 C148.57715,673.286132 148.892902,672.978518 149.133789,672.587891 C149.374676,672.197264 149.556966,671.752932 149.680664,671.254883 C149.804363,670.756833 149.866211,670.218102 149.866211,669.638672 C149.866211,668.414707 149.609052,667.410486 149.094727,666.625977 C148.580401,665.841467 147.828455,665.449219 146.838867,665.449219 C144.768544,665.449219 143.733398,666.787096 143.733398,669.462891 C143.733398,670.914721 143.975909,672.00846 144.460938,672.744141 C144.945966,673.479821 145.745112,673.847656 146.858398,673.847656 Z M153.469727,671.425781 L153.469727,664.287109 L155.110352,664.287109 L155.110352,671.445312 C155.110352,671.914065 155.177083,672.311196 155.310547,672.636719 C155.444011,672.962241 155.636066,673.214517 155.886719,673.393555 C156.137371,673.572592 156.420571,673.701171 156.736328,673.779297 C157.052085,673.857422 157.415037,673.896484 157.825195,673.896484 C158.671554,673.896484 159.330727,673.710939 159.802734,673.339844 C160.274742,672.968748 160.510742,672.337244 160.510742,671.445312 L160.510742,664.287109 L162.151367,664.287109 L162.151367,671.425781 C162.151367,671.972659 162.073243,672.464191 161.916992,672.900391 C161.760741,673.336591 161.550783,673.699543 161.287109,673.989258 C161.023436,674.278973 160.706057,674.518228 160.334961,674.707031 C159.963865,674.895834 159.571617,675.032552 159.158203,675.117188 C158.74479,675.201823 158.300458,675.244141 157.825195,675.244141 C157.356443,675.244141 156.913739,675.201823 156.49707,675.117188 C156.080402,675.032552 155.684898,674.894207 155.310547,674.702148 C154.936196,674.51009 154.613934,674.269207 154.34375,673.979492 C154.073566,673.689777 153.860352,673.326825 153.704102,672.890625 C153.547851,672.454425 153.469727,671.966149 153.469727,671.425781 Z M168.000977,675.195312 C166.946284,675.195312 166.197593,674.938154 165.754883,674.423828 C165.312172,673.909503 165.0778,673.079433 165.051758,671.933594 L165.051758,665.498047 L163.459961,665.498047 L163.52832,664.423828 L165.041992,664.287109 L165.598633,661.835938 L166.672852,661.796875 L166.672852,664.287109 L169.651367,664.287109 L169.651367,665.498047 L166.672852,665.498047 L166.672852,671.640625 C166.672852,672.454431 166.796548,673.027342 167.043945,673.359375 C167.291342,673.691408 167.714515,673.857422 168.313477,673.857422 L168.472461,673.851172 C168.724544,673.834505 169.137041,673.784506 169.709961,673.701172 L169.77832,674.990234 C169.003577,675.126954 168.411135,675.195312 168.000977,675.195312 Z M117.546875,700 L117.546875,689.287109 L118.914062,689.287109 L119.119141,690.820312 C119.54232,690.292966 120.071286,689.868166 120.706055,689.545898 C121.340823,689.223631 122.026038,689.0625 122.761719,689.0625 C123.998704,689.0625 124.913408,689.409176 125.505859,690.102539 C126.09831,690.795902 126.394531,691.861972 126.394531,693.300781 L126.394531,700 L124.763672,700 L124.753906,693.095703 L124.753906,693.095703 C124.727864,692.18424 124.543947,691.516929 124.202148,691.09375 C123.86035,690.670571 123.289067,690.458984 122.488281,690.458984 C121.648433,690.458984 120.948571,690.660805 120.388672,691.064453 C119.828773,691.468101 119.464194,691.992184 119.294922,692.636719 C119.229817,693.072919 119.197266,693.574216 119.197266,694.140625 L119.197266,700 L117.546875,700 Z M130.300781,694.667969 C130.300781,695.937506 130.582354,696.954749 131.145508,697.719727 C131.708662,698.484704 132.530594,698.867188 133.611328,698.867188 C134.679042,698.867188 135.484698,698.486332 136.02832,697.724609 C136.571943,696.962887 136.84375,695.937506 136.84375,694.648438 C136.84375,693.339837 136.575198,692.309574 136.038086,691.557617 C135.500974,690.80566 134.682297,690.429688 133.582031,690.429688 C132.514318,690.429688 131.700524,690.813798 131.140625,691.582031 C130.580726,692.350264 130.300781,693.3789 130.300781,694.667969 Z M138.533203,694.638672 C138.533203,696.298836 138.090499,697.644852 137.205078,698.676758 C136.319657,699.708664 135.095711,700.224609 133.533203,700.224609 C132.029289,700.224609 130.833012,699.703781 129.944336,698.662109 C129.05566,697.620437 128.611328,696.28256 128.611328,694.648438 C128.611328,692.981763 129.057287,691.63412 129.949219,690.605469 C130.84115,689.576818 132.065096,689.0625 133.621094,689.0625 C135.151049,689.0625 136.352209,689.578445 137.224609,690.610352 C138.09701,691.642258 138.533203,692.985018 138.533203,694.638672 Z M145.017578,698.818359 C146.091802,698.818359 146.890948,698.473311 147.415039,697.783203 C147.93913,697.093096 148.201172,696.106777 148.201172,694.824219 C148.201172,693.378899 147.948896,692.290043 147.444336,691.557617 C146.939776,690.825192 146.124355,690.458984 144.998047,690.458984 C144.496742,690.458984 144.054038,690.566405 143.669922,690.78125 C143.285805,690.996095 142.976564,691.295571 142.742188,691.679688 C142.507811,692.063804 142.330404,692.50488 142.209961,693.00293 C142.089518,693.500979 142.029297,694.046221 142.029297,694.638672 C142.029297,695.472009 142.131835,696.194658 142.336914,696.806641 C142.541993,697.418623 142.872394,697.906899 143.328125,698.271484 C143.783856,698.63607 144.347002,698.818359 145.017578,698.818359 Z M148.230469,698.447266 C147.878904,698.987633 147.410159,699.417316 146.824219,699.736328 C146.238278,700.05534 145.583988,700.214844 144.861328,700.214844 C143.448561,700.214844 142.341801,699.711919 141.541016,698.706055 C140.74023,697.70019 140.339844,696.331389 140.339844,694.599609 C140.339844,692.945955 140.746741,691.609706 141.560547,690.59082 C142.374353,689.571935 143.464837,689.0625 144.832031,689.0625 C145.54167,689.0625 146.210609,689.217121 146.838867,689.526367 C147.467126,689.835614 147.937498,690.250648 148.25,690.771484 L148.220703,689.84375 L148.220703,685.126953 L149.832031,685.029297 L149.832031,700 L148.445312,700 L148.230469,698.447266 Z M158.835938,691.269531 C158.360675,690.696612 157.706384,690.410156 156.873047,690.410156 C156.039709,690.410156 155.359378,690.70475 154.832031,691.293945 C154.304685,691.883141 153.995443,692.688797 153.904297,693.710938 L159.558594,693.710938 C159.558594,692.649734 159.317711,691.83594 158.835938,691.269531 Z M157.195312,700.224609 C155.639315,700.224609 154.413741,699.729823 153.518555,698.740234 C152.623368,697.750646 152.175781,696.396493 152.175781,694.677734 C152.175781,693.01757 152.60872,691.671555 153.474609,690.639648 C154.340499,689.607742 155.479811,689.082031 156.892578,689.0625 C158.22071,689.0625 159.273759,689.516597 160.051758,690.424805 C160.77789,691.272465 161.165155,692.385244 161.213563,693.763171 L161.218555,694.117188 L161.218555,694.117188 L161.208984,694.941406 L161.208984,694.941406 L153.855469,694.941406 C153.875,696.15886 154.189125,697.107744 154.797852,697.788086 C155.406579,698.468428 156.225255,698.808594 157.253906,698.808594 C158.386724,698.808594 159.522781,698.509118 160.662109,697.910156 L160.916016,699.228516 C159.828771,699.892581 158.588549,700.224609 157.195312,700.224609 Z M171.921875,700.224609 C171.049475,700.224609 170.273115,700.110678 169.592773,699.882812 C168.912431,699.654947 168.416017,699.391278 168.103516,699.091797 L168.650391,697.65625 C169.568364,698.37891 170.662103,698.740234 171.931641,698.740234 C172.908208,698.740234 173.684567,698.497724 174.260742,698.012695 C174.836917,697.527667 175.125,696.848963 175.125,695.976562 C175.125,695.5013 175.051759,695.086265 174.905273,694.731445 C174.758788,694.376626 174.563478,694.09017 174.319336,693.87207 C174.075194,693.65397 173.762697,693.478191 173.381836,693.344727 C173.000975,693.211262 172.610354,693.116862 172.209961,693.061523 C171.809568,693.006185 171.345706,692.972005 170.818359,692.958984 L170.232422,692.949219 L170.232422,692.949219 L170.232422,691.494141 L170.720703,691.494141 C171.176435,691.48763 171.578449,691.463216 171.926758,691.420898 C172.275067,691.378581 172.623371,691.302084 172.97168,691.191406 C173.319989,691.080729 173.608072,690.934246 173.835938,690.751953 C174.063803,690.569661 174.249348,690.325522 174.392578,690.019531 C174.535808,689.71354 174.607422,689.352216 174.607422,688.935547 C174.607422,687.373039 173.712249,686.591797 171.921875,686.591797 C171.277341,686.591797 170.671878,686.686197 170.105469,686.875 C169.53906,687.063803 169.054038,687.317707 168.650391,687.636719 L168.103516,686.210938 C169.073573,685.475257 170.470043,685.107422 172.292969,685.107422 C173.02865,685.107422 173.708981,685.242512 174.333984,685.512695 C174.958988,685.782879 175.473305,686.196286 175.876953,686.75293 C176.280601,687.309573 176.482422,687.962236 176.482422,688.710938 C176.482422,689.6224 176.257815,690.371091 175.808594,690.957031 C175.359373,691.542972 174.727869,691.962889 173.914062,692.216797 C174.825525,692.41211 175.540036,692.838538 176.057617,693.496094 C176.575198,694.153649 176.833984,694.986974 176.833984,695.996094 C176.833984,697.278652 176.375005,698.304033 175.457031,699.072266 C174.539058,699.840499 173.360684,700.224609 171.921875,700.224609 Z" id="Inputnode3" fill="#FFFFFF" fill-rule="nonzero"></path>
        <path d="M121.450684,158 L119.254395,158 L119.254395,139.223633 L121.450684,139.223633 L121.450684,158 Z M125.614746,158 L125.614746,144.073242 L127.39209,144.073242 L127.658691,146.066406 C128.208824,145.380856 128.89648,144.828615 129.72168,144.409668 C130.546879,143.990721 131.437658,143.78125 132.394043,143.78125 C134.002124,143.78125 135.19124,144.231929 135.961426,145.133301 C136.731612,146.034672 137.116699,147.420564 137.116699,149.291016 L137.116699,158 L134.996582,158 L134.983887,149.024414 L134.983887,149.024414 C134.950032,147.839512 134.71094,146.972008 134.266602,146.421875 C133.822263,145.871742 133.079595,145.59668 132.038574,145.59668 C130.946772,145.59668 130.03695,145.859047 129.309082,146.383789 C128.581214,146.908531 128.10726,147.58984 127.887207,148.427734 C127.802571,148.994795 127.760254,149.646481 127.760254,150.382812 L127.760254,158 L125.614746,158 Z M140.645996,164.042969 L140.645996,144.073242 L142.512207,144.073242 L142.715332,145.964844 C143.934088,144.509107 145.398266,143.78125 147.10791,143.78125 C148.377448,143.78125 149.452307,144.09863 150.33252,144.733398 C151.212732,145.368167 151.862303,146.227208 152.28125,147.310547 C152.700197,148.393886 152.909668,149.659172 152.909668,151.106445 C152.909668,152.494473 152.681155,153.728022 152.224121,154.807129 C151.767088,155.886236 151.096359,156.736813 150.211914,157.358887 C149.32747,157.98096 148.292812,158.291992 147.10791,158.291992 C146.21077,158.291992 145.368656,158.090985 144.581543,157.688965 C143.79443,157.286945 143.163902,156.755863 142.689941,156.095703 C142.740723,157.00977 142.766113,157.898433 142.766113,158.761719 L142.766113,163.90332 L140.645996,164.042969 Z M146.815918,156.501953 C147.45915,156.501953 148.034665,156.355958 148.54248,156.063965 C149.050296,155.771971 149.460773,155.372073 149.773926,154.864258 C150.087078,154.356443 150.324055,153.778812 150.484863,153.131348 C150.645671,152.483883 150.726074,151.783532 150.726074,151.030273 C150.726074,149.43912 150.391768,148.133631 149.723145,147.11377 C149.054521,146.093908 148.076992,145.583984 146.790527,145.583984 C144.099108,145.583984 142.753418,147.323225 142.753418,150.801758 C142.753418,152.689137 143.068682,154.110998 143.699219,155.067383 C144.329756,156.023768 145.368645,156.501953 146.815918,156.501953 Z M155.410645,153.353516 L155.410645,144.073242 L157.543457,144.073242 L157.543457,153.378906 C157.543457,153.988284 157.630207,154.504555 157.803711,154.927734 C157.977214,155.350914 158.226886,155.678873 158.552734,155.911621 C158.878582,156.14437 159.246743,156.311523 159.657227,156.413086 C160.06771,156.514649 160.539548,156.56543 161.072754,156.56543 C162.17302,156.56543 163.029945,156.324221 163.643555,155.841797 C164.257165,155.359373 164.563965,154.538417 164.563965,153.378906 L164.563965,144.073242 L166.696777,144.073242 L166.696777,153.353516 C166.696777,154.064457 166.595216,154.703448 166.39209,155.270508 C166.188964,155.837568 165.916017,156.309406 165.573242,156.686035 C165.230467,157.062665 164.817874,157.373697 164.335449,157.619141 C163.853025,157.864585 163.343102,158.042317 162.805664,158.152344 C162.268226,158.26237 161.690596,158.317383 161.072754,158.317383 C160.463376,158.317383 159.887861,158.26237 159.346191,158.152344 C158.804522,158.042317 158.290367,157.862469 157.803711,157.612793 C157.317055,157.363117 156.898114,157.049969 156.546875,156.67334 C156.195636,156.29671 155.918458,155.824873 155.715332,155.257812 C155.512206,154.690752 155.410645,154.055993 155.410645,153.353516 Z M174.30127,158.253906 C172.930169,158.253906 171.956871,157.9196 171.381348,157.250977 C170.805824,156.582353 170.501139,155.503263 170.467285,154.013672 L170.467285,145.647461 L168.397949,145.647461 L168.486816,144.250977 L170.45459,144.073242 L171.178223,140.886719 L172.574707,140.835938 L172.574707,144.073242 L176.446777,144.073242 L176.446777,145.647461 L172.574707,145.647461 L172.574707,153.632812 C172.574707,154.69076 172.735513,155.435545 173.057129,155.867188 C173.378745,156.29883 173.92887,156.514648 174.70752,156.514648 L174.874322,156.509006 C175.197582,156.490198 175.747121,156.424371 176.522949,156.311523 L176.611816,157.987305 L176.035955,158.083282 C175.306059,158.197032 174.727834,158.253906 174.30127,158.253906 Z" id="Input" fill="#FFFFFF" fill-rule="nonzero"></path>
        <path d="M459.119629,266 L456.92334,266 L456.92334,257.214844 L446.843262,257.214844 L446.843262,266 L444.646973,266 L444.646973,247.223633 L446.843262,247.223633 L446.843262,255.285156 L456.92334,255.285156 L456.92334,247.223633 L459.119629,247.223633 L459.119629,266 Z M465.64502,252.073242 L465.64502,266 L463.512207,266 L463.512207,252.073242 L465.64502,252.073242 Z M465.64502,247.007812 L465.64502,249.521484 L463.512207,249.521484 L463.512207,247.007812 L465.64502,247.007812 Z M475.064941,264.463867 C476.461433,264.463867 477.500322,264.015304 478.181641,263.118164 C478.862959,262.221024 479.203613,260.93881 479.203613,259.271484 C479.203613,257.392569 478.875654,255.977056 478.219727,255.024902 C477.563799,254.072749 476.503751,253.59668 475.039551,253.59668 C474.387855,253.59668 473.81234,253.736327 473.312988,254.015625 C472.813637,254.294923 472.411623,254.684242 472.106934,255.183594 C471.802245,255.682945 471.571615,256.256344 471.415039,256.903809 C471.258463,257.551273 471.180176,258.260087 471.180176,259.030273 C471.180176,260.113612 471.313475,261.053056 471.580078,261.848633 C471.846681,262.64421 472.276201,263.278969 472.868652,263.75293 C473.461103,264.22689 474.193192,264.463867 475.064941,264.463867 Z M479.241699,263.981445 C478.784666,264.683923 478.175297,265.242511 477.413574,265.657227 C476.651852,266.071942 475.801274,266.279297 474.861816,266.279297 C473.025219,266.279297 471.586431,265.625495 470.54541,264.317871 C469.504389,263.010247 468.983887,261.230806 468.983887,258.979492 C468.983887,256.829742 469.512853,255.092617 470.570801,253.768066 C471.628749,252.443516 473.046378,251.78125 474.82373,251.78125 C475.746261,251.78125 476.615881,251.982257 477.432617,252.384277 C478.249353,252.786298 478.860838,253.325843 479.26709,254.00293 L479.229004,252.796875 L479.229004,246.665039 L481.32373,246.538086 L481.32373,266 L479.520996,266 L479.241699,263.981445 Z M490.438965,264.463867 C491.835456,264.463867 492.874346,264.015304 493.555664,263.118164 C494.236983,262.221024 494.577637,260.93881 494.577637,259.271484 C494.577637,257.392569 494.249678,255.977056 493.59375,255.024902 C492.937822,254.072749 491.877774,253.59668 490.413574,253.59668 C489.761878,253.59668 489.186363,253.736327 488.687012,254.015625 C488.18766,254.294923 487.785646,254.684242 487.480957,255.183594 C487.176268,255.682945 486.945639,256.256344 486.789062,256.903809 C486.632486,257.551273 486.554199,258.260087 486.554199,259.030273 C486.554199,260.113612 486.687499,261.053056 486.954102,261.848633 C487.220704,262.64421 487.650225,263.278969 488.242676,263.75293 C488.835127,264.22689 489.567216,264.463867 490.438965,264.463867 Z M494.615723,263.981445 C494.158689,264.683923 493.54932,265.242511 492.787598,265.657227 C492.025875,266.071942 491.175298,266.279297 490.23584,266.279297 C488.399242,266.279297 486.960454,265.625495 485.919434,264.317871 C484.878413,263.010247 484.35791,261.230806 484.35791,258.979492 C484.35791,256.829742 484.886876,255.092617 485.944824,253.768066 C487.002772,252.443516 488.420401,251.78125 490.197754,251.78125 C491.120285,251.78125 491.989905,251.982257 492.806641,252.384277 C493.623376,252.786298 494.234861,253.325843 494.641113,254.00293 L494.603027,252.796875 L494.603027,246.665039 L496.697754,246.538086 L496.697754,266 L494.89502,266 L494.615723,263.981445 Z M508.402832,254.650391 C507.78499,253.905595 506.934413,253.533203 505.851074,253.533203 C504.767735,253.533203 503.883304,253.916175 503.197754,254.682129 C502.512204,255.448083 502.110189,256.495436 501.991699,257.824219 L509.342285,257.824219 C509.342285,256.444655 509.029137,255.386722 508.402832,254.650391 Z M506.27002,266.291992 C504.247223,266.291992 502.653977,265.648769 501.490234,264.362305 C500.326492,263.07584 499.744629,261.315441 499.744629,259.081055 C499.744629,256.922841 500.307449,255.173021 501.433105,253.831543 C502.558762,252.490065 504.039867,251.806641 505.876465,251.78125 C507.603036,251.78125 508.972,252.371576 509.983398,253.552246 C510.935303,254.663465 511.439245,256.125155 511.495239,257.937355 L511.500234,258.352344 L511.500234,258.352344 L511.487793,259.423828 L511.487793,259.423828 L501.928223,259.423828 C501.953613,261.006518 502.361975,262.240067 503.15332,263.124512 C503.944665,264.008956 505.008945,264.451172 506.346191,264.451172 C507.818855,264.451172 509.295728,264.061853 510.776855,263.283203 L511.106934,264.99707 C509.693515,265.860356 508.081227,266.291992 506.27002,266.291992 Z M514.445801,266 L514.445801,252.073242 L516.223145,252.073242 L516.489746,254.066406 C517.039879,253.380856 517.727535,252.828615 518.552734,252.409668 C519.377934,251.990721 520.268713,251.78125 521.225098,251.78125 C522.833179,251.78125 524.022294,252.231929 524.79248,253.133301 C525.562667,254.034672 525.947754,255.420564 525.947754,257.291016 L525.947754,266 L523.827637,266 L523.814941,257.024414 L523.814941,257.024414 C523.781087,255.839512 523.541994,254.972008 523.097656,254.421875 C522.653318,253.871742 521.91065,253.59668 520.869629,253.59668 C519.777827,253.59668 518.868005,253.859047 518.140137,254.383789 C517.412268,254.908531 516.938315,255.58984 516.718262,256.427734 C516.633626,256.994795 516.591309,257.646481 516.591309,258.382812 L516.591309,266 L514.445801,266 Z M536.35791,266 L536.35791,247.223633 L538.566895,247.223633 L538.566895,264.044922 L546.831543,264.044922 L546.755371,266 L536.35791,266 Z M552.950684,264.578125 C553.95785,264.578125 554.844397,264.300947 555.610352,263.746582 C556.376306,263.192217 556.869302,262.445317 557.089355,261.505859 L557.089355,259.157227 L555.400879,259.296875 L555.400879,259.296875 C553.564281,259.457683 552.284183,259.758136 551.560547,260.198242 C550.83691,260.638349 550.475098,261.345047 550.475098,262.318359 C550.475098,263.063155 550.695148,263.625975 551.135254,264.006836 C551.57536,264.387697 552.180497,264.578125 552.950684,264.578125 Z M557.559082,266 C557.432128,265.458331 557.309408,264.874352 557.190918,264.248047 C556.420732,265.018233 555.697106,265.551431 555.02002,265.847656 C554.342933,266.143882 553.547368,266.291992 552.633301,266.291992 C551.329909,266.291992 550.282556,265.951338 549.491211,265.27002 C548.699866,264.588701 548.304199,263.609056 548.304199,262.331055 C548.304199,260.909173 548.843745,259.855472 549.922852,259.169922 C550.930018,258.530075 552.35188,258.115102 554.188475,257.924991 L557.114746,257.671875 L557.114746,257.671875 L557.114746,256.44043 C557.114746,255.458654 556.886233,254.730797 556.429199,254.256836 C555.972166,253.782875 555.252772,253.545898 554.270996,253.545898 C552.899895,253.545898 551.51612,253.884437 550.119629,254.561523 L549.944716,254.101672 L549.944716,254.101672 L549.510254,252.923828 L549.510254,252.923828 C550.128096,252.576821 550.8623,252.299643 551.712891,252.092285 C552.563481,251.884927 553.428869,251.78125 554.309082,251.78125 C556.044117,251.78125 557.294593,252.15999 558.060547,252.91748 C558.826501,253.674971 559.209473,254.963533 559.209473,256.783203 L559.209473,266 L557.559082,266 Z M561.088379,252.073242 L563.335449,252.073242 L567.728027,263.664062 L571.638184,252.073242 L573.885254,252.073242 L568.058105,268.069336 L568.058105,268.069336 C567.474118,269.533536 566.76742,270.606279 565.937988,271.287598 C565.108557,271.968916 564.016771,272.30957 562.662598,272.30957 C562.256346,272.30957 561.828941,272.275716 561.380371,272.208008 L561.253418,270.405273 L561.630651,270.430146 C561.920829,270.447419 562.150553,270.456055 562.319824,270.456055 C563.276209,270.456055 564.001951,270.280438 564.49707,269.929199 C564.99219,269.57796 565.434406,268.919927 565.82373,267.955078 L566.141114,267.134113 C566.332954,266.631944 566.485297,266.220054 566.598145,265.898438 L561.088379,252.073242 Z M583.86377,254.650391 C583.245928,253.905595 582.39535,253.533203 581.312012,253.533203 C580.228673,253.533203 579.344242,253.916175 578.658691,254.682129 C577.973141,255.448083 577.571127,256.495436 577.452637,257.824219 L584.803223,257.824219 C584.803223,256.444655 584.490075,255.386722 583.86377,254.650391 Z M581.730957,266.291992 C579.70816,266.291992 578.114915,265.648769 576.951172,264.362305 C575.787429,263.07584 575.205566,261.315441 575.205566,259.081055 C575.205566,256.922841 575.768386,255.173021 576.894043,253.831543 C578.0197,252.490065 579.500805,251.806641 581.337402,251.78125 C583.063973,251.78125 584.432938,252.371576 585.444336,253.552246 C586.39624,254.663465 586.900183,256.125155 586.956176,257.937355 L586.961172,258.352344 L586.961172,258.352344 L586.94873,259.423828 L586.94873,259.423828 L577.38916,259.423828 C577.414551,261.006518 577.822913,262.240067 578.614258,263.124512 C579.405603,264.008956 580.469883,264.451172 581.807129,264.451172 C583.279793,264.451172 584.756666,264.061853 586.237793,263.283203 L586.567871,264.99707 C585.154453,265.860356 583.542164,266.291992 581.730957,266.291992 Z M596.152832,251.946289 C596.533693,251.946289 596.880695,251.971679 597.193848,252.022461 L597.117676,253.977539 C596.728351,253.90983 596.389813,253.875977 596.102051,253.875977 C594.917149,253.875977 593.954431,254.28857 593.213867,255.11377 C592.473304,255.938969 592.103027,256.960931 592.103027,258.179688 L592.103027,266 L589.98291,266 L589.970215,252.073242 L589.970215,252.073242 L591.734863,252.073242 L591.937988,254.574219 C592.420413,253.787105 593.034013,253.152346 593.778809,252.669922 C594.523604,252.187498 595.314937,251.946289 596.152832,251.946289 Z" id="HiddenLayer" fill="#FFFFFF" fill-rule="nonzero"></path>
        <path d="M797.884277,356.618164 C797.884277,359.030285 798.438634,360.923984 799.547363,362.299316 C800.656093,363.674649 802.293772,364.362305 804.460449,364.362305 C806.627127,364.362305 808.258458,363.676765 809.354492,362.305664 C810.450526,360.934563 810.998535,359.038749 810.998535,356.618164 C810.998535,354.146798 810.446295,352.229825 809.341797,350.867188 C808.237299,349.50455 806.614431,348.823242 804.473145,348.823242 C802.331858,348.823242 800.698411,349.50455 799.572754,350.867188 C798.447097,352.229825 797.884277,354.146798 797.884277,356.618164 Z M813.347168,356.618164 C813.347168,358.04851 813.150393,359.356114 812.756836,360.541016 C812.363279,361.725917 811.796228,362.743648 811.055664,363.594238 C810.3151,364.444828 809.382004,365.104978 808.256348,365.574707 C807.130691,366.044436 805.865404,366.279297 804.460449,366.279297 C802.564606,366.279297 800.941739,365.875167 799.591797,365.066895 C798.241855,364.258622 797.230472,363.132982 796.557617,361.689941 C795.884762,360.2469 795.54834,358.552093 795.54834,356.605469 C795.54834,353.600896 796.33121,351.231128 797.896973,349.496094 C799.462736,347.761059 801.654771,346.893555 804.473145,346.893555 C807.2492,346.893555 809.422193,347.767407 810.992188,349.515137 C812.562182,351.262867 813.347168,353.630519 813.347168,356.618164 Z M816.102051,361.353516 L816.102051,352.073242 L818.234863,352.073242 L818.234863,361.378906 C818.234863,361.988284 818.321614,362.504555 818.495117,362.927734 C818.668621,363.350914 818.918293,363.678873 819.244141,363.911621 C819.569989,364.14437 819.938149,364.311523 820.348633,364.413086 C820.759117,364.514649 821.230954,364.56543 821.76416,364.56543 C822.864426,364.56543 823.721351,364.324221 824.334961,363.841797 C824.948571,363.359373 825.255371,362.538417 825.255371,361.378906 L825.255371,352.073242 L827.388184,352.073242 L827.388184,361.353516 C827.388184,362.064457 827.286622,362.703448 827.083496,363.270508 C826.88037,363.837568 826.607424,364.309406 826.264648,364.686035 C825.921873,365.062665 825.50928,365.373697 825.026855,365.619141 C824.544431,365.864585 824.034508,366.042317 823.49707,366.152344 C822.959633,366.26237 822.382002,366.317383 821.76416,366.317383 C821.154782,366.317383 820.579267,366.26237 820.037598,366.152344 C819.495928,366.042317 818.981773,365.862469 818.495117,365.612793 C818.008461,365.363117 817.58952,365.049969 817.238281,364.67334 C816.887043,364.29671 816.609864,363.824873 816.406738,363.257812 C816.203612,362.690752 816.102051,362.055993 816.102051,361.353516 Z M834.992676,366.253906 C833.621575,366.253906 832.648278,365.9196 832.072754,365.250977 C831.49723,364.582353 831.192546,363.503263 831.158691,362.013672 L831.158691,353.647461 L829.089355,353.647461 L829.178223,352.250977 L831.145996,352.073242 L831.869629,348.886719 L833.266113,348.835938 L833.266113,352.073242 L837.138184,352.073242 L837.138184,353.647461 L833.266113,353.647461 L833.266113,361.632812 C833.266113,362.69076 833.426919,363.435545 833.748535,363.867188 C834.070151,364.29883 834.620276,364.514648 835.398926,364.514648 L835.565728,364.509006 C835.888988,364.490198 836.438527,364.424371 837.214355,364.311523 L837.303223,365.987305 L836.727362,366.083282 C835.997465,366.197032 835.41924,366.253906 834.992676,366.253906 Z M839.562988,372.042969 L839.562988,352.073242 L841.429199,352.073242 L841.632324,353.964844 C842.85108,352.509107 844.315258,351.78125 846.024902,351.78125 C847.29444,351.78125 848.369299,352.09863 849.249512,352.733398 C850.129724,353.368167 850.779295,354.227208 851.198242,355.310547 C851.61719,356.393886 851.82666,357.659172 851.82666,359.106445 C851.82666,360.494473 851.598147,361.728022 851.141113,362.807129 C850.68408,363.886236 850.013351,364.736813 849.128906,365.358887 C848.244462,365.98096 847.209804,366.291992 846.024902,366.291992 C845.127762,366.291992 844.285648,366.090985 843.498535,365.688965 C842.711422,365.286945 842.080894,364.755863 841.606934,364.095703 C841.657715,365.00977 841.683105,365.898433 841.683105,366.761719 L841.683105,371.90332 L839.562988,372.042969 Z M845.73291,364.501953 C846.376143,364.501953 846.951658,364.355958 847.459473,364.063965 C847.967288,363.771971 848.377765,363.372073 848.690918,362.864258 C849.004071,362.356443 849.241047,361.778812 849.401855,361.131348 C849.562664,360.483883 849.643066,359.783532 849.643066,359.030273 C849.643066,357.43912 849.30876,356.133631 848.640137,355.11377 C847.971514,354.093908 846.993984,353.583984 845.70752,353.583984 C843.0161,353.583984 841.67041,355.323225 841.67041,358.801758 C841.67041,360.689137 841.985674,362.110998 842.616211,363.067383 C843.246748,364.023768 844.285637,364.501953 845.73291,364.501953 Z M854.327637,361.353516 L854.327637,352.073242 L856.460449,352.073242 L856.460449,361.378906 C856.460449,361.988284 856.5472,362.504555 856.720703,362.927734 C856.894207,363.350914 857.143879,363.678873 857.469727,363.911621 C857.795575,364.14437 858.163735,364.311523 858.574219,364.413086 C858.984703,364.514649 859.45654,364.56543 859.989746,364.56543 C861.090012,364.56543 861.946937,364.324221 862.560547,363.841797 C863.174157,363.359373 863.480957,362.538417 863.480957,361.378906 L863.480957,352.073242 L865.61377,352.073242 L865.61377,361.353516 C865.61377,362.064457 865.512208,362.703448 865.309082,363.270508 C865.105956,363.837568 864.83301,364.309406 864.490234,364.686035 C864.147459,365.062665 863.734866,365.373697 863.252441,365.619141 C862.770017,365.864585 862.260094,366.042317 861.722656,366.152344 C861.185219,366.26237 860.607588,366.317383 859.989746,366.317383 C859.380368,366.317383 858.804853,366.26237 858.263184,366.152344 C857.721514,366.042317 857.207359,365.862469 856.720703,365.612793 C856.234047,365.363117 855.815106,365.049969 855.463867,364.67334 C855.112628,364.29671 854.83545,363.824873 854.632324,363.257812 C854.429198,362.690752 854.327637,362.055993 854.327637,361.353516 Z M873.218262,366.253906 C871.847161,366.253906 870.873864,365.9196 870.29834,365.250977 C869.722816,364.582353 869.418132,363.503263 869.384277,362.013672 L869.384277,353.647461 L867.314941,353.647461 L867.403809,352.250977 L869.371582,352.073242 L870.095215,348.886719 L871.491699,348.835938 L871.491699,352.073242 L875.36377,352.073242 L875.36377,353.647461 L871.491699,353.647461 L871.491699,361.632812 C871.491699,362.69076 871.652505,363.435545 871.974121,363.867188 C872.295737,364.29883 872.845862,364.514648 873.624512,364.514648 L873.791314,364.509006 C874.114574,364.490198 874.664113,364.424371 875.439941,364.311523 L875.528809,365.987305 L874.952948,366.083282 C874.223051,366.197032 873.644826,366.253906 873.218262,366.253906 Z M884.669434,366 L884.669434,347.223633 L886.878418,347.223633 L886.878418,364.044922 L895.143066,364.044922 L895.066895,366 L884.669434,366 Z M901.262207,364.578125 C902.269374,364.578125 903.155921,364.300947 903.921875,363.746582 C904.687829,363.192217 905.180826,362.445317 905.400879,361.505859 L905.400879,359.157227 L903.712402,359.296875 L903.712402,359.296875 C901.875805,359.457683 900.595707,359.758136 899.87207,360.198242 C899.148434,360.638349 898.786621,361.345047 898.786621,362.318359 C898.786621,363.063155 899.006671,363.625975 899.446777,364.006836 C899.886884,364.387697 900.492021,364.578125 901.262207,364.578125 Z M905.870605,366 C905.743652,365.458331 905.620932,364.874352 905.502441,364.248047 C904.732255,365.018233 904.00863,365.551431 903.331543,365.847656 C902.654456,366.143882 901.858891,366.291992 900.944824,366.291992 C899.641432,366.291992 898.594079,365.951338 897.802734,365.27002 C897.011389,364.588701 896.615723,363.609056 896.615723,362.331055 C896.615723,360.909173 897.155268,359.855472 898.234375,359.169922 C899.241541,358.530075 900.663403,358.115102 902.499998,357.924991 L903.517567,357.833805 L903.517567,357.833805 L905.42627,357.671875 L905.42627,357.671875 L905.42627,356.44043 C905.42627,355.458654 905.197756,354.730797 904.740723,354.256836 C904.283689,353.782875 903.564295,353.545898 902.58252,353.545898 C901.211419,353.545898 899.827644,353.884437 898.431152,354.561523 L898.29793,354.213971 L898.29793,354.213971 L897.821777,352.923828 L897.821777,352.923828 C898.439619,352.576821 899.173824,352.299643 900.024414,352.092285 C900.875004,351.884927 901.740393,351.78125 902.620605,351.78125 C904.35564,351.78125 905.606116,352.15999 906.37207,352.91748 C907.138025,353.674971 907.520996,354.963533 907.520996,356.783203 L907.520996,366 L905.870605,366 Z M909.399902,352.073242 L911.646973,352.073242 L916.039551,363.664062 L919.949707,352.073242 L922.196777,352.073242 L916.369629,368.069336 L916.369629,368.069336 C915.785642,369.533536 915.078943,370.606279 914.249512,371.287598 C913.42008,371.968916 912.328295,372.30957 910.974121,372.30957 C910.567869,372.30957 910.140464,372.275716 909.691895,372.208008 L909.564941,370.405273 L909.942174,370.430146 C910.232353,370.447419 910.462076,370.456055 910.631348,370.456055 C911.587733,370.456055 912.313474,370.280438 912.808594,369.929199 C913.303713,369.57796 913.745929,368.919927 914.135254,367.955078 L914.631312,366.662037 C914.741651,366.367381 914.834436,366.112848 914.909668,365.898438 L909.399902,352.073242 Z M932.175293,354.650391 C931.557451,353.905595 930.706874,353.533203 929.623535,353.533203 C928.540196,353.533203 927.655765,353.916175 926.970215,354.682129 C926.284665,355.448083 925.88265,356.495436 925.76416,357.824219 L933.114746,357.824219 C933.114746,356.444655 932.801598,355.386722 932.175293,354.650391 Z M930.04248,366.291992 C928.019684,366.291992 926.426438,365.648769 925.262695,364.362305 C924.098953,363.07584 923.51709,361.315441 923.51709,359.081055 C923.51709,356.922841 924.07991,355.173021 925.205566,353.831543 C926.331223,352.490065 927.812328,351.806641 929.648926,351.78125 C931.375497,351.78125 932.744461,352.371576 933.755859,353.552246 C934.707764,354.663465 935.211706,356.125155 935.2677,357.937355 L935.272695,358.352344 L935.272695,358.352344 L935.260254,359.423828 L935.260254,359.423828 L925.700684,359.423828 C925.726074,361.006518 926.134436,362.240067 926.925781,363.124512 C927.717126,364.008956 928.781406,364.451172 930.118652,364.451172 C931.591316,364.451172 933.068189,364.061853 934.549316,363.283203 L934.879395,364.99707 C933.465976,365.860356 931.853687,366.291992 930.04248,366.291992 Z M944.464355,351.946289 C944.845217,351.946289 945.192218,351.971679 945.505371,352.022461 L945.429199,353.977539 C945.039874,353.90983 944.701336,353.875977 944.413574,353.875977 C943.228672,353.875977 942.265954,354.28857 941.525391,355.11377 C940.784827,355.938969 940.414551,356.960931 940.414551,358.179688 L940.414551,366 L938.294434,366 L938.281738,352.073242 L938.281738,352.073242 L940.046387,352.073242 L940.249512,354.574219 C940.731936,353.787105 941.345537,353.152346 942.090332,352.669922 C942.835127,352.187498 943.626461,351.946289 944.464355,351.946289 Z" id="OutputLayer" fill="#FFFFFF" fill-rule="nonzero"></path>
        <polygon id="Line-2" fill="#4C7EF3" fill-rule="nonzero" points="190.60871 278.537417 189.537417 282.39129 470.39129 360.462583 471.462583 356.60871"></polygon>
        <polygon id="Line-2-Copy-2" fill="#37C3BE" fill-rule="nonzero" points="568.880426 359.402587 567.402587 363.119574 820.119574 463.597413 821.597413 459.880426"></polygon>
        <polygon id="Line-2-Copy-2" fill="#37C3BE" fill-rule="nonzero" transform="translate(694.500000, 518.000000) scale(1, -1) translate(-694.500000, -518.000000) " points="569.00527 458.852263 567.352263 462.49473 819.99473 577.147737 821.647737 573.50527"></polygon>
        <polygon id="Line-2" fill="#FFC107" fill-rule="nonzero" points="189.005042 282.171577 186.171577 284.994958 468.994958 568.828423 471.828423 566.005042"></polygon>
        <polygon id="Line-2-Copy" fill="#FFC107" fill-rule="nonzero" transform="translate(330.461306, 613.515055) scale(1, -1) rotate(-0.000000) translate(-330.461306, -613.515055) " points="190.691147 567.522741 189.49263 571.338964 470.231466 659.50737 471.429983 655.691147"></polygon>
        <polygon id="Line-2-Copy" fill="#FFC107" fill-rule="nonzero" transform="translate(332.461307, 518.515055) scale(1, -1) rotate(-0.000000) translate(-332.461307, -518.515055) " points="193.430073 567.848809 194.818698 571.600038 471.49254 469.181302 470.103915 465.430073"></polygon>
        <polygon id="Line-2-Copy" fill="#4C7EF3" fill-rule="nonzero" transform="translate(332.461307, 411.515055) rotate(-0.000000) translate(-332.461307, -411.515055) " points="193.415131 462.881871 194.851761 466.614979 471.507482 360.148239 470.070852 356.415131"></polygon>
        <polygon id="Line-2-Copy" fill="#4C7EF3" fill-rule="nonzero" transform="translate(330.000000, 507.500000) scale(1, -1) translate(-330.000000, -507.500000) " points="191.064604 359.172311 188.172311 361.935396 468.935396 655.827689 471.827689 653.064604"></polygon>
        <path d="M519.5,310 C547.942665,310 571,333.057335 571,361.5 C571,389.942665 547.942665,413 519.5,413 C491.057335,413 468,389.942665 468,361.5 C468,333.057335 491.057335,310 519.5,310 Z M519.5,314 C493.266474,314 472,335.266474 472,361.5 C472,387.733526 493.266474,409 519.5,409 C545.733526,409 567,387.733526 567,361.5 C567,335.266474 545.733526,314 519.5,314 Z" id="Oval-2-Copy-3" fill="#4C7EF3" fill-rule="nonzero"></path>
        <path d="M519.5,523 C547.942665,523 571,546.057335 571,574.5 C571,602.942665 547.942665,626 519.5,626 C491.057335,626 468,602.942665 468,574.5 C468,546.057335 491.057335,523 519.5,523 Z M519.5,527 C493.266474,527 472,548.266474 472,574.5 C472,600.733526 493.266474,622 519.5,622 C545.733526,622 567,600.733526 567,574.5 C567,548.266474 545.733526,527 519.5,527 Z" id="Oval-2-Copy-4" fill="#FFC107" fill-rule="nonzero"></path>
        <path d="M146.5,203 C174.942665,203 198,226.057335 198,254.5 C198,282.942665 174.942665,306 146.5,306 C118.057335,306 95,282.942665 95,254.5 C95,226.057335 118.057335,203 146.5,203 Z M146.5,207 C120.266474,207 99,228.266474 99,254.5 C99,280.733526 120.266474,302 146.5,302 C172.733526,302 194,280.733526 194,254.5 C194,228.266474 172.733526,207 146.5,207 Z" id="Oval-2" fill="#FFFFFF" fill-rule="nonzero"></path>
        <path d="M146.5,416 C174.942665,416 198,439.057335 198,467.5 C198,495.942665 174.942665,519 146.5,519 C118.057335,519 95,495.942665 95,467.5 C95,439.057335 118.057335,416 146.5,416 Z M146.5,420 C120.266474,420 99,441.266474 99,467.5 C99,493.733526 120.266474,515 146.5,515 C172.733526,515 194,493.733526 194,467.5 C194,441.266474 172.733526,420 146.5,420 Z" id="Oval-2-Copy" fill="#FFFFFF" fill-rule="nonzero"></path>
        <path d="M146.5,629 C174.942665,629 198,652.057335 198,680.5 C198,708.942665 174.942665,732 146.5,732 C118.057335,732 95,708.942665 95,680.5 C95,652.057335 118.057335,629 146.5,629 Z M146.5,633 C120.266474,633 99,654.266474 99,680.5 C99,706.733526 120.266474,728 146.5,728 C172.733526,728 194,706.733526 194,680.5 C194,654.266474 172.733526,633 146.5,633 Z" id="Oval-2-Copy-2" fill="#FFFFFF" fill-rule="nonzero"></path>
        <path d="M525.292707,593.290902 L526.614517,592.5 L525.716995,592.5 L525.292707,593.290902 Z M493,592.5 C492.171573,592.5 491.5,593.171573 491.5,594 C491.5,594.828427 492.171573,595.5 493,595.5 L526.614517,595.5 C527.167176,595.5 527.675066,595.196105 527.936326,594.709098 L548.321809,556.709098 C548.713433,555.979083 548.439113,555.069815 547.709098,554.678191 C546.979083,554.286567 546.069815,554.560887 545.678191,555.290902 L525.716995,592.5 L493,592.5 Z" id="Path-Copy" fill="#FFC107" fill-rule="nonzero"></path>
        <path d="M493,379.5 C492.171573,379.5 491.5,380.171573 491.5,381 C491.5,381.828427 492.171573,382.5 493,382.5 L526.614517,382.5 C527.167176,382.5 527.675066,382.196105 527.936326,381.709098 L548.321809,343.709098 C548.713433,342.979083 548.439113,342.069815 547.709098,341.678191 C546.979083,341.286567 546.069815,341.560887 545.678191,342.290902 L525.716995,379.5 L493,379.5 Z" id="Path-Copy-2" fill="#4C7EF3" fill-rule="nonzero"></path>
        <path d="M842.626383,481.726154 C852.306143,484.215632 860.064583,482.889636 865.724395,477.665734 C869.710913,473.986251 871.257044,470.564014 872.893257,463.472581 L873.430993,461.085669 L873.756556,459.682523 C874.70094,455.701119 875.388492,453.675948 876.735092,451.012791 C879.73495,445.08 886.35575,442.620688 896.940663,443.764744 C897.764293,443.853764 898.504143,443.258246 898.593164,442.434616 C898.682185,441.610985 898.086667,440.871136 897.263037,440.782115 C885.561108,439.517328 877.711665,442.433021 874.057877,449.659084 L873.770481,450.23741 C872.287363,453.277911 871.573406,455.686531 870.407703,460.8527 L869.976355,462.770997 L869.766517,463.662738 C868.337034,469.602248 866.965989,472.437235 863.689668,475.461219 C858.850782,479.927422 852.137867,481.074727 843.373617,478.820704 C842.571299,478.614361 841.753618,479.097494 841.547275,479.899812 C841.340932,480.70213 841.824065,481.519811 842.626383,481.726154 Z" id="Path-Copy-3" fill="#37C3BE" fill-rule="nonzero"></path>
    </g>
</svg>