<?xml version="1.0" encoding="UTF-8"?>
<svg width="376px" height="317px" viewBox="0 0 376 317" version="1.1" xmlns="http://www.w3.org/2000/svg" xmlns:xlink="http://www.w3.org/1999/xlink">
    <!-- Generator: Sketch 59.1 (86144) - https://sketch.com -->
    <title>Hidden layers diagram</title>
    <desc>Created with Sketch.</desc>
    <g id="Hidden-layers-diagram" stroke="none" stroke-width="1" fill="none" fill-rule="evenodd">
        <polygon id="Line-2-Copy-4" fill="#0F1931" fill-rule="nonzero" points="97.4060025 155.616377 97.6163766 156.593998 177.593998 139.383623 177.383623 138.406002"></polygon>
        <polygon id="Line-2-Copy-4" fill="#0F1931" fill-rule="nonzero" points="97.30745 155.857261 97.8572607 156.69255 177.69255 104.142739 177.142739 103.30745"></polygon>
        <polygon id="Line-2-Copy-4" fill="#0F1931" fill-rule="nonzero" points="97.2935287 156.029972 98.0299715 156.706471 177.706471 69.9700285 176.970028 69.2935287"></polygon>
        <polygon id="Line-2-Copy-4" fill="#0F1931" fill-rule="nonzero" points="97.3079875 156.145323 98.1453226 156.692013 177.692013 34.8546774 176.854677 34.3079875"></polygon>
        <polygon id="Line-2" fill="#0F1931" fill-rule="nonzero" points="97.6235715 51.401417 97.401417 52.3764285 177.376428 70.598583 177.598583 69.6235715"></polygon>
        <polygon id="Line-2" fill="#0F1931" fill-rule="nonzero" points="97.8572607 51.30745 97.30745 52.1427393 177.142739 104.69255 177.69255 103.857261"></polygon>
        <polygon id="Line-2" fill="#0F1931" fill-rule="nonzero" points="98.0340379 51.2937129 97.2937129 51.9659621 176.965962 139.706287 177.706287 139.034038"></polygon>
        <polygon id="Line-2" fill="#0F1931" fill-rule="nonzero" points="98.4049936 51.6179432 98.6179432 52.5950064 177.595006 35.3820568 177.382057 34.4049936"></polygon>
        <polygon id="Line-2-Copy" fill="#0F1931" fill-rule="nonzero" points="97.6163766 17.4060025 97.4060025 18.3836234 177.383623 35.5939975 177.593998 34.6163766"></polygon>
        <polygon id="Line-2-Copy" fill="#0F1931" fill-rule="nonzero" points="97.8572607 17.30745 97.30745 18.1427393 177.142739 70.69255 177.69255 69.8572607"></polygon>
        <polygon id="Line-2-Copy" fill="#0F1931" fill-rule="nonzero" points="98.0299715 17.2935287 97.2935287 17.9700285 176.970028 104.706471 177.706471 104.029972"></polygon>
        <polygon id="Line-2-Copy" fill="#0F1931" fill-rule="nonzero" points="98.1453226 17.3079875 97.3079875 17.8546774 176.854677 139.692013 177.692013 139.145323"></polygon>
        <polygon id="Line-2-Copy-2" fill="#0F1931" fill-rule="nonzero" points="97.6163766 86.4060025 97.4060025 87.3836234 177.383623 104.593998 177.593998 103.616377"></polygon>
        <polygon id="Line-2-Copy-2" fill="#0F1931" fill-rule="nonzero" points="97.4049936 86.6179432 97.6179432 87.5950064 176.595006 70.3820568 176.382057 69.4049936"></polygon>
        <polygon id="Line-2-Copy-2" fill="#0F1931" fill-rule="nonzero" points="97.30745 86.8572607 97.8572607 87.69255 177.69255 35.1427393 177.142739 34.30745"></polygon>
        <polygon id="Line-2-Copy-2" fill="#0F1931" fill-rule="nonzero" points="98.8551399 87.3078905 98.3078905 88.1448601 177.14486 139.692109 177.692109 138.85514"></polygon>
        <polygon id="Line-2-Copy-3" fill="#0F1931" fill-rule="nonzero" points="98.6179432 121.404994 98.4049936 122.382057 177.382057 139.595006 177.595006 138.617943"></polygon>
        <polygon id="Line-2-Copy-3" fill="#0F1931" fill-rule="nonzero" points="97.401417 121.623572 97.6235715 122.598583 177.598583 104.376428 177.376428 103.401417"></polygon>
        <polygon id="Line-2-Copy-3" fill="#0F1931" fill-rule="nonzero" points="97.30745 121.857261 97.8572607 122.69255 177.69255 70.1427393 177.142739 69.30745"></polygon>
        <polygon id="Line-2-Copy-3" fill="#0F1931" fill-rule="nonzero" points="97.2937129 122.034038 98.0340379 122.706287 177.706287 34.9659621 176.965962 34.2937129"></polygon>
        <polygon id="Line-2-Copy-5" fill="#0F1931" fill-rule="nonzero" points="197.611911 69.4089105 197.40891 70.3880891 280.388089 87.5910895 280.59109 86.6119109"></polygon>
        <polygon id="Line-2-Copy-6" fill="#0F1931" fill-rule="nonzero" points="197.845517 34.3099747 197.309975 35.1544833 280.154483 87.6900253 280.690025 86.8455167"></polygon>
        <polygon id="Line-2-Copy-7" fill="#0F1931" fill-rule="nonzero" points="197.40891 103.611911 197.611911 104.59109 280.59109 87.3880891 280.388089 86.4089105"></polygon>
        <polygon id="Line-2-Copy-8" fill="#0F1931" fill-rule="nonzero" points="197.309975 138.845517 197.845517 139.690025 280.690025 87.1544833 280.154483 86.3099747"></polygon>
        <path d="M87,7.5 C92.7989899,7.5 97.5,12.2010101 97.5,18 C97.5,23.7989899 92.7989899,28.5 87,28.5 C81.2010101,28.5 76.5,23.7989899 76.5,18 C76.5,12.2010101 81.2010101,7.5 87,7.5 Z M87,8.5 C81.7532949,8.5 77.5,12.7532949 77.5,18 C77.5,23.2467051 81.7532949,27.5 87,27.5 C92.2467051,27.5 96.5,23.2467051 96.5,18 C96.5,12.7532949 92.2467051,8.5 87,8.5 Z" id="Oval" fill="#4FE0B0" fill-rule="nonzero"></path>
        <path d="M188,24.5 C193.79899,24.5 198.5,29.2010101 198.5,35 C198.5,40.7989899 193.79899,45.5 188,45.5 C182.20101,45.5 177.5,40.7989899 177.5,35 C177.5,29.2010101 182.20101,24.5 188,24.5 Z M188,25.5 C182.753295,25.5 178.5,29.7532949 178.5,35 C178.5,40.2467051 182.753295,44.5 188,44.5 C193.246705,44.5 197.5,40.2467051 197.5,35 C197.5,29.7532949 193.246705,25.5 188,25.5 Z" id="Oval-Copy-5" fill="#FD4D3F" fill-rule="nonzero"></path>
        <path d="M87,42.5 C92.7934169,42.5 97.5,46.9712539 97.5,52.5 C97.5,58.0287461 92.7934169,62.5 87,62.5 C81.2065831,62.5 76.5,58.0287461 76.5,52.5 C76.5,46.9712539 81.2065831,42.5 87,42.5 Z M87,43.5 C81.7477219,43.5 77.5,47.5353358 77.5,52.5 C77.5,57.4646642 81.7477219,61.5 87,61.5 C92.2522781,61.5 96.5,57.4646642 96.5,52.5 C96.5,47.5353358 92.2522781,43.5 87,43.5 Z" id="Oval-Copy" fill="#4FE0B0" fill-rule="nonzero"></path>
        <path d="M188,59.5 C193.79899,59.5 198.5,64.2010101 198.5,70 C198.5,75.7989899 193.79899,80.5 188,80.5 C182.20101,80.5 177.5,75.7989899 177.5,70 C177.5,64.2010101 182.20101,59.5 188,59.5 Z M188,60.5 C182.753295,60.5 178.5,64.7532949 178.5,70 C178.5,75.2467051 182.753295,79.5 188,79.5 C193.246705,79.5 197.5,75.2467051 197.5,70 C197.5,64.7532949 193.246705,60.5 188,60.5 Z" id="Oval-Copy-6" fill="#FD4D3F" fill-rule="nonzero"></path>
        <path d="M87,76.5 C92.7989899,76.5 97.5,81.2010101 97.5,87 C97.5,92.7989899 92.7989899,97.5 87,97.5 C81.2010101,97.5 76.5,92.7989899 76.5,87 C76.5,81.2010101 81.2010101,76.5 87,76.5 Z M87,77.5 C81.7532949,77.5 77.5,81.7532949 77.5,87 C77.5,92.2467051 81.7532949,96.5 87,96.5 C92.2467051,96.5 96.5,92.2467051 96.5,87 C96.5,81.7532949 92.2467051,77.5 87,77.5 Z" id="Oval-Copy-2" fill="#4FE0B0" fill-rule="nonzero"></path>
        <path d="M290,76.5 C295.79899,76.5 300.5,81.2010101 300.5,87 C300.5,92.7989899 295.79899,97.5 290,97.5 C284.20101,97.5 279.5,92.7989899 279.5,87 C279.5,81.2010101 284.20101,76.5 290,76.5 Z M290,77.5 C284.753295,77.5 280.5,81.7532949 280.5,87 C280.5,92.2467051 284.753295,96.5 290,96.5 C295.246705,96.5 299.5,92.2467051 299.5,87 C299.5,81.7532949 295.246705,77.5 290,77.5 Z" id="Oval-Copy-9" fill="#632EE4" fill-rule="nonzero"></path>
        <path d="M188,93.5 C193.79899,93.5 198.5,98.2010101 198.5,104 C198.5,109.79899 193.79899,114.5 188,114.5 C182.20101,114.5 177.5,109.79899 177.5,104 C177.5,98.2010101 182.20101,93.5 188,93.5 Z M188,94.5 C182.753295,94.5 178.5,98.7532949 178.5,104 C178.5,109.246705 182.753295,113.5 188,113.5 C193.246705,113.5 197.5,109.246705 197.5,104 C197.5,98.7532949 193.246705,94.5 188,94.5 Z" id="Oval-Copy-7" fill="#FD4D3F" fill-rule="nonzero"></path>
        <path d="M87,111.5 C92.7934169,111.5 97.5,115.971254 97.5,121.5 C97.5,127.028746 92.7934169,131.5 87,131.5 C81.2065831,131.5 76.5,127.028746 76.5,121.5 C76.5,115.971254 81.2065831,111.5 87,111.5 Z M87,112.5 C81.7477219,112.5 77.5,116.535336 77.5,121.5 C77.5,126.464664 81.7477219,130.5 87,130.5 C92.2522781,130.5 96.5,126.464664 96.5,121.5 C96.5,116.535336 92.2522781,112.5 87,112.5 Z" id="Oval-Copy-3" fill="#4FE0B0" fill-rule="nonzero"></path>
        <path d="M188,128.5 C193.79899,128.5 198.5,133.20101 198.5,139 C198.5,144.79899 193.79899,149.5 188,149.5 C182.20101,149.5 177.5,144.79899 177.5,139 C177.5,133.20101 182.20101,128.5 188,128.5 Z M188,129.5 C182.753295,129.5 178.5,133.753295 178.5,139 C178.5,144.246705 182.753295,148.5 188,148.5 C193.246705,148.5 197.5,144.246705 197.5,139 C197.5,133.753295 193.246705,129.5 188,129.5 Z" id="Oval-Copy-8" fill="#FD4D3F" fill-rule="nonzero"></path>
        <path d="M87,145.5 C92.7989899,145.5 97.5,150.20101 97.5,156 C97.5,161.79899 92.7989899,166.5 87,166.5 C81.2010101,166.5 76.5,161.79899 76.5,156 C76.5,150.20101 81.2010101,145.5 87,145.5 Z M87,146.5 C81.7532949,146.5 77.5,150.753295 77.5,156 C77.5,161.246705 81.7532949,165.5 87,165.5 C92.2467051,165.5 96.5,161.246705 96.5,156 C96.5,150.753295 92.2467051,146.5 87,146.5 Z" id="Oval-Copy-4" fill="#4FE0B0" fill-rule="nonzero"></path>
        <path d="M222.5,208.5 L154.5,208.5 L154.5,164.5 L222.5,164.5 L222.5,208.5 Z M221.5,165.5 L155.5,165.5 L155.5,207.5 L221.5,207.5 L221.5,165.5 Z" id="Rectangle-Copy-16" fill="#FD4D3F" fill-rule="nonzero"></path>
        <path d="M219.5,283.5 L160.5,283.5 L160.5,262.5 L219.5,262.5 L219.5,283.5 Z M218.5,263.5 L161.5,263.5 L161.5,282.5 L218.5,282.5 L218.5,263.5 Z" id="Rectangle-Copy-17" fill="#FD4D3F" fill-rule="nonzero" transform="translate(190.000000, 273.000000) rotate(-270.000000) translate(-190.000000, -273.000000) "></path>
        <path d="M319.5,233.5 L260.5,233.5 L260.5,212.5 L319.5,212.5 L319.5,233.5 Z M318.5,213.5 L261.5,213.5 L261.5,232.5 L318.5,232.5 L318.5,213.5 Z" id="Rectangle-Copy-18" fill="#632EE4" fill-rule="nonzero" transform="translate(290.000000, 223.000000) rotate(-270.000000) translate(-290.000000, -223.000000) "></path>
        <path d="M323.5,156.5 L256.5,156.5 L256.5,135.5 L323.5,135.5 L323.5,156.5 Z M322.5,136.5 L257.5,136.5 L257.5,155.5 L322.5,155.5 L322.5,136.5 Z" id="Rectangle-Copy-19" fill="#632EE4" fill-rule="nonzero" transform="translate(290.000000, 146.000000) rotate(-270.000000) translate(-290.000000, -146.000000) "></path>
        <path d="M174.279,185.316999 L175.413,185.316999 L172.879,192.134999 L171.787,192.134999 L169.869,186.856999 L167.937,192.134999 L166.859,192.134999 L164.325,185.316999 L165.501,185.316999 L167.433,190.790999 L169.407,185.316999 L170.387,185.316999 L172.333,190.790999 L174.279,185.316999 Z M182.525,188.900999 L177.541,188.900999 C177.578334,189.694336 177.792998,190.293997 178.185,190.699999 C178.577002,191.106001 179.13233,191.308999 179.851,191.308999 C180.644337,191.308999 181.37233,191.038335 182.035,190.496999 L182.413,191.322999 C182.114332,191.603 181.731669,191.824665 181.265,191.987999 C180.798331,192.151333 180.322336,192.232999 179.837,192.232999 C178.772995,192.232999 177.935336,191.920335 177.324,191.294999 C176.712664,190.669662 176.407,189.806338 176.407,188.704999 C176.407,188.004995 176.542332,187.386668 176.813,186.849999 C177.083668,186.31333 177.463998,185.895667 177.954,185.596999 C178.444002,185.298331 179.001664,185.148999 179.627,185.148999 C180.532338,185.148999 181.241664,185.445329 181.755,186.037999 C182.268336,186.630668 182.525,187.444994 182.525,188.480999 L182.525,188.900999 Z M179.641,186.030999 C179.043664,186.030999 178.565335,186.217664 178.206,186.590999 C177.846665,186.964334 177.634334,187.491662 177.569,188.172999 L181.531,188.172999 C181.512333,187.482329 181.339668,186.952667 181.013,186.583999 C180.686332,186.21533 180.229003,186.030999 179.641,186.030999 Z M184.191,192.134999 L184.191,185.316999 L185.325,185.316999 L185.325,192.134999 L184.191,192.134999 Z M184.079,182.362999 L185.451,182.362999 L185.451,183.636999 L184.079,183.636999 L184.079,182.362999 Z M193.543,185.316999 L193.543,191.672999 C193.543,192.690337 193.281669,193.457996 192.759,193.975999 C192.236331,194.494001 191.461672,194.752999 190.435,194.752999 C189.240327,194.752999 188.237004,194.445002 187.425,193.828999 L187.803,192.988999 C188.260336,193.287667 188.689665,193.502332 189.091,193.632999 C189.492335,193.763666 189.940331,193.828999 190.435,193.828999 C191.088337,193.828999 191.582998,193.654001 191.919,193.303999 C192.255002,192.953997 192.423,192.443002 192.423,191.770999 L192.423,190.566999 C192.226999,191.005668 191.926002,191.341664 191.52,191.574999 C191.113998,191.808333 190.635669,191.924999 190.085,191.924999 C189.487664,191.924999 188.958002,191.785 188.496,191.504999 C188.033998,191.224997 187.674668,190.828335 187.418,190.314999 C187.161332,189.801663 187.033,189.209002 187.033,188.536999 C187.033,187.864995 187.161332,187.272335 187.418,186.758999 C187.674668,186.245663 188.033998,185.849 188.496,185.568999 C188.958002,185.288997 189.487664,185.148999 190.085,185.148999 C190.626336,185.148999 191.097665,185.265664 191.499,185.498999 C191.900335,185.732333 192.203666,186.063663 192.409,186.492999 L192.409,185.316999 L193.543,185.316999 Z M190.309,190.986999 C190.962337,190.986999 191.475665,190.770001 191.849,190.335999 C192.222335,189.901997 192.409,189.302336 192.409,188.536999 C192.409,187.780995 192.224669,187.186001 191.856,186.751999 C191.487331,186.317997 190.97167,186.100999 190.309,186.100999 C189.64633,186.100999 189.126002,186.317997 188.748,186.751999 C188.369998,187.186001 188.181,187.780995 188.181,188.536999 C188.181,189.302336 188.369998,189.901997 188.748,190.335999 C189.126002,190.770001 189.64633,190.986999 190.309,190.986999 Z M199.073,185.148999 C200.706342,185.148999 201.523,186.049657 201.523,187.850999 L201.523,192.134999 L200.389,192.134999 L200.389,187.920999 C200.389,187.286329 200.265335,186.824334 200.018,186.534999 C199.770665,186.245664 199.376336,186.100999 198.835,186.100999 C198.209664,186.100999 197.710335,186.29233 197.337,186.674999 C196.963665,187.057667 196.777,187.575662 196.777,188.228999 L196.777,192.134999 L195.643,192.134999 L195.643,182.264999 L196.777,182.264999 L196.777,186.408999 C197.001001,185.99833 197.311331,185.685667 197.708,185.470999 C198.104669,185.256331 198.559664,185.148999 199.073,185.148999 Z M206.591,191.322999 C206.796334,191.322999 207.001666,191.308999 207.207,191.280999 L207.151,192.176999 C206.936332,192.214332 206.703001,192.232999 206.451,192.232999 C205.629663,192.232999 205.011335,192.018334 204.596,191.588999 C204.180665,191.159663 203.973,190.562336 203.973,189.796999 L203.973,186.212999 L202.643,186.212999 L202.643,185.316999 L203.973,185.316999 L203.973,183.244999 L205.107,183.244999 L205.107,185.316999 L207.039,185.316999 L207.039,186.212999 L205.107,186.212999 L205.107,189.712999 C205.107,190.786338 205.601662,191.322999 206.591,191.322999 Z M210.665,192.232999 C209.516994,192.232999 208.607003,191.939002 207.935,191.350999 L208.313,190.510999 C208.677002,190.800334 209.047998,191.007998 209.426,191.133999 C209.804002,191.259999 210.230998,191.322999 210.707,191.322999 C211.211003,191.322999 211.595999,191.236666 211.862,191.063999 C212.128001,190.891331 212.261,190.641667 212.261,190.314999 C212.261,190.044331 212.172334,189.829666 211.995,189.670999 C211.817666,189.512331 211.523669,189.386333 211.113,189.292999 L209.965,189.026999 C209.38633,188.896332 208.943002,188.672334 208.635,188.354999 C208.326998,188.037664 208.173,187.645668 208.173,187.178999 C208.173,186.572329 208.410998,186.082334 208.887,185.708999 C209.363002,185.335664 209.997663,185.148999 210.791,185.148999 C211.267002,185.148999 211.719665,185.225998 212.149,185.379999 C212.578335,185.534 212.937665,185.755664 213.227,186.044999 L212.849,186.870999 C212.223664,186.338996 211.53767,186.072999 210.791,186.072999 C210.314998,186.072999 209.944001,186.163998 209.678,186.345999 C209.411999,186.528 209.279,186.782331 209.279,187.108999 C209.279,187.379667 209.360666,187.596665 209.524,187.759999 C209.687334,187.923333 209.950998,188.046998 210.315,188.130999 L211.477,188.410999 C212.11167,188.560333 212.582998,188.786664 212.891,189.089999 C213.199002,189.393334 213.353,189.787663 213.353,190.272999 C213.353,190.870335 213.112669,191.34633 212.632,191.700999 C212.151331,192.055667 211.495671,192.232999 210.665,192.232999 Z" id="weights" fill="#FD4D3F" fill-rule="nonzero"></path>
        <path d="M181.212,272.148999 C181.809336,272.148999 182.336664,272.293664 182.794,272.582999 C183.251336,272.872334 183.605999,273.282996 183.858,273.814999 C184.110001,274.347002 184.236,274.962995 184.236,275.662999 C184.236,276.372336 184.110001,276.99533 183.858,277.531999 C183.605999,278.068668 183.251336,278.486331 182.794,278.784999 C182.336664,279.083667 181.809336,279.232999 181.212,279.232999 C180.679997,279.232999 180.215669,279.116333 179.819,278.882999 C179.422331,278.649664 179.121334,278.318334 178.916,277.888999 L178.916,279.134999 L177.782,279.134999 L177.782,269.264999 L178.916,269.264999 L178.916,273.492999 C179.121334,273.063663 179.422331,272.732333 179.819,272.498999 C180.215669,272.265664 180.679997,272.148999 181.212,272.148999 Z M180.988,278.294999 C181.65067,278.294999 182.163998,278.064001 182.528,277.601999 C182.892002,277.139997 183.074,276.49367 183.074,275.662999 C183.074,274.850995 182.892002,274.221001 182.528,273.772999 C182.163998,273.324997 181.65067,273.100999 180.988,273.100999 C180.32533,273.100999 179.814335,273.324997 179.455,273.772999 C179.095665,274.221001 178.916,274.860328 178.916,275.690999 C178.916,276.52167 179.095665,277.16333 179.455,277.615999 C179.814335,278.068668 180.32533,278.294999 180.988,278.294999 Z M185.93,279.134999 L185.93,272.316999 L187.064,272.316999 L187.064,279.134999 L185.93,279.134999 Z M185.818,269.362999 L187.19,269.362999 L187.19,270.636999 L185.818,270.636999 L185.818,269.362999 Z M191.95,272.148999 C192.818004,272.148999 193.464331,272.370663 193.889,272.813999 C194.313669,273.257334 194.526,273.931661 194.526,274.836999 L194.526,279.134999 L193.42,279.134999 L193.42,277.972999 C193.242666,278.374334 192.972002,278.684664 192.608,278.903999 C192.243998,279.123333 191.824002,279.232999 191.348,279.232999 C190.909331,279.232999 190.505669,279.144333 190.137,278.966999 C189.768331,278.789665 189.476668,278.542334 189.262,278.224999 C189.047332,277.907664 188.94,277.557667 188.94,277.174999 C188.94,276.661663 189.070665,276.262667 189.332,275.977999 C189.593335,275.693331 190.022664,275.487999 190.62,275.361999 C191.150966,275.249998 191.866284,275.187777 192.765974,275.175332 L193.42,275.172999 L193.42,274.710999 C193.42,274.141663 193.303335,273.728667 193.07,273.471999 C192.836666,273.215331 192.458669,273.086999 191.936,273.086999 C191.151996,273.086999 190.372671,273.329663 189.598,273.814999 L189.22,272.988999 C189.574668,272.736998 190.001664,272.534 190.501,272.379999 C191.000336,272.225998 191.483331,272.148999 191.95,272.148999 Z M191.502,278.336999 C192.062003,278.336999 192.521665,278.148001 192.881,277.769999 C193.240335,277.391997 193.42,276.904335 193.42,276.306999 L193.42,275.900999 L193.168,275.900999 C192.346663,275.900999 191.721335,275.935999 191.292,276.005999 C190.862665,276.075999 190.557001,276.192665 190.375,276.355999 C190.192999,276.519333 190.102,276.759664 190.102,277.076999 C190.102,277.441001 190.234999,277.741998 190.501,277.979999 C190.767001,278.218 191.100665,278.336999 191.502,278.336999 Z M198.908,279.232999 C197.759994,279.232999 196.850003,278.939002 196.178,278.350999 L196.556,277.510999 C196.920002,277.800334 197.290998,278.007998 197.669,278.133999 C198.047002,278.259999 198.473998,278.322999 198.95,278.322999 C199.454003,278.322999 199.838999,278.236666 200.105,278.063999 C200.371001,277.891331 200.504,277.641667 200.504,277.314999 C200.504,277.044331 200.415334,276.829666 200.238,276.670999 C200.060666,276.512331 199.766669,276.386333 199.356,276.292999 L198.208,276.026999 C197.62933,275.896332 197.186002,275.672334 196.878,275.354999 C196.569998,275.037664 196.416,274.645668 196.416,274.178999 C196.416,273.572329 196.653998,273.082334 197.13,272.708999 C197.606002,272.335664 198.240663,272.148999 199.034,272.148999 C199.510002,272.148999 199.962665,272.225998 200.392,272.379999 C200.821335,272.534 201.180665,272.755664 201.47,273.044999 L201.092,273.870999 C200.466664,273.338996 199.78067,273.072999 199.034,273.072999 C198.557998,273.072999 198.187001,273.163998 197.921,273.345999 C197.654999,273.528 197.522,273.782331 197.522,274.108999 C197.522,274.379667 197.603666,274.596665 197.767,274.759999 C197.930334,274.923333 198.193998,275.046998 198.558,275.130999 L199.72,275.410999 C200.35467,275.560333 200.825998,275.786664 201.134,276.089999 C201.442002,276.393334 201.596,276.787663 201.596,277.272999 C201.596,277.870335 201.355669,278.34633 200.875,278.700999 C200.394331,279.055667 199.738671,279.232999 198.908,279.232999 Z" id="bias" fill="#FD4D3F" fill-rule="nonzero" transform="translate(189.689000, 274.248999) rotate(-270.000000) translate(-189.689000, -274.248999) "></path>
        <path d="M281.43,221.884 C282.027336,221.884 282.554664,222.028665 283.012,222.318 C283.469336,222.607335 283.823999,223.017997 284.076,223.55 C284.328001,224.082003 284.454,224.697996 284.454,225.398 C284.454,226.107337 284.328001,226.730331 284.076,227.267 C283.823999,227.803669 283.469336,228.221332 283.012,228.52 C282.554664,228.818668 282.027336,228.968 281.43,228.968 C280.897997,228.968 280.433669,228.851335 280.037,228.618 C279.640331,228.384665 279.339334,228.053335 279.134,227.624 L279.134,228.87 L278,228.87 L278,219 L279.134,219 L279.134,223.228 C279.339334,222.798665 279.640331,222.467334 280.037,222.234 C280.433669,222.000665 280.897997,221.884 281.43,221.884 Z M281.206,228.03 C281.86867,228.03 282.381998,227.799002 282.746,227.337 C283.110002,226.874998 283.292,226.228671 283.292,225.398 C283.292,224.585996 283.110002,223.956002 282.746,223.508 C282.381998,223.059998 281.86867,222.836 281.206,222.836 C280.54333,222.836 280.032335,223.059998 279.673,223.508 C279.313665,223.956002 279.134,224.595329 279.134,225.426 C279.134,226.256671 279.313665,226.898331 279.673,227.351 C280.032335,227.803669 280.54333,228.03 281.206,228.03 Z M286.148,228.87 L286.148,222.052 L287.282,222.052 L287.282,228.87 L286.148,228.87 Z M286.036,219.098 L287.408,219.098 L287.408,220.372 L286.036,220.372 L286.036,219.098 Z M292.168,221.884 C293.036004,221.884 293.682331,222.105664 294.107,222.549 C294.531669,222.992336 294.744,223.666662 294.744,224.572 L294.744,228.87 L293.638,228.87 L293.638,227.708 C293.460666,228.109335 293.190002,228.419666 292.826,228.639 C292.461998,228.858334 292.042002,228.968 291.566,228.968 C291.127331,228.968 290.723669,228.879334 290.355,228.702 C289.986331,228.524666 289.694668,228.277335 289.48,227.96 C289.265332,227.642665 289.158,227.292669 289.158,226.91 C289.158,226.396664 289.288665,225.997668 289.55,225.713 C289.811335,225.428332 290.240664,225.223001 290.838,225.097 C291.368966,224.984999 292.084284,224.922778 292.983974,224.910333 L293.638,224.908 L293.638,224.446 C293.638,223.876664 293.521335,223.463668 293.288,223.207 C293.054665,222.950332 292.676669,222.822 292.154,222.822 C291.369996,222.822 290.590671,223.064664 289.816,223.55 L289.438,222.724 C289.792668,222.471999 290.219664,222.269001 290.719,222.115 C291.218336,221.960999 291.701331,221.884 292.168,221.884 Z M291.72,228.072 C292.280003,228.072 292.739665,227.883002 293.099,227.505 C293.458335,227.126998 293.638,226.639336 293.638,226.042 L293.638,225.636 L293.386,225.636 C292.564663,225.636 291.939335,225.671 291.51,225.741 C291.080665,225.811 290.775001,225.927666 290.593,226.091 C290.410999,226.254334 290.32,226.494665 290.32,226.812 C290.32,227.176002 290.452999,227.476999 290.719,227.715 C290.985001,227.953001 291.318665,228.072 291.72,228.072 Z M299.126,228.968 C297.977994,228.968 297.068003,228.674003 296.396,228.086 L296.774,227.246 C297.138002,227.535335 297.508998,227.742999 297.887,227.869 C298.265002,227.995001 298.691998,228.058 299.168,228.058 C299.672003,228.058 300.056999,227.971668 300.323,227.799 C300.589001,227.626332 300.722,227.376668 300.722,227.05 C300.722,226.779332 300.633334,226.564667 300.456,226.406 C300.278666,226.247333 299.984669,226.121334 299.574,226.028 L298.426,225.762 C297.84733,225.631333 297.404002,225.407335 297.096,225.09 C296.787998,224.772665 296.634,224.380669 296.634,223.914 C296.634,223.30733 296.871998,222.817335 297.348,222.444 C297.824002,222.070665 298.458663,221.884 299.252,221.884 C299.728002,221.884 300.180665,221.960999 300.61,222.115 C301.039335,222.269001 301.398665,222.490665 301.688,222.78 L301.31,223.606 C300.684664,223.073997 299.99867,222.808 299.252,222.808 C298.775998,222.808 298.405001,222.898999 298.139,223.081 C297.872999,223.263001 297.74,223.517332 297.74,223.844 C297.74,224.114668 297.821666,224.331666 297.985,224.495 C298.148334,224.658334 298.411998,224.782 298.776,224.866 L299.938,225.146 C300.57267,225.295334 301.043998,225.521665 301.352,225.825 C301.660002,226.128335 301.814,226.522664 301.814,227.008 C301.814,227.605336 301.573669,228.081332 301.093,228.436 C300.612331,228.790668 299.956671,228.968 299.126,228.968 Z" id="bias" fill="#632EE4" fill-rule="nonzero" transform="translate(289.907000, 223.984000) rotate(-270.000000) translate(-289.907000, -223.984000) "></path>
        <path d="M275.954,143.052 L277.088,143.052 L274.554,149.87 L273.462,149.87 L271.544,144.592 L269.612,149.87 L268.534,149.87 L266,143.052 L267.176,143.052 L269.108,148.526 L271.082,143.052 L272.062,143.052 L274.008,148.526 L275.954,143.052 Z M284.2,146.636 L279.216,146.636 C279.253334,147.429337 279.467998,148.028998 279.86,148.435 C280.252002,148.841002 280.80733,149.044 281.526,149.044 C282.319337,149.044 283.04733,148.773336 283.71,148.232 L284.088,149.058 C283.789332,149.338001 283.406669,149.559666 282.94,149.723 C282.473331,149.886334 281.997336,149.968 281.512,149.968 C280.447995,149.968 279.610336,149.655336 278.999,149.03 C278.387664,148.404664 278.082,147.541339 278.082,146.44 C278.082,145.739996 278.217332,145.121669 278.488,144.585 C278.758668,144.048331 279.138998,143.630668 279.629,143.332 C280.119002,143.033332 280.676664,142.884 281.302,142.884 C282.207338,142.884 282.916664,143.18033 283.43,143.773 C283.943336,144.36567 284.2,145.179995 284.2,146.216 L284.2,146.636 Z M281.316,143.766 C280.718664,143.766 280.240335,143.952665 279.881,144.326 C279.521665,144.699335 279.309334,145.226663 279.244,145.908 L283.206,145.908 C283.187333,145.21733 283.014668,144.687669 282.688,144.319 C282.361332,143.950331 281.904003,143.766 281.316,143.766 Z M285.866,149.87 L285.866,143.052 L287,143.052 L287,149.87 L285.866,149.87 Z M285.754,140.098 L287.126,140.098 L287.126,141.372 L285.754,141.372 L285.754,140.098 Z M295.218,143.052 L295.218,149.408 C295.218,150.425338 294.956669,151.192997 294.434,151.711 C293.911331,152.229003 293.136672,152.488 292.11,152.488 C290.915327,152.488 289.912004,152.180003 289.1,151.564 L289.478,150.724 C289.935336,151.022668 290.364665,151.237333 290.766,151.368 C291.167335,151.498667 291.615331,151.564 292.11,151.564 C292.763337,151.564 293.257998,151.389002 293.594,151.039 C293.930002,150.688998 294.098,150.178003 294.098,149.506 L294.098,148.302 C293.901999,148.740669 293.601002,149.076665 293.195,149.31 C292.788998,149.543334 292.310669,149.66 291.76,149.66 C291.162664,149.66 290.633002,149.520001 290.171,149.24 C289.708998,148.959999 289.349668,148.563336 289.093,148.05 C288.836332,147.536664 288.708,146.944003 288.708,146.272 C288.708,145.599997 288.836332,145.007336 289.093,144.494 C289.349668,143.980664 289.708998,143.584001 290.171,143.304 C290.633002,143.023999 291.162664,142.884 291.76,142.884 C292.301336,142.884 292.772665,143.000665 293.174,143.234 C293.575335,143.467334 293.878666,143.798665 294.084,144.228 L294.084,143.052 L295.218,143.052 Z M291.984,148.722 C292.637337,148.722 293.150665,148.505002 293.524,148.071 C293.897335,147.636998 294.084,147.037337 294.084,146.272 C294.084,145.515996 293.899669,144.921002 293.531,144.487 C293.162331,144.052998 292.64667,143.836 291.984,143.836 C291.32133,143.836 290.801002,144.052998 290.423,144.487 C290.044998,144.921002 289.856,145.515996 289.856,146.272 C289.856,147.037337 290.044998,147.636998 290.423,148.071 C290.801002,148.505002 291.32133,148.722 291.984,148.722 Z M300.748,142.884 C302.381342,142.884 303.198,143.784658 303.198,145.586 L303.198,149.87 L302.064,149.87 L302.064,145.656 C302.064,145.02133 301.940335,144.559335 301.693,144.27 C301.445665,143.980665 301.051336,143.836 300.51,143.836 C299.884664,143.836 299.385335,144.027331 299.012,144.41 C298.638665,144.792669 298.452,145.310663 298.452,145.964 L298.452,149.87 L297.318,149.87 L297.318,140 L298.452,140 L298.452,144.144 C298.676001,143.733331 298.986331,143.420668 299.383,143.206 C299.779669,142.991332 300.234664,142.884 300.748,142.884 Z M308.266,149.058 C308.471334,149.058 308.676666,149.044 308.882,149.016 L308.826,149.912 C308.611332,149.949334 308.378001,149.968 308.126,149.968 C307.304663,149.968 306.686335,149.753335 306.271,149.324 C305.855665,148.894665 305.648,148.297337 305.648,147.532 L305.648,143.948 L304.318,143.948 L304.318,143.052 L305.648,143.052 L305.648,140.98 L306.782,140.98 L306.782,143.052 L308.714,143.052 L308.714,143.948 L306.782,143.948 L306.782,147.448 C306.782,148.521339 307.276662,149.058 308.266,149.058 Z M312.34,149.968 C311.191994,149.968 310.282003,149.674003 309.61,149.086 L309.988,148.246 C310.352002,148.535335 310.722998,148.742999 311.101,148.869 C311.479002,148.995001 311.905998,149.058 312.382,149.058 C312.886003,149.058 313.270999,148.971668 313.537,148.799 C313.803001,148.626332 313.936,148.376668 313.936,148.05 C313.936,147.779332 313.847334,147.564667 313.67,147.406 C313.492666,147.247333 313.198669,147.121334 312.788,147.028 L311.64,146.762 C311.06133,146.631333 310.618002,146.407335 310.31,146.09 C310.001998,145.772665 309.848,145.380669 309.848,144.914 C309.848,144.30733 310.085998,143.817335 310.562,143.444 C311.038002,143.070665 311.672663,142.884 312.466,142.884 C312.942002,142.884 313.394665,142.960999 313.824,143.115 C314.253335,143.269001 314.612665,143.490665 314.902,143.78 L314.524,144.606 C313.898664,144.073997 313.21267,143.808 312.466,143.808 C311.989998,143.808 311.619001,143.898999 311.353,144.081 C311.086999,144.263001 310.954,144.517332 310.954,144.844 C310.954,145.114668 311.035666,145.331666 311.199,145.495 C311.362334,145.658334 311.625998,145.782 311.99,145.866 L313.152,146.146 C313.78667,146.295334 314.257998,146.521665 314.566,146.825 C314.874002,147.128335 315.028,147.522664 315.028,148.008 C315.028,148.605336 314.787669,149.081332 314.307,149.436 C313.826331,149.790668 313.170671,149.968 312.34,149.968 Z" id="weights" fill="#632EE4" fill-rule="nonzero" transform="translate(290.514000, 146.244000) rotate(-270.000000) translate(-290.514000, -146.244000) "></path>
        <polygon id="1" fill="#FD4D3F" fill-rule="nonzero" points="215.804 175.306999 217.664 175.306999 217.664 176.134999 212.96 176.134999 212.96 175.306999 214.82 175.306999 214.82 168.898999 213.332 169.834999 212.876 169.078999 215.096 167.674999 215.804 167.674999"></polygon>
        <path d="M222.5,180.5 L206.5,180.5 L206.5,164.5 L222.5,164.5 L222.5,180.5 Z M221.5,165.5 L207.5,165.5 L207.5,179.5 L221.5,179.5 L221.5,165.5 Z" id="Rectangle" fill="#FD4D3F" fill-rule="nonzero"></path>
        <path d="M167.426,218.526999 L166.04,218.526999 L165.41,221.760999 L167.146,221.760999 L167.146,222.586999 L165.256,222.586999 L164.752,225.134999 L163.87,225.134999 L164.36,222.586999 L162.134,222.586999 L161.644,225.134999 L160.748,225.134999 L161.252,222.586999 L160.006,222.586999 L160.006,221.760999 L161.406,221.760999 L162.036,218.526999 L160.286,218.526999 L160.286,217.700999 L162.204,217.700999 L162.68,215.264999 L163.562,215.264999 L163.086,217.700999 L165.312,217.700999 L165.788,215.264999 L166.684,215.264999 L166.208,217.700999 L167.426,217.700999 L167.426,218.526999 Z M164.528,221.760999 L165.158,218.526999 L162.932,218.526999 L162.302,221.760999 L164.528,221.760999 Z M172.396,218.148999 C174.029341,218.148999 174.846,219.049657 174.846,220.850999 L174.846,225.134999 L173.712,225.134999 L173.712,220.920999 C173.712,220.286329 173.588335,219.824334 173.341,219.534999 C173.093665,219.245664 172.699336,219.100999 172.158,219.100999 C171.532664,219.100999 171.033335,219.29233 170.66,219.674999 C170.286665,220.057667 170.1,220.575662 170.1,221.228999 L170.1,225.134999 L168.966,225.134999 L168.966,218.316999 L170.086,218.316999 L170.086,219.436999 C170.310001,219.016997 170.622665,218.697333 171.024,218.477999 C171.425335,218.258664 171.882664,218.148999 172.396,218.148999 Z M182.63,221.900999 L177.646,221.900999 C177.683334,222.694336 177.897998,223.293997 178.29,223.699999 C178.682002,224.106001 179.23733,224.308999 179.956,224.308999 C180.749337,224.308999 181.47733,224.038335 182.14,223.496999 L182.518,224.322999 C182.219332,224.603 181.836669,224.824665 181.37,224.987999 C180.903331,225.151333 180.427336,225.232999 179.942,225.232999 C178.877995,225.232999 178.040336,224.920335 177.429,224.294999 C176.817664,223.669662 176.512,222.806338 176.512,221.704999 C176.512,221.004995 176.647332,220.386668 176.918,219.849999 C177.188668,219.31333 177.568998,218.895667 178.059,218.596999 C178.549002,218.298331 179.106664,218.148999 179.732,218.148999 C180.637338,218.148999 181.346664,218.445329 181.86,219.037999 C182.373336,219.630668 182.63,220.444994 182.63,221.480999 L182.63,221.900999 Z M179.746,219.030999 C179.148664,219.030999 178.670335,219.217664 178.311,219.590999 C177.951665,219.964334 177.739334,220.491662 177.674,221.172999 L181.636,221.172999 C181.617333,220.482329 181.444668,219.952667 181.118,219.583999 C180.791332,219.21533 180.334003,219.030999 179.746,219.030999 Z M190.036,218.316999 L190.036,225.134999 L188.93,225.134999 L188.93,223.972999 C188.715332,224.383668 188.414335,224.696331 188.027,224.910999 C187.639665,225.125667 187.203336,225.232999 186.718,225.232999 C185.905996,225.232999 185.294669,225.006668 184.884,224.553999 C184.473331,224.10133 184.268,223.43167 184.268,222.544999 L184.268,218.316999 L185.402,218.316999 L185.402,222.516999 C185.402,223.123669 185.523332,223.569331 185.766,223.853999 C186.008668,224.138667 186.391331,224.280999 186.914,224.280999 C187.511336,224.280999 187.991998,224.087334 188.356,223.699999 C188.720002,223.312664 188.902,222.801669 188.902,222.166999 L188.902,218.316999 L190.036,218.316999 Z M196.014,219.128999 L195.272,219.198999 C194.571997,219.264333 194.065668,219.483664 193.753,219.856999 C193.440332,220.230334 193.284,220.692329 193.284,221.242999 L193.284,225.134999 L192.15,225.134999 L192.15,218.316999 L193.256,218.316999 L193.256,219.506999 C193.638669,218.713662 194.389994,218.270333 195.51,218.176999 L195.916,218.148999 L196.014,219.128999 Z M199.92,225.232999 C199.275997,225.232999 198.709002,225.088334 198.219,224.798999 C197.728998,224.509664 197.351001,224.096668 197.085,223.559999 C196.818999,223.02333 196.686,222.400336 196.686,221.690999 C196.686,220.981662 196.818999,220.358668 197.085,219.821999 C197.351001,219.28533 197.728998,218.872334 198.219,218.582999 C198.709002,218.293664 199.275997,218.148999 199.92,218.148999 C200.564003,218.148999 201.133331,218.293664 201.628,218.582999 C202.122669,218.872334 202.502999,219.28533 202.769,219.821999 C203.035001,220.358668 203.168,220.981662 203.168,221.690999 C203.168,222.400336 203.035001,223.02333 202.769,223.559999 C202.502999,224.096668 202.122669,224.509664 201.628,224.798999 C201.133331,225.088334 200.564003,225.232999 199.92,225.232999 Z M199.92,224.294999 C200.592003,224.294999 201.107665,224.073334 201.467,223.629999 C201.826335,223.186663 202.006,222.540336 202.006,221.690999 C202.006,220.860328 201.824002,220.218668 201.46,219.765999 C201.095998,219.31333 200.58267,219.086999 199.92,219.086999 C199.25733,219.086999 198.744002,219.31333 198.38,219.765999 C198.015998,220.218668 197.834,220.860328 197.834,221.690999 C197.834,222.531003 198.013665,223.174997 198.373,223.622999 C198.732335,224.071001 199.247997,224.294999 199.92,224.294999 Z M208.292,218.148999 C209.925342,218.148999 210.742,219.049657 210.742,220.850999 L210.742,225.134999 L209.608,225.134999 L209.608,220.920999 C209.608,220.286329 209.484335,219.824334 209.237,219.534999 C208.989665,219.245664 208.595336,219.100999 208.054,219.100999 C207.428664,219.100999 206.929335,219.29233 206.556,219.674999 C206.182665,220.057667 205.996,220.575662 205.996,221.228999 L205.996,225.134999 L204.862,225.134999 L204.862,218.316999 L205.982,218.316999 L205.982,219.436999 C206.206001,219.016997 206.518665,218.697333 206.92,218.477999 C207.321335,218.258664 207.778664,218.148999 208.292,218.148999 Z M215.124,225.232999 C213.975994,225.232999 213.066003,224.939002 212.394,224.350999 L212.772,223.510999 C213.136002,223.800334 213.506998,224.007998 213.885,224.133999 C214.263002,224.259999 214.689998,224.322999 215.166,224.322999 C215.670003,224.322999 216.054999,224.236666 216.321,224.063999 C216.587001,223.891331 216.72,223.641667 216.72,223.314999 C216.72,223.044331 216.631334,222.829666 216.454,222.670999 C216.276666,222.512331 215.982669,222.386333 215.572,222.292999 L214.424,222.026999 C213.84533,221.896332 213.402002,221.672334 213.094,221.354999 C212.785998,221.037664 212.632,220.645668 212.632,220.178999 C212.632,219.572329 212.869998,219.082334 213.346,218.708999 C213.822002,218.335664 214.456663,218.148999 215.25,218.148999 C215.726002,218.148999 216.178665,218.225998 216.608,218.379999 C217.037335,218.534 217.396665,218.755664 217.686,219.044999 L217.308,219.870999 C216.682664,219.338996 215.99667,219.072999 215.25,219.072999 C214.773998,219.072999 214.403001,219.163998 214.137,219.345999 C213.870999,219.528 213.738,219.782331 213.738,220.108999 C213.738,220.379667 213.819666,220.596665 213.983,220.759999 C214.146334,220.923333 214.409998,221.046998 214.774,221.130999 L215.936,221.410999 C216.57067,221.560333 217.041998,221.786664 217.35,222.089999 C217.658002,222.393334 217.812,222.787663 217.812,223.272999 C217.812,223.870335 217.571669,224.34633 217.091,224.700999 C216.610331,225.055667 215.954671,225.232999 215.124,225.232999 Z" id="#neurons" fill="#FD4D3F" fill-rule="nonzero"></path>
        <path d="M148.426,271.526999 L147.04,271.526999 L146.41,274.760999 L148.146,274.760999 L148.146,275.586999 L146.256,275.586999 L145.752,278.134999 L144.87,278.134999 L145.36,275.586999 L143.134,275.586999 L142.644,278.134999 L141.748,278.134999 L142.252,275.586999 L141.006,275.586999 L141.006,274.760999 L142.406,274.760999 L143.036,271.526999 L141.286,271.526999 L141.286,270.700999 L143.204,270.700999 L143.68,268.264999 L144.562,268.264999 L144.086,270.700999 L146.312,270.700999 L146.788,268.264999 L147.684,268.264999 L147.208,270.700999 L148.426,270.700999 L148.426,271.526999 Z M145.528,274.760999 L146.158,271.526999 L143.932,271.526999 L143.302,274.760999 L145.528,274.760999 Z M153.396,271.148999 C155.029341,271.148999 155.846,272.049657 155.846,273.850999 L155.846,278.134999 L154.712,278.134999 L154.712,273.920999 C154.712,273.286329 154.588335,272.824334 154.341,272.534999 C154.093665,272.245664 153.699336,272.100999 153.158,272.100999 C152.532664,272.100999 152.033335,272.29233 151.66,272.674999 C151.286665,273.057667 151.1,273.575662 151.1,274.228999 L151.1,278.134999 L149.966,278.134999 L149.966,271.316999 L151.086,271.316999 L151.086,272.436999 C151.310001,272.016997 151.622665,271.697333 152.024,271.477999 C152.425335,271.258664 152.882664,271.148999 153.396,271.148999 Z M163.63,274.900999 L158.646,274.900999 C158.683334,275.694336 158.897998,276.293997 159.29,276.699999 C159.682002,277.106001 160.23733,277.308999 160.956,277.308999 C161.749337,277.308999 162.47733,277.038335 163.14,276.496999 L163.518,277.322999 C163.219332,277.603 162.836669,277.824665 162.37,277.987999 C161.903331,278.151333 161.427336,278.232999 160.942,278.232999 C159.877995,278.232999 159.040336,277.920335 158.429,277.294999 C157.817664,276.669662 157.512,275.806338 157.512,274.704999 C157.512,274.004995 157.647332,273.386668 157.918,272.849999 C158.188668,272.31333 158.568998,271.895667 159.059,271.596999 C159.549002,271.298331 160.106664,271.148999 160.732,271.148999 C161.637338,271.148999 162.346664,271.445329 162.86,272.037999 C163.373336,272.630668 163.63,273.444994 163.63,274.480999 L163.63,274.900999 Z M160.746,272.030999 C160.148664,272.030999 159.670335,272.217664 159.311,272.590999 C158.951665,272.964334 158.739334,273.491662 158.674,274.172999 L162.636,274.172999 C162.617333,273.482329 162.444668,272.952667 162.118,272.583999 C161.791332,272.21533 161.334003,272.030999 160.746,272.030999 Z M171.036,271.316999 L171.036,278.134999 L169.93,278.134999 L169.93,276.972999 C169.715332,277.383668 169.414335,277.696331 169.027,277.910999 C168.639665,278.125667 168.203336,278.232999 167.718,278.232999 C166.905996,278.232999 166.294669,278.006668 165.884,277.553999 C165.473331,277.10133 165.268,276.43167 165.268,275.544999 L165.268,271.316999 L166.402,271.316999 L166.402,275.516999 C166.402,276.123669 166.523332,276.569331 166.766,276.853999 C167.008668,277.138667 167.391331,277.280999 167.914,277.280999 C168.511336,277.280999 168.991998,277.087334 169.356,276.699999 C169.720002,276.312664 169.902,275.801669 169.902,275.166999 L169.902,271.316999 L171.036,271.316999 Z M177.014,272.128999 L176.272,272.198999 C175.571997,272.264333 175.065668,272.483664 174.753,272.856999 C174.440332,273.230334 174.284,273.692329 174.284,274.242999 L174.284,278.134999 L173.15,278.134999 L173.15,271.316999 L174.256,271.316999 L174.256,272.506999 C174.638669,271.713662 175.389994,271.270333 176.51,271.176999 L176.916,271.148999 L177.014,272.128999 Z M180.92,278.232999 C180.275997,278.232999 179.709002,278.088334 179.219,277.798999 C178.728998,277.509664 178.351001,277.096668 178.085,276.559999 C177.818999,276.02333 177.686,275.400336 177.686,274.690999 C177.686,273.981662 177.818999,273.358668 178.085,272.821999 C178.351001,272.28533 178.728998,271.872334 179.219,271.582999 C179.709002,271.293664 180.275997,271.148999 180.92,271.148999 C181.564003,271.148999 182.133331,271.293664 182.628,271.582999 C183.122669,271.872334 183.502999,272.28533 183.769,272.821999 C184.035001,273.358668 184.168,273.981662 184.168,274.690999 C184.168,275.400336 184.035001,276.02333 183.769,276.559999 C183.502999,277.096668 183.122669,277.509664 182.628,277.798999 C182.133331,278.088334 181.564003,278.232999 180.92,278.232999 Z M180.92,277.294999 C181.592003,277.294999 182.107665,277.073334 182.467,276.629999 C182.826335,276.186663 183.006,275.540336 183.006,274.690999 C183.006,273.860328 182.824002,273.218668 182.46,272.765999 C182.095998,272.31333 181.58267,272.086999 180.92,272.086999 C180.25733,272.086999 179.744002,272.31333 179.38,272.765999 C179.015998,273.218668 178.834,273.860328 178.834,274.690999 C178.834,275.531003 179.013665,276.174997 179.373,276.622999 C179.732335,277.071001 180.247997,277.294999 180.92,277.294999 Z M189.292,271.148999 C190.925342,271.148999 191.742,272.049657 191.742,273.850999 L191.742,278.134999 L190.608,278.134999 L190.608,273.920999 C190.608,273.286329 190.484335,272.824334 190.237,272.534999 C189.989665,272.245664 189.595336,272.100999 189.054,272.100999 C188.428664,272.100999 187.929335,272.29233 187.556,272.674999 C187.182665,273.057667 186.996,273.575662 186.996,274.228999 L186.996,278.134999 L185.862,278.134999 L185.862,271.316999 L186.982,271.316999 L186.982,272.436999 C187.206001,272.016997 187.518665,271.697333 187.92,271.477999 C188.321335,271.258664 188.778664,271.148999 189.292,271.148999 Z M196.124,278.232999 C194.975994,278.232999 194.066003,277.939002 193.394,277.350999 L193.772,276.510999 C194.136002,276.800334 194.506998,277.007998 194.885,277.133999 C195.263002,277.259999 195.689998,277.322999 196.166,277.322999 C196.670003,277.322999 197.054999,277.236666 197.321,277.063999 C197.587001,276.891331 197.72,276.641667 197.72,276.314999 C197.72,276.044331 197.631334,275.829666 197.454,275.670999 C197.276666,275.512331 196.982669,275.386333 196.572,275.292999 L195.424,275.026999 C194.84533,274.896332 194.402002,274.672334 194.094,274.354999 C193.785998,274.037664 193.632,273.645668 193.632,273.178999 C193.632,272.572329 193.869998,272.082334 194.346,271.708999 C194.822002,271.335664 195.456663,271.148999 196.25,271.148999 C196.726002,271.148999 197.178665,271.225998 197.608,271.379999 C198.037335,271.534 198.396665,271.755664 198.686,272.044999 L198.308,272.870999 C197.682664,272.338996 196.99667,272.072999 196.25,272.072999 C195.773998,272.072999 195.403001,272.163998 195.137,272.345999 C194.870999,272.528 194.738,272.782331 194.738,273.108999 C194.738,273.379667 194.819666,273.596665 194.983,273.759999 C195.146334,273.923333 195.409998,274.046998 195.774,274.130999 L196.936,274.410999 C197.57067,274.560333 198.041998,274.786664 198.35,275.089999 C198.658002,275.393334 198.812,275.787663 198.812,276.272999 C198.812,276.870335 198.571669,277.34633 198.091,277.700999 C197.610331,278.055667 196.954671,278.232999 196.124,278.232999 Z" id="#neurons" fill="#FD4D3F" fill-rule="nonzero" transform="translate(169.909000, 273.248999) rotate(-270.000000) translate(-169.909000, -273.248999) "></path>
        <path d="M248.426,221.526999 L247.04,221.526999 L246.41,224.760999 L248.146,224.760999 L248.146,225.586999 L246.256,225.586999 L245.752,228.134999 L244.87,228.134999 L245.36,225.586999 L243.134,225.586999 L242.644,228.134999 L241.748,228.134999 L242.252,225.586999 L241.006,225.586999 L241.006,224.760999 L242.406,224.760999 L243.036,221.526999 L241.286,221.526999 L241.286,220.700999 L243.204,220.700999 L243.68,218.264999 L244.562,218.264999 L244.086,220.700999 L246.312,220.700999 L246.788,218.264999 L247.684,218.264999 L247.208,220.700999 L248.426,220.700999 L248.426,221.526999 Z M245.528,224.760999 L246.158,221.526999 L243.932,221.526999 L243.302,224.760999 L245.528,224.760999 Z M253.396,221.148999 C255.029341,221.148999 255.846,222.049657 255.846,223.850999 L255.846,228.134999 L254.712,228.134999 L254.712,223.920999 C254.712,223.286329 254.588335,222.824334 254.341,222.534999 C254.093665,222.245664 253.699336,222.100999 253.158,222.100999 C252.532664,222.100999 252.033335,222.29233 251.66,222.674999 C251.286665,223.057667 251.1,223.575662 251.1,224.228999 L251.1,228.134999 L249.966,228.134999 L249.966,221.316999 L251.086,221.316999 L251.086,222.436999 C251.310001,222.016997 251.622665,221.697333 252.024,221.477999 C252.425335,221.258664 252.882664,221.148999 253.396,221.148999 Z M263.63,224.900999 L258.646,224.900999 C258.683334,225.694336 258.897998,226.293997 259.29,226.699999 C259.682002,227.106001 260.23733,227.308999 260.956,227.308999 C261.749337,227.308999 262.47733,227.038335 263.14,226.496999 L263.518,227.322999 C263.219332,227.603 262.836669,227.824665 262.37,227.987999 C261.903331,228.151333 261.427336,228.232999 260.942,228.232999 C259.877995,228.232999 259.040336,227.920335 258.429,227.294999 C257.817664,226.669662 257.512,225.806338 257.512,224.704999 C257.512,224.004995 257.647332,223.386668 257.918,222.849999 C258.188668,222.31333 258.568998,221.895667 259.059,221.596999 C259.549002,221.298331 260.106664,221.148999 260.732,221.148999 C261.637338,221.148999 262.346664,221.445329 262.86,222.037999 C263.373336,222.630668 263.63,223.444994 263.63,224.480999 L263.63,224.900999 Z M260.746,222.030999 C260.148664,222.030999 259.670335,222.217664 259.311,222.590999 C258.951665,222.964334 258.739334,223.491662 258.674,224.172999 L262.636,224.172999 C262.617333,223.482329 262.444668,222.952667 262.118,222.583999 C261.791332,222.21533 261.334003,222.030999 260.746,222.030999 Z M271.036,221.316999 L271.036,228.134999 L269.93,228.134999 L269.93,226.972999 C269.715332,227.383668 269.414335,227.696331 269.027,227.910999 C268.639665,228.125667 268.203336,228.232999 267.718,228.232999 C266.905996,228.232999 266.294669,228.006668 265.884,227.553999 C265.473331,227.10133 265.268,226.43167 265.268,225.544999 L265.268,221.316999 L266.402,221.316999 L266.402,225.516999 C266.402,226.123669 266.523332,226.569331 266.766,226.853999 C267.008668,227.138667 267.391331,227.280999 267.914,227.280999 C268.511336,227.280999 268.991998,227.087334 269.356,226.699999 C269.720002,226.312664 269.902,225.801669 269.902,225.166999 L269.902,221.316999 L271.036,221.316999 Z M277.014,222.128999 L276.272,222.198999 C275.571997,222.264333 275.065668,222.483664 274.753,222.856999 C274.440332,223.230334 274.284,223.692329 274.284,224.242999 L274.284,228.134999 L273.15,228.134999 L273.15,221.316999 L274.256,221.316999 L274.256,222.506999 C274.638669,221.713662 275.389994,221.270333 276.51,221.176999 L276.916,221.148999 L277.014,222.128999 Z M280.92,228.232999 C280.275997,228.232999 279.709002,228.088334 279.219,227.798999 C278.728998,227.509664 278.351001,227.096668 278.085,226.559999 C277.818999,226.02333 277.686,225.400336 277.686,224.690999 C277.686,223.981662 277.818999,223.358668 278.085,222.821999 C278.351001,222.28533 278.728998,221.872334 279.219,221.582999 C279.709002,221.293664 280.275997,221.148999 280.92,221.148999 C281.564003,221.148999 282.133331,221.293664 282.628,221.582999 C283.122669,221.872334 283.502999,222.28533 283.769,222.821999 C284.035001,223.358668 284.168,223.981662 284.168,224.690999 C284.168,225.400336 284.035001,226.02333 283.769,226.559999 C283.502999,227.096668 283.122669,227.509664 282.628,227.798999 C282.133331,228.088334 281.564003,228.232999 280.92,228.232999 Z M280.92,227.294999 C281.592003,227.294999 282.107665,227.073334 282.467,226.629999 C282.826335,226.186663 283.006,225.540336 283.006,224.690999 C283.006,223.860328 282.824002,223.218668 282.46,222.765999 C282.095998,222.31333 281.58267,222.086999 280.92,222.086999 C280.25733,222.086999 279.744002,222.31333 279.38,222.765999 C279.015998,223.218668 278.834,223.860328 278.834,224.690999 C278.834,225.531003 279.013665,226.174997 279.373,226.622999 C279.732335,227.071001 280.247997,227.294999 280.92,227.294999 Z M289.292,221.148999 C290.925342,221.148999 291.742,222.049657 291.742,223.850999 L291.742,228.134999 L290.608,228.134999 L290.608,223.920999 C290.608,223.286329 290.484335,222.824334 290.237,222.534999 C289.989665,222.245664 289.595336,222.100999 289.054,222.100999 C288.428664,222.100999 287.929335,222.29233 287.556,222.674999 C287.182665,223.057667 286.996,223.575662 286.996,224.228999 L286.996,228.134999 L285.862,228.134999 L285.862,221.316999 L286.982,221.316999 L286.982,222.436999 C287.206001,222.016997 287.518665,221.697333 287.92,221.477999 C288.321335,221.258664 288.778664,221.148999 289.292,221.148999 Z M296.124,228.232999 C294.975994,228.232999 294.066003,227.939002 293.394,227.350999 L293.772,226.510999 C294.136002,226.800334 294.506998,227.007998 294.885,227.133999 C295.263002,227.259999 295.689998,227.322999 296.166,227.322999 C296.670003,227.322999 297.054999,227.236666 297.321,227.063999 C297.587001,226.891331 297.72,226.641667 297.72,226.314999 C297.72,226.044331 297.631334,225.829666 297.454,225.670999 C297.276666,225.512331 296.982669,225.386333 296.572,225.292999 L295.424,225.026999 C294.84533,224.896332 294.402002,224.672334 294.094,224.354999 C293.785998,224.037664 293.632,223.645668 293.632,223.178999 C293.632,222.572329 293.869998,222.082334 294.346,221.708999 C294.822002,221.335664 295.456663,221.148999 296.25,221.148999 C296.726002,221.148999 297.178665,221.225998 297.608,221.379999 C298.037335,221.534 298.396665,221.755664 298.686,222.044999 L298.308,222.870999 C297.682664,222.338996 296.99667,222.072999 296.25,222.072999 C295.773998,222.072999 295.403001,222.163998 295.137,222.345999 C294.870999,222.528 294.738,222.782331 294.738,223.108999 C294.738,223.379667 294.819666,223.596665 294.983,223.759999 C295.146334,223.923333 295.409998,224.046998 295.774,224.130999 L296.936,224.410999 C297.57067,224.560333 298.041998,224.786664 298.35,225.089999 C298.658002,225.393334 298.812,225.787663 298.812,226.272999 C298.812,226.870335 298.571669,227.34633 298.091,227.700999 C297.610331,228.055667 296.954671,228.232999 296.124,228.232999 Z" id="#neurons" fill="#632EE4" fill-rule="nonzero" transform="translate(269.909000, 223.248999) rotate(-270.000000) translate(-269.909000, -223.248999) "></path>
        <path d="M254.369,144.526999 L252.983,144.526999 L252.353,147.760999 L254.089,147.760999 L254.089,148.586999 L252.199,148.586999 L251.695,151.134999 L250.813,151.134999 L251.303,148.586999 L249.077,148.586999 L248.587,151.134999 L247.691,151.134999 L248.195,148.586999 L246.949,148.586999 L246.949,147.760999 L248.349,147.760999 L248.979,144.526999 L247.229,144.526999 L247.229,143.700999 L249.147,143.700999 L249.623,141.264999 L250.505,141.264999 L250.029,143.700999 L252.255,143.700999 L252.731,141.264999 L253.627,141.264999 L253.151,143.700999 L254.369,143.700999 L254.369,144.526999 Z M251.471,147.760999 L252.101,144.526999 L249.875,144.526999 L249.245,147.760999 L251.471,147.760999 Z M255.909,151.134999 L255.909,144.316999 L257.043,144.316999 L257.043,151.134999 L255.909,151.134999 Z M255.797,141.362999 L257.169,141.362999 L257.169,142.636999 L255.797,142.636999 L255.797,141.362999 Z M262.587,144.148999 C264.220342,144.148999 265.037,145.049657 265.037,146.850999 L265.037,151.134999 L263.903,151.134999 L263.903,146.920999 C263.903,146.286329 263.779335,145.824334 263.532,145.534999 C263.284665,145.245664 262.890336,145.100999 262.349,145.100999 C261.723664,145.100999 261.224335,145.29233 260.851,145.674999 C260.477665,146.057667 260.291,146.575662 260.291,147.228999 L260.291,151.134999 L259.157,151.134999 L259.157,144.316999 L260.277,144.316999 L260.277,145.436999 C260.501001,145.016997 260.813665,144.697333 261.215,144.477999 C261.616335,144.258664 262.073664,144.148999 262.587,144.148999 Z M270.539,144.148999 C271.136336,144.148999 271.663664,144.298331 272.121,144.596999 C272.578336,144.895667 272.932999,145.31333 273.185,145.849999 C273.437001,146.386668 273.563,147.009662 273.563,147.718999 C273.563,148.428336 273.437001,149.046663 273.185,149.573999 C272.932999,150.101335 272.580669,150.509664 272.128,150.798999 C271.675331,151.088334 271.14567,151.232999 270.539,151.232999 C270.006997,151.232999 269.542669,151.116333 269.146,150.882999 C268.749331,150.649664 268.448334,150.318334 268.243,149.888999 L268.243,153.654999 L267.109,153.654999 L267.109,144.316999 L268.243,144.316999 L268.243,145.492999 C268.448334,145.063663 268.749331,144.732333 269.146,144.498999 C269.542669,144.265664 270.006997,144.148999 270.539,144.148999 Z M270.315,150.294999 C270.97767,150.294999 271.490998,150.071001 271.855,149.622999 C272.219002,149.174997 272.401,148.540336 272.401,147.718999 C272.401,146.897661 272.219002,146.256001 271.855,145.793999 C271.490998,145.331997 270.97767,145.100999 270.315,145.100999 C269.65233,145.100999 269.141335,145.324997 268.782,145.772999 C268.422665,146.221001 268.243,146.860328 268.243,147.690999 C268.243,148.52167 268.422665,149.16333 268.782,149.615999 C269.141335,150.068668 269.65233,150.294999 270.315,150.294999 Z M280.997,144.316999 L280.997,151.134999 L279.891,151.134999 L279.891,149.972999 C279.676332,150.383668 279.375335,150.696331 278.988,150.910999 C278.600665,151.125667 278.164336,151.232999 277.679,151.232999 C276.866996,151.232999 276.255669,151.006668 275.845,150.553999 C275.434331,150.10133 275.229,149.43167 275.229,148.544999 L275.229,144.316999 L276.363,144.316999 L276.363,148.516999 C276.363,149.123669 276.484332,149.569331 276.727,149.853999 C276.969668,150.138667 277.352331,150.280999 277.875,150.280999 C278.472336,150.280999 278.952998,150.087334 279.317,149.699999 C279.681002,149.312664 279.863,148.801669 279.863,148.166999 L279.863,144.316999 L280.997,144.316999 Z M286.107,150.322999 C286.312334,150.322999 286.517666,150.308999 286.723,150.280999 L286.667,151.176999 C286.452332,151.214332 286.219001,151.232999 285.967,151.232999 C285.145663,151.232999 284.527335,151.018334 284.112,150.588999 C283.696665,150.159663 283.489,149.562336 283.489,148.796999 L283.489,145.212999 L282.159,145.212999 L282.159,144.316999 L283.489,144.316999 L283.489,142.244999 L284.623,142.244999 L284.623,144.316999 L286.555,144.316999 L286.555,145.212999 L284.623,145.212999 L284.623,148.712999 C284.623,149.786338 285.117662,150.322999 286.107,150.322999 Z M290.181,151.232999 C289.032994,151.232999 288.123003,150.939002 287.451,150.350999 L287.829,149.510999 C288.193002,149.800334 288.563998,150.007998 288.942,150.133999 C289.320002,150.259999 289.746998,150.322999 290.223,150.322999 C290.727003,150.322999 291.111999,150.236666 291.378,150.063999 C291.644001,149.891331 291.777,149.641667 291.777,149.314999 C291.777,149.044331 291.688334,148.829666 291.511,148.670999 C291.333666,148.512331 291.039669,148.386333 290.629,148.292999 L289.481,148.026999 C288.90233,147.896332 288.459002,147.672334 288.151,147.354999 C287.842998,147.037664 287.689,146.645668 287.689,146.178999 C287.689,145.572329 287.926998,145.082334 288.403,144.708999 C288.879002,144.335664 289.513663,144.148999 290.307,144.148999 C290.783002,144.148999 291.235665,144.225998 291.665,144.379999 C292.094335,144.534 292.453665,144.755664 292.743,145.044999 L292.365,145.870999 C291.739664,145.338996 291.05367,145.072999 290.307,145.072999 C289.830998,145.072999 289.460001,145.163998 289.194,145.345999 C288.927999,145.528 288.795,145.782331 288.795,146.108999 C288.795,146.379667 288.876666,146.596665 289.04,146.759999 C289.203334,146.923333 289.466998,147.046998 289.831,147.130999 L290.993,147.410999 C291.62767,147.560333 292.098998,147.786664 292.407,148.089999 C292.715002,148.393334 292.869,148.787663 292.869,149.272999 C292.869,149.870335 292.628669,150.34633 292.148,150.700999 C291.667331,151.055667 291.011671,151.232999 290.181,151.232999 Z" id="#inputs" fill="#FD4D3F" fill-rule="nonzero" transform="translate(269.909000, 147.459999) rotate(-270.000000) translate(-269.909000, -147.459999) "></path>
        <path d="M124.369,185.526999 L122.983,185.526999 L122.353,188.760999 L124.089,188.760999 L124.089,189.586999 L122.199,189.586999 L121.695,192.134999 L120.813,192.134999 L121.303,189.586999 L119.077,189.586999 L118.587,192.134999 L117.691,192.134999 L118.195,189.586999 L116.949,189.586999 L116.949,188.760999 L118.349,188.760999 L118.979,185.526999 L117.229,185.526999 L117.229,184.700999 L119.147,184.700999 L119.623,182.264999 L120.505,182.264999 L120.029,184.700999 L122.255,184.700999 L122.731,182.264999 L123.627,182.264999 L123.151,184.700999 L124.369,184.700999 L124.369,185.526999 Z M121.471,188.760999 L122.101,185.526999 L119.875,185.526999 L119.245,188.760999 L121.471,188.760999 Z M125.909,192.134999 L125.909,185.316999 L127.043,185.316999 L127.043,192.134999 L125.909,192.134999 Z M125.797,182.362999 L127.169,182.362999 L127.169,183.636999 L125.797,183.636999 L125.797,182.362999 Z M132.587,185.148999 C134.220342,185.148999 135.037,186.049657 135.037,187.850999 L135.037,192.134999 L133.903,192.134999 L133.903,187.920999 C133.903,187.286329 133.779335,186.824334 133.532,186.534999 C133.284665,186.245664 132.890336,186.100999 132.349,186.100999 C131.723664,186.100999 131.224335,186.29233 130.851,186.674999 C130.477665,187.057667 130.291,187.575662 130.291,188.228999 L130.291,192.134999 L129.157,192.134999 L129.157,185.316999 L130.277,185.316999 L130.277,186.436999 C130.501001,186.016997 130.813665,185.697333 131.215,185.477999 C131.616335,185.258664 132.073664,185.148999 132.587,185.148999 Z M140.539,185.148999 C141.136336,185.148999 141.663664,185.298331 142.121,185.596999 C142.578336,185.895667 142.932999,186.31333 143.185,186.849999 C143.437001,187.386668 143.563,188.009662 143.563,188.718999 C143.563,189.428336 143.437001,190.046663 143.185,190.573999 C142.932999,191.101335 142.580669,191.509664 142.128,191.798999 C141.675331,192.088334 141.14567,192.232999 140.539,192.232999 C140.006997,192.232999 139.542669,192.116333 139.146,191.882999 C138.749331,191.649664 138.448334,191.318334 138.243,190.888999 L138.243,194.654999 L137.109,194.654999 L137.109,185.316999 L138.243,185.316999 L138.243,186.492999 C138.448334,186.063663 138.749331,185.732333 139.146,185.498999 C139.542669,185.265664 140.006997,185.148999 140.539,185.148999 Z M140.315,191.294999 C140.97767,191.294999 141.490998,191.071001 141.855,190.622999 C142.219002,190.174997 142.401,189.540336 142.401,188.718999 C142.401,187.897661 142.219002,187.256001 141.855,186.793999 C141.490998,186.331997 140.97767,186.100999 140.315,186.100999 C139.65233,186.100999 139.141335,186.324997 138.782,186.772999 C138.422665,187.221001 138.243,187.860328 138.243,188.690999 C138.243,189.52167 138.422665,190.16333 138.782,190.615999 C139.141335,191.068668 139.65233,191.294999 140.315,191.294999 Z M150.997,185.316999 L150.997,192.134999 L149.891,192.134999 L149.891,190.972999 C149.676332,191.383668 149.375335,191.696331 148.988,191.910999 C148.600665,192.125667 148.164336,192.232999 147.679,192.232999 C146.866996,192.232999 146.255669,192.006668 145.845,191.553999 C145.434331,191.10133 145.229,190.43167 145.229,189.544999 L145.229,185.316999 L146.363,185.316999 L146.363,189.516999 C146.363,190.123669 146.484332,190.569331 146.727,190.853999 C146.969668,191.138667 147.352331,191.280999 147.875,191.280999 C148.472336,191.280999 148.952998,191.087334 149.317,190.699999 C149.681002,190.312664 149.863,189.801669 149.863,189.166999 L149.863,185.316999 L150.997,185.316999 Z M156.107,191.322999 C156.312334,191.322999 156.517666,191.308999 156.723,191.280999 L156.667,192.176999 C156.452332,192.214332 156.219001,192.232999 155.967,192.232999 C155.145663,192.232999 154.527335,192.018334 154.112,191.588999 C153.696665,191.159663 153.489,190.562336 153.489,189.796999 L153.489,186.212999 L152.159,186.212999 L152.159,185.316999 L153.489,185.316999 L153.489,183.244999 L154.623,183.244999 L154.623,185.316999 L156.555,185.316999 L156.555,186.212999 L154.623,186.212999 L154.623,189.712999 C154.623,190.786338 155.117662,191.322999 156.107,191.322999 Z M160.181,192.232999 C159.032994,192.232999 158.123003,191.939002 157.451,191.350999 L157.829,190.510999 C158.193002,190.800334 158.563998,191.007998 158.942,191.133999 C159.320002,191.259999 159.746998,191.322999 160.223,191.322999 C160.727003,191.322999 161.111999,191.236666 161.378,191.063999 C161.644001,190.891331 161.777,190.641667 161.777,190.314999 C161.777,190.044331 161.688334,189.829666 161.511,189.670999 C161.333666,189.512331 161.039669,189.386333 160.629,189.292999 L159.481,189.026999 C158.90233,188.896332 158.459002,188.672334 158.151,188.354999 C157.842998,188.037664 157.689,187.645668 157.689,187.178999 C157.689,186.572329 157.926998,186.082334 158.403,185.708999 C158.879002,185.335664 159.513663,185.148999 160.307,185.148999 C160.783002,185.148999 161.235665,185.225998 161.665,185.379999 C162.094335,185.534 162.453665,185.755664 162.743,186.044999 L162.365,186.870999 C161.739664,186.338996 161.05367,186.072999 160.307,186.072999 C159.830998,186.072999 159.460001,186.163998 159.194,186.345999 C158.927999,186.528 158.795,186.782331 158.795,187.108999 C158.795,187.379667 158.876666,187.596665 159.04,187.759999 C159.203334,187.923333 159.466998,188.046998 159.831,188.130999 L160.993,188.410999 C161.62767,188.560333 162.098998,188.786664 162.407,189.089999 C162.715002,189.393334 162.869,189.787663 162.869,190.272999 C162.869,190.870335 162.628669,191.34633 162.148,191.700999 C161.667331,192.055667 161.011671,192.232999 160.181,192.232999 Z" id="#inputs" fill="#4FE0B0" fill-rule="nonzero" transform="translate(139.909000, 188.459999) rotate(-90.000000) translate(-139.909000, -188.459999) "></path>
    </g>
</svg>