<?xml version="1.0" encoding="UTF-8"?>
<svg width="376px" height="283px" viewBox="0 0 376 283" version="1.1" xmlns="http://www.w3.org/2000/svg" xmlns:xlink="http://www.w3.org/1999/xlink">
    <!-- Generator: Sketch 59.1 (86144) - https://sketch.com -->
    <title>Layers diagram</title>
    <desc>Created with Sketch.</desc>
    <g id="Layers-diagram" stroke="none" stroke-width="1" fill="none" fill-rule="evenodd">
        <path d="M227.5,99.5 L183.5,99.5 L183.5,55.5 L227.5,55.5 L227.5,99.5 Z M226.5,56.5 L184.5,56.5 L184.5,98.5 L226.5,98.5 L226.5,56.5 Z" id="Rectangle-Copy-12" fill="#0F1931" fill-rule="nonzero"></path>
        <path d="M297.5,99.5 L273.5,99.5 L273.5,55.5 L297.5,55.5 L297.5,99.5 Z M296.5,56.5 L274.5,56.5 L274.5,98.5 L296.5,98.5 L296.5,56.5 Z" id="Rectangle-Copy-15" fill="#0F1931" fill-rule="nonzero"></path>
        <path d="M132.5,206.5 L98.5,206.5 L98.5,122.5 L132.5,122.5 L132.5,206.5 Z M131.5,123.5 L99.5,123.5 L99.5,205.5 L131.5,205.5 L131.5,123.5 Z" id="Rectangle-Copy-13" fill="#0F1931" fill-rule="nonzero"></path>
        <path d="M297.5,206.5 L263.5,206.5 L263.5,122.5 L297.5,122.5 L297.5,206.5 Z M296.5,123.5 L264.5,123.5 L264.5,205.5 L296.5,205.5 L296.5,123.5 Z" id="Rectangle-Copy-14" fill="#0F1931" fill-rule="nonzero"></path>
        <polygon id="W" fill="#0F1931" fill-rule="nonzero" points="212.984 71.8549989 214.264 71.8549989 210.328 83.1349989 209.208 83.1349989 205.992 73.9029989 202.776 83.1349989 201.672 83.1349989 197.72 71.8549989 199.048 71.8549989 202.248 81.2789989 205.528 71.8549989 206.52 71.8709989 209.752 81.2949989"></polygon>
        <path d="M283.84,71.8549989 L283.84,76.6869989 C284.074668,76.1963297 284.418664,75.8176669 284.872,75.5509989 C285.325336,75.2843309 285.855997,75.1509989 286.464,75.1509989 C287.14667,75.1509989 287.749331,75.3163305 288.272,75.6469989 C288.794669,75.9776672 289.199999,76.4469958 289.488,77.0549989 C289.776001,77.6630019 289.92,78.3669949 289.92,79.1669989 C289.92,79.9776696 289.776001,80.6896625 289.488,81.3029989 C289.199999,81.9163353 288.794669,82.3936638 288.272,82.7349989 C287.749331,83.0763339 287.14667,83.2469989 286.464,83.2469989 C285.855997,83.2469989 285.325336,83.1136669 284.872,82.8469989 C284.418664,82.5803309 284.074668,82.201668 283.84,81.7109989 L283.84,83.1349989 L282.544,83.1349989 L282.544,71.8549989 L283.84,71.8549989 Z M286.208,76.2389989 C285.450663,76.2389989 284.866669,76.4949963 284.456,77.0069989 C284.045331,77.5190014 283.84,78.2496608 283.84,79.1989989 C283.84,80.1483369 284.045331,80.8816629 284.456,81.3989989 C284.866669,81.9163348 285.450663,82.1749989 286.208,82.1749989 C286.965337,82.1749989 287.551998,81.9110015 287.968,81.3829989 C288.384002,80.8549962 288.592,80.1163369 288.592,79.1669989 C288.592,78.2389989 288.384002,77.5190014 287.968,77.0069989 C287.551998,76.4949963 286.965337,76.2389989 286.208,76.2389989 Z" id="b" fill="#0F1931" fill-rule="nonzero"></path>
        <path d="M164.461,126.208999 C164.461,125.630329 164.563666,125.138001 164.769,124.731999 C164.940112,124.393664 165.176036,124.024546 165.476777,123.624638 L165.665,123.380999 C165.982335,122.979664 166.217999,122.639 166.372,122.358999 C166.526001,122.078997 166.603,121.766334 166.603,121.420999 C166.603,121.019664 166.463001,120.704667 166.183,120.475999 C165.902999,120.247331 165.520336,120.132999 165.035,120.132999 C164.596331,120.132999 164.148336,120.228665 163.691,120.419999 C163.233664,120.611333 162.785669,120.888997 162.347,121.252999 L161.899,120.370999 C162.300335,119.997664 162.79033,119.701333 163.369,119.481999 C163.94767,119.262664 164.521664,119.152999 165.091,119.152999 C165.884337,119.152999 166.528331,119.353664 167.023,119.754999 C167.517669,120.156334 167.765,120.683662 167.765,121.336999 C167.765,121.831668 167.657668,122.260997 167.443,122.624999 C167.258999,122.937 166.996144,123.293569 166.654429,123.694712 L166.477,123.898999 C166.075665,124.356334 165.767668,124.757664 165.553,125.102999 C165.338332,125.448334 165.207667,125.849663 165.161,126.306999 L165.133,126.558999 L164.461,126.558999 L164.461,126.208999 Z M164.097,129.134999 L164.097,127.706999 L165.525,127.706999 L165.525,129.134999 L164.097,129.134999 Z" id="?" fill="#0F1931" fill-rule="nonzero"></path>
        <path d="M225.68,129.232999 C225.035997,129.232999 224.469002,129.088334 223.979,128.798999 C223.488998,128.509664 223.111001,128.096668 222.845,127.559999 C222.578999,127.02333 222.446,126.400336 222.446,125.690999 C222.446,124.981662 222.578999,124.358668 222.845,123.821999 C223.111001,123.28533 223.488998,122.872334 223.979,122.582999 C224.469002,122.293664 225.035997,122.148999 225.68,122.148999 C226.324003,122.148999 226.893331,122.293664 227.388,122.582999 C227.882669,122.872334 228.262999,123.28533 228.529,123.821999 C228.795001,124.358668 228.928,124.981662 228.928,125.690999 C228.928,126.400336 228.795001,127.02333 228.529,127.559999 C228.262999,128.096668 227.882669,128.509664 227.388,128.798999 C226.893331,129.088334 226.324003,129.232999 225.68,129.232999 Z M225.68,128.294999 C226.352003,128.294999 226.867665,128.073334 227.227,127.629999 C227.586335,127.186663 227.766,126.540336 227.766,125.690999 C227.766,124.860328 227.584002,124.218668 227.22,123.765999 C226.855998,123.31333 226.34267,123.086999 225.68,123.086999 C225.01733,123.086999 224.504002,123.31333 224.14,123.765999 C223.775998,124.218668 223.594,124.860328 223.594,125.690999 C223.594,126.531003 223.773665,127.174997 224.133,127.622999 C224.492335,128.071001 225.007997,128.294999 225.68,128.294999 Z M236.362,122.316999 L236.362,129.134999 L235.256,129.134999 L235.256,127.972999 C235.041332,128.383668 234.740335,128.696331 234.353,128.910999 C233.965665,129.125667 233.529336,129.232999 233.044,129.232999 C232.231996,129.232999 231.620669,129.006668 231.21,128.553999 C230.799331,128.10133 230.594,127.43167 230.594,126.544999 L230.594,122.316999 L231.728,122.316999 L231.728,126.516999 C231.728,127.123669 231.849332,127.569331 232.092,127.853999 C232.334668,128.138667 232.717331,128.280999 233.24,128.280999 C233.837336,128.280999 234.317998,128.087334 234.682,127.699999 C235.046002,127.312664 235.228,126.801669 235.228,126.166999 L235.228,122.316999 L236.362,122.316999 Z M241.472,128.322999 C241.677334,128.322999 241.882666,128.308999 242.088,128.280999 L242.032,129.176999 C241.817332,129.214332 241.584001,129.232999 241.332,129.232999 C240.510663,129.232999 239.892335,129.018334 239.477,128.588999 C239.061665,128.159663 238.854,127.562336 238.854,126.796999 L238.854,123.212999 L237.524,123.212999 L237.524,122.316999 L238.854,122.316999 L238.854,120.244999 L239.988,120.244999 L239.988,122.316999 L241.92,122.316999 L241.92,123.212999 L239.988,123.212999 L239.988,126.712999 C239.988,127.786338 240.482662,128.322999 241.472,128.322999 Z M250.936,128.168999 L253.106,128.168999 L253.106,129.134999 L247.618,129.134999 L247.618,128.168999 L249.788,128.168999 L249.788,120.692999 L248.052,121.784999 L247.52,120.902999 L250.11,119.264999 L250.936,119.264999 L250.936,128.168999 Z" id="out1" fill="#0F1931" fill-rule="nonzero"></path>
        <path d="M225.68,157.232999 C225.035997,157.232999 224.469002,157.088334 223.979,156.798999 C223.488998,156.509664 223.111001,156.096668 222.845,155.559999 C222.578999,155.02333 222.446,154.400336 222.446,153.690999 C222.446,152.981662 222.578999,152.358668 222.845,151.821999 C223.111001,151.28533 223.488998,150.872334 223.979,150.582999 C224.469002,150.293664 225.035997,150.148999 225.68,150.148999 C226.324003,150.148999 226.893331,150.293664 227.388,150.582999 C227.882669,150.872334 228.262999,151.28533 228.529,151.821999 C228.795001,152.358668 228.928,152.981662 228.928,153.690999 C228.928,154.400336 228.795001,155.02333 228.529,155.559999 C228.262999,156.096668 227.882669,156.509664 227.388,156.798999 C226.893331,157.088334 226.324003,157.232999 225.68,157.232999 Z M225.68,156.294999 C226.352003,156.294999 226.867665,156.073334 227.227,155.629999 C227.586335,155.186663 227.766,154.540336 227.766,153.690999 C227.766,152.860328 227.584002,152.218668 227.22,151.765999 C226.855998,151.31333 226.34267,151.086999 225.68,151.086999 C225.01733,151.086999 224.504002,151.31333 224.14,151.765999 C223.775998,152.218668 223.594,152.860328 223.594,153.690999 C223.594,154.531003 223.773665,155.174997 224.133,155.622999 C224.492335,156.071001 225.007997,156.294999 225.68,156.294999 Z M236.362,150.316999 L236.362,157.134999 L235.256,157.134999 L235.256,155.972999 C235.041332,156.383668 234.740335,156.696331 234.353,156.910999 C233.965665,157.125667 233.529336,157.232999 233.044,157.232999 C232.231996,157.232999 231.620669,157.006668 231.21,156.553999 C230.799331,156.10133 230.594,155.43167 230.594,154.544999 L230.594,150.316999 L231.728,150.316999 L231.728,154.516999 C231.728,155.123669 231.849332,155.569331 232.092,155.853999 C232.334668,156.138667 232.717331,156.280999 233.24,156.280999 C233.837336,156.280999 234.317998,156.087334 234.682,155.699999 C235.046002,155.312664 235.228,154.801669 235.228,154.166999 L235.228,150.316999 L236.362,150.316999 Z M241.472,156.322999 C241.677334,156.322999 241.882666,156.308999 242.088,156.280999 L242.032,157.176999 C241.817332,157.214332 241.584001,157.232999 241.332,157.232999 C240.510663,157.232999 239.892335,157.018334 239.477,156.588999 C239.061665,156.159663 238.854,155.562336 238.854,154.796999 L238.854,151.212999 L237.524,151.212999 L237.524,150.316999 L238.854,150.316999 L238.854,148.244999 L239.988,148.244999 L239.988,150.316999 L241.92,150.316999 L241.92,151.212999 L239.988,151.212999 L239.988,154.712999 C239.988,155.786338 240.482662,156.322999 241.472,156.322999 Z M253.344,156.168999 L253.344,157.134999 L246.988,157.134999 L246.988,156.266999 L250.446,152.458999 C250.912669,151.93633 251.250999,151.467334 251.461,151.051999 C251.671001,150.636663 251.776,150.219001 251.776,149.798999 C251.776,149.257663 251.617335,148.842334 251.3,148.552999 C250.982665,148.263664 250.53467,148.118999 249.956,148.118999 C249.003995,148.118999 248.070671,148.496995 247.156,149.252999 L246.722,148.370999 C247.114002,147.997664 247.60633,147.701333 248.199,147.481999 C248.79167,147.262664 249.386664,147.152999 249.984,147.152999 C250.889338,147.152999 251.605664,147.38633 252.133,147.852999 C252.660336,148.319668 252.924,148.949662 252.924,149.742999 C252.924,150.312335 252.795668,150.85833 252.539,151.380999 C252.282332,151.903668 251.860003,152.486996 251.272,153.130999 L248.472,156.168999 L253.344,156.168999 Z" id="out2" fill="#0F1931" fill-rule="nonzero"></path>
        <path d="M225.68,185.232999 C225.035997,185.232999 224.469002,185.088334 223.979,184.798999 C223.488998,184.509664 223.111001,184.096668 222.845,183.559999 C222.578999,183.02333 222.446,182.400336 222.446,181.690999 C222.446,180.981662 222.578999,180.358668 222.845,179.821999 C223.111001,179.28533 223.488998,178.872334 223.979,178.582999 C224.469002,178.293664 225.035997,178.148999 225.68,178.148999 C226.324003,178.148999 226.893331,178.293664 227.388,178.582999 C227.882669,178.872334 228.262999,179.28533 228.529,179.821999 C228.795001,180.358668 228.928,180.981662 228.928,181.690999 C228.928,182.400336 228.795001,183.02333 228.529,183.559999 C228.262999,184.096668 227.882669,184.509664 227.388,184.798999 C226.893331,185.088334 226.324003,185.232999 225.68,185.232999 Z M225.68,184.294999 C226.352003,184.294999 226.867665,184.073334 227.227,183.629999 C227.586335,183.186663 227.766,182.540336 227.766,181.690999 C227.766,180.860328 227.584002,180.218668 227.22,179.765999 C226.855998,179.31333 226.34267,179.086999 225.68,179.086999 C225.01733,179.086999 224.504002,179.31333 224.14,179.765999 C223.775998,180.218668 223.594,180.860328 223.594,181.690999 C223.594,182.531003 223.773665,183.174997 224.133,183.622999 C224.492335,184.071001 225.007997,184.294999 225.68,184.294999 Z M236.362,178.316999 L236.362,185.134999 L235.256,185.134999 L235.256,183.972999 C235.041332,184.383668 234.740335,184.696331 234.353,184.910999 C233.965665,185.125667 233.529336,185.232999 233.044,185.232999 C232.231996,185.232999 231.620669,185.006668 231.21,184.553999 C230.799331,184.10133 230.594,183.43167 230.594,182.544999 L230.594,178.316999 L231.728,178.316999 L231.728,182.516999 C231.728,183.123669 231.849332,183.569331 232.092,183.853999 C232.334668,184.138667 232.717331,184.280999 233.24,184.280999 C233.837336,184.280999 234.317998,184.087334 234.682,183.699999 C235.046002,183.312664 235.228,182.801669 235.228,182.166999 L235.228,178.316999 L236.362,178.316999 Z M241.472,184.322999 C241.677334,184.322999 241.882666,184.308999 242.088,184.280999 L242.032,185.176999 C241.817332,185.214332 241.584001,185.232999 241.332,185.232999 C240.510663,185.232999 239.892335,185.018334 239.477,184.588999 C239.061665,184.159663 238.854,183.562336 238.854,182.796999 L238.854,179.212999 L237.524,179.212999 L237.524,178.316999 L238.854,178.316999 L238.854,176.244999 L239.988,176.244999 L239.988,178.316999 L241.92,178.316999 L241.92,179.212999 L239.988,179.212999 L239.988,182.712999 C239.988,183.786338 240.482662,184.322999 241.472,184.322999 Z M251.356,180.066999 C251.93467,180.235 252.377998,180.521997 252.686,180.927999 C252.994002,181.334001 253.148,181.844996 253.148,182.460999 C253.148,183.31967 252.856336,183.99633 252.273,184.490999 C251.689664,184.985668 250.898672,185.232999 249.9,185.232999 C249.26533,185.232999 248.654003,185.125667 248.066,184.910999 C247.477997,184.696331 246.983335,184.397667 246.582,184.014999 L247.016,183.132999 C247.912004,183.889003 248.863995,184.266999 249.872,184.266999 C250.572003,184.266999 251.103998,184.110667 251.468,183.797999 C251.832002,183.485331 252.014,183.025669 252.014,182.418999 C252.014,181.214993 251.258008,180.612999 249.746,180.612999 L248.612,180.612999 L248.612,179.646999 L249.522,179.646999 C250.250004,179.646999 250.809998,179.486 251.202,179.163999 C251.594002,178.841997 251.79,178.377669 251.79,177.770999 C251.79,177.238996 251.631335,176.830667 251.314,176.545999 C250.996665,176.261331 250.544003,176.118999 249.956,176.118999 C249.003995,176.118999 248.070671,176.496995 247.156,177.252999 L246.722,176.370999 C247.123335,175.98833 247.61333,175.689667 248.192,175.474999 C248.77067,175.260331 249.372664,175.152999 249.998,175.152999 C250.894004,175.152999 251.605664,175.37933 252.133,175.831999 C252.660336,176.284668 252.924,176.893662 252.924,177.658999 C252.924,178.228335 252.786335,178.72533 252.511,179.149999 C252.235665,179.574668 251.850669,179.880331 251.356,180.066999 Z" id="out3" fill="#0F1931" fill-rule="nonzero"></path>
        <path d="M164.461,154.208999 C164.461,153.630329 164.563666,153.138001 164.769,152.731999 C164.940112,152.393664 165.176036,152.024546 165.476777,151.624638 L165.665,151.380999 C165.982335,150.979664 166.217999,150.639 166.372,150.358999 C166.526001,150.078997 166.603,149.766334 166.603,149.420999 C166.603,149.019664 166.463001,148.704667 166.183,148.475999 C165.902999,148.247331 165.520336,148.132999 165.035,148.132999 C164.596331,148.132999 164.148336,148.228665 163.691,148.419999 C163.233664,148.611333 162.785669,148.888997 162.347,149.252999 L161.899,148.370999 C162.300335,147.997664 162.79033,147.701333 163.369,147.481999 C163.94767,147.262664 164.521664,147.152999 165.091,147.152999 C165.884337,147.152999 166.528331,147.353664 167.023,147.754999 C167.517669,148.156334 167.765,148.683662 167.765,149.336999 C167.765,149.831668 167.657668,150.260997 167.443,150.624999 C167.258999,150.937 166.996144,151.293569 166.654429,151.694712 L166.477,151.898999 C166.075665,152.356334 165.767668,152.757664 165.553,153.102999 C165.338332,153.448334 165.207667,153.849663 165.161,154.306999 L165.133,154.558999 L164.461,154.558999 L164.461,154.208999 Z M164.097,157.134999 L164.097,155.706999 L165.525,155.706999 L165.525,157.134999 L164.097,157.134999 Z" id="?" fill="#0F1931" fill-rule="nonzero"></path>
        <path d="M164.461,182.208999 C164.461,181.630329 164.563666,181.138001 164.769,180.731999 C164.940112,180.393664 165.176036,180.024546 165.476777,179.624638 L165.665,179.380999 C165.982335,178.979664 166.217999,178.639 166.372,178.358999 C166.526001,178.078997 166.603,177.766334 166.603,177.420999 C166.603,177.019664 166.463001,176.704667 166.183,176.475999 C165.902999,176.247331 165.520336,176.132999 165.035,176.132999 C164.596331,176.132999 164.148336,176.228665 163.691,176.419999 C163.233664,176.611333 162.785669,176.888997 162.347,177.252999 L161.899,176.370999 C162.300335,175.997664 162.79033,175.701333 163.369,175.481999 C163.94767,175.262664 164.521664,175.152999 165.091,175.152999 C165.884337,175.152999 166.528331,175.353664 167.023,175.754999 C167.517669,176.156334 167.765,176.683662 167.765,177.336999 C167.765,177.831668 167.657668,178.260997 167.443,178.624999 C167.258999,178.937 166.996144,179.293569 166.654429,179.694712 L166.477,179.898999 C166.075665,180.356334 165.767668,180.757664 165.553,181.102999 C165.338332,181.448334 165.207667,181.849663 165.161,182.306999 L165.133,182.558999 L164.461,182.558999 L164.461,182.208999 Z M164.097,185.134999 L164.097,183.706999 L165.525,183.706999 L165.525,185.134999 L164.097,185.134999 Z" id="?" fill="#0F1931" fill-rule="nonzero"></path>
        <path d="M204.985033,50 C204.985033,47.4952818 203.387094,46.3336548 200.397213,45.9852341 C199.65772,45.8990585 199.01644,45.8704329 197.990704,45.8661262 L197.990704,45.8661262 L196.929213,45.8669734 C196.822791,45.8674017 196.720859,45.868906 196.608894,45.871949 L196.608894,45.871949 L196.367284,45.8802235 L195.376722,45.9292166 C193.937557,45.980622 185.511531,46.0090281 184.705784,45.9459813 L184.705784,45.9459813 L184.528895,45.930599 C182.246696,45.7118655 180.641703,44.7581307 179.709703,42.688891 C179.301336,41.7822286 179,38.9872003 179,37 L179,37 L180.014967,37 C180.014967,38.8493154 180.305809,41.5470131 180.637425,42.283271 C181.425839,44.0337192 182.751914,44.7899495 184.786137,44.94912 C185.549576,45.0088563 194.417776,44.9792819 195.358424,44.9291138 L195.358424,44.9291138 L196.154627,44.8884179 C196.348673,44.8795452 196.502299,44.8739324 196.645062,44.8706631 L196.645062,44.8706631 L196.854753,44.8674022 L197.590116,44.8655806 C198.897376,44.8641623 199.634144,44.8893406 200.51643,44.9921563 L200.51643,44.9921563 L200.690102,45.0134734 C203.041136,45.3168929 204.716657,46.1462461 205.500409,47.6845349 C206.283343,46.1462461 207.958864,45.3168929 210.309898,45.0134734 L210.48357,44.9921563 C211.365856,44.8893406 212.102624,44.8641623 213.409884,44.8655806 L214.145247,44.8674022 L214.354938,44.8706631 C214.497701,44.8739324 214.651327,44.8795452 214.845373,44.8884179 L215.641576,44.9291138 C216.582224,44.9792819 225.450424,45.0088563 226.213863,44.94912 C228.248086,44.7899495 229.574161,44.0337192 230.362575,42.283271 C230.694191,41.5470131 230.985033,38.8493154 230.985033,37 L232,37 C232,38.9872003 231.698664,41.7822286 231.290297,42.688891 C230.358297,44.7581307 228.753304,45.7118655 226.471105,45.930599 L226.294216,45.9459813 C225.488469,46.0090281 217.062443,45.980622 215.623278,45.9292166 L214.632716,45.8802235 L214.391106,45.871949 C214.279141,45.868906 214.177209,45.8674017 214.070787,45.8669734 L213.009296,45.8661262 C211.98356,45.8704329 211.34228,45.8990585 210.602787,45.9852341 C207.612906,46.3336548 206.014967,47.4952818 206.014967,50 Z" id="Combined-Shape-Copy" fill="#FD4D3F" fill-rule="nonzero" transform="translate(205.500000, 43.500000) rotate(-180.000000) translate(-205.500000, -43.500000) "></path>
        <path d="M171.985033,84 C171.985033,81.4952818 170.387094,80.3336548 167.397213,79.9852341 C166.65772,79.8990585 166.01644,79.8704329 164.990704,79.8661262 L164.990704,79.8661262 L163.929213,79.8669734 C163.822791,79.8674017 163.720859,79.868906 163.608894,79.871949 L163.608894,79.871949 L163.367284,79.8802235 L162.376722,79.9292166 C160.937557,79.980622 152.511531,80.0090281 151.705784,79.9459813 L151.705784,79.9459813 L151.528895,79.930599 C149.246696,79.7118655 147.641703,78.7581307 146.709703,76.688891 C146.301336,75.7822286 146,72.9872003 146,71 L146,71 L147.014967,71 C147.014967,72.8493154 147.305809,75.5470131 147.637425,76.283271 C148.425839,78.0337192 149.751914,78.7899495 151.786137,78.94912 C152.549576,79.0088563 161.417776,78.9792819 162.358424,78.9291138 L162.358424,78.9291138 L163.154627,78.8884179 C163.348673,78.8795452 163.502299,78.8739324 163.645062,78.8706631 L163.645062,78.8706631 L163.854753,78.8674022 L164.590116,78.8655806 C165.897376,78.8641623 166.634144,78.8893406 167.51643,78.9921563 L167.51643,78.9921563 L167.690102,79.0134734 C170.041136,79.3168929 171.716657,80.1462461 172.500409,81.6845349 C173.283343,80.1462461 174.958864,79.3168929 177.309898,79.0134734 L177.48357,78.9921563 C178.365856,78.8893406 179.102624,78.8641623 180.409884,78.8655806 L181.145247,78.8674022 L181.354938,78.8706631 C181.497701,78.8739324 181.651327,78.8795452 181.845373,78.8884179 L182.641576,78.9291138 C183.582224,78.9792819 192.450424,79.0088563 193.213863,78.94912 C195.248086,78.7899495 196.574161,78.0337192 197.362575,76.283271 C197.694191,75.5470131 197.985033,72.8493154 197.985033,71 L199,71 C199,72.9872003 198.698664,75.7822286 198.290297,76.688891 C197.358297,78.7581307 195.753304,79.7118655 193.471105,79.930599 L193.294216,79.9459813 C192.488469,80.0090281 184.062443,79.980622 182.623278,79.9292166 L181.632716,79.8802235 L181.391106,79.871949 C181.279141,79.868906 181.177209,79.8674017 181.070787,79.8669734 L180.009296,79.8661262 C178.98356,79.8704329 178.34228,79.8990585 177.602787,79.9852341 C174.612906,80.3336548 173.014967,81.4952818 173.014967,84 Z" id="Combined-Shape-Copy" fill="#FD4D3F" fill-rule="nonzero" transform="translate(172.500000, 77.500000) rotate(-270.000000) translate(-172.500000, -77.500000) "></path>
        <path d="M263.985033,84 C263.985033,81.4952818 262.387094,80.3336548 259.397213,79.9852341 C258.65772,79.8990585 258.01644,79.8704329 256.990704,79.8661262 L256.990704,79.8661262 L255.929213,79.8669734 C255.822791,79.8674017 255.720859,79.868906 255.608894,79.871949 L255.608894,79.871949 L255.367284,79.8802235 L254.376722,79.9292166 C252.937557,79.980622 244.511531,80.0090281 243.705784,79.9459813 L243.705784,79.9459813 L243.528895,79.930599 C241.246696,79.7118655 239.641703,78.7581307 238.709703,76.688891 C238.301336,75.7822286 238,72.9872003 238,71 L238,71 L239.014967,71 C239.014967,72.8493154 239.305809,75.5470131 239.637425,76.283271 C240.425839,78.0337192 241.751914,78.7899495 243.786137,78.94912 C244.549576,79.0088563 253.417776,78.9792819 254.358424,78.9291138 L254.358424,78.9291138 L255.154627,78.8884179 C255.348673,78.8795452 255.502299,78.8739324 255.645062,78.8706631 L255.645062,78.8706631 L255.854753,78.8674022 L256.590116,78.8655806 C257.897376,78.8641623 258.634144,78.8893406 259.51643,78.9921563 L259.51643,78.9921563 L259.690102,79.0134734 C262.041136,79.3168929 263.716657,80.1462461 264.500409,81.6845349 C265.283343,80.1462461 266.958864,79.3168929 269.309898,79.0134734 L269.48357,78.9921563 C270.365856,78.8893406 271.102624,78.8641623 272.409884,78.8655806 L273.145247,78.8674022 L273.354938,78.8706631 C273.497701,78.8739324 273.651327,78.8795452 273.845373,78.8884179 L274.641576,78.9291138 C275.582224,78.9792819 284.450424,79.0088563 285.213863,78.94912 C287.248086,78.7899495 288.574161,78.0337192 289.362575,76.283271 C289.694191,75.5470131 289.985033,72.8493154 289.985033,71 L291,71 C291,72.9872003 290.698664,75.7822286 290.290297,76.688891 C289.358297,78.7581307 287.753304,79.7118655 285.471105,79.930599 L285.294216,79.9459813 C284.488469,80.0090281 276.062443,79.980622 274.623278,79.9292166 L273.632716,79.8802235 L273.391106,79.871949 C273.279141,79.868906 273.177209,79.8674017 273.070787,79.8669734 L272.009296,79.8661262 C270.98356,79.8704329 270.34228,79.8990585 269.602787,79.9852341 C266.612906,80.3336548 265.014967,81.4952818 265.014967,84 Z" id="Combined-Shape-Copy-3" fill="#0F1931" fill-rule="nonzero" transform="translate(264.500000, 77.500000) rotate(-270.000000) translate(-264.500000, -77.500000) "></path>
        <path d="M86.9850331,171 C86.9850331,168.495282 85.3870942,167.333655 82.3972133,166.985234 C81.6577204,166.899059 81.0164403,166.870433 79.990704,166.866126 L79.990704,166.866126 L78.9292129,166.866973 C78.8227912,166.867402 78.7208593,166.868906 78.6088943,166.871949 L78.6088943,166.871949 L78.367284,166.880223 L77.3767221,166.929217 C75.9375567,166.980622 49.5115312,167.009028 48.7057841,166.945981 L48.7057841,166.945981 L48.5288947,166.930599 C46.2466964,166.711865 44.6417032,165.758131 43.709703,163.688891 C43.3013359,162.782229 43,159.9872 43,158 L43,158 L44.0149669,158 C44.0149669,159.849315 44.3058094,162.547013 44.6374252,163.283271 C45.4258394,165.033719 46.7519141,165.78995 48.7861372,165.94912 C49.5495762,166.008856 76.4177757,165.979282 77.3584238,165.929114 L77.3584238,165.929114 L78.1546268,165.888418 C78.3486733,165.879545 78.5022992,165.873932 78.645062,165.870663 L78.645062,165.870663 L78.8547535,165.867402 L79.590116,165.865581 C80.8973761,165.864162 81.6341438,165.889341 82.51643,165.992156 L82.51643,165.992156 L82.6901025,166.013473 C85.0411361,166.316893 86.7166569,167.146246 87.500409,168.684535 C88.2833431,167.146246 89.9588639,166.316893 92.3098975,166.013473 L92.48357,165.992156 C93.3658562,165.889341 94.1026239,165.864162 95.409884,165.865581 L96.1452465,165.867402 L96.354938,165.870663 C96.4977008,165.873932 96.6513267,165.879545 96.8453732,165.888418 L97.6415762,165.929114 C98.5822243,165.979282 125.450424,166.008856 126.213863,165.94912 C128.248086,165.78995 129.574161,165.033719 130.362575,163.283271 C130.694191,162.547013 130.985033,159.849315 130.985033,158 L132,158 C132,159.9872 131.698664,162.782229 131.290297,163.688891 C130.358297,165.758131 128.753304,166.711865 126.471105,166.930599 L126.294216,166.945981 C125.488469,167.009028 99.0624433,166.980622 97.6232779,166.929217 L96.632716,166.880223 L96.3911057,166.871949 C96.2791407,166.868906 96.1772088,166.867402 96.0707871,166.866973 L95.009296,166.866126 C93.9835597,166.870433 93.3422796,166.899059 92.6027867,166.985234 C89.6129058,167.333655 88.0149669,168.495282 88.0149669,171 Z" id="Combined-Shape-Copy-2" fill="#FD4D3F" fill-rule="nonzero" transform="translate(87.500000, 164.500000) rotate(-270.000000) translate(-87.500000, -164.500000) "></path>
        <path d="M182.388,18.448 L180.804,18.448 L180.084,22.144 L182.068,22.144 L182.068,23.088 L179.908,23.088 L179.332,26 L178.324,26 L178.884,23.088 L176.34,23.088 L175.78,26 L174.756,26 L175.332,23.088 L173.908,23.088 L173.908,22.144 L175.508,22.144 L176.228,18.448 L174.228,18.448 L174.228,17.504 L176.42,17.504 L176.964,14.72 L177.972,14.72 L177.428,17.504 L179.972,17.504 L180.516,14.72 L181.54,14.72 L180.996,17.504 L182.388,17.504 L182.388,18.448 Z M179.076,22.144 L179.796,18.448 L177.252,18.448 L176.532,22.144 L179.076,22.144 Z M187.38,26.112 C186.643996,26.112 185.996003,25.9466683 185.436,25.616 C184.875997,25.2853317 184.444002,24.8133364 184.14,24.2 C183.835998,23.5866636 183.684,22.8746707 183.684,22.064 C183.684,21.2533293 183.835998,20.5413364 184.14,19.928 C184.444002,19.3146636 184.875997,18.8426683 185.436,18.512 C185.996003,18.1813317 186.643996,18.016 187.38,18.016 C188.116004,18.016 188.766664,18.1813317 189.332,18.512 C189.897336,18.8426683 190.331998,19.3146636 190.636,19.928 C190.940002,20.5413364 191.092,21.2533293 191.092,22.064 C191.092,22.8746707 190.940002,23.5866636 190.636,24.2 C190.331998,24.8133364 189.897336,25.2853317 189.332,25.616 C188.766664,25.9466683 188.116004,26.112 187.38,26.112 Z M187.38,25.04 C188.148004,25.04 188.737331,24.7866692 189.148,24.28 C189.558669,23.7733308 189.764,23.0346715 189.764,22.064 C189.764,21.1146619 189.556002,20.3813359 189.14,19.864 C188.723998,19.3466641 188.137337,19.088 187.38,19.088 C186.622663,19.088 186.036002,19.3466641 185.62,19.864 C185.203998,20.3813359 184.996,21.1146619 184.996,22.064 C184.996,23.0240048 185.201331,23.7599974 185.612,24.272 C186.022669,24.7840026 186.611996,25.04 187.38,25.04 Z M199.588,18.208 L199.588,26 L198.324,26 L198.324,24.672 C198.078665,25.1413357 197.734669,25.4986654 197.292,25.744 C196.849331,25.9893346 196.350669,26.112 195.796,26.112 C194.867995,26.112 194.169336,25.8533359 193.7,25.336 C193.230664,24.8186641 192.996,24.0533384 192.996,23.04 L192.996,18.208 L194.292,18.208 L194.292,23.008 C194.292,23.7013368 194.430665,24.210665 194.708,24.536 C194.985335,24.861335 195.422664,25.024 196.02,25.024 C196.70267,25.024 197.251998,24.8026689 197.668,24.36 C198.084002,23.9173311 198.292,23.333337 198.292,22.608 L198.292,18.208 L199.588,18.208 Z M205.428,25.072 C205.662668,25.072 205.897332,25.0560002 206.132,25.024 L206.068,26.048 C205.822665,26.0906669 205.556001,26.112 205.268,26.112 C204.329329,26.112 203.622669,25.8666691 203.148,25.376 C202.673331,24.8853309 202.436,24.202671 202.436,23.328 L202.436,19.232 L200.916,19.232 L200.916,18.208 L202.436,18.208 L202.436,15.84 L203.732,15.84 L203.732,18.208 L205.94,18.208 L205.94,19.232 L203.732,19.232 L203.732,23.232 C203.732,24.4586728 204.297328,25.072 205.428,25.072 Z M211.364,18.016 C212.04667,18.016 212.649331,18.186665 213.172,18.528 C213.694669,18.869335 214.099999,19.3466636 214.388,19.96 C214.676001,20.5733364 214.82,21.2853293 214.82,22.096 C214.82,22.9066707 214.676001,23.6133303 214.388,24.216 C214.099999,24.8186697 213.697336,25.2853317 213.18,25.616 C212.662664,25.9466683 212.057337,26.112 211.364,26.112 C210.755997,26.112 210.225336,25.978668 209.772,25.712 C209.318664,25.445332 208.974668,25.0666691 208.74,24.576 L208.74,28.88 L207.444,28.88 L207.444,18.208 L208.74,18.208 L208.74,19.552 C208.974668,19.0613309 209.318664,18.682668 209.772,18.416 C210.225336,18.149332 210.755997,18.016 211.364,18.016 Z M211.108,25.04 C211.865337,25.04 212.451998,24.7840026 212.868,24.272 C213.284002,23.7599974 213.492,23.0346714 213.492,22.096 C213.492,21.1573286 213.284002,20.4240026 212.868,19.896 C212.451998,19.3679974 211.865337,19.104 211.108,19.104 C210.350663,19.104 209.766669,19.3599974 209.356,19.872 C208.945331,20.3840026 208.74,21.1146619 208.74,22.064 C208.74,23.0133381 208.945331,23.7466641 209.356,24.264 C209.766669,24.7813359 210.350663,25.04 211.108,25.04 Z M223.316,18.208 L223.316,26 L222.052,26 L222.052,24.672 C221.806665,25.1413357 221.462669,25.4986654 221.02,25.744 C220.577331,25.9893346 220.078669,26.112 219.524,26.112 C218.595995,26.112 217.897336,25.8533359 217.428,25.336 C216.958664,24.8186641 216.724,24.0533384 216.724,23.04 L216.724,18.208 L218.02,18.208 L218.02,23.008 C218.02,23.7013368 218.158665,24.210665 218.436,24.536 C218.713335,24.861335 219.150664,25.024 219.748,25.024 C220.43067,25.024 220.979998,24.8026689 221.396,24.36 C221.812002,23.9173311 222.02,23.333337 222.02,22.608 L222.02,18.208 L223.316,18.208 Z M229.156,25.072 C229.390668,25.072 229.625332,25.0560002 229.86,25.024 L229.796,26.048 C229.550665,26.0906669 229.284001,26.112 228.996,26.112 C228.057329,26.112 227.350669,25.8666691 226.876,25.376 C226.401331,24.8853309 226.164,24.202671 226.164,23.328 L226.164,19.232 L224.644,19.232 L224.644,18.208 L226.164,18.208 L226.164,15.84 L227.46,15.84 L227.46,18.208 L229.668,18.208 L229.668,19.232 L227.46,19.232 L227.46,23.232 C227.46,24.4586728 228.025328,25.072 229.156,25.072 Z M233.812,26.112 C232.499993,26.112 231.460004,25.7760034 230.692,25.104 L231.124,24.144 C231.540002,24.4746683 231.963998,24.7119993 232.396,24.856 C232.828002,25.0000007 233.315997,25.072 233.86,25.072 C234.436003,25.072 234.875998,24.9733343 235.18,24.776 C235.484002,24.5786657 235.636,24.2933352 235.636,23.92 C235.636,23.6106651 235.534668,23.3653342 235.332,23.184 C235.129332,23.0026658 234.793336,22.8586672 234.324,22.752 L233.012,22.448 C232.350663,22.2986659 231.844002,22.0426685 231.492,21.68 C231.139998,21.3173315 230.964,20.869336 230.964,20.336 C230.964,19.6426632 231.235997,19.0826688 231.78,18.656 C232.324003,18.2293312 233.049329,18.016 233.956,18.016 C234.500003,18.016 235.017331,18.1039991 235.508,18.28 C235.998669,18.4560009 236.409332,18.7093317 236.74,19.04 L236.308,19.984 C235.59333,19.375997 234.809338,19.072 233.956,19.072 C233.411997,19.072 232.988002,19.175999 232.684,19.384 C232.379998,19.592001 232.228,19.8826648 232.228,20.256 C232.228,20.5653349 232.321332,20.8133324 232.508,21 C232.694668,21.1866676 232.995998,21.3279995 233.412,21.424 L234.74,21.744 C235.465337,21.9146675 236.003998,22.1733316 236.356,22.52 C236.708002,22.8666684 236.884,23.3173306 236.884,23.872 C236.884,24.5546701 236.609336,25.0986646 236.06,25.504 C235.510664,25.9093354 234.761338,26.112 233.812,26.112 Z" id="#outputs" fill="#FD4D3F" fill-rule="nonzero"></path>
        <path d="M90.072,75.448 L88.488,75.448 L87.768,79.144 L89.752,79.144 L89.752,80.088 L87.592,80.088 L87.016,83 L86.008,83 L86.568,80.088 L84.024,80.088 L83.464,83 L82.44,83 L83.016,80.088 L81.592,80.088 L81.592,79.144 L83.192,79.144 L83.912,75.448 L81.912,75.448 L81.912,74.504 L84.104,74.504 L84.648,71.72 L85.656,71.72 L85.112,74.504 L87.656,74.504 L88.2,71.72 L89.224,71.72 L88.68,74.504 L90.072,74.504 L90.072,75.448 Z M86.76,79.144 L87.48,75.448 L84.936,75.448 L84.216,79.144 L86.76,79.144 Z M93.56,75.208 L95.768,75.208 L95.768,76.232 L93.56,76.232 L93.56,83 L92.264,83 L92.264,76.232 L90.744,76.232 L90.744,75.208 L92.264,75.208 L92.264,74.952 C92.264,73.9173282 92.5226641,73.133336 93.04,72.6 C93.5573359,72.066664 94.3546613,71.7680003 95.432,71.704 L96.072,71.672 L96.168,72.68 L95.432,72.728 C94.7813301,72.7706669 94.3066682,72.954665 94.008,73.28 C93.7093318,73.605335 93.56,74.1039966 93.56,74.776 L93.56,75.208 Z M103.608,79.304 L97.912,79.304 C97.9546669,80.2106712 98.1999978,80.8959977 98.648,81.36 C99.0960022,81.8240023 99.7306626,82.056 100.552,82.056 C101.458671,82.056 102.290663,81.7466698 103.048,81.128 L103.48,82.072 C103.138665,82.3920016 102.701336,82.6453324 102.168,82.832 C101.634664,83.0186676 101.090669,83.112 100.536,83.112 C99.3199939,83.112 98.3626702,82.7546702 97.664,82.04 C96.9653298,81.3253298 96.616,80.338673 96.616,79.08 C96.616,78.279996 96.7706651,77.5733364 97.08,76.96 C97.3893349,76.3466636 97.8239972,75.869335 98.384,75.528 C98.9440028,75.186665 99.5813298,75.016 100.296,75.016 C101.330672,75.016 102.14133,75.3546633 102.728,76.032 C103.31467,76.7093367 103.608,77.6399941 103.608,78.824 L103.608,79.304 Z M100.312,76.024 C99.6293299,76.024 99.0826687,76.2373312 98.672,76.664 C98.2613313,77.0906688 98.018667,77.6933294 97.944,78.472 L102.472,78.472 C102.450667,77.6826627 102.253335,77.0773354 101.88,76.656 C101.506665,76.2346646 100.984003,76.024 100.312,76.024 Z M108.68,75.016 C109.672005,75.016 110.410664,75.2693308 110.896,75.776 C111.381336,76.2826692 111.624,77.0533282 111.624,78.088 L111.624,83 L110.36,83 L110.36,81.672 C110.157332,82.130669 109.848002,82.4853321 109.432,82.736 C109.015998,82.9866679 108.536003,83.112 107.992,83.112 C107.490664,83.112 107.029335,83.0106677 106.608,82.808 C106.186665,82.6053323 105.853335,82.3226685 105.608,81.96 C105.362665,81.5973315 105.24,81.1973355 105.24,80.76 C105.24,80.1733304 105.389332,79.717335 105.688,79.392 C105.986668,79.066665 106.47733,78.8320007 107.16,78.688 C107.774403,78.5583994 108.604796,78.4871199 109.651199,78.47416 L110.36,78.472 L110.36,77.944 C110.36,77.2933301 110.226668,76.8213348 109.96,76.528 C109.693332,76.2346652 109.261336,76.088 108.664,76.088 C107.767996,76.088 106.877338,76.3653306 105.992,76.92 L105.56,75.976 C105.965335,75.6879986 106.45333,75.4560009 107.024,75.28 C107.59467,75.1039991 108.146664,75.016 108.68,75.016 Z M108.168,82.088 C108.808003,82.088 109.333331,81.8720022 109.744,81.44 C110.154669,81.0079978 110.36,80.4506701 110.36,79.768 L110.36,79.304 L110.072,79.304 C109.133329,79.304 108.418669,79.3439996 107.928,79.424 C107.437331,79.5040004 107.088001,79.6373324 106.88,79.824 C106.671999,80.0106676 106.568,80.2853315 106.568,80.648 C106.568,81.0640021 106.719998,81.4079986 107.024,81.68 C107.328002,81.9520014 107.709331,82.088 108.168,82.088 Z M117.416,82.072 C117.650668,82.072 117.885332,82.0560002 118.12,82.024 L118.056,83.048 C117.810665,83.0906669 117.544001,83.112 117.256,83.112 C116.317329,83.112 115.610669,82.8666691 115.136,82.376 C114.661331,81.8853309 114.424,81.202671 114.424,80.328 L114.424,76.232 L112.904,76.232 L112.904,75.208 L114.424,75.208 L114.424,72.84 L115.72,72.84 L115.72,75.208 L117.928,75.208 L117.928,76.232 L115.72,76.232 L115.72,80.232 C115.72,81.4586728 116.285328,82.072 117.416,82.072 Z M125.992,75.208 L125.992,83 L124.728,83 L124.728,81.672 C124.482665,82.1413357 124.138669,82.4986654 123.696,82.744 C123.253331,82.9893346 122.754669,83.112 122.2,83.112 C121.271995,83.112 120.573336,82.8533359 120.104,82.336 C119.634664,81.8186641 119.4,81.0533384 119.4,80.04 L119.4,75.208 L120.696,75.208 L120.696,80.008 C120.696,80.7013368 120.834665,81.210665 121.112,81.536 C121.389335,81.861335 121.826664,82.024 122.424,82.024 C123.10667,82.024 123.655998,81.8026689 124.072,81.36 C124.488002,80.9173311 124.696,80.333337 124.696,79.608 L124.696,75.208 L125.992,75.208 Z M132.824,76.136 L131.976,76.216 C131.175996,76.290667 130.597335,76.5413312 130.24,76.968 C129.882665,77.3946688 129.704,77.9226635 129.704,78.552 L129.704,83 L128.408,83 L128.408,75.208 L129.672,75.208 L129.672,76.568 C130.109336,75.6613288 130.967994,75.1546672 132.248,75.048 L132.712,75.016 L132.824,76.136 Z M140.584,79.304 L134.888,79.304 C134.930667,80.2106712 135.175998,80.8959977 135.624,81.36 C136.072002,81.8240023 136.706663,82.056 137.528,82.056 C138.434671,82.056 139.266663,81.7466698 140.024,81.128 L140.456,82.072 C140.114665,82.3920016 139.677336,82.6453324 139.144,82.832 C138.610664,83.0186676 138.066669,83.112 137.512,83.112 C136.295994,83.112 135.33867,82.7546702 134.64,82.04 C133.94133,81.3253298 133.592,80.338673 133.592,79.08 C133.592,78.279996 133.746665,77.5733364 134.056,76.96 C134.365335,76.3466636 134.799997,75.869335 135.36,75.528 C135.920003,75.186665 136.55733,75.016 137.272,75.016 C138.306672,75.016 139.11733,75.3546633 139.704,76.032 C140.29067,76.7093367 140.584,77.6399941 140.584,78.824 L140.584,79.304 Z M137.288,76.024 C136.60533,76.024 136.058669,76.2373312 135.648,76.664 C135.237331,77.0906688 134.994667,77.6933294 134.92,78.472 L139.448,78.472 C139.426667,77.6826627 139.229335,77.0773354 138.856,76.656 C138.482665,76.2346646 137.960003,76.024 137.288,76.024 Z M145.128,83.112 C143.815993,83.112 142.776004,82.7760034 142.008,82.104 L142.44,81.144 C142.856002,81.4746683 143.279998,81.7119993 143.712,81.856 C144.144002,82.0000007 144.631997,82.072 145.176,82.072 C145.752003,82.072 146.191998,81.9733343 146.496,81.776 C146.800002,81.5786657 146.952,81.2933352 146.952,80.92 C146.952,80.6106651 146.850668,80.3653342 146.648,80.184 C146.445332,80.0026658 146.109336,79.8586672 145.64,79.752 L144.328,79.448 C143.666663,79.2986659 143.160002,79.0426685 142.808,78.68 C142.455998,78.3173315 142.28,77.869336 142.28,77.336 C142.28,76.6426632 142.551997,76.0826688 143.096,75.656 C143.640003,75.2293312 144.365329,75.016 145.272,75.016 C145.816003,75.016 146.333331,75.1039991 146.824,75.28 C147.314669,75.4560009 147.725332,75.7093317 148.056,76.04 L147.624,76.984 C146.90933,76.375997 146.125338,76.072 145.272,76.072 C144.727997,76.072 144.304002,76.175999 144,76.384 C143.695998,76.592001 143.544,76.8826648 143.544,77.256 C143.544,77.5653349 143.637332,77.8133324 143.824,78 C144.010668,78.1866676 144.311998,78.3279995 144.728,78.424 L146.056,78.744 C146.781337,78.9146675 147.319998,79.1733316 147.672,79.52 C148.024002,79.8666684 148.2,80.3173306 148.2,80.872 C148.2,81.5546701 147.925336,82.0986646 147.376,82.504 C146.826664,82.9093354 146.077338,83.112 145.128,83.112 Z" id="#features" fill="#FD4D3F" fill-rule="nonzero"></path>
        <path d="M42.276,161.448 L40.692,161.448 L39.972,165.144 L41.956,165.144 L41.956,166.088 L39.796,166.088 L39.22,169 L38.212,169 L38.772,166.088 L36.228,166.088 L35.668,169 L34.644,169 L35.22,166.088 L33.796,166.088 L33.796,165.144 L35.396,165.144 L36.116,161.448 L34.116,161.448 L34.116,160.504 L36.308,160.504 L36.852,157.72 L37.86,157.72 L37.316,160.504 L39.86,160.504 L40.404,157.72 L41.428,157.72 L40.884,160.504 L42.276,160.504 L42.276,161.448 Z M38.964,165.144 L39.684,161.448 L37.14,161.448 L36.42,165.144 L38.964,165.144 Z M46.676,169.112 C45.3639934,169.112 44.3240038,168.776003 43.556,168.104 L43.988,167.144 C44.4040021,167.474668 44.8279978,167.711999 45.26,167.856 C45.6920022,168.000001 46.1799973,168.072 46.724,168.072 C47.3000029,168.072 47.7399985,167.973334 48.044,167.776 C48.3480015,167.578666 48.5,167.293335 48.5,166.92 C48.5,166.610665 48.3986677,166.365334 48.196,166.184 C47.9933323,166.002666 47.6573357,165.858667 47.188,165.752 L45.876,165.448 C45.2146634,165.298666 44.7080018,165.042668 44.356,164.68 C44.0039982,164.317332 43.828,163.869336 43.828,163.336 C43.828,162.642663 44.0999973,162.082669 44.644,161.656 C45.1880027,161.229331 45.9133288,161.016 46.82,161.016 C47.3640027,161.016 47.8813309,161.103999 48.372,161.28 C48.8626691,161.456001 49.2733317,161.709332 49.604,162.04 L49.172,162.984 C48.4573298,162.375997 47.6733376,162.072 46.82,162.072 C46.2759973,162.072 45.8520015,162.175999 45.548,162.384 C45.2439985,162.592001 45.092,162.882665 45.092,163.256 C45.092,163.565335 45.1853324,163.813332 45.372,164 C45.5586676,164.186668 45.8599979,164.328 46.276,164.424 L47.604,164.744 C48.329337,164.914668 48.8679982,165.173332 49.22,165.52 C49.5720018,165.866668 49.748,166.317331 49.748,166.872 C49.748,167.55467 49.4733361,168.098665 48.924,168.504 C48.3746639,168.909335 47.6253381,169.112 46.676,169.112 Z M54.884,161.016 C55.876005,161.016 56.6146642,161.269331 57.1,161.776 C57.5853358,162.282669 57.828,163.053328 57.828,164.088 L57.828,169 L56.564,169 L56.564,167.672 C56.3613323,168.130669 56.0520021,168.485332 55.636,168.736 C55.2199979,168.986668 54.7400027,169.112 54.196,169.112 C53.6946642,169.112 53.2333354,169.010668 52.812,168.808 C52.3906646,168.605332 52.0573346,168.322668 51.812,167.96 C51.5666654,167.597332 51.444,167.197336 51.444,166.76 C51.444,166.17333 51.5933318,165.717335 51.892,165.392 C52.1906682,165.066665 52.6813299,164.832001 53.364,164.688 C53.9784031,164.558399 54.8087957,164.48712 55.8551986,164.47416 L56.564,164.472 L56.564,163.944 C56.564,163.29333 56.430668,162.821335 56.164,162.528 C55.897332,162.234665 55.4653363,162.088 54.868,162.088 C53.9719955,162.088 53.0813378,162.365331 52.196,162.92 L51.764,161.976 C52.1693354,161.687999 52.6573305,161.456001 53.228,161.28 C53.7986695,161.103999 54.350664,161.016 54.884,161.016 Z M54.372,168.088 C55.0120032,168.088 55.5373313,167.872002 55.948,167.44 C56.3586687,167.007998 56.564,166.45067 56.564,165.768 L56.564,165.304 L56.276,165.304 C55.3373286,165.304 54.6226691,165.344 54.132,165.424 C53.6413309,165.504 53.292001,165.637332 53.084,165.824 C52.875999,166.010668 52.772,166.285332 52.772,166.648 C52.772,167.064002 52.9239985,167.407999 53.228,167.68 C53.5320015,167.952001 53.913331,168.088 54.372,168.088 Z M68.868,161.016 C70.5960086,161.016 71.46,162.045323 71.46,164.104 L71.46,169 L70.164,169 L70.164,164.168 C70.164,163.45333 70.0386679,162.930668 69.788,162.6 C69.5373321,162.269332 69.1346694,162.104 68.58,162.104 C67.9293301,162.104 67.4173352,162.322664 67.044,162.76 C66.6706648,163.197336 66.484,163.794663 66.484,164.552 L66.484,169 L65.188,169 L65.188,164.168 C65.188,163.442663 65.0600013,162.917335 64.804,162.592 C64.5479987,162.266665 64.1426694,162.104 63.588,162.104 C62.9373301,162.104 62.4253352,162.322664 62.052,162.76 C61.6786648,163.197336 61.492,163.794663 61.492,164.552 L61.492,169 L60.196,169 L60.196,161.208 L61.476,161.208 L61.476,162.44 C61.7106678,161.981331 62.0359979,161.629335 62.452,161.384 C62.8680021,161.138665 63.3479973,161.016 63.892,161.016 C65.0973394,161.016 65.8919981,161.527995 66.276,162.552 C66.5000011,162.071998 66.841331,161.696001 67.3,161.424 C67.758669,161.151999 68.2813304,161.016 68.868,161.016 Z M77.748,161.016 C78.4306701,161.016 79.0333307,161.186665 79.556,161.528 C80.0786693,161.869335 80.4839986,162.346664 80.772,162.96 C81.0600014,163.573336 81.204,164.285329 81.204,165.096 C81.204,165.906671 81.0600014,166.61333 80.772,167.216 C80.4839986,167.81867 80.0813359,168.285332 79.564,168.616 C79.0466641,168.946668 78.4413368,169.112 77.748,169.112 C77.139997,169.112 76.6093356,168.978668 76.156,168.712 C75.7026644,168.445332 75.3586678,168.066669 75.124,167.576 L75.124,171.88 L73.828,171.88 L73.828,161.208 L75.124,161.208 L75.124,162.552 C75.3586678,162.061331 75.7026644,161.682668 76.156,161.416 C76.6093356,161.149332 77.139997,161.016 77.748,161.016 Z M77.492,168.04 C78.2493371,168.04 78.8359979,167.784003 79.252,167.272 C79.6680021,166.759997 79.876,166.034671 79.876,165.096 C79.876,164.157329 79.6680021,163.424003 79.252,162.896 C78.8359979,162.367997 78.2493371,162.104 77.492,162.104 C76.7346629,162.104 76.1506687,162.359997 75.74,162.872 C75.3293313,163.384003 75.124,164.114662 75.124,165.064 C75.124,166.013338 75.3293313,166.746664 75.74,167.264 C76.1506687,167.781336 76.7346629,168.04 77.492,168.04 Z M83.14,169 L83.14,157.72 L84.436,157.72 L84.436,169 L83.14,169 Z M93.38,165.304 L87.684,165.304 C87.7266669,166.210671 87.9719978,166.895998 88.42,167.36 C88.8680022,167.824002 89.5026626,168.056 90.324,168.056 C91.2306712,168.056 92.0626629,167.74667 92.82,167.128 L93.252,168.072 C92.910665,168.392002 92.473336,168.645332 91.94,168.832 C91.406664,169.018668 90.8626694,169.112 90.308,169.112 C89.0919939,169.112 88.1346702,168.75467 87.436,168.04 C86.7373298,167.32533 86.388,166.338673 86.388,165.08 C86.388,164.279996 86.5426651,163.573336 86.852,162.96 C87.1613349,162.346664 87.5959972,161.869335 88.156,161.528 C88.7160028,161.186665 89.3533298,161.016 90.068,161.016 C91.1026718,161.016 91.9133304,161.354663 92.5,162.032 C93.0866696,162.709337 93.38,163.639994 93.38,164.824 L93.38,165.304 Z M90.084,162.024 C89.4013299,162.024 88.8546687,162.237331 88.444,162.664 C88.0333313,163.090669 87.790667,163.693329 87.716,164.472 L92.244,164.472 C92.2226666,163.682663 92.0253352,163.077335 91.652,162.656 C91.2786648,162.234665 90.7560034,162.024 90.084,162.024 Z M97.924,169.112 C96.6119934,169.112 95.5720038,168.776003 94.804,168.104 L95.236,167.144 C95.6520021,167.474668 96.0759978,167.711999 96.508,167.856 C96.9400022,168.000001 97.4279973,168.072 97.972,168.072 C98.5480029,168.072 98.9879985,167.973334 99.292,167.776 C99.5960015,167.578666 99.748,167.293335 99.748,166.92 C99.748,166.610665 99.6466677,166.365334 99.444,166.184 C99.2413323,166.002666 98.9053357,165.858667 98.436,165.752 L97.124,165.448 C96.4626634,165.298666 95.9560018,165.042668 95.604,164.68 C95.2519982,164.317332 95.076,163.869336 95.076,163.336 C95.076,162.642663 95.3479973,162.082669 95.892,161.656 C96.4360027,161.229331 97.1613288,161.016 98.068,161.016 C98.6120027,161.016 99.1293309,161.103999 99.62,161.28 C100.110669,161.456001 100.521332,161.709332 100.852,162.04 L100.42,162.984 C99.7053298,162.375997 98.9213376,162.072 98.068,162.072 C97.5239973,162.072 97.1000015,162.175999 96.796,162.384 C96.4919985,162.592001 96.34,162.882665 96.34,163.256 C96.34,163.565335 96.4333324,163.813332 96.62,164 C96.8066676,164.186668 97.1079979,164.328 97.524,164.424 L98.852,164.744 C99.577337,164.914668 100.115998,165.173332 100.468,165.52 C100.820002,165.866668 100.996,166.317331 100.996,166.872 C100.996,167.55467 100.721336,168.098665 100.172,168.504 C99.6226639,168.909335 98.8733381,169.112 97.924,169.112 Z" id="#samples" fill="#0F1931" fill-rule="nonzero" transform="translate(67.396000, 164.800000) rotate(-90.000000) translate(-67.396000, -164.800000) "></path>
        <path d="M225.277,76.392 L223.891,76.392 L223.261,79.626 L224.997,79.626 L224.997,80.452 L223.107,80.452 L222.603,83 L221.721,83 L222.211,80.452 L219.985,80.452 L219.495,83 L218.599,83 L219.103,80.452 L217.857,80.452 L217.857,79.626 L219.257,79.626 L219.887,76.392 L218.137,76.392 L218.137,75.566 L220.055,75.566 L220.531,73.13 L221.413,73.13 L220.937,75.566 L223.163,75.566 L223.639,73.13 L224.535,73.13 L224.059,75.566 L225.277,75.566 L225.277,76.392 Z M222.379,79.626 L223.009,76.392 L220.783,76.392 L220.153,79.626 L222.379,79.626 Z M229.645,83.098 C229.000997,83.098 228.434002,82.9533348 227.944,82.664 C227.453998,82.3746652 227.076001,81.9616693 226.81,81.425 C226.543999,80.8883307 226.411,80.2653369 226.411,79.556 C226.411,78.8466631 226.543999,78.2236693 226.81,77.687 C227.076001,77.1503307 227.453998,76.7373348 227.944,76.448 C228.434002,76.1586652 229.000997,76.014 229.645,76.014 C230.289003,76.014 230.858331,76.1586652 231.353,76.448 C231.847669,76.7373348 232.227999,77.1503307 232.494,77.687 C232.760001,78.2236693 232.893,78.8466631 232.893,79.556 C232.893,80.2653369 232.760001,80.8883307 232.494,81.425 C232.227999,81.9616693 231.847669,82.3746652 231.353,82.664 C230.858331,82.9533348 230.289003,83.098 229.645,83.098 Z M229.645,82.16 C230.317003,82.16 230.832665,81.9383356 231.192,81.495 C231.551335,81.0516645 231.731,80.4053376 231.731,79.556 C231.731,78.7253292 231.549002,78.0836689 231.185,77.631 C230.820998,77.1783311 230.30767,76.952 229.645,76.952 C228.98233,76.952 228.469002,77.1783311 228.105,77.631 C227.740998,78.0836689 227.559,78.7253292 227.559,79.556 C227.559,80.3960042 227.738665,81.0399978 228.098,81.488 C228.457335,81.9360022 228.972997,82.16 229.645,82.16 Z M240.327,76.182 L240.327,83 L239.221,83 L239.221,81.838 C239.006332,82.2486687 238.705335,82.5613323 238.318,82.776 C237.930665,82.9906677 237.494336,83.098 237.009,83.098 C236.196996,83.098 235.585669,82.8716689 235.175,82.419 C234.764331,81.9663311 234.559,81.2966711 234.559,80.41 L234.559,76.182 L235.693,76.182 L235.693,80.382 C235.693,80.9886697 235.814332,81.4343319 236.057,81.719 C236.299668,82.0036681 236.682331,82.146 237.205,82.146 C237.802336,82.146 238.282998,81.9523353 238.647,81.565 C239.011002,81.1776647 239.193,80.6666698 239.193,80.032 L239.193,76.182 L240.327,76.182 Z M245.437,82.188 C245.642334,82.188 245.847666,82.1740001 246.053,82.146 L245.997,83.042 C245.782332,83.0793335 245.549001,83.098 245.297,83.098 C244.475663,83.098 243.857335,82.8833355 243.442,82.454 C243.026665,82.0246645 242.819,81.4273372 242.819,80.662 L242.819,77.078 L241.489,77.078 L241.489,76.182 L242.819,76.182 L242.819,74.11 L243.953,74.11 L243.953,76.182 L245.885,76.182 L245.885,77.078 L243.953,77.078 L243.953,80.578 C243.953,81.6513387 244.447662,82.188 245.437,82.188 Z M250.631,76.014 C251.228336,76.014 251.755664,76.1633318 252.213,76.462 C252.670336,76.7606682 253.024999,77.1783306 253.277,77.715 C253.529001,78.2516694 253.655,78.8746631 253.655,79.584 C253.655,80.2933369 253.529001,80.911664 253.277,81.439 C253.024999,81.966336 252.672669,82.3746652 252.22,82.664 C251.767331,82.9533348 251.23767,83.098 250.631,83.098 C250.098997,83.098 249.634669,82.9813345 249.238,82.748 C248.841331,82.5146655 248.540334,82.1833355 248.335,81.754 L248.335,85.52 L247.201,85.52 L247.201,76.182 L248.335,76.182 L248.335,77.358 C248.540334,76.9286645 248.841331,76.5973345 249.238,76.364 C249.634669,76.1306655 250.098997,76.014 250.631,76.014 Z M250.407,82.16 C251.06967,82.16 251.582998,81.9360022 251.947,81.488 C252.311002,81.0399978 252.493,80.4053374 252.493,79.584 C252.493,78.7626626 252.311002,78.1210023 251.947,77.659 C251.582998,77.1969977 251.06967,76.966 250.407,76.966 C249.74433,76.966 249.233335,77.1899978 248.874,77.638 C248.514665,78.0860022 248.335,78.7253292 248.335,79.556 C248.335,80.3866708 248.514665,81.0283311 248.874,81.481 C249.233335,81.9336689 249.74433,82.16 250.407,82.16 Z M261.089,76.182 L261.089,83 L259.983,83 L259.983,81.838 C259.768332,82.2486687 259.467335,82.5613323 259.08,82.776 C258.692665,82.9906677 258.256336,83.098 257.771,83.098 C256.958996,83.098 256.347669,82.8716689 255.937,82.419 C255.526331,81.9663311 255.321,81.2966711 255.321,80.41 L255.321,76.182 L256.455,76.182 L256.455,80.382 C256.455,80.9886697 256.576332,81.4343319 256.819,81.719 C257.061668,82.0036681 257.444331,82.146 257.967,82.146 C258.564336,82.146 259.044998,81.9523353 259.409,81.565 C259.773002,81.1776647 259.955,80.6666698 259.955,80.032 L259.955,76.182 L261.089,76.182 Z M266.199,82.188 C266.404334,82.188 266.609666,82.1740001 266.815,82.146 L266.759,83.042 C266.544332,83.0793335 266.311001,83.098 266.059,83.098 C265.237663,83.098 264.619335,82.8833355 264.204,82.454 C263.788665,82.0246645 263.581,81.4273372 263.581,80.662 L263.581,77.078 L262.251,77.078 L262.251,76.182 L263.581,76.182 L263.581,74.11 L264.715,74.11 L264.715,76.182 L266.647,76.182 L266.647,77.078 L264.715,77.078 L264.715,80.578 C264.715,81.6513387 265.209662,82.188 266.199,82.188 Z M270.273,83.098 C269.124994,83.098 268.215003,82.8040029 267.543,82.216 L267.921,81.376 C268.285002,81.6653348 268.655998,81.8729994 269.034,81.999 C269.412002,82.1250006 269.838998,82.188 270.315,82.188 C270.819003,82.188 271.203999,82.1016675 271.47,81.929 C271.736001,81.7563325 271.869,81.5066683 271.869,81.18 C271.869,80.909332 271.780334,80.6946675 271.603,80.536 C271.425666,80.3773325 271.131669,80.2513338 270.721,80.158 L269.573,79.892 C268.99433,79.7613327 268.551002,79.5373349 268.243,79.22 C267.934998,78.9026651 267.781,78.510669 267.781,78.044 C267.781,77.4373303 268.018998,76.9473352 268.495,76.574 C268.971002,76.2006648 269.605663,76.014 270.399,76.014 C270.875002,76.014 271.327665,76.0909992 271.757,76.245 C272.186335,76.3990008 272.545665,76.6206652 272.835,76.91 L272.457,77.736 C271.831664,77.2039973 271.14567,76.938 270.399,76.938 C269.922998,76.938 269.552001,77.0289991 269.286,77.211 C269.019999,77.3930009 268.887,77.6473317 268.887,77.974 C268.887,78.244668 268.968666,78.4616659 269.132,78.625 C269.295334,78.7883341 269.558998,78.9119996 269.923,78.996 L271.085,79.276 C271.71967,79.4253341 272.190998,79.6516651 272.499,79.955 C272.807002,80.2583348 272.961,80.6526642 272.961,81.138 C272.961,81.7353363 272.720669,82.2113316 272.24,82.566 C271.759331,82.9206684 271.103671,83.098 270.273,83.098 Z" id="#outputs" fill="#0F1931" fill-rule="nonzero" transform="translate(245.409000, 79.325000) rotate(-90.000000) translate(-245.409000, -79.325000) "></path>
        <path d="M90.072,248.448 L88.488,248.448 L87.768,252.144 L89.752,252.144 L89.752,253.088 L87.592,253.088 L87.016,256 L86.008,256 L86.568,253.088 L84.024,253.088 L83.464,256 L82.44,256 L83.016,253.088 L81.592,253.088 L81.592,252.144 L83.192,252.144 L83.912,248.448 L81.912,248.448 L81.912,247.504 L84.104,247.504 L84.648,244.72 L85.656,244.72 L85.112,247.504 L87.656,247.504 L88.2,244.72 L89.224,244.72 L88.68,247.504 L90.072,247.504 L90.072,248.448 Z M86.76,252.144 L87.48,248.448 L84.936,248.448 L84.216,252.144 L86.76,252.144 Z M93.56,248.208 L95.768,248.208 L95.768,249.232 L93.56,249.232 L93.56,256 L92.264,256 L92.264,249.232 L90.744,249.232 L90.744,248.208 L92.264,248.208 L92.264,247.952 C92.264,246.917328 92.5226641,246.133336 93.04,245.6 C93.5573359,245.066664 94.3546613,244.768 95.432,244.704 L96.072,244.672 L96.168,245.68 L95.432,245.728 C94.7813301,245.770667 94.3066682,245.954665 94.008,246.28 C93.7093318,246.605335 93.56,247.103997 93.56,247.776 L93.56,248.208 Z M103.608,252.304 L97.912,252.304 C97.9546669,253.210671 98.1999978,253.895998 98.648,254.36 C99.0960022,254.824002 99.7306626,255.056 100.552,255.056 C101.458671,255.056 102.290663,254.74667 103.048,254.128 L103.48,255.072 C103.138665,255.392002 102.701336,255.645332 102.168,255.832 C101.634664,256.018668 101.090669,256.112 100.536,256.112 C99.3199939,256.112 98.3626702,255.75467 97.664,255.04 C96.9653298,254.32533 96.616,253.338673 96.616,252.08 C96.616,251.279996 96.7706651,250.573336 97.08,249.96 C97.3893349,249.346664 97.8239972,248.869335 98.384,248.528 C98.9440028,248.186665 99.5813298,248.016 100.296,248.016 C101.330672,248.016 102.14133,248.354663 102.728,249.032 C103.31467,249.709337 103.608,250.639994 103.608,251.824 L103.608,252.304 Z M100.312,249.024 C99.6293299,249.024 99.0826687,249.237331 98.672,249.664 C98.2613313,250.090669 98.018667,250.693329 97.944,251.472 L102.472,251.472 C102.450667,250.682663 102.253335,250.077335 101.88,249.656 C101.506665,249.234665 100.984003,249.024 100.312,249.024 Z M108.68,248.016 C109.672005,248.016 110.410664,248.269331 110.896,248.776 C111.381336,249.282669 111.624,250.053328 111.624,251.088 L111.624,256 L110.36,256 L110.36,254.672 C110.157332,255.130669 109.848002,255.485332 109.432,255.736 C109.015998,255.986668 108.536003,256.112 107.992,256.112 C107.490664,256.112 107.029335,256.010668 106.608,255.808 C106.186665,255.605332 105.853335,255.322668 105.608,254.96 C105.362665,254.597332 105.24,254.197336 105.24,253.76 C105.24,253.17333 105.389332,252.717335 105.688,252.392 C105.986668,252.066665 106.47733,251.832001 107.16,251.688 C107.774403,251.558399 108.604796,251.48712 109.651199,251.47416 L110.36,251.472 L110.36,250.944 C110.36,250.29333 110.226668,249.821335 109.96,249.528 C109.693332,249.234665 109.261336,249.088 108.664,249.088 C107.767996,249.088 106.877338,249.365331 105.992,249.92 L105.56,248.976 C105.965335,248.687999 106.45333,248.456001 107.024,248.28 C107.59467,248.103999 108.146664,248.016 108.68,248.016 Z M108.168,255.088 C108.808003,255.088 109.333331,254.872002 109.744,254.44 C110.154669,254.007998 110.36,253.45067 110.36,252.768 L110.36,252.304 L110.072,252.304 C109.133329,252.304 108.418669,252.344 107.928,252.424 C107.437331,252.504 107.088001,252.637332 106.88,252.824 C106.671999,253.010668 106.568,253.285332 106.568,253.648 C106.568,254.064002 106.719998,254.407999 107.024,254.68 C107.328002,254.952001 107.709331,255.088 108.168,255.088 Z M117.416,255.072 C117.650668,255.072 117.885332,255.056 118.12,255.024 L118.056,256.048 C117.810665,256.090667 117.544001,256.112 117.256,256.112 C116.317329,256.112 115.610669,255.866669 115.136,255.376 C114.661331,254.885331 114.424,254.202671 114.424,253.328 L114.424,249.232 L112.904,249.232 L112.904,248.208 L114.424,248.208 L114.424,245.84 L115.72,245.84 L115.72,248.208 L117.928,248.208 L117.928,249.232 L115.72,249.232 L115.72,253.232 C115.72,254.458673 116.285328,255.072 117.416,255.072 Z M125.992,248.208 L125.992,256 L124.728,256 L124.728,254.672 C124.482665,255.141336 124.138669,255.498665 123.696,255.744 C123.253331,255.989335 122.754669,256.112 122.2,256.112 C121.271995,256.112 120.573336,255.853336 120.104,255.336 C119.634664,254.818664 119.4,254.053338 119.4,253.04 L119.4,248.208 L120.696,248.208 L120.696,253.008 C120.696,253.701337 120.834665,254.210665 121.112,254.536 C121.389335,254.861335 121.826664,255.024 122.424,255.024 C123.10667,255.024 123.655998,254.802669 124.072,254.36 C124.488002,253.917331 124.696,253.333337 124.696,252.608 L124.696,248.208 L125.992,248.208 Z M132.824,249.136 L131.976,249.216 C131.175996,249.290667 130.597335,249.541331 130.24,249.968 C129.882665,250.394669 129.704,250.922664 129.704,251.552 L129.704,256 L128.408,256 L128.408,248.208 L129.672,248.208 L129.672,249.568 C130.109336,248.661329 130.967994,248.154667 132.248,248.048 L132.712,248.016 L132.824,249.136 Z M140.584,252.304 L134.888,252.304 C134.930667,253.210671 135.175998,253.895998 135.624,254.36 C136.072002,254.824002 136.706663,255.056 137.528,255.056 C138.434671,255.056 139.266663,254.74667 140.024,254.128 L140.456,255.072 C140.114665,255.392002 139.677336,255.645332 139.144,255.832 C138.610664,256.018668 138.066669,256.112 137.512,256.112 C136.295994,256.112 135.33867,255.75467 134.64,255.04 C133.94133,254.32533 133.592,253.338673 133.592,252.08 C133.592,251.279996 133.746665,250.573336 134.056,249.96 C134.365335,249.346664 134.799997,248.869335 135.36,248.528 C135.920003,248.186665 136.55733,248.016 137.272,248.016 C138.306672,248.016 139.11733,248.354663 139.704,249.032 C140.29067,249.709337 140.584,250.639994 140.584,251.824 L140.584,252.304 Z M137.288,249.024 C136.60533,249.024 136.058669,249.237331 135.648,249.664 C135.237331,250.090669 134.994667,250.693329 134.92,251.472 L139.448,251.472 C139.426667,250.682663 139.229335,250.077335 138.856,249.656 C138.482665,249.234665 137.960003,249.024 137.288,249.024 Z M145.128,256.112 C143.815993,256.112 142.776004,255.776003 142.008,255.104 L142.44,254.144 C142.856002,254.474668 143.279998,254.711999 143.712,254.856 C144.144002,255.000001 144.631997,255.072 145.176,255.072 C145.752003,255.072 146.191998,254.973334 146.496,254.776 C146.800002,254.578666 146.952,254.293335 146.952,253.92 C146.952,253.610665 146.850668,253.365334 146.648,253.184 C146.445332,253.002666 146.109336,252.858667 145.64,252.752 L144.328,252.448 C143.666663,252.298666 143.160002,252.042668 142.808,251.68 C142.455998,251.317332 142.28,250.869336 142.28,250.336 C142.28,249.642663 142.551997,249.082669 143.096,248.656 C143.640003,248.229331 144.365329,248.016 145.272,248.016 C145.816003,248.016 146.333331,248.103999 146.824,248.28 C147.314669,248.456001 147.725332,248.709332 148.056,249.04 L147.624,249.984 C146.90933,249.375997 146.125338,249.072 145.272,249.072 C144.727997,249.072 144.304002,249.175999 144,249.384 C143.695998,249.592001 143.544,249.882665 143.544,250.256 C143.544,250.565335 143.637332,250.813332 143.824,251 C144.010668,251.186668 144.311998,251.328 144.728,251.424 L146.056,251.744 C146.781337,251.914668 147.319998,252.173332 147.672,252.52 C148.024002,252.866668 148.2,253.317331 148.2,253.872 C148.2,254.55467 147.925336,255.098665 147.376,255.504 C146.826664,255.909335 146.077338,256.112 145.128,256.112 Z" id="#features" fill="#FD4D3F" fill-rule="nonzero"></path>
        <path d="M144,63.5 C152.008129,63.5 158.5,69.9918711 158.5,78 C158.5,86.0081289 152.008129,92.5 144,92.5 L85,92.5 C76.9918711,92.5 70.5,86.0081289 70.5,78 C70.5,69.9918711 76.9918711,63.5 85,63.5 L144,63.5 Z M144,64.5 L85,64.5 C77.5441559,64.5 71.5,70.5441559 71.5,78 C71.5,85.4558441 77.5441559,91.5 85,91.5 L144,91.5 C151.455844,91.5 157.5,85.4558441 157.5,78 C157.5,70.5441559 151.455844,64.5 144,64.5 Z" id="Rectangle" fill="#FD4D3F" fill-rule="nonzero"></path>
        <path d="M144,236.5 C152.008129,236.5 158.5,242.991871 158.5,251 C158.5,259.008129 152.008129,265.5 144,265.5 L85,265.5 C76.9918711,265.5 70.5,259.008129 70.5,251 C70.5,242.991871 76.9918711,236.5 85,236.5 L144,236.5 Z M144,237.5 L85,237.5 C77.5441559,237.5 71.5,243.544156 71.5,251 C71.5,258.455844 77.5441559,264.5 85,264.5 L144,264.5 C151.455844,264.5 157.5,258.455844 157.5,251 C157.5,243.544156 151.455844,237.5 144,237.5 Z" id="Rectangle-Copy" fill="#FD4D3F" fill-rule="nonzero"></path>
        <path d="M50.9142568,176.477559 L50.9360423,177.477321 C50.2424606,177.492435 49.5449432,177.5 48.840611,177.5 L48.840611,177.5 L47.915501,177.495575 L47.9250515,176.495621 L48.8406254,176.5 C49.5376967,176.5 50.227952,176.492514 50.9142568,176.477559 L50.9142568,176.477559 Z M41.9411182,176.247744 C42.9276534,176.320687 43.9205711,176.377912 44.9198601,176.419289 L44.9198601,176.419289 L44.8784899,177.418432 C43.8684101,177.376609 42.864702,177.318762 41.8673811,177.245021 L41.8673811,177.245021 L41.9411182,176.247744 Z M56.8687277,176.152281 L56.9568693,177.148389 C55.9632484,177.236311 54.9607881,177.307854 53.9491729,177.362895 L53.9491729,177.362895 L53.8948439,176.364372 C54.895195,176.309944 55.886383,176.239205 56.8687277,176.152281 L56.8687277,176.152281 Z M35.9943647,175.607775 C36.9743252,175.746955 37.9611228,175.870068 38.9547424,175.976964 L38.9547424,175.976964 L38.8477772,176.971227 C37.8429204,176.863122 36.8449044,176.738609 35.8537492,176.597839 L35.8537492,176.597839 L35.9943647,175.607775 Z M62.792423,175.416142 L62.9515041,176.403408 C61.9644533,176.562454 60.9687625,176.704395 59.9640457,176.829107 L59.9640457,176.829107 L59.8408644,175.836723 C60.8335934,175.713499 61.8173156,175.573264 62.792423,175.416142 L62.792423,175.416142 Z M30.1106543,174.562662 C31.0789784,174.769948 32.0545999,174.960959 33.0374987,175.135524 L33.0374987,175.135524 L32.8626325,176.120117 C31.8682053,175.943504 30.8810959,175.750244 29.9013295,175.540508 L29.9013295,175.540508 L30.1106543,174.562662 Z M68.6393914,174.248665 L68.8721118,175.221209 C67.8976966,175.454377 66.9151457,175.669917 65.9239861,175.867721 L65.9239861,175.867721 L65.7282777,174.887059 C66.7070429,174.691729 67.6772544,174.478895 68.6393914,174.248665 L68.6393914,174.248665 Z M24.3381835,173.110384 C25.2898002,173.386411 26.2491784,173.646113 27.2162912,173.889298 L27.2162912,173.889298 L26.9724274,174.859108 C25.9936774,174.612996 25.0227258,174.350161 24.0596047,174.070797 L24.0596047,174.070797 L24.3381835,173.110384 Z M74.3901083,172.63651 L74.6969508,173.58827 C73.7408,173.896528 72.7773786,174.186867 71.8061057,174.459209 L71.8061057,174.459209 L71.5361212,173.496344 C72.4950119,173.227474 73.4461456,172.940838 74.3901083,172.63651 L74.3901083,172.63651 Z M18.67596,171.2428 C19.6059534,171.587555 20.5441835,171.916103 21.4906145,172.228227 L21.4906145,172.228227 L21.1774164,173.177915 C20.2194317,172.86198 19.2697353,172.529418 18.3283678,172.180446 L18.3283678,172.180446 L18.67596,171.2428 Z M80.0048362,170.585551 L80.3833894,171.51113 C79.4514564,171.892282 78.5135446,172.255497 77.5689385,172.600761 L77.5689385,172.600761 L77.2256409,171.661535 C78.158364,171.320614 79.0845232,170.96195 80.0048362,170.585551 L80.0048362,170.585551 Z M13.1483862,168.960113 C14.0510392,169.372181 14.9624035,169.76837 15.882432,170.148437 L15.882432,170.148437 L15.5006246,171.072679 C14.5693276,170.687957 13.6468039,170.286917 12.7331044,169.869806 L12.7331044,169.869806 L13.1483862,168.960113 Z M85.4375852,168.12663 L85.8824585,169.022223 C84.9783477,169.471327 84.0699947,169.90267 83.1565089,170.316344 L83.1565089,170.316344 L82.7439847,169.405398 C83.6465327,168.996677 84.5441034,168.570454 85.4375852,168.12663 L85.4375852,168.12663 Z M7.80552117,166.28159 C8.67663589,166.758655 9.5569629,167.22035 10.4464406,167.666398 L10.4464406,167.666398 L9.99817455,168.560298 C9.09787917,168.108825 8.2068617,167.641524 7.32518662,167.158675 L7.32518662,167.158675 L7.80552117,166.28159 Z M90.6778621,165.297525 L91.1815691,166.1614 C90.307248,166.671198 89.4309105,167.163495 88.5514259,167.638563 L88.5514259,167.638563 L88.0761644,166.758718 C88.9460037,166.288861 89.8128619,165.801889 90.6778621,165.297525 L90.6778621,165.297525 Z M2.68353718,163.2328 C3.51874886,163.771167 4.36370034,164.29488 5.21831147,164.803623 L5.21831147,164.803623 L4.70679362,165.662895 C3.84195201,165.148062 2.98691069,164.618095 2.14175151,164.073317 L2.14175151,164.073317 L2.68353718,163.2328 Z M95.7520969,162.12866 L96.3060799,162.961188 C95.4615081,163.523185 94.61774,164.067827 93.7732838,164.595684 L93.7732838,164.595684 L93.243233,163.747719 C94.0795534,163.224947 94.9153483,162.685451 95.7520969,162.12866 L95.7520969,162.12866 Z M-2.218717,159.822825 C-1.42260512,160.418889 -0.616154442,161.001206 0.200530649,161.569408 L0.200530649,161.569408 L-0.370582956,162.390279 C-1.19682768,161.815426 -2.01268858,161.226314 -2.81806062,160.623317 L-2.81806062,160.623317 L-2.218717,159.822825 Z M100.650218,158.683721 L101.245097,159.487536 C100.427463,160.092643 99.614279,160.680064 98.8034461,161.250899 L98.8034461,161.250899 L98.2277849,160.433211 C99.0320678,159.866987 99.8388513,159.28419 100.650218,158.683721 L100.650218,158.683721 Z M-13.364063,150.657278 L-3.72643424,153.549702 L-6.45023185,156.443943 C-5.83319013,156.968674 -5.20885306,157.484989 -4.57729428,157.992651 L-4.57729428,157.992651 L-5.20380526,158.772064 C-5.98750365,158.142108 -6.76017768,157.499004 -7.52169158,156.843193 L-7.136,157.171 L-9.89542435,160.102835 L-13.364063,150.657278 Z M111.385084,150.681079 L107.323868,159.88741 L104.763302,156.797939 C104.393454,157.089369 104.02533,157.376817 103.658609,157.660489 L103.658609,157.660489 L103.046761,156.869513 C103.55357,156.477478 104.06315,156.078127 104.576357,155.670907 L104.125,156.025 L101.58329,152.955905 L111.385084,150.681079 Z" id="Path-2-Copy-2" fill="#0F1931" fill-rule="nonzero" transform="translate(49.010510, 164.078639) rotate(-270.000000) translate(-49.010510, -164.078639) "></path>
        <path d="M206,128.5 C210.69442,128.5 214.5,132.30558 214.5,137 C214.5,141.69442 210.69442,145.5 206,145.5 C201.30558,145.5 197.5,141.69442 197.5,137 C197.5,132.30558 201.30558,128.5 206,128.5 Z M206,129.5 C201.857864,129.5 198.5,132.857864 198.5,137 C198.5,141.142136 201.857864,144.5 206,144.5 C210.142136,144.5 213.5,141.142136 213.5,137 C213.5,132.857864 210.142136,129.5 206,129.5 Z" id="Oval" fill="#0F1931" fill-rule="nonzero"></path>
        <path d="M206,156.5 C210.69442,156.5 214.5,160.30558 214.5,165 C214.5,169.69442 210.69442,173.5 206,173.5 C201.30558,173.5 197.5,169.69442 197.5,165 C197.5,160.30558 201.30558,156.5 206,156.5 Z M206,157.5 C201.857864,157.5 198.5,160.857864 198.5,165 C198.5,169.142136 201.857864,172.5 206,172.5 C210.142136,172.5 213.5,169.142136 213.5,165 C213.5,160.857864 210.142136,157.5 206,157.5 Z" id="Oval-Copy" fill="#0F1931" fill-rule="nonzero"></path>
        <path d="M206,184.5 C210.69442,184.5 214.5,188.30558 214.5,193 C214.5,197.69442 210.69442,201.5 206,201.5 C201.30558,201.5 197.5,197.69442 197.5,193 C197.5,188.30558 201.30558,184.5 206,184.5 Z M206,185.5 C201.857864,185.5 198.5,188.857864 198.5,193 C198.5,197.142136 201.857864,200.5 206,200.5 C210.142136,200.5 213.5,197.142136 213.5,193 C213.5,188.857864 210.142136,185.5 206,185.5 Z" id="Oval-Copy-2" fill="#0F1931" fill-rule="nonzero"></path>
        <path d="M132.078947,164 L132.078947,165 L136.078947,165 L136.078947,164 L132.078947,164 Z M138.078947,164 L138.078947,165 L142.078947,165 L142.078947,164 L138.078947,164 Z M144.078947,164 L144.078947,165 L148.078947,165 L148.078947,164 L144.078947,164 Z M150.078947,164 L150.078947,165 L154.078947,165 L154.078947,164 L150.078947,164 Z M156.078947,164 L156.078947,165 L160.078947,165 L160.078947,164 L156.078947,164 Z M162.078947,164 L162.078947,165 L166.078947,165 L166.078947,164 L162.078947,164 Z M168.078947,164 L168.078947,165 L172.078947,165 L172.078947,164 L168.078947,164 Z M174.078947,164 L174.078947,165 L178.078947,165 L178.078947,164 L174.078947,164 Z M180.078947,164 L180.078947,165 L184.078947,165 L184.078947,164 L180.078947,164 Z M186.078947,164 L186.078947,165 L190.078947,165 L190.078947,164 L186.078947,164 Z M192.078947,164 L192.078947,165 L196.078947,165 L196.078947,164 L192.078947,164 Z" id="Line-Copy" fill="#0F1931" fill-rule="nonzero"></path>
        <path d="M132.078947,192 L132.078947,193 L136.078947,193 L136.078947,192 L132.078947,192 Z M138.078947,192 L138.078947,193 L142.078947,193 L142.078947,192 L138.078947,192 Z M144.078947,192 L144.078947,193 L148.078947,193 L148.078947,192 L144.078947,192 Z M150.078947,192 L150.078947,193 L154.078947,193 L154.078947,192 L150.078947,192 Z M156.078947,192 L156.078947,193 L160.078947,193 L160.078947,192 L156.078947,192 Z M162.078947,192 L162.078947,193 L166.078947,193 L166.078947,192 L162.078947,192 Z M168.078947,192 L168.078947,193 L172.078947,193 L172.078947,192 L168.078947,192 Z M174.078947,192 L174.078947,193 L178.078947,193 L178.078947,192 L174.078947,192 Z M180.078947,192 L180.078947,193 L184.078947,193 L184.078947,192 L180.078947,192 Z M186.078947,192 L186.078947,193 L190.078947,193 L190.078947,192 L186.078947,192 Z M192.078947,192 L192.078947,193 L196.078947,193 L196.078947,192 L192.078947,192 Z" id="Line-Copy-2" fill="#0F1931" fill-rule="nonzero"></path>
        <polygon id="Line-2" fill="#0F1931" fill-rule="nonzero" points="214.5 164 214.5 165 264.5 165 264.5 164"></polygon>
        <polygon id="Line-2-Copy-2" fill="#0F1931" fill-rule="nonzero" points="214.5 193 214.5 194 264.5 194 264.5 193"></polygon>
        <polygon id="Line-2-Copy" fill="#0F1931" fill-rule="nonzero" points="214.5 137 214.5 138 264.5 138 264.5 137"></polygon>
        <path d="M132.078947,136 L132.078947,137 L136.078947,137 L136.078947,136 L132.078947,136 Z M138.078947,136 L138.078947,137 L142.078947,137 L142.078947,136 L138.078947,136 Z M144.078947,136 L144.078947,137 L148.078947,137 L148.078947,136 L144.078947,136 Z M150.078947,136 L150.078947,137 L154.078947,137 L154.078947,136 L150.078947,136 Z M156.078947,136 L156.078947,137 L160.078947,137 L160.078947,136 L156.078947,136 Z M162.078947,136 L162.078947,137 L166.078947,137 L166.078947,136 L162.078947,136 Z M168.078947,136 L168.078947,137 L172.078947,137 L172.078947,136 L168.078947,136 Z M174.078947,136 L174.078947,137 L178.078947,137 L178.078947,136 L174.078947,136 Z M180.078947,136 L180.078947,137 L184.078947,137 L184.078947,136 L180.078947,136 Z M186.078947,136 L186.078947,137 L190.078947,137 L190.078947,136 L186.078947,136 Z M192.078947,136 L192.078947,137 L196.078947,137 L196.078947,136 L192.078947,136 Z" id="Line" fill="#0F1931" fill-rule="nonzero"></path>
    </g>
</svg>