<?xml version="1.0" encoding="UTF-8"?>
<svg width="1214px" height="941px" viewBox="0 0 1214 941" version="1.1" xmlns="http://www.w3.org/2000/svg" xmlns:xlink="http://www.w3.org/1999/xlink">
    <!-- Generator: Sketch 59.1 (86144) - https://sketch.com -->
    <title>Matrix_mult_2 </title>
    <desc>Created with Sketch.</desc>
    <g id="Matrix_mult_2-" stroke="none" stroke-width="1" fill="none" fill-rule="evenodd">
        <rect id="Rectangle" fill="#FA4359" x="286" y="368" width="176" height="41" rx="20.5"></rect>
        <rect id="Rectangle-Copy" fill="#FA4359" transform="translate(666.000000, 414.500000) rotate(-270.000000) translate(-666.000000, -414.500000) " x="581" y="394" width="170" height="41" rx="20.5"></rect>
        <circle id="Oval-Copy-2" fill="#FA4359" cx="902" cy="389.484375" r="20.5"></circle>
        <path d="M748.380859,416.293443 L748.380859,414.490709 L760.631836,414.490709 L760.631836,416.293443 L748.380859,416.293443 Z M748.368164,410.936021 L748.368164,409.107896 L760.631836,409.107896 L760.631836,410.936021 L748.368164,410.936021 Z" id="=" fill="#FFFFFF" fill-rule="nonzero"></path>
        <polygon id="x" fill="#FFFFFF" fill-rule="nonzero" points="519.287598 413.995591 514.374512 407.152818 516.799316 407.152818 520.519043 412.459459 524.251465 407.152818 526.67627 407.152818 521.750488 414.020982 526.803223 421.079576 524.45459 421.079576 520.531738 415.480943 516.608887 421.079576 514.184082 421.079576"></polygon>
        <path d="M306.360352,379.087388 L308.378906,379.087388 L308.378906,398.079576 L306.131836,398.079576 L306.131836,381.436021 C305.277014,381.994618 304.231777,382.472803 302.996094,382.870591 L302.996094,380.750474 L304.754395,379.988755 L304.754395,379.988755 C304.961752,379.895656 305.222004,379.764472 305.535156,379.595201 C305.848309,379.425929 306.123371,379.25666 306.360352,379.087388 Z" id="1" fill="#FFFFFF" fill-rule="nonzero"></path>
        <path d="M833.271973,379.087388 L833.094238,381.16942 L825.337402,381.16942 L825.146973,387.148912 L825.146973,387.148912 C826.103358,386.539534 827.140131,386.234849 828.257324,386.234849 C829.196782,386.234849 830.03678,386.385076 830.777344,386.685533 C831.517907,386.98599 832.123045,387.398584 832.592773,387.923326 C833.062502,388.448068 833.420083,389.059553 833.665527,389.757798 C833.910971,390.456044 834.033691,391.211408 834.033691,392.023912 C834.033691,393.945145 833.417975,395.483379 832.186523,396.638658 C830.955072,397.793937 829.281423,398.371568 827.165527,398.371568 C825.041168,398.371568 823.340013,397.791821 822.062012,396.63231 L822.887207,394.842271 C824.139817,395.824047 825.5913,396.314927 827.241699,396.314927 C828.629727,396.314927 829.725745,395.921377 830.529785,395.134263 C831.333826,394.34715 831.73584,393.31884 831.73584,392.049302 C831.73584,390.915182 831.397302,389.994781 830.720215,389.288072 C830.043128,388.581363 829.078294,388.228013 827.825684,388.228013 C826.573073,388.228013 825.565922,388.646954 824.804199,389.484849 L823.039551,389.243638 L823.534668,379.087388 L833.271973,379.087388 Z" id="58" fill="#FFFFFF" fill-rule="nonzero"></path>
        <path d="M843.009277,378.719224 C844.727385,378.719224 846.119624,379.142397 847.186035,379.988755 C848.252447,380.835114 848.785645,382.007303 848.785645,383.505357 C848.785645,384.62255 848.497887,385.561994 847.922363,386.323716 C847.34684,387.085439 846.542811,387.669417 845.510254,388.07567 C846.652838,388.481922 847.549964,389.133608 848.20166,390.030748 C848.853356,390.927888 849.179199,391.981588 849.179199,393.19188 C849.179199,394.816889 848.593105,396.086407 847.420898,397.000474 C846.248692,397.914541 844.778166,398.371568 843.009277,398.371568 C841.85823,398.371568 840.819341,398.179024 839.892578,397.793931 C838.965816,397.408838 838.214684,396.818512 837.63916,396.022935 C837.063636,395.227358 836.775879,394.283683 836.775879,393.19188 C836.775879,391.981588 837.122881,390.927888 837.816895,390.030748 C838.510908,389.133608 839.479974,388.481922 840.724121,388.07567 C838.354318,387.237775 837.169434,385.714352 837.169434,383.505357 C837.169434,382.007303 837.711095,380.835114 838.794434,379.988755 C839.877772,379.142397 841.282706,378.719224 843.009277,378.719224 Z M843.009277,389.154771 C841.798985,389.434069 840.829919,389.901675 840.102051,390.557603 C839.374183,391.213531 839.010254,392.040834 839.010254,393.039537 C839.010254,394.080558 839.386878,394.90786 840.140137,395.52147 C840.893396,396.13508 841.849766,396.44188 843.009277,396.44188 C844.168788,396.44188 845.11458,396.13508 845.84668,395.52147 C846.57878,394.90786 846.944824,394.080558 846.944824,393.039537 C846.944824,392.03237 846.589359,391.200836 845.878418,390.544908 C845.167477,389.88898 844.211106,389.425606 843.009277,389.154771 Z M843.009277,380.648912 C842.010574,380.648912 841.162113,380.898584 840.463867,381.397935 C839.765622,381.897287 839.416504,382.582827 839.416504,383.454576 C839.416504,385.451982 840.614083,386.717268 843.009277,387.250474 C845.370617,386.717268 846.55127,385.451982 846.55127,383.454576 C846.55127,382.582827 846.2085,381.897287 845.522949,381.397935 C844.837399,380.898584 843.999517,380.648912 843.009277,380.648912 Z" id="Combined-Shape" fill="#FFFFFF" fill-rule="nonzero"></path>
        <path d="M820.963867,434.007812 L822.982422,434.007812 L822.982422,453 L820.735352,453 L820.735352,436.356445 C819.88053,436.915042 818.835293,437.393227 817.599609,437.791016 L817.599609,435.670898 L819.35791,434.90918 L819.35791,434.90918 L819.632129,434.77918 C819.781933,434.705039 819.95078,434.617188 820.138672,434.515625 C820.451824,434.346353 820.726887,434.177084 820.963867,434.007812 Z M831.374023,453.291992 C830.239903,453.291992 829.230636,453.143882 828.346191,452.847656 C827.461747,452.551431 826.816408,452.208661 826.410156,451.819336 L827.121094,449.953125 C828.314459,450.892583 829.73632,451.362305 831.386719,451.362305 C832.656256,451.362305 833.665524,451.047041 834.414551,450.416504 C835.163578,449.785967 835.538086,448.903652 835.538086,447.769531 C835.538086,447.15169 835.442872,446.612144 835.252441,446.150879 C835.062011,445.689614 834.808107,445.317221 834.490723,445.033691 C834.173338,444.750161 833.767092,444.521648 833.271973,444.348145 C832.776853,444.174641 832.269046,444.051921 831.748535,443.97998 C831.228025,443.90804 830.625003,443.863607 829.939453,443.84668 L829.177734,443.833984 L829.177734,443.833984 L829.177734,441.942383 L829.8125,441.942383 C830.404951,441.933919 830.927569,441.902181 831.380371,441.847168 C831.833173,441.792155 832.285968,441.692709 832.73877,441.548828 C833.191571,441.404947 833.566079,441.214519 833.862305,440.977539 C834.15853,440.740559 834.399739,440.423179 834.585938,440.025391 C834.772136,439.627602 834.865234,439.15788 834.865234,438.616211 C834.865234,436.584951 833.701509,435.569336 831.374023,435.569336 C830.536129,435.569336 829.749027,435.692056 829.012695,435.9375 C828.276364,436.182944 827.645836,436.513019 827.121094,436.927734 L826.410156,435.074219 C827.67123,434.117834 829.486642,433.639648 831.856445,433.639648 C832.81283,433.639648 833.697262,433.815265 834.509766,434.166504 C835.32227,434.517743 835.990883,435.055172 836.515625,435.778809 C837.040367,436.502445 837.302734,437.350907 837.302734,438.324219 C837.302734,439.509121 837.010745,440.482418 836.426758,441.244141 C835.842771,442.005863 835.021815,442.551756 833.963867,442.881836 C835.148769,443.135743 836.077633,443.6901 836.750488,444.544922 C837.423343,445.399744 837.759766,446.483066 837.759766,447.794922 C837.759766,449.462248 837.163092,450.795242 835.969727,451.793945 C834.776361,452.792648 833.244475,453.291992 831.374023,453.291992 Z" id="139" fill="#FFFFFF" fill-rule="nonzero"></path>
        <path d="M846.595703,433.639648 C847.585942,433.639648 848.485185,433.798338 849.293457,434.115723 C850.101729,434.433107 850.766111,434.868975 851.286621,435.42334 C851.807132,435.977705 852.209146,436.625159 852.492676,437.365723 C852.776206,438.106286 852.917969,438.908199 852.917969,439.771484 C852.917969,440.981777 852.710614,442.077795 852.295898,443.05957 C851.881183,444.041346 851.166021,445.221998 850.150391,446.601562 L849.490986,447.456129 C849.17408,447.861026 848.786623,448.350583 848.328613,448.924805 L846.56833,451.117125 C846.389802,451.337706 846.21696,451.550617 846.049805,451.755859 L845.046875,453 L842.253906,453 L848.995117,444.646484 C848.038732,445.154299 847.086593,445.408203 846.138672,445.408203 C845.063797,445.408203 844.075688,445.173342 843.174316,444.703613 C842.272945,444.233884 841.547203,443.554692 840.99707,442.666016 C840.446937,441.777339 840.171875,440.765956 840.171875,439.631836 C840.171875,437.905265 840.764317,436.474941 841.949219,435.34082 C843.134121,434.2067 844.682933,433.639648 846.595703,433.639648 Z M846.671875,435.569336 C845.410801,435.569336 844.412113,435.956539 843.675781,436.730957 C842.939449,437.505375 842.571289,438.45963 842.571289,439.59375 C842.571289,440.778652 842.926754,441.726559 843.637695,442.4375 C844.348636,443.148441 845.334629,443.503906 846.595703,443.503906 C847.932949,443.503906 848.921058,443.135746 849.560059,442.399414 C850.199059,441.663082 850.518555,440.706712 850.518555,439.530273 C850.518555,438.370762 850.190596,437.420739 849.534668,436.680176 C848.87874,435.939612 847.924485,435.569336 846.671875,435.569336 Z" id="Combined-Shape" fill="#FFFFFF" fill-rule="nonzero"></path>
        <polygon id="7" fill="#FFFFFF" fill-rule="nonzero" points="597.135742 369.079576 603.661133 352.055162 595.091797 352.055162 595.231445 350.087388 606.238281 350.087388 606.238281 351.813951 599.446289 369.079576"></polygon>
        <path d="M600.620605,403.639648 C601.610845,403.639648 602.510087,403.798338 603.318359,404.115723 C604.126632,404.433107 604.791013,404.868975 605.311523,405.42334 C605.832034,405.977705 606.234048,406.625159 606.517578,407.365723 C606.801108,408.106286 606.942871,408.908199 606.942871,409.771484 C606.942871,410.981777 606.735516,412.077795 606.320801,413.05957 C605.906085,414.041346 605.190923,415.221998 604.175293,416.601562 L603.515889,417.456129 C603.198982,417.861026 602.811526,418.350583 602.353516,418.924805 L600.593232,421.117125 C600.414704,421.337706 600.241863,421.550617 600.074707,421.755859 L599.071777,423 L596.278809,423 L603.02002,414.646484 C602.063635,415.154299 601.111496,415.408203 600.163574,415.408203 C599.088699,415.408203 598.10059,415.173342 597.199219,414.703613 C596.297847,414.233884 595.572106,413.554692 595.021973,412.666016 C594.47184,411.777339 594.196777,410.765956 594.196777,409.631836 C594.196777,407.905265 594.789219,406.474941 595.974121,405.34082 C597.159023,404.2067 598.707835,403.639648 600.620605,403.639648 Z M600.696777,405.569336 C599.435703,405.569336 598.437015,405.956539 597.700684,406.730957 C596.964352,407.505375 596.596191,408.45963 596.596191,409.59375 C596.596191,410.778652 596.951657,411.726559 597.662598,412.4375 C598.373539,413.148441 599.359531,413.503906 600.620605,413.503906 C601.957852,413.503906 602.94596,413.135746 603.584961,412.399414 C604.223962,411.663082 604.543457,410.706712 604.543457,409.530273 C604.543457,408.370762 604.215498,407.420739 603.55957,406.680176 C602.903643,405.939612 601.949388,405.569336 600.696777,405.569336 Z" id="9" fill="#FFFFFF" fill-rule="nonzero"></path>
        <path d="M366.850586,398.079576 L366.558594,395.997545 L373.12207,388.710435 C373.562177,388.219547 373.987465,387.584788 374.397949,386.806138 C374.757123,386.12482 375.030433,385.534228 375.217888,385.034349 L375.584961,384.025865 C375.584961,382.97638 375.292972,382.161773 374.708984,381.582017 C374.124997,381.002262 373.295578,380.712388 372.220703,380.712388 C370.426423,380.712388 369.013026,381.232891 367.980469,382.273912 L367.244141,380.369615 C368.412115,379.269349 370.121734,378.719224 372.373047,378.719224 C374.099618,378.719224 375.47493,379.18683 376.499023,380.122056 C377.523117,381.057282 378.035156,382.307758 378.035156,383.873521 L377.93042,384.207963 L377.93042,384.207963 L377.826075,384.510089 C377.746351,384.72988 377.619268,385.063587 377.444824,385.511216 C377.220539,386.08674 376.985678,386.632633 376.740234,387.148912 C376.49479,387.66519 376.183758,388.232242 375.807129,388.850084 C375.430499,389.467925 375.047528,389.984196 374.658203,390.398912 L369.300781,396.124498 L378.098633,396.124498 L377.958984,398.079576 L366.850586,398.079576 Z" id="2" fill="#FFFFFF" fill-rule="nonzero"></path>
        <path d="M439.79541,398.371568 C438.66129,398.371568 437.652023,398.223457 436.767578,397.927232 C435.883134,397.631007 435.237795,397.288237 434.831543,396.898912 L435.54248,395.032701 C436.735846,395.972159 438.157707,396.44188 439.808105,396.44188 C441.077643,396.44188 442.08691,396.126617 442.835938,395.49608 C443.584965,394.865543 443.959473,393.983227 443.959473,392.849107 C443.959473,392.231265 443.864259,391.69172 443.673828,391.230455 C443.483397,390.769189 443.229494,390.396797 442.912109,390.113267 C442.594725,389.829737 442.188479,389.601224 441.693359,389.42772 C441.19824,389.254217 440.690432,389.131497 440.169922,389.059556 C439.753514,389.002004 439.284298,388.962056 438.762267,388.939712 L437.670532,388.913957 C437.644084,388.913692 437.62028,388.91356 437.599121,388.91356 L437.599121,387.021959 L438.233887,387.021959 C438.826338,387.013495 439.348956,386.981757 439.801758,386.926744 C440.25456,386.87173 440.707355,386.772285 441.160156,386.628404 C441.612958,386.484523 441.987466,386.294095 442.283691,386.057115 C442.579917,385.820134 442.821125,385.502755 443.007324,385.104966 C443.193523,384.707178 443.286621,384.237456 443.286621,383.695787 C443.286621,381.664527 442.122896,380.648912 439.79541,380.648912 C438.957515,380.648912 438.170414,380.771632 437.434082,381.017076 C436.69775,381.26252 436.067223,381.592595 435.54248,382.00731 L434.831543,380.153795 C436.092617,379.19741 437.908029,378.719224 440.277832,378.719224 C441.234217,378.719224 442.118648,378.894841 442.931152,379.24608 C443.743656,379.597318 444.41227,380.134748 444.937012,380.858384 C445.461754,381.582021 445.724121,382.430482 445.724121,383.403795 C445.724121,384.588696 445.432132,385.561994 444.848145,386.323716 C444.264157,387.085439 443.443202,387.631332 442.385254,387.961412 C443.570156,388.215319 444.49902,388.769676 445.171875,389.624498 C445.84473,390.47932 446.181152,391.562642 446.181152,392.874498 C446.181152,394.541824 445.584479,395.874818 444.391113,396.873521 C443.197748,397.872224 441.665862,398.371568 439.79541,398.371568 Z" id="3" fill="#FFFFFF" fill-rule="nonzero"></path>
        <path d="M894.289062,386.387193 C895.355474,386.387193 896.341467,386.638981 897.24707,387.142564 C898.152674,387.646147 898.880531,388.361309 899.430664,389.288072 C899.980797,390.214834 900.255859,391.24526 900.255859,392.37938 C900.255859,394.105952 899.673997,395.536276 898.510254,396.670396 C897.346511,397.804516 895.81251,398.371568 893.908203,398.371568 C892.917964,398.371568 892.01449,398.204415 891.197754,397.870103 C890.381018,397.535792 889.708173,397.082997 889.179199,396.511705 C888.650225,395.940413 888.239748,395.276031 887.947754,394.518541 C887.65576,393.76105 887.509766,392.950674 887.509766,392.087388 C887.509766,390.707824 887.761553,389.474275 888.265137,388.386705 C888.735148,387.371639 889.560881,386.104075 890.742358,384.58398 L891.340703,383.829341 C891.600703,383.506373 891.927732,383.104187 892.321796,382.62278 L893.374742,381.343267 C893.734009,380.909382 894.068404,380.508661 894.37793,380.141099 L895.177734,379.176255 L898.110352,379.176255 L891.432617,387.148912 C892.389002,386.641097 893.341141,386.387193 894.289062,386.387193 Z M889.90918,392.328599 C889.90918,393.081858 890.050943,393.763166 890.334473,394.372545 C890.618003,394.981923 891.062334,395.479151 891.66748,395.864244 C892.272627,396.249337 892.994136,396.44188 893.832031,396.44188 C895.084642,396.44188 896.068519,396.056793 896.783691,395.286607 C897.498864,394.516421 897.856445,393.56005 897.856445,392.417466 C897.856445,391.215637 897.498864,390.227529 896.783691,389.453111 C896.068519,388.678693 895.084642,388.29149 893.832031,388.29149 C892.503249,388.29149 891.517256,388.668114 890.874023,389.421373 C890.230791,390.174632 889.90918,391.143697 889.90918,392.328599 Z" id="64" fill="#FFFFFF" fill-rule="nonzero"></path>
        <path d="M913.509766,379.087388 L913.509766,391.528795 L915.845703,391.528795 L915.667969,393.369615 L913.509766,393.369615 L913.509766,398.079576 L911.376953,398.079576 L911.376953,393.369615 L902.794922,393.369615 L902.794922,391.427232 L911.135742,379.087388 L913.509766,379.087388 Z M911.376953,381.969224 L905.029297,391.528795 L911.376953,391.528795 L911.376953,381.969224 Z" id="Combined-Shape" fill="#FFFFFF" fill-rule="nonzero"></path>
        <path d="M886.202148,434.007812 L888.220703,434.007812 L888.220703,453 L885.973633,453 L885.973633,436.356445 C885.118811,436.915042 884.073574,437.393227 882.837891,437.791016 L882.837891,435.670898 L884.596191,434.90918 L884.596191,434.90918 L884.87041,434.77918 C885.020214,434.705039 885.189062,434.617188 885.376953,434.515625 C885.690106,434.346353 885.965168,434.177084 886.202148,434.007812 Z M903.061523,434.007812 L902.883789,436.089844 L895.126953,436.089844 L894.945915,441.735694 C894.942677,441.849304 894.939546,441.960518 894.936523,442.069336 C895.892908,441.459958 896.929682,441.155273 898.046875,441.155273 C898.986333,441.155273 899.826331,441.3055 900.566895,441.605957 C901.307458,441.906414 901.912595,442.319008 902.382324,442.84375 C902.852053,443.368492 903.209634,443.979977 903.455078,444.678223 C903.700522,445.376468 903.823242,446.131832 903.823242,446.944336 C903.823242,448.86557 903.207526,450.403803 901.976074,451.559082 C900.744623,452.714361 899.070974,453.291992 896.955078,453.291992 C894.830719,453.291992 893.129564,452.712245 891.851562,451.552734 L892.676758,449.762695 C893.929368,450.744471 895.380851,451.235352 897.03125,451.235352 C898.419278,451.235352 899.515295,450.841801 900.319336,450.054688 C901.123376,449.267574 901.525391,448.239264 901.525391,446.969727 C901.525391,445.835606 901.186852,444.915205 900.509766,444.208496 C899.832679,443.501787 898.867845,443.148438 897.615234,443.148438 C896.362624,443.148438 895.355473,443.567379 894.59375,444.405273 L892.829102,444.164062 L893.324219,434.007812 L903.061523,434.007812 Z" id="154" fill="#FFFFFF" fill-rule="nonzero"></path>
        <path d="M917.34375,434.007812 L917.34375,446.449219 L919.679688,446.449219 L919.501953,448.290039 L917.34375,448.290039 L917.34375,453 L915.210938,453 L915.210938,448.290039 L906.628906,448.290039 L906.628906,446.347656 L914.969727,434.007812 L917.34375,434.007812 Z M915.210938,436.889648 L908.863281,446.449219 L915.210938,446.449219 L915.210938,436.889648 Z M666.538086,349.719224 C668.256193,349.719224 669.648432,350.142397 670.714844,350.988755 C671.781255,351.835114 672.314453,353.007303 672.314453,354.505357 C672.314453,355.62255 672.026696,356.561994 671.451172,357.323716 C670.875648,358.085439 670.07162,358.669417 669.039062,359.07567 C670.181646,359.481922 671.078773,360.133608 671.730469,361.030748 C672.382165,361.927888 672.708008,362.981588 672.708008,364.19188 C672.708008,365.816889 672.121913,367.086407 670.949707,368.000474 C669.777501,368.914541 668.306975,369.371568 666.538086,369.371568 C665.387039,369.371568 664.348149,369.179024 663.421387,368.793931 C662.494624,368.408838 661.743492,367.818512 661.167969,367.022935 C660.592445,366.227358 660.304688,365.283683 660.304688,364.19188 C660.304688,362.981588 660.651689,361.927888 661.345703,361.030748 C662.039717,360.133608 663.008783,359.481922 664.25293,359.07567 C661.883126,358.237775 660.698242,356.714352 660.698242,354.505357 C660.698242,353.007303 661.239903,351.835114 662.323242,350.988755 C663.406581,350.142397 664.811515,349.719224 666.538086,349.719224 Z M666.538086,360.154771 C665.327793,360.434069 664.358728,360.901675 663.630859,361.557603 C662.902991,362.213531 662.539062,363.040834 662.539062,364.039537 C662.539062,365.080558 662.915686,365.90786 663.668945,366.52147 C664.422204,367.13508 665.378575,367.44188 666.538086,367.44188 C667.697597,367.44188 668.643388,367.13508 669.375488,366.52147 C670.107588,365.90786 670.473633,365.080558 670.473633,364.039537 C670.473633,363.03237 670.118168,362.200836 669.407227,361.544908 C668.696286,360.88898 667.739915,360.425606 666.538086,360.154771 Z M666.538086,351.648912 C665.539383,351.648912 664.690921,351.898584 663.992676,352.397935 C663.29443,352.897287 662.945312,353.582827 662.945312,354.454576 C662.945312,356.451982 664.142892,357.717268 666.538086,358.250474 C668.899426,357.717268 670.080078,356.451982 670.080078,354.454576 C670.080078,353.582827 669.737308,352.897287 669.051758,352.397935 C668.366208,351.898584 667.528325,351.648912 666.538086,351.648912 Z" id="8" fill="#FFFFFF" fill-rule="nonzero"></path>
        <path d="M658.48291,404.007812 L660.501465,404.007812 L660.501465,423 L658.254395,423 L658.254395,406.356445 C657.399573,406.915042 656.354336,407.393227 655.118652,407.791016 L655.118652,405.670898 L656.876953,404.90918 L656.876953,404.90918 L657.151172,404.77918 C657.300976,404.705039 657.469823,404.617188 657.657715,404.515625 C657.970867,404.346353 658.24593,404.177084 658.48291,404.007812 Z" id="10" fill="#FFFFFF" fill-rule="nonzero"></path>
        <path d="M670.492676,403.639648 C671.576015,403.639648 672.534501,403.876625 673.368164,404.350586 C674.201827,404.824547 674.878904,405.499507 675.399414,406.375488 C675.919924,407.251469 676.311359,408.284011 676.57373,409.473145 C676.836102,410.662278 676.967285,411.993157 676.967285,413.46582 C676.967285,414.896166 676.844565,416.195307 676.599121,417.363281 C676.353677,418.531256 675.977053,419.563798 675.469238,420.460938 C674.961423,421.358077 674.284347,422.056313 673.437988,422.555664 C672.600093,423.046552 671.618332,423.291992 670.492676,423.291992 C669.367019,423.291992 668.381026,423.044436 667.534668,422.549316 C666.68831,422.054197 666.009117,421.358077 665.49707,420.460938 C664.985023,419.563798 664.604168,418.531256 664.354492,417.363281 C664.104816,416.195307 663.97998,414.896166 663.97998,413.46582 C663.97998,412.289382 664.062499,411.201828 664.227539,410.203125 C664.392579,409.204422 664.648599,408.298832 664.995605,407.486328 C665.342612,406.673824 665.772133,405.984052 666.28418,405.416992 C666.796227,404.849932 667.407711,404.411948 668.118652,404.103027 C668.829593,403.794107 669.620927,403.639648 670.492676,403.639648 Z M670.492676,405.569336 C669.62939,405.569336 668.888838,405.90999 668.270996,406.591309 C667.653154,407.272627 667.18978,408.195144 666.880859,409.358887 C666.571939,410.52263 666.41748,411.866203 666.41748,413.389648 C666.41748,414.938484 666.571939,416.307448 666.880859,417.496582 C667.18978,418.685716 667.653154,419.627275 668.270996,420.321289 C668.888838,421.015303 669.62939,421.362305 670.492676,421.362305 C671.355961,421.362305 672.096514,421.015303 672.714355,420.321289 C673.332197,419.627275 673.795571,418.685716 674.104492,417.496582 C674.413413,416.307448 674.567871,414.938484 674.567871,413.389648 C674.567871,411.866203 674.413413,410.52263 674.104492,409.358887 C673.795571,408.195144 673.332197,407.274743 672.714355,406.597656 C672.096514,405.912106 671.355961,405.569336 670.492676,405.569336 Z" id="Combined-Shape" fill="#FFFFFF" fill-rule="nonzero"></path>
        <path d="M596.386719,458.007812 L598.405273,458.007812 L598.405273,477 L596.158203,477 L596.158203,460.356445 C595.303381,460.915042 594.258144,461.393227 593.022461,461.791016 L593.022461,459.670898 L594.780762,458.90918 L594.780762,458.90918 L595.05498,458.77918 C595.204785,458.705039 595.373632,458.617188 595.561523,458.515625 C595.874676,458.346353 596.149738,458.177084 596.386719,458.007812 Z M604.333984,458.007812 L606.352539,458.007812 L606.352539,477 L604.105469,477 L604.105469,460.356445 C603.250647,460.915042 602.20541,461.393227 600.969727,461.791016 L600.969727,459.670898 L602.728027,458.90918 L602.728027,458.90918 L603.002246,458.77918 C603.15205,458.705039 603.320897,458.617188 603.508789,458.515625 C603.821942,458.346353 604.097004,458.177084 604.333984,458.007812 Z" id="11" fill="#FFFFFF" fill-rule="nonzero"></path>
        <path d="M659.276367,458.007812 L661.294922,458.007812 L661.294922,477 L659.047852,477 L659.047852,460.356445 C658.19303,460.915042 657.147793,461.393227 655.912109,461.791016 L655.912109,459.670898 L657.67041,458.90918 L657.67041,458.90918 L657.944629,458.77918 C658.094433,458.705039 658.26328,458.617188 658.451172,458.515625 C658.764324,458.346353 659.039387,458.177084 659.276367,458.007812 Z M664.824219,477 L664.532227,474.917969 L671.095703,467.630859 C671.535809,467.139972 671.961098,466.505212 672.371582,465.726562 C672.730755,465.045244 673.004066,464.454652 673.191521,463.954774 L673.558594,462.946289 C673.558594,461.896805 673.266604,461.082197 672.682617,460.502441 C672.09863,459.922686 671.269211,459.632812 670.194336,459.632812 C668.400056,459.632812 666.986659,460.153315 665.954102,461.194336 L665.217773,459.290039 C666.385748,458.189773 668.095366,457.639648 670.34668,457.639648 C672.073251,457.639648 673.448563,458.107254 674.472656,459.04248 C675.49675,459.977706 676.008789,461.228182 676.008789,462.793945 L675.945313,463.001831 L675.945313,463.001831 L675.799708,463.430513 C675.731373,463.618905 675.628244,463.890991 675.490319,464.246774 L675.418457,464.431641 C675.194172,465.007164 674.959311,465.553057 674.713867,466.069336 C674.468423,466.585615 674.157391,467.152666 673.780762,467.770508 C673.404132,468.388349 673.021161,468.90462 672.631836,469.319336 L667.274414,475.044922 L676.072266,475.044922 L675.932617,477 L664.824219,477 Z" id="12" fill="#FFFFFF" fill-rule="nonzero"></path>
        <path d="M310.898926,431.087388 L310.898926,443.528795 L313.234863,443.528795 L313.057129,445.369615 L310.898926,445.369615 L310.898926,450.079576 L308.766113,450.079576 L308.766113,445.369615 L300.184082,445.369615 L300.184082,443.427232 L308.524902,431.087388 L310.898926,431.087388 Z M308.766113,433.969224 L302.418457,443.528795 L308.766113,443.528795 L308.766113,433.969224 Z" id="4" fill="#FFFFFF" fill-rule="nonzero"></path>
        <path d="M377.774902,431.087388 L377.597168,433.16942 L369.840332,433.16942 L369.649902,439.148912 L369.649902,439.148912 C370.606287,438.539534 371.643061,438.234849 372.760254,438.234849 C373.699712,438.234849 374.53971,438.385076 375.280273,438.685533 C376.020837,438.98599 376.625974,439.398584 377.095703,439.923326 C377.565432,440.448068 377.923013,441.059553 378.168457,441.757798 C378.413901,442.456044 378.536621,443.211408 378.536621,444.023912 C378.536621,445.945145 377.920905,447.483379 376.689453,448.638658 C375.458002,449.793937 373.784353,450.371568 371.668457,450.371568 C369.544097,450.371568 367.842943,449.791821 366.564941,448.63231 L367.390137,446.842271 C368.642747,447.824047 370.09423,448.314927 371.744629,448.314927 C373.132657,448.314927 374.228674,447.921377 375.032715,447.134263 C375.836755,446.34715 376.23877,445.31884 376.23877,444.049302 C376.23877,442.915182 375.900231,441.994781 375.223145,441.288072 C374.546058,440.581363 373.581224,440.228013 372.328613,440.228013 C371.076003,440.228013 370.068851,440.646954 369.307129,441.484849 L367.54248,441.243638 L368.037598,431.087388 L377.774902,431.087388 Z" id="5" fill="#FFFFFF" fill-rule="nonzero"></path>
        <path d="M366.855469,622.408203 C366.855469,618.261047 368.010731,614.503272 370.321289,611.134766 L372.289062,611.134766 C370.105458,614.537126 369.013672,618.277974 369.013672,622.357422 C369.013672,624.270192 369.301429,626.19986 369.876953,628.146484 C370.452477,630.093109 371.256505,631.857739 372.289062,633.44043 L370.34668,633.44043 C369.254877,631.925448 368.400068,630.217946 367.782227,628.317871 C367.164385,626.417796 366.855469,624.447927 366.855469,622.408203 Z M377.113281,611.007812 L379.131836,611.007812 L379.131836,630 L376.884766,630 L376.884766,613.356445 C376.029944,613.915042 374.984707,614.393227 373.749023,614.791016 L373.749023,612.670898 L375.507324,611.90918 L375.507324,611.90918 L375.781543,611.77918 C375.931347,611.705039 376.100194,611.617188 376.288086,611.515625 C376.601239,611.346353 376.876301,611.177084 377.113281,611.007812 Z M383.943359,633.529297 L382.610352,633.529297 L382.919403,630.821623 C383.001129,630.094023 383.067383,629.460452 383.118164,628.920898 L383.207031,627.908447 C383.232422,627.593181 383.253581,627.300132 383.270508,627.029297 L385.771484,627.029297 L385.771484,627.587891 C385.356769,629.26368 384.7474,631.244129 383.943359,633.529297 Z M395.55957,630 L395.267578,627.917969 L401.831055,620.630859 C402.271161,620.139972 402.69645,619.505212 403.106934,618.726562 C403.466107,618.045244 403.739418,617.454652 403.926872,616.954774 L404.293945,615.946289 C404.293945,614.896805 404.001956,614.082197 403.417969,613.502441 C402.833981,612.922686 402.004563,612.632812 400.929688,612.632812 C399.135408,612.632812 397.72201,613.153315 396.689453,614.194336 L395.953125,612.290039 C397.1211,611.189773 398.830718,610.639648 401.082031,610.639648 C402.808602,610.639648 404.183914,611.107254 405.208008,612.04248 C406.232101,612.977706 406.744141,614.228182 406.744141,615.793945 L406.639404,616.128387 L406.639404,616.128387 L406.53506,616.430513 C406.455336,616.650304 406.328252,616.984011 406.153809,617.431641 C405.929524,618.007164 405.694663,618.553057 405.449219,619.069336 C405.203775,619.585615 404.892743,620.152666 404.516113,620.770508 C404.139484,621.388349 403.756512,621.90462 403.367188,622.319336 L398.009766,628.044922 L406.807617,628.044922 L406.667969,630 L395.55957,630 Z M411.009766,633.529297 L409.676758,633.529297 L410.025383,630.465659 C410.063667,630.11753 410.098083,629.792908 410.128632,629.491792 L410.18457,628.920898 C410.252279,628.201494 410.30306,627.570966 410.336914,627.029297 L412.837891,627.029297 L412.837891,627.587891 C412.423175,629.26368 411.813806,631.244129 411.009766,633.529297 Z M427.488281,630.291992 C426.354161,630.291992 425.344894,630.143882 424.460449,629.847656 C423.576005,629.551431 422.930666,629.208661 422.524414,628.819336 L423.235352,626.953125 C424.428717,627.892583 425.850578,628.362305 427.500977,628.362305 C428.770514,628.362305 429.779781,628.047041 430.528809,627.416504 C431.277836,626.785967 431.652344,625.903652 431.652344,624.769531 C431.652344,624.15169 431.55713,623.612144 431.366699,623.150879 C431.176269,622.689614 430.922365,622.317221 430.60498,622.033691 C430.287596,621.750161 429.88135,621.521648 429.38623,621.348145 C428.891111,621.174641 428.383303,621.051921 427.862793,620.97998 C427.342283,620.90804 426.739261,620.863607 426.053711,620.84668 L425.291992,620.833984 L425.291992,620.833984 L425.291992,618.942383 L425.926758,618.942383 C426.519209,618.933919 427.041827,618.902181 427.494629,618.847168 C427.947431,618.792155 428.400226,618.692709 428.853027,618.548828 C429.305829,618.404947 429.680337,618.214519 429.976562,617.977539 C430.272788,617.740559 430.513996,617.423179 430.700195,617.025391 C430.886394,616.627602 430.979492,616.15788 430.979492,615.616211 C430.979492,613.584951 429.815767,612.569336 427.488281,612.569336 C426.650386,612.569336 425.863285,612.692056 425.126953,612.9375 C424.390621,613.182944 423.760094,613.513019 423.235352,613.927734 L422.524414,612.074219 C423.785488,611.117834 425.6009,610.639648 427.970703,610.639648 C428.927088,610.639648 429.811519,610.815265 430.624023,611.166504 C431.436528,611.517743 432.105141,612.055172 432.629883,612.778809 C433.154625,613.502445 433.416992,614.350907 433.416992,615.324219 C433.416992,616.509121 433.125003,617.482418 432.541016,618.244141 C431.957028,619.005863 431.136073,619.551756 430.078125,619.881836 C431.263027,620.135743 432.191891,620.6901 432.864746,621.544922 C433.537601,622.399744 433.874023,623.483066 433.874023,624.794922 C433.874023,626.462248 433.27735,627.795242 432.083984,628.793945 C430.890619,629.792648 429.358733,630.291992 427.488281,630.291992 Z M441.618164,622.408203 C441.618164,624.447927 441.309248,626.415681 440.691406,628.311523 C440.073565,630.207366 439.214524,631.916985 438.114258,633.44043 L436.18457,633.44043 C437.217128,631.857739 438.021156,630.093109 438.59668,628.146484 C439.172203,626.19986 439.459961,624.270192 439.459961,622.357422 C439.459961,618.294902 438.363943,614.554054 436.171875,611.134766 L438.139648,611.134766 C440.45867,614.554054 441.618164,618.311828 441.618164,622.408203 Z M458.693359,620.44043 C458.693359,621.608404 458.316736,622.615556 457.563477,623.461914 C456.810218,624.308272 455.921555,624.731445 454.897461,624.731445 C453.85644,624.731445 452.972009,624.316736 452.244141,623.487305 C451.516272,622.657873 451.152344,621.667649 451.152344,620.516602 C451.152344,619.357091 451.533199,618.349939 452.294922,617.495117 C453.056644,616.640295 453.941076,616.212891 454.948242,616.212891 C455.972336,616.212891 456.852535,616.629716 457.588867,617.463379 C458.325199,618.297042 458.693359,619.289382 458.693359,620.44043 Z M468.214844,622.408203 C468.214844,618.261047 469.370106,614.503272 471.680664,611.134766 L473.648438,611.134766 C471.464833,614.537126 470.373047,618.277974 470.373047,622.357422 C470.373047,624.270192 470.660804,626.19986 471.236328,628.146484 C471.811852,630.093109 472.61588,631.857739 473.648438,633.44043 L471.706055,633.44043 C470.614252,631.925448 469.759443,630.217946 469.141602,628.317871 C468.52376,626.417796 468.214844,624.447927 468.214844,622.408203 Z M482.179688,630.291992 C481.02864,630.291992 479.989751,630.099449 479.062988,629.714355 C478.136226,629.329262 477.385094,628.738936 476.80957,627.943359 C476.234047,627.147782 475.946289,626.204107 475.946289,625.112305 C475.946289,623.902012 476.293291,622.848312 476.987305,621.951172 C477.681319,621.054032 478.650384,620.402346 479.894531,619.996094 C477.524728,619.158199 476.339844,617.634777 476.339844,615.425781 C476.339844,613.927727 476.881505,612.755538 477.964844,611.90918 C479.048182,611.062821 480.453116,610.639648 482.179688,610.639648 C483.897795,610.639648 485.290034,611.062821 486.356445,611.90918 C487.422857,612.755538 487.956055,613.927727 487.956055,615.425781 C487.956055,616.542974 487.668297,617.482418 487.092773,618.244141 C486.51725,619.005863 485.713221,619.589842 484.680664,619.996094 C485.823248,620.402346 486.720374,621.054032 487.37207,621.951172 C488.023766,622.848312 488.349609,623.902012 488.349609,625.112305 C488.349609,626.737313 487.763515,628.006831 486.591309,628.920898 C485.419102,629.834966 483.948577,630.291992 482.179688,630.291992 Z M482.179688,621.075195 C480.969395,621.354494 480.000329,621.8221 479.272461,622.478027 C478.544593,623.133955 478.180664,623.961258 478.180664,624.959961 C478.180664,626.000982 478.557288,626.828285 479.310547,627.441895 C480.063806,628.055504 481.020176,628.362305 482.179688,628.362305 C483.339199,628.362305 484.28499,628.055504 485.01709,627.441895 C485.74919,626.828285 486.115234,626.000982 486.115234,624.959961 C486.115234,623.952794 485.759769,623.12126 485.048828,622.465332 C484.337887,621.809404 483.381516,621.34603 482.179688,621.075195 Z M482.179688,612.569336 C481.180985,612.569336 480.332523,612.819008 479.634277,613.318359 C478.936032,613.817711 478.586914,614.503251 478.586914,615.375 C478.586914,617.372406 479.784493,618.637693 482.179688,619.170898 C484.541027,618.637693 485.72168,617.372406 485.72168,615.375 C485.72168,614.503251 485.37891,613.817711 484.693359,613.318359 C484.007809,612.819008 483.169927,612.569336 482.179688,612.569336 Z M492.361328,633.529297 L491.02832,633.529297 L491.337372,630.821623 C491.419098,630.094023 491.485351,629.460452 491.536133,628.920898 L491.625,627.908447 C491.650391,627.593181 491.671549,627.300132 491.688477,627.029297 L494.189453,627.029297 L494.189453,627.587891 C493.774738,629.26368 493.165369,631.244129 492.361328,633.529297 Z M506.376953,611.007812 L508.395508,611.007812 L508.395508,630 L506.148438,630 L506.148438,613.356445 C505.293616,613.915042 504.248379,614.393227 503.012695,614.791016 L503.012695,612.670898 L504.770996,611.90918 L504.770996,611.90918 L505.045215,611.77918 C505.195019,611.705039 505.363866,611.617188 505.551758,611.515625 C505.86491,611.346353 506.139973,611.177084 506.376953,611.007812 Z M521.332031,629.555664 C520.494136,630.046552 519.512375,630.291992 518.386719,630.291992 C517.261062,630.291992 516.275069,630.044436 515.428711,629.549316 C514.582353,629.054197 513.90316,628.358077 513.391113,627.460938 C512.879066,626.563798 512.498211,625.531256 512.248535,624.363281 C511.998859,623.195307 511.874023,621.896166 511.874023,620.46582 C511.874023,619.289382 511.956542,618.201828 512.121582,617.203125 C512.286622,616.204422 512.542641,615.298832 512.889648,614.486328 C513.236655,613.673824 513.666176,612.984052 514.178223,612.416992 C514.690269,611.849932 515.301754,611.411948 516.012695,611.103027 C516.723636,610.794107 517.51497,610.639648 518.386719,610.639648 C519.470057,610.639648 520.428544,610.876625 521.262207,611.350586 C522.09587,611.824547 522.772947,612.499507 523.293457,613.375488 C523.813967,614.251469 524.205402,615.284011 524.467773,616.473145 C524.730145,617.662278 524.861328,618.993157 524.861328,620.46582 C524.861328,621.896166 524.738608,623.195307 524.493164,624.363281 C524.24772,625.531256 523.871096,626.563798 523.363281,627.460938 C522.855466,628.358077 522.17839,629.056313 521.332031,629.555664 Z M520.608398,613.597656 C519.990557,612.912106 519.250004,612.569336 518.386719,612.569336 C517.523433,612.569336 516.782881,612.90999 516.165039,613.591309 C515.547197,614.272627 515.083823,615.195144 514.774902,616.358887 C514.465982,617.52263 514.311523,618.866203 514.311523,620.389648 C514.311523,621.938484 514.465982,623.307448 514.774902,624.496582 C515.083823,625.685716 515.547197,626.627275 516.165039,627.321289 C516.782881,628.015303 517.523433,628.362305 518.386719,628.362305 C519.250004,628.362305 519.990557,628.015303 520.608398,627.321289 C521.22624,626.627275 521.689614,625.685716 521.998535,624.496582 C522.307456,623.307448 522.461914,621.938484 522.461914,620.389648 C522.461914,618.866203 522.307456,617.52263 521.998535,616.358887 C521.689614,615.195144 521.22624,614.274743 520.608398,613.597656 Z M528.961914,633.529297 L527.628906,633.529297 L527.977532,630.465659 C528.028577,630.001487 528.072746,629.579105 528.110039,629.19851 L528.136719,628.920898 C528.204427,628.201494 528.255208,627.570966 528.289062,627.029297 L530.790039,627.029297 L530.790039,627.587891 C530.375323,629.26368 529.765955,631.244129 528.961914,633.529297 Z M542.977539,611.007812 L544.996094,611.007812 L544.996094,630 L542.749023,630 L542.749023,613.356445 C541.894201,613.915042 540.848965,614.393227 539.613281,614.791016 L539.613281,612.670898 L541.371582,611.90918 L541.371582,611.90918 L541.645801,611.77918 C541.795605,611.705039 541.964452,611.617188 542.152344,611.515625 C542.465496,611.346353 542.740559,611.177084 542.977539,611.007812 Z M548.525391,630 L548.233398,627.917969 L554.796875,620.630859 C555.236981,620.139972 555.66227,619.505212 556.072754,618.726562 C556.431927,618.045244 556.705238,617.454652 556.892692,616.954774 L557.259766,615.946289 C557.259766,614.896805 556.967776,614.082197 556.383789,613.502441 C555.799802,612.922686 554.970383,612.632812 553.895508,612.632812 C552.101228,612.632812 550.687831,613.153315 549.655273,614.194336 L548.918945,612.290039 C550.08692,611.189773 551.796538,610.639648 554.047852,610.639648 C555.774423,610.639648 557.149734,611.107254 558.173828,612.04248 C559.197922,612.977706 559.709961,614.228182 559.709961,615.793945 L559.646484,616.001831 L559.646484,616.001831 L559.557617,616.27002 C559.489909,616.468914 559.343914,616.856117 559.119629,617.431641 C558.895344,618.007164 558.660483,618.553057 558.415039,619.069336 C558.169595,619.585615 557.858563,620.152666 557.481934,620.770508 C557.105304,621.388349 556.722333,621.90462 556.333008,622.319336 L550.975586,628.044922 L559.773438,628.044922 L559.633789,630 L548.525391,630 Z M567.682617,622.408203 C567.682617,624.447927 567.373701,626.415681 566.755859,628.311523 C566.138018,630.207366 565.278977,631.916985 564.178711,633.44043 L562.249023,633.44043 C563.281581,631.857739 564.085609,630.093109 564.661133,628.146484 C565.236657,626.19986 565.524414,624.270192 565.524414,622.357422 C565.524414,618.294902 564.428396,614.554054 562.236328,611.134766 L564.204102,611.134766 C566.523124,614.554054 567.682617,618.311828 567.682617,622.408203 Z M577.15332,625.213867 L577.15332,623.411133 L589.404297,623.411133 L589.404297,625.213867 L577.15332,625.213867 Z M577.140625,619.856445 L577.140625,618.02832 L589.404297,618.02832 L589.404297,619.856445 L577.140625,619.856445 Z M601.388672,611.007812 L603.407227,611.007812 L603.407227,630 L601.160156,630 L601.160156,613.356445 C600.305334,613.915042 599.260097,614.393227 598.024414,614.791016 L598.024414,612.670898 L599.782715,611.90918 L599.782715,611.90918 L600.056934,611.77918 C600.206738,611.705039 600.375585,611.617188 600.563477,611.515625 C600.876629,611.346353 601.151692,611.177084 601.388672,611.007812 Z M610.999023,622.916016 L606.085938,616.073242 L608.510742,616.073242 L612.230469,621.379883 L615.962891,616.073242 L618.387695,616.073242 L613.461914,622.941406 L618.514648,630 L616.166016,630 L612.243164,624.401367 L608.320312,630 L605.895508,630 L610.999023,622.916016 Z M626.461914,630.291992 C625.310867,630.291992 624.271977,630.099449 623.345215,629.714355 C622.418452,629.329262 621.667321,628.738936 621.091797,627.943359 C620.516273,627.147782 620.228516,626.204107 620.228516,625.112305 C620.228516,623.902012 620.575517,622.848312 621.269531,621.951172 C621.963545,621.054032 622.932611,620.402346 624.176758,619.996094 C621.806954,619.158199 620.62207,617.634777 620.62207,615.425781 C620.62207,613.927727 621.163732,612.755538 622.24707,611.90918 C623.330409,611.062821 624.735343,610.639648 626.461914,610.639648 C628.180022,610.639648 629.57226,611.062821 630.638672,611.90918 C631.705083,612.755538 632.238281,613.927727 632.238281,615.425781 C632.238281,616.542974 631.950524,617.482418 631.375,618.244141 C630.799476,619.005863 629.995448,619.589842 628.962891,619.996094 C630.105474,620.402346 631.002601,621.054032 631.654297,621.951172 C632.305993,622.848312 632.631836,623.902012 632.631836,625.112305 C632.631836,626.737313 632.045742,628.006831 630.873535,628.920898 C629.701329,629.834966 628.230803,630.291992 626.461914,630.291992 Z M626.461914,621.075195 C625.251622,621.354494 624.282556,621.8221 623.554688,622.478027 C622.826819,623.133955 622.462891,623.961258 622.462891,624.959961 C622.462891,626.000982 622.839514,626.828285 623.592773,627.441895 C624.346032,628.055504 625.302403,628.362305 626.461914,628.362305 C627.621425,628.362305 628.567216,628.055504 629.299316,627.441895 C630.031416,626.828285 630.397461,626.000982 630.397461,624.959961 C630.397461,623.952794 630.041996,623.12126 629.331055,622.465332 C628.620114,621.809404 627.663743,621.34603 626.461914,621.075195 Z M626.461914,612.569336 C625.463211,612.569336 624.61475,612.819008 623.916504,613.318359 C623.218258,613.817711 622.869141,614.503251 622.869141,615.375 C622.869141,617.372406 624.06672,618.637693 626.461914,619.170898 C628.823254,618.637693 630.003906,617.372406 630.003906,615.375 C630.003906,614.503251 629.661136,613.817711 628.975586,613.318359 C628.290036,612.819008 627.452153,612.569336 626.461914,612.569336 Z M648.500977,620.884766 L653.452148,620.884766 L653.452148,622.611328 L648.488281,622.611328 L648.488281,628.057617 L646.749023,628.057617 L646.749023,622.611328 L641.708984,622.611328 L641.708984,620.884766 L646.761719,620.884766 L646.761719,615.501953 L648.500977,615.501953 L648.500977,620.884766 Z M662.630859,630 L662.338867,627.917969 L668.902344,620.630859 C669.34245,620.139972 669.767739,619.505212 670.178223,618.726562 C670.537396,618.045244 670.810707,617.454652 670.998161,616.954774 L671.365234,615.946289 C671.365234,614.896805 671.073245,614.082197 670.489258,613.502441 C669.905271,612.922686 669.075852,612.632812 668.000977,612.632812 C666.206697,612.632812 664.793299,613.153315 663.760742,614.194336 L663.024414,612.290039 C664.192389,611.189773 665.902007,610.639648 668.15332,610.639648 C669.879891,610.639648 671.255203,611.107254 672.279297,612.04248 C673.303391,612.977706 673.81543,614.228182 673.81543,615.793945 L673.710693,616.128387 L673.710693,616.128387 L673.606349,616.430513 C673.526625,616.650304 673.399542,616.984011 673.225098,617.431641 C673.000813,618.007164 672.765952,618.553057 672.520508,619.069336 C672.275064,619.585615 671.964032,620.152666 671.587402,620.770508 C671.210773,621.388349 670.827801,621.90462 670.438477,622.319336 L665.081055,628.044922 L673.878906,628.044922 L673.739258,630 L662.630859,630 Z M680.861328,622.916016 L675.948242,616.073242 L678.373047,616.073242 L682.092773,621.379883 L685.825195,616.073242 L688.25,616.073242 L683.324219,622.941406 L688.376953,630 L686.02832,630 L682.105469,624.401367 L678.182617,630 L675.757812,630 L680.861328,622.916016 Z M692.617188,611.007812 L694.635742,611.007812 L694.635742,630 L692.388672,630 L692.388672,613.356445 C691.53385,613.915042 690.488613,614.393227 689.25293,614.791016 L689.25293,612.670898 L691.01123,611.90918 L691.01123,611.90918 L691.285449,611.77918 C691.435254,611.705039 691.604101,611.617188 691.791992,611.515625 C692.105145,611.346353 692.380207,611.177084 692.617188,611.007812 Z M707.572266,629.555664 C706.734371,630.046552 705.75261,630.291992 704.626953,630.291992 C703.501296,630.291992 702.515304,630.044436 701.668945,629.549316 C700.822587,629.054197 700.143394,628.358077 699.631348,627.460938 C699.119301,626.563798 698.738445,625.531256 698.48877,624.363281 C698.239094,623.195307 698.114258,621.896166 698.114258,620.46582 C698.114258,619.289382 698.196777,618.201828 698.361816,617.203125 C698.526856,616.204422 698.782876,615.298832 699.129883,614.486328 C699.47689,613.673824 699.90641,612.984052 700.418457,612.416992 C700.930504,611.849932 701.541989,611.411948 702.25293,611.103027 C702.963871,610.794107 703.755204,610.639648 704.626953,610.639648 C705.710292,610.639648 706.668778,610.876625 707.502441,611.350586 C708.336104,611.824547 709.013181,612.499507 709.533691,613.375488 C710.054202,614.251469 710.445637,615.284011 710.708008,616.473145 C710.970379,617.662278 711.101562,618.993157 711.101562,620.46582 C711.101562,621.896166 710.978842,623.195307 710.733398,624.363281 C710.487955,625.531256 710.111331,626.563798 709.603516,627.460938 C709.095701,628.358077 708.418624,629.056313 707.572266,629.555664 Z M706.848633,613.597656 C706.230791,612.912106 705.490239,612.569336 704.626953,612.569336 C703.763668,612.569336 703.023115,612.90999 702.405273,613.591309 C701.787432,614.272627 701.324058,615.195144 701.015137,616.358887 C700.706216,617.52263 700.551758,618.866203 700.551758,620.389648 C700.551758,621.938484 700.706216,623.307448 701.015137,624.496582 C701.324058,625.685716 701.787432,626.627275 702.405273,627.321289 C703.023115,628.015303 703.763668,628.362305 704.626953,628.362305 C705.490239,628.362305 706.230791,628.015303 706.848633,627.321289 C707.466474,626.627275 707.929849,625.685716 708.23877,624.496582 C708.54769,623.307448 708.702148,621.938484 708.702148,620.389648 C708.702148,618.866203 708.54769,617.52263 708.23877,616.358887 C707.929849,615.195144 707.466474,614.274743 706.848633,613.597656 Z M727.05957,620.884766 L732.010742,620.884766 L732.010742,622.611328 L727.046875,622.611328 L727.046875,628.057617 L725.307617,628.057617 L725.307617,622.611328 L720.267578,622.611328 L720.267578,620.884766 L725.320312,620.884766 L725.320312,615.501953 L727.05957,615.501953 L727.05957,620.884766 Z M746.051758,630.291992 C744.917638,630.291992 743.90837,630.143882 743.023926,629.847656 C742.139481,629.551431 741.494143,629.208661 741.087891,628.819336 L741.798828,626.953125 C742.992193,627.892583 744.414054,628.362305 746.064453,628.362305 C747.333991,628.362305 748.343258,628.047041 749.092285,627.416504 C749.841312,626.785967 750.21582,625.903652 750.21582,624.769531 C750.21582,624.15169 750.120606,623.612144 749.930176,623.150879 C749.739745,622.689614 749.485841,622.317221 749.168457,622.033691 C748.851073,621.750161 748.444827,621.521648 747.949707,621.348145 C747.454587,621.174641 746.94678,621.051921 746.42627,620.97998 C745.905759,620.90804 745.302738,620.863607 744.617188,620.84668 L743.855469,620.833984 L743.855469,620.833984 L743.855469,618.942383 L744.490234,618.942383 C745.082685,618.933919 745.605304,618.902181 746.058105,618.847168 C746.510907,618.792155 746.963702,618.692709 747.416504,618.548828 C747.869306,618.404947 748.243814,618.214519 748.540039,617.977539 C748.836265,617.740559 749.077473,617.423179 749.263672,617.025391 C749.449871,616.627602 749.542969,616.15788 749.542969,615.616211 C749.542969,613.584951 748.379243,612.569336 746.051758,612.569336 C745.213863,612.569336 744.426761,612.692056 743.69043,612.9375 C742.954098,613.182944 742.32357,613.513019 741.798828,613.927734 L741.087891,612.074219 C742.348965,611.117834 744.164376,610.639648 746.53418,610.639648 C747.490565,610.639648 748.374996,610.815265 749.1875,611.166504 C750.000004,611.517743 750.668617,612.055172 751.193359,612.778809 C751.718102,613.502445 751.980469,614.350907 751.980469,615.324219 C751.980469,616.509121 751.688479,617.482418 751.104492,618.244141 C750.520505,619.005863 749.69955,619.551756 748.641602,619.881836 C749.826503,620.135743 750.755368,620.6901 751.428223,621.544922 C752.101078,622.399744 752.4375,623.483066 752.4375,624.794922 C752.4375,626.462248 751.840826,627.795242 750.647461,628.793945 C749.454096,629.792648 747.92221,630.291992 746.051758,630.291992 Z M759.254883,622.916016 L754.341797,616.073242 L756.766602,616.073242 L760.486328,621.379883 L764.21875,616.073242 L766.643555,616.073242 L761.717773,622.941406 L766.770508,630 L764.421875,630 L760.499023,624.401367 L756.576172,630 L754.151367,630 L759.254883,622.916016 Z M771.010742,611.007812 L773.029297,611.007812 L773.029297,630 L770.782227,630 L770.782227,613.356445 C769.927405,613.915042 768.882168,614.393227 767.646484,614.791016 L767.646484,612.670898 L769.404785,611.90918 L769.404785,611.90918 L769.679004,611.77918 C769.828808,611.705039 769.997655,611.617188 770.185547,611.515625 C770.498699,611.346353 770.773762,611.177084 771.010742,611.007812 Z M776.558594,630 L776.266602,627.917969 L782.830078,620.630859 C783.270184,620.139972 783.695473,619.505212 784.105957,618.726562 C784.46513,618.045244 784.738441,617.454652 784.925896,616.954774 L785.292969,615.946289 C785.292969,614.896805 785.000979,614.082197 784.416992,613.502441 C783.833005,612.922686 783.003586,612.632812 781.928711,612.632812 C780.134431,612.632812 778.721034,613.153315 777.688477,614.194336 L776.952148,612.290039 C778.120123,611.189773 779.829741,610.639648 782.081055,610.639648 C783.807626,610.639648 785.182938,611.107254 786.207031,612.04248 C787.231125,612.977706 787.743164,614.228182 787.743164,615.793945 L787.638428,616.128387 L787.638428,616.128387 L787.534083,616.430513 C787.454359,616.650304 787.327276,616.984011 787.152832,617.431641 C786.928547,618.007164 786.693686,618.553057 786.448242,619.069336 C786.202798,619.585615 785.891766,620.152666 785.515137,620.770508 C785.138507,621.388349 784.755536,621.90462 784.366211,622.319336 L779.008789,628.044922 L787.806641,628.044922 L787.666992,630 L776.558594,630 Z M797.455078,625.213867 L797.455078,623.411133 L809.706055,623.411133 L809.706055,625.213867 L797.455078,625.213867 Z M797.442383,619.856445 L797.442383,618.02832 L809.706055,618.02832 L809.706055,619.856445 L797.442383,619.856445 Z M825.943359,618.307617 C827.009771,618.307617 827.995764,618.559405 828.901367,619.062988 C829.806971,619.566572 830.534828,620.281734 831.084961,621.208496 C831.635094,622.135259 831.910156,623.165684 831.910156,624.299805 C831.910156,626.026376 831.328294,627.4567 830.164551,628.59082 C829.000808,629.724941 827.466806,630.291992 825.5625,630.291992 C824.572261,630.291992 823.668787,630.124839 822.852051,629.790527 C822.035315,629.456216 821.36247,629.003421 820.833496,628.432129 C820.304522,627.860837 819.894044,627.196456 819.602051,626.438965 C819.310057,625.681474 819.164062,624.871098 819.164062,624.007812 C819.164062,622.628248 819.41585,621.394699 819.919434,620.307129 C820.389445,619.292063 821.215178,618.024499 822.396655,616.504405 L822.870586,615.904648 C823.108242,615.608086 823.412928,615.232307 823.784647,614.777306 L824.754924,613.595323 C825.219555,613.032239 825.64532,612.520975 826.032227,612.061523 L826.832031,611.09668 L829.764648,611.09668 L823.086914,619.069336 C824.043299,618.561521 824.995438,618.307617 825.943359,618.307617 Z M821.563477,624.249023 C821.563477,625.002282 821.705239,625.683591 821.98877,626.292969 C822.2723,626.902347 822.716631,627.399575 823.321777,627.784668 C823.926924,628.169761 824.648433,628.362305 825.486328,628.362305 C826.738939,628.362305 827.722815,627.977217 828.437988,627.207031 C829.153161,626.436845 829.510742,625.480474 829.510742,624.337891 C829.510742,623.136062 829.153161,622.147953 828.437988,621.373535 C827.722815,620.599117 826.738939,620.211914 825.486328,620.211914 C824.157545,620.211914 823.171553,620.588538 822.52832,621.341797 C821.885088,622.095056 821.563477,623.064122 821.563477,624.249023 Z" id="(1,2,3)(8,10,12)=1x8+2x10+3x12=64" fill="#FFFFFF" fill-rule="nonzero"></path>
        <path d="M845.164062,611.007812 L845.164062,623.449219 L847.5,623.449219 L847.322266,625.290039 L845.164062,625.290039 L845.164062,630 L843.03125,630 L843.03125,625.290039 L834.449219,625.290039 L834.449219,623.347656 L842.790039,611.007812 L845.164062,611.007812 Z M843.03125,613.889648 L836.683594,623.449219 L843.03125,623.449219 L843.03125,613.889648 Z M444.797363,431.176255 L438.119629,439.148912 C439.076014,438.641097 440.028153,438.387193 440.976074,438.387193 C442.042486,438.387193 443.028479,438.638981 443.934082,439.142564 C444.839686,439.646147 445.567543,440.361309 446.117676,441.288072 C446.667809,442.214834 446.942871,443.24526 446.942871,444.37938 C446.942871,446.105952 446.361008,447.536276 445.197266,448.670396 C444.033523,449.804516 442.499521,450.371568 440.595215,450.371568 C439.604976,450.371568 438.701501,450.204415 437.884766,449.870103 C437.06803,449.535792 436.395185,449.082997 435.866211,448.511705 C435.337237,447.940413 434.926759,447.276031 434.634766,446.518541 C434.342772,445.76105 434.196777,444.950674 434.196777,444.087388 C434.196777,442.707824 434.448565,441.474275 434.952148,440.386705 C435.422159,439.371639 436.247892,438.104075 437.42937,436.58398 L438.027715,435.829341 C438.287714,435.506373 438.614744,435.104187 439.008808,434.62278 L440.061753,433.343267 C440.421021,432.909382 440.755416,432.508661 441.064941,432.141099 L441.864746,431.176255 L444.797363,431.176255 Z M440.519043,440.29149 C439.19026,440.29149 438.204268,440.668114 437.561035,441.421373 C436.917803,442.174632 436.596191,443.143697 436.596191,444.328599 C436.596191,445.081858 436.737954,445.763166 437.021484,446.372545 C437.305014,446.981923 437.749346,447.479151 438.354492,447.864244 C438.959638,448.249337 439.681148,448.44188 440.519043,448.44188 C441.771653,448.44188 442.75553,448.056793 443.470703,447.286607 C444.185876,446.516421 444.543457,445.56005 444.543457,444.417466 C444.543457,443.215637 444.185876,442.227529 443.470703,441.453111 C442.75553,440.678693 441.771653,440.29149 440.519043,440.29149 Z" id="6" fill="#FFFFFF" fill-rule="nonzero"></path>
        <polygon id="Line-2-Copy-5" fill="#FFFFFF" fill-rule="nonzero" points="258 346.044071 284.956017 346.631652 285.043187 342.632602 254 341.955929 254 486 285.000077 486 285.000077 482 258 482"></polygon>
        <polygon id="Line-2-Copy-7" fill="#FFFFFF" fill-rule="nonzero" points="787 346.044071 813.956017 346.631652 814.043187 342.632602 783 341.955929 783 486 814.000077 486 814.000077 482 787 482"></polygon>
        <polygon id="Line-2-Copy-9" fill="#FFFFFF" fill-rule="nonzero" points="552 317.044071 578.956017 317.631652 579.043187 313.632602 548 312.955929 548 515 579.000077 515 579.000077 511 552 511"></polygon>
        <polygon id="Line-2-Copy-6" fill="#FFFFFF" fill-rule="nonzero" transform="translate(475.521594, 413.977965) rotate(-180.000000) translate(-475.521594, -413.977965) " points="464 346.044071 490.956017 346.631652 491.043187 342.632602 460 341.955929 460 486 491.000077 486 491.000077 482 464 482"></polygon>
        <polygon id="Line-2-Copy-8" fill="#FFFFFF" fill-rule="nonzero" transform="translate(943.521594, 413.977965) rotate(-180.000000) translate(-943.521594, -413.977965) " points="932 346.044071 958.956017 346.631652 959.043187 342.632602 928 341.955929 928 486 959.000077 486 959.000077 482 932 482"></polygon>
        <polygon id="Line-2-Copy-10" fill="#FFFFFF" fill-rule="nonzero" transform="translate(708.521594, 413.977965) rotate(-180.000000) translate(-708.521594, -413.977965) " points="697 317.044071 723.956017 317.631652 724.043187 313.632602 693 312.955929 693 515 724.000077 515 724.000077 511 697 511"></polygon>
        <path d="M488.793398,239.068466 C549.158769,226.316896 607.989006,252.556832 665.213429,317.647221 L665.213429,317.647221 L665.770713,316.40945 C684.341907,275.768074 720.813841,255.429688 775,255.429688 C827.519502,255.429688 867.141203,285.676894 893.777777,346.01466 L893.777777,346.01466 L896.895,353.475 L898.052729,343.59232 L900.039171,343.824798 L898.23212,359.265363 L885.975002,349.702961 L887.205214,348.126072 L895.05,354.247 L891.9403,346.804145 C865.874283,287.759293 827.440316,258.027342 776.546064,257.438608 L775,257.429688 C720.389148,257.429688 684.26188,278.23586 666.419204,319.885969 L666.419204,319.885969 L665.79263,321.348579 L664.746506,320.149643 C607.631429,254.691447 549.14217,228.364538 489.206756,241.025284 C429.244211,253.691761 390.698437,290.961871 373.463464,352.959245 L373.463464,352.959245 L371.536536,352.423568 C388.968435,289.717817 428.089378,251.891572 488.793398,239.068466 Z" id="Path" fill="#FF3300" fill-rule="nonzero"></path>
    </g>
</svg>