<?xml version="1.0" encoding="UTF-8"?>
<svg width="1214px" height="866px" viewBox="0 0 1214 866" version="1.1" xmlns="http://www.w3.org/2000/svg" xmlns:xlink="http://www.w3.org/1999/xlink">
    <!-- Generator: Sketch 52.2 (67145) - http://www.bohemiancoding.com/sketch -->
    <title>perceptron</title>
    <desc>Created with Sketch.</desc>
    <g id="perceptron" stroke="none" stroke-width="1" fill="none" fill-rule="evenodd">
        <g id="Group" transform="translate(213.500000, 440.500000) rotate(-270.000000) translate(-213.500000, -440.500000) translate(23.000000, 411.000000)" stroke="#FFFFFF" stroke-linecap="round" stroke-width="2">
            <path d="M0,58.0111005 C8.92027355e-14,33.7256806 17.5932552,33.7256806 86.7951598,33.7256806 C190.036364,33.7256806 190.036364,0 190.036364,0" id="Path-2" transform="translate(95.018182, 29.005550) scale(-1, 1) rotate(-180.000000) translate(-95.018182, -29.005550) "></path>
            <path d="M190.036364,58.0111005 C190.036364,33.7256806 207.629619,33.7256806 276.831523,33.7256806 C380.072727,33.7256806 380.072727,0 380.072727,0" id="Path-2" transform="translate(285.054545, 29.005550) rotate(-180.000000) translate(-285.054545, -29.005550) "></path>
        </g>
        <path d="M97.5124782,448 L95.3161891,448 L95.3161891,429.223633 L97.5124782,429.223633 L97.5124782,448 Z M102.639504,448 L102.639504,434.073242 L104.416847,434.073242 L104.683449,436.066406 C105.233582,435.380856 105.921238,434.828615 106.746437,434.409668 C107.571637,433.990721 108.462416,433.78125 109.418801,433.78125 C111.026882,433.78125 112.215997,434.231929 112.986183,435.133301 C113.75637,436.034672 114.141457,437.420564 114.141457,439.291016 L114.141457,448 L112.02134,448 C112.02134,442.414035 112.017108,439.422203 112.008644,439.024414 C111.97479,437.839512 111.735697,436.972008 111.291359,436.421875 C110.847021,435.871742 110.104353,435.59668 109.063332,435.59668 C107.971529,435.59668 107.061708,435.859047 106.33384,436.383789 C105.605971,436.908531 105.132018,437.58984 104.911965,438.427734 C104.827329,438.994795 104.785011,439.646481 104.785011,440.382812 L104.785011,448 L102.639504,448 Z M118.633717,454.042969 L118.633717,434.073242 L120.499928,434.073242 L120.703053,435.964844 C121.921809,434.509107 123.385987,433.78125 125.095631,433.78125 C126.365168,433.78125 127.440027,434.09863 128.32024,434.733398 C129.200453,435.368167 129.850023,436.227208 130.268971,437.310547 C130.687918,438.393886 130.897389,439.659172 130.897389,441.106445 C130.897389,442.494473 130.668875,443.728022 130.211842,444.807129 C129.754808,445.886236 129.084079,446.736813 128.199635,447.358887 C127.31519,447.98096 126.280533,448.291992 125.095631,448.291992 C124.198491,448.291992 123.356377,448.090985 122.569264,447.688965 C121.78215,447.286945 121.151623,446.755863 120.677662,446.095703 C120.728444,447.00977 120.753834,447.898433 120.753834,448.761719 L120.753834,453.90332 L118.633717,454.042969 Z M124.803639,446.501953 C125.446871,446.501953 126.022386,446.355958 126.530201,446.063965 C127.038016,445.771971 127.448494,445.372073 127.761646,444.864258 C128.074799,444.356443 128.311776,443.778812 128.472584,443.131348 C128.633392,442.483883 128.713795,441.783532 128.713795,441.030273 C128.713795,439.43912 128.379488,438.133631 127.710865,437.11377 C127.042242,436.093908 126.064713,435.583984 124.778248,435.583984 C122.086828,435.583984 120.741139,437.323225 120.741139,440.801758 C120.741139,442.689137 121.056402,444.110998 121.686939,445.067383 C122.317476,446.023768 123.356366,446.501953 124.803639,446.501953 Z M134.361328,443.353516 L134.361328,434.073242 L136.494141,434.073242 L136.494141,443.378906 C136.494141,443.988284 136.580891,444.504555 136.754395,444.927734 C136.927898,445.350914 137.17757,445.678873 137.503418,445.911621 C137.829266,446.14437 138.197426,446.311523 138.60791,446.413086 C139.018394,446.514649 139.490232,446.56543 140.023438,446.56543 C141.123703,446.56543 141.980628,446.324221 142.594238,445.841797 C143.207848,445.359373 143.514648,444.538417 143.514648,443.378906 L143.514648,434.073242 L145.647461,434.073242 L145.647461,443.353516 C145.647461,444.064457 145.545899,444.703448 145.342773,445.270508 C145.139647,445.837568 144.866701,446.309406 144.523926,446.686035 C144.181151,447.062665 143.768557,447.373697 143.286133,447.619141 C142.803709,447.864585 142.293785,448.042317 141.756348,448.152344 C141.21891,448.26237 140.641279,448.317383 140.023438,448.317383 C139.414059,448.317383 138.838544,448.26237 138.296875,448.152344 C137.755206,448.042317 137.241051,447.862469 136.754395,447.612793 C136.267738,447.363117 135.848797,447.049969 135.497559,446.67334 C135.14632,446.29671 134.869142,445.824873 134.666016,445.257812 C134.46289,444.690752 134.361328,444.055993 134.361328,443.353516 Z M154.214916,448.253906 C152.843816,448.253906 151.870518,447.9196 151.294994,447.250977 C150.719471,446.582353 150.414786,445.503263 150.380932,444.013672 L150.380932,435.647461 L148.311596,435.647461 L148.400463,434.250977 L150.368236,434.073242 L151.091869,430.886719 L152.488354,430.835938 L152.488354,434.073242 L156.360424,434.073242 L156.360424,435.647461 L152.488354,435.647461 L152.488354,443.632812 C152.488354,444.69076 152.649159,445.435545 152.970776,445.867188 C153.292392,446.29883 153.842516,446.514648 154.621166,446.514648 C154.900464,446.514648 155.505602,446.446941 156.436596,446.311523 L156.525463,447.987305 C155.518297,448.16504 154.748122,448.253906 154.214916,448.253906 Z M163.899559,448.291992 C162.951637,448.291992 162.077785,448.190431 161.277977,447.987305 C160.478168,447.784179 159.828598,447.521812 159.329246,447.200195 L159.595848,445.410156 C161.009266,446.163415 162.397273,446.540039 163.75991,446.540039 C165.825025,446.540039 166.887189,445.812182 166.946434,444.356445 C166.946434,443.738604 166.726384,443.251955 166.286278,442.896484 C165.846171,442.541014 164.982899,442.143231 163.696434,441.703125 L162.642723,441.334961 C161.423967,440.928709 160.554347,440.425133 160.033836,439.824219 C159.513326,439.223304 159.248843,438.474288 159.240379,437.577148 C159.240379,436.485346 159.678363,435.579756 160.554344,434.860352 C161.430325,434.140947 162.63002,433.78125 164.153465,433.78125 C165.727692,433.78125 167.162248,434.085934 168.457176,434.695312 L167.835106,436.320312 C166.52325,435.778643 165.296049,435.507812 164.153465,435.507812 C163.264789,435.507812 162.568669,435.683429 162.065086,436.034668 C161.561503,436.385907 161.309715,436.878903 161.309715,437.513672 C161.309715,438.055341 161.491679,438.470051 161.855614,438.757812 C162.219548,439.045574 162.947405,439.375649 164.039207,439.748047 C164.318506,439.84961 164.669739,439.968098 165.092918,440.103516 C166.497873,440.560549 167.492329,441.100095 168.076317,441.722168 C168.660304,442.344241 168.952293,443.18424 168.952293,444.242188 C168.935366,445.528652 168.474108,446.525224 167.568504,447.231934 C166.662901,447.938643 165.439931,448.291992 163.899559,448.291992 Z" id="Inputs" fill="#FFFFFF"></path>
        <path d="M1024.94558,440.618164 C1024.94558,443.030285 1025.49994,444.923984 1026.60867,446.299316 C1027.7174,447.674649 1029.35508,448.362305 1031.52176,448.362305 C1033.68843,448.362305 1035.31976,447.676765 1036.4158,446.305664 C1037.51183,444.934563 1038.05984,443.038749 1038.05984,440.618164 C1038.05984,438.146798 1037.5076,436.229825 1036.4031,434.867188 C1035.29861,433.50455 1033.67574,432.823242 1031.53445,432.823242 C1029.39316,432.823242 1027.75972,433.50455 1026.63406,434.867188 C1025.5084,436.229825 1024.94558,438.146798 1024.94558,440.618164 Z M1040.40847,440.618164 C1040.40847,442.04851 1040.2117,443.356114 1039.81814,444.541016 C1039.42459,445.725917 1038.85753,446.743648 1038.11697,447.594238 C1037.37641,448.444828 1036.44331,449.104978 1035.31765,449.574707 C1034.192,450.044436 1032.92671,450.279297 1031.52176,450.279297 C1029.62591,450.279297 1028.00304,449.875167 1026.6531,449.066895 C1025.30316,448.258622 1024.29178,447.132982 1023.61892,445.689941 C1022.94607,444.2469 1022.60965,442.552093 1022.60965,440.605469 C1022.60965,437.600896 1023.39252,435.231128 1024.95828,433.496094 C1026.52404,431.761059 1028.71608,430.893555 1031.53445,430.893555 C1034.31051,430.893555 1036.4835,431.767407 1038.05349,433.515137 C1039.62349,435.262867 1040.40847,437.630519 1040.40847,440.618164 Z M1044.12632,445.353516 L1044.12632,436.073242 L1046.25913,436.073242 L1046.25913,445.378906 C1046.25913,445.988284 1046.34588,446.504555 1046.51939,446.927734 C1046.69289,447.350914 1046.94256,447.678873 1047.26841,447.911621 C1047.59426,448.14437 1047.96242,448.311523 1048.3729,448.413086 C1048.78339,448.514649 1049.25522,448.56543 1049.78843,448.56543 C1050.8887,448.56543 1051.74562,448.324221 1052.35923,447.841797 C1052.97284,447.359373 1053.27964,446.538417 1053.27964,445.378906 L1053.27964,436.073242 L1055.41245,436.073242 L1055.41245,445.353516 C1055.41245,446.064457 1055.31089,446.703448 1055.10777,447.270508 C1054.90464,447.837568 1054.63169,448.309406 1054.28892,448.686035 C1053.94614,449.062665 1053.53355,449.373697 1053.05112,449.619141 C1052.5687,449.864585 1052.05878,450.042317 1051.52134,450.152344 C1050.9839,450.26237 1050.40627,450.317383 1049.78843,450.317383 C1049.17905,450.317383 1048.60354,450.26237 1048.06187,450.152344 C1047.5202,450.042317 1047.00604,449.862469 1046.51939,449.612793 C1046.03273,449.363117 1045.61379,449.049969 1045.26255,448.67334 C1044.91131,448.29671 1044.63413,447.824873 1044.43101,447.257812 C1044.22788,446.690752 1044.12632,446.055993 1044.12632,445.353516 Z M1063.97991,450.253906 C1062.60881,450.253906 1061.63551,449.9196 1061.05999,449.250977 C1060.48446,448.582353 1060.17978,447.503263 1060.14592,446.013672 L1060.14592,437.647461 L1058.07659,437.647461 L1058.16545,436.250977 L1060.13323,436.073242 L1060.85686,432.886719 L1062.25335,432.835938 L1062.25335,436.073242 L1066.12542,436.073242 L1066.12542,437.647461 L1062.25335,437.647461 L1062.25335,445.632812 C1062.25335,446.69076 1062.41415,447.435545 1062.73577,447.867188 C1063.05738,448.29883 1063.60751,448.514648 1064.38616,448.514648 C1064.66546,448.514648 1065.27059,448.446941 1066.20159,448.311523 L1066.29045,449.987305 C1065.28329,450.16504 1064.51311,450.253906 1063.97991,450.253906 Z M1069.51318,456.042969 L1069.51318,436.073242 L1071.37939,436.073242 L1071.58252,437.964844 C1072.80128,436.509107 1074.26545,435.78125 1075.9751,435.78125 C1077.24464,435.78125 1078.31949,436.09863 1079.19971,436.733398 C1080.07992,437.368167 1080.72949,438.227208 1081.14844,439.310547 C1081.56738,440.393886 1081.77686,441.659172 1081.77686,443.106445 C1081.77686,444.494473 1081.54834,445.728022 1081.09131,446.807129 C1080.63428,447.886236 1079.96355,448.736813 1079.0791,449.358887 C1078.19466,449.98096 1077.16,450.291992 1075.9751,450.291992 C1075.07796,450.291992 1074.23584,450.090985 1073.44873,449.688965 C1072.66162,449.286945 1072.03109,448.755863 1071.55713,448.095703 C1071.60791,449.00977 1071.6333,449.898433 1071.6333,450.761719 L1071.6333,455.90332 L1069.51318,456.042969 Z M1075.68311,448.501953 C1076.32634,448.501953 1076.90185,448.355958 1077.40967,448.063965 C1077.91748,447.771971 1078.32796,447.372073 1078.64111,446.864258 C1078.95427,446.356443 1079.19124,445.778812 1079.35205,445.131348 C1079.51286,444.483883 1079.59326,443.783532 1079.59326,443.030273 C1079.59326,441.43912 1079.25896,440.133631 1078.59033,439.11377 C1077.92171,438.093908 1076.94418,437.583984 1075.65771,437.583984 C1072.9663,437.583984 1071.62061,439.323225 1071.62061,442.801758 C1071.62061,444.689137 1071.93587,446.110998 1072.56641,447.067383 C1073.19694,448.023768 1074.23583,448.501953 1075.68311,448.501953 Z M1085.2408,445.353516 L1085.2408,436.073242 L1087.37361,436.073242 L1087.37361,445.378906 C1087.37361,445.988284 1087.46036,446.504555 1087.63386,446.927734 C1087.80736,447.350914 1088.05704,447.678873 1088.38288,447.911621 C1088.70873,448.14437 1089.07689,448.311523 1089.48738,448.413086 C1089.89786,448.514649 1090.3697,448.56543 1090.9029,448.56543 C1092.00317,448.56543 1092.8601,448.324221 1093.47371,447.841797 C1094.08732,447.359373 1094.39412,446.538417 1094.39412,445.378906 L1094.39412,436.073242 L1096.52693,436.073242 L1096.52693,445.353516 C1096.52693,446.064457 1096.42537,446.703448 1096.22224,447.270508 C1096.01911,447.837568 1095.74617,448.309406 1095.40339,448.686035 C1095.06062,449.062665 1094.64802,449.373697 1094.1656,449.619141 C1093.68318,449.864585 1093.17325,450.042317 1092.63581,450.152344 C1092.09838,450.26237 1091.52075,450.317383 1090.9029,450.317383 C1090.29353,450.317383 1089.71801,450.26237 1089.17634,450.152344 C1088.63467,450.042317 1088.12052,449.862469 1087.63386,449.612793 C1087.14721,449.363117 1086.72826,449.049969 1086.37703,448.67334 C1086.02579,448.29671 1085.74861,447.824873 1085.54548,447.257812 C1085.34236,446.690752 1085.2408,446.055993 1085.2408,445.353516 Z M1105.09438,450.253906 C1103.72328,450.253906 1102.74998,449.9196 1102.17446,449.250977 C1101.59894,448.582353 1101.29425,447.503263 1101.2604,446.013672 L1101.2604,437.647461 L1099.19106,437.647461 L1099.27993,436.250977 L1101.2477,436.073242 L1101.97134,432.886719 L1103.36782,432.835938 L1103.36782,436.073242 L1107.23989,436.073242 L1107.23989,437.647461 L1103.36782,437.647461 L1103.36782,445.632812 C1103.36782,446.69076 1103.52863,447.435545 1103.85024,447.867188 C1104.17186,448.29883 1104.72198,448.514648 1105.50063,448.514648 C1105.77993,448.514648 1106.38507,448.446941 1107.31606,448.311523 L1107.40493,449.987305 C1106.39776,450.16504 1105.62759,450.253906 1105.09438,450.253906 Z" id="Output" fill="#FFFFFF"></path>
        <g id="Group-2" transform="translate(466.000000, 281.000000)" fill="#245466" fill-rule="nonzero">
            <rect id="Rectangle-3" x="0" y="0" width="120" height="79" rx="10"></rect>
            <rect id="Rectangle-3-Copy" x="0" y="238" width="120" height="79" rx="10"></rect>
        </g>
        <g id="Group-2-Copy" transform="translate(720.000000, 241.000000)" fill="#245466" fill-rule="nonzero">
            <path d="M10,0 L109,0 C114.522847,-1.01453063e-15 119,4.4771525 119,10 L119,69 C119,74.5228475 114.522847,79 109,79 L10,79 C4.4771525,79 7.78178111e-15,74.5228475 7.10542736e-15,69 L0,10 C-6.76353751e-16,4.4771525 4.4771525,1.01453063e-15 10,0 Z" id="Rectangle-3"></path>
            <path d="M10,318 L109,318 C114.522847,318 119,322.477153 119,328 L119,387 C119,392.522847 114.522847,397 109,397 L10,397 C4.4771525,397 7.78178111e-15,392.522847 7.10542736e-15,387 L0,328 C-6.76353751e-16,322.477153 4.4771525,318 10,318 Z" id="Rectangle-3-Copy"></path>
            <path d="M10,159 L109,159 C114.522847,159 119,163.477153 119,169 L119,228 C119,233.522847 114.522847,238 109,238 L10,238 C4.4771525,238 7.78178111e-15,233.522847 7.10542736e-15,228 L0,169 C-6.76353751e-16,163.477153 4.4771525,159 10,159 Z" id="Rectangle-3-Copy-2"></path>
        </g>
        <path d="M333,290 L466,319" id="Line-2" stroke="#245466" stroke-width="2" stroke-linecap="square" fill-rule="nonzero"></path>
        <path d="M332,290 L466,559" id="Line-2" stroke="#245466" stroke-width="2" stroke-linecap="square" fill-rule="nonzero"></path>
        <path d="M840,288 L922,439" id="Line-2" stroke="#245466" stroke-width="2" stroke-linecap="square" fill-rule="nonzero"></path>
        <path d="M333,562 L466,592" id="Line-2" stroke="#245466" stroke-width="2" stroke-linecap="square" fill-rule="nonzero" transform="translate(399.500000, 577.000000) scale(1, -1) translate(-399.500000, -577.000000) "></path>
        <path d="M332,321 L466,592" id="Line-2" stroke="#245466" stroke-width="2" stroke-linecap="square" fill-rule="nonzero" transform="translate(399.000000, 456.500000) scale(1, -1) translate(-399.000000, -456.500000) "></path>
        <path d="M840,443 L922,600" id="Line-2" stroke="#245466" stroke-width="2" stroke-linecap="square" fill-rule="nonzero" transform="translate(881.000000, 521.500000) scale(1, -1) translate(-881.000000, -521.500000) "></path>
        <path d="M333,561 L466,441" id="Line-2" stroke="#245466" stroke-width="2" stroke-linecap="square" fill-rule="nonzero" transform="translate(399.500000, 501.000000) scale(1, -1) translate(-399.500000, -501.000000) "></path>
        <path d="M332,320 L465,440" id="Line-2" stroke="#245466" stroke-width="2" stroke-linecap="square" fill-rule="nonzero" transform="translate(398.500000, 380.000000) scale(1, -1) translate(-398.500000, -380.000000) "></path>
        <path d="M840,441 L921.824219,441" id="Line-2" stroke="#245466" stroke-width="2" stroke-linecap="square" fill-rule="nonzero" transform="translate(880.912109, 441.000000) scale(1, -1) translate(-880.912109, -441.000000) "></path>
        <path d="M587,439 L720,322" id="Line-2" stroke="#245466" stroke-width="2" stroke-linecap="square" fill-rule="nonzero" transform="translate(653.500000, 380.500000) scale(1, -1) translate(-653.500000, -380.500000) "></path>
        <path d="M586,599 L720,322" id="Line-2" stroke="#245466" stroke-width="2" stroke-linecap="square" fill-rule="nonzero" transform="translate(653.000000, 460.500000) scale(1, -1) translate(-653.000000, -460.500000) "></path>
        <path d="M586,280 L719,321" id="Line-2" stroke="#245466" stroke-width="2" stroke-linecap="square" fill-rule="nonzero" transform="translate(652.500000, 300.500000) scale(1, -1) translate(-652.500000, -300.500000) "></path>
        <path d="M587,557 L720,440" id="Line-2" stroke="#245466" stroke-width="2" stroke-linecap="square" fill-rule="nonzero"></path>
        <path d="M587,557 L720,280" id="Line-2" stroke="#245466" stroke-width="2" stroke-linecap="square" fill-rule="nonzero"></path>
        <path d="M586,558 L719,599" id="Line-2" stroke="#245466" stroke-width="2" stroke-linecap="square" fill-rule="nonzero"></path>
        <circle id="Oval" fill="#245466" fill-rule="nonzero" cx="964" cy="441" r="41"></circle>
        <circle id="Oval-Copy-3" fill="#245466" fill-rule="nonzero" cx="290" cy="290" r="41"></circle>
        <circle id="Oval-Copy-4" fill="#245466" fill-rule="nonzero" cx="290" cy="439" r="41"></circle>
        <circle id="Oval-Copy-5" fill="#245466" fill-rule="nonzero" cx="290" cy="587" r="41"></circle>
        <path d="M272.508301,296.370117 C272.508301,295.969725 272.620604,295.549807 272.845215,295.110352 C272.981934,294.86621 273.240721,294.744141 273.621582,294.744141 L274.310059,294.744141 C274.710451,294.744141 275.025389,294.739258 275.254883,294.729492 C275.484376,294.719727 275.674804,294.680664 275.826172,294.612305 C275.97754,294.543945 276.072754,294.5 276.111816,294.480469 C276.150879,294.460937 276.243652,294.382813 276.390137,294.246094 L284.812988,286.086914 L280.491699,278.425781 L278.719238,278.425781 C278.025875,278.425781 277.679199,278.21094 277.679199,277.78125 C277.679199,277.71289 277.728027,277.458987 277.825684,277.019531 C277.903809,276.63867 278.028319,276.399415 278.199219,276.301758 C278.370118,276.204101 278.685056,276.155273 279.144043,276.155273 C279.222168,276.155273 279.375975,276.160156 279.605469,276.169922 C279.834962,276.179688 280.032714,276.18457 280.19873,276.18457 L284.270996,276.18457 C284.808108,276.18457 285.081543,276.384764 285.091309,276.785156 C285.091309,276.960938 285.047364,277.22949 284.959473,277.59082 C284.900879,277.854494 284.817872,278.049804 284.710449,278.176758 C284.603027,278.303712 284.50293,278.376953 284.410156,278.396484 C284.317382,278.416016 284.163575,278.425781 283.94873,278.425781 L287.039551,283.889648 L292.679199,278.425781 C292.220213,278.40625 291.990723,278.196291 291.990723,277.795898 C291.990723,277.67871 292.029785,277.439455 292.10791,277.078125 C292.205567,276.716795 292.315429,276.47754 292.4375,276.360352 C292.559571,276.243163 292.786619,276.18457 293.118652,276.18457 L298.406738,276.18457 C298.963382,276.18457 299.241699,276.394529 299.241699,276.814453 C299.241699,277.234377 299.144044,277.644529 298.94873,278.044922 C298.831542,278.298829 298.572756,278.425781 298.172363,278.425781 L297.894043,278.425781 C296.937007,278.425781 296.343751,278.445312 296.114258,278.484375 C295.884764,278.523438 295.64795,278.655272 295.403809,278.879883 L288.16748,285.896484 L293.177246,294.744141 L294.949707,294.744141 C295.652836,294.744141 296.004395,294.954099 296.004395,295.374023 C296.004395,295.452149 295.955567,295.715818 295.85791,296.165039 C295.799316,296.38965 295.743164,296.545898 295.689453,296.633789 C295.635742,296.72168 295.550294,296.804687 295.433105,296.882812 C295.315917,296.960938 295.135255,297 294.891113,297 L289.397949,297 C288.860837,297 288.592285,296.790041 288.592285,296.370117 C288.592285,296.213866 288.631347,295.95508 288.709473,295.59375 C288.807129,295.212889 288.926757,294.976075 289.068359,294.883301 C289.209962,294.790527 289.432127,294.744141 289.734863,294.744141 L285.955566,288.064453 L279.085449,294.744141 C279.544436,294.763672 279.773926,294.973631 279.773926,295.374023 C279.773926,295.530274 279.734864,295.774412 279.656738,296.106445 C279.578613,296.487307 279.473633,296.731445 279.341797,296.838867 C279.20996,296.94629 278.973146,297 278.631348,297 L273.35791,297 C272.791501,297 272.508301,296.790041 272.508301,296.370117 Z" id="X" fill="#37C3BE"></path>
        <path d="M272.508301,444.370117 C272.508301,443.969725 272.620604,443.549807 272.845215,443.110352 C272.981934,442.86621 273.240721,442.744141 273.621582,442.744141 L274.310059,442.744141 C274.710451,442.744141 275.025389,442.739258 275.254883,442.729492 C275.484376,442.719727 275.674804,442.680664 275.826172,442.612305 C275.97754,442.543945 276.072754,442.5 276.111816,442.480469 C276.150879,442.460937 276.243652,442.382813 276.390137,442.246094 L284.812988,434.086914 L280.491699,426.425781 L278.719238,426.425781 C278.025875,426.425781 277.679199,426.21094 277.679199,425.78125 C277.679199,425.71289 277.728027,425.458987 277.825684,425.019531 C277.903809,424.63867 278.028319,424.399415 278.199219,424.301758 C278.370118,424.204101 278.685056,424.155273 279.144043,424.155273 C279.222168,424.155273 279.375975,424.160156 279.605469,424.169922 C279.834962,424.179688 280.032714,424.18457 280.19873,424.18457 L284.270996,424.18457 C284.808108,424.18457 285.081543,424.384764 285.091309,424.785156 C285.091309,424.960938 285.047364,425.22949 284.959473,425.59082 C284.900879,425.854494 284.817872,426.049804 284.710449,426.176758 C284.603027,426.303712 284.50293,426.376953 284.410156,426.396484 C284.317382,426.416016 284.163575,426.425781 283.94873,426.425781 L287.039551,431.889648 L292.679199,426.425781 C292.220213,426.40625 291.990723,426.196291 291.990723,425.795898 C291.990723,425.67871 292.029785,425.439455 292.10791,425.078125 C292.205567,424.716795 292.315429,424.47754 292.4375,424.360352 C292.559571,424.243163 292.786619,424.18457 293.118652,424.18457 L298.406738,424.18457 C298.963382,424.18457 299.241699,424.394529 299.241699,424.814453 C299.241699,425.234377 299.144044,425.644529 298.94873,426.044922 C298.831542,426.298829 298.572756,426.425781 298.172363,426.425781 L297.894043,426.425781 C296.937007,426.425781 296.343751,426.445312 296.114258,426.484375 C295.884764,426.523438 295.64795,426.655272 295.403809,426.879883 L288.16748,433.896484 L293.177246,442.744141 L294.949707,442.744141 C295.652836,442.744141 296.004395,442.954099 296.004395,443.374023 C296.004395,443.452149 295.955567,443.715818 295.85791,444.165039 C295.799316,444.38965 295.743164,444.545898 295.689453,444.633789 C295.635742,444.72168 295.550294,444.804687 295.433105,444.882812 C295.315917,444.960938 295.135255,445 294.891113,445 L289.397949,445 C288.860837,445 288.592285,444.790041 288.592285,444.370117 C288.592285,444.213866 288.631347,443.95508 288.709473,443.59375 C288.807129,443.212889 288.926757,442.976075 289.068359,442.883301 C289.209962,442.790527 289.432127,442.744141 289.734863,442.744141 L285.955566,436.064453 L279.085449,442.744141 C279.544436,442.763672 279.773926,442.973631 279.773926,443.374023 C279.773926,443.530274 279.734864,443.774412 279.656738,444.106445 C279.578613,444.487307 279.473633,444.731445 279.341797,444.838867 C279.20996,444.94629 278.973146,445 278.631348,445 L273.35791,445 C272.791501,445 272.508301,444.790041 272.508301,444.370117 Z" id="X-Copy" fill="#37C3BE"></path>
        <path d="M272.508301,592.370117 C272.508301,591.969725 272.620604,591.549807 272.845215,591.110352 C272.981934,590.86621 273.240721,590.744141 273.621582,590.744141 L274.310059,590.744141 C274.710451,590.744141 275.025389,590.739258 275.254883,590.729492 C275.484376,590.719727 275.674804,590.680664 275.826172,590.612305 C275.97754,590.543945 276.072754,590.5 276.111816,590.480469 C276.150879,590.460937 276.243652,590.382813 276.390137,590.246094 L284.812988,582.086914 L280.491699,574.425781 L278.719238,574.425781 C278.025875,574.425781 277.679199,574.21094 277.679199,573.78125 C277.679199,573.71289 277.728027,573.458987 277.825684,573.019531 C277.903809,572.63867 278.028319,572.399415 278.199219,572.301758 C278.370118,572.204101 278.685056,572.155273 279.144043,572.155273 C279.222168,572.155273 279.375975,572.160156 279.605469,572.169922 C279.834962,572.179688 280.032714,572.18457 280.19873,572.18457 L284.270996,572.18457 C284.808108,572.18457 285.081543,572.384764 285.091309,572.785156 C285.091309,572.960938 285.047364,573.22949 284.959473,573.59082 C284.900879,573.854494 284.817872,574.049804 284.710449,574.176758 C284.603027,574.303712 284.50293,574.376953 284.410156,574.396484 C284.317382,574.416016 284.163575,574.425781 283.94873,574.425781 L287.039551,579.889648 L292.679199,574.425781 C292.220213,574.40625 291.990723,574.196291 291.990723,573.795898 C291.990723,573.67871 292.029785,573.439455 292.10791,573.078125 C292.205567,572.716795 292.315429,572.47754 292.4375,572.360352 C292.559571,572.243163 292.786619,572.18457 293.118652,572.18457 L298.406738,572.18457 C298.963382,572.18457 299.241699,572.394529 299.241699,572.814453 C299.241699,573.234377 299.144044,573.644529 298.94873,574.044922 C298.831542,574.298829 298.572756,574.425781 298.172363,574.425781 L297.894043,574.425781 C296.937007,574.425781 296.343751,574.445312 296.114258,574.484375 C295.884764,574.523438 295.64795,574.655272 295.403809,574.879883 L288.16748,581.896484 L293.177246,590.744141 L294.949707,590.744141 C295.652836,590.744141 296.004395,590.954099 296.004395,591.374023 C296.004395,591.452149 295.955567,591.715818 295.85791,592.165039 C295.799316,592.38965 295.743164,592.545898 295.689453,592.633789 C295.635742,592.72168 295.550294,592.804687 295.433105,592.882812 C295.315917,592.960938 295.135255,593 294.891113,593 L289.397949,593 C288.860837,593 288.592285,592.790041 288.592285,592.370117 C288.592285,592.213866 288.631347,591.95508 288.709473,591.59375 C288.807129,591.212889 288.926757,590.976075 289.068359,590.883301 C289.209962,590.790527 289.432127,590.744141 289.734863,590.744141 L285.955566,584.064453 L279.085449,590.744141 C279.544436,590.763672 279.773926,590.973631 279.773926,591.374023 C279.773926,591.530274 279.734864,591.774412 279.656738,592.106445 C279.578613,592.487307 279.473633,592.731445 279.341797,592.838867 C279.20996,592.94629 278.973146,593 278.631348,593 L273.35791,593 C272.791501,593 272.508301,592.790041 272.508301,592.370117 Z" id="X-Copy-2" fill="#37C3BE"></path>
        <path d="M298.283203,307.516602 C298.340495,306.900713 298.487304,306.535482 298.723633,306.420898 C298.809571,306.377929 298.942056,306.352865 299.121094,306.345703 L301.720703,306.345703 L304.223633,296.269531 C303.185216,296.914066 302.239913,297.239909 301.387695,297.24707 C301.022459,297.24707 300.839844,297.100262 300.839844,296.806641 C300.839844,296.677734 300.882812,296.462892 300.96875,296.162109 C301.040365,295.897134 301.124511,295.736003 301.221191,295.678711 C301.317872,295.621419 301.527342,295.578451 301.849609,295.549805 C302.171877,295.521159 302.494139,295.445964 302.816406,295.324219 C303.962245,294.901691 304.989904,294.096035 305.899414,292.907227 C306.092774,292.670897 306.289713,292.552734 306.490234,292.552734 C306.812502,292.552734 306.973633,292.692381 306.973633,292.97168 C306.973633,293.086264 306.966471,293.16862 306.952148,293.21875 L303.987305,305.035156 C303.958659,305.178386 303.906739,305.396808 303.831543,305.69043 C303.756347,305.984051 303.704427,306.202473 303.675781,306.345703 L306.02832,306.345703 C306.465171,306.345703 306.683594,306.499673 306.683594,306.807617 C306.683594,307.101238 306.604818,307.409178 306.447266,307.731445 C306.347005,307.910483 306.157228,308 305.87793,308 L299.035156,308 C298.533852,308 298.283203,307.838869 298.283203,307.516602 Z" id="1" fill="#37C3BE"></path>
        <path d="M296.897461,455.957031 C296.897461,455.792317 296.978027,455.509442 297.13916,455.108398 C297.300294,454.707355 297.541991,454.227542 297.864258,453.668945 C298.186525,453.110349 298.662757,452.523115 299.292969,451.907227 C299.92318,451.291338 300.628577,450.764976 301.40918,450.328125 C301.74577,450.134765 302.266761,449.880535 302.972168,449.56543 C303.677575,449.250324 304.250486,448.97103 304.690918,448.727539 C305.13135,448.484048 305.59684,448.168947 306.087402,447.782227 C306.577965,447.395506 306.946776,446.926435 307.193848,446.375 C307.440919,445.823565 307.564453,445.196944 307.564453,444.495117 C307.564453,443.628576 307.304853,443.019859 306.785645,442.668945 C306.266436,442.318032 305.634444,442.142578 304.889648,442.142578 C303.686517,442.142578 302.662439,442.600907 301.817383,443.517578 C300.972327,444.434249 300.549805,445.207679 300.549805,445.837891 C300.549805,446.102866 300.675129,446.235352 300.925781,446.235352 C301.291017,446.235352 301.6652,446.007978 302.04834,445.553223 C302.43148,445.098468 302.623047,444.688478 302.623047,444.323242 C302.623047,444.194335 302.578288,444.054688 302.48877,443.904297 C302.399251,443.753905 302.354492,443.650065 302.354492,443.592773 C302.354492,443.463867 302.529946,443.259767 302.880859,442.980469 C303.231773,442.70117 303.468098,442.561523 303.589844,442.561523 C303.733074,442.561523 303.892414,442.719074 304.067871,443.03418 C304.243328,443.349285 304.331055,443.68229 304.331055,444.033203 C304.331055,444.813806 303.953292,445.653479 303.197754,446.552246 C302.442216,447.451014 301.566737,447.900391 300.571289,447.900391 C300.041338,447.900391 299.600913,447.732098 299.25,447.395508 C298.899087,447.058918 298.723633,446.625654 298.723633,446.095703 C298.723633,445.623045 298.877603,445.073408 299.185547,444.446777 C299.493491,443.820147 299.916013,443.206058 300.453125,442.604492 C300.990237,442.002927 301.67594,441.496259 302.510254,441.084473 C303.344568,440.672687 304.223628,440.466797 305.147461,440.466797 C305.663089,440.466797 306.159015,440.529459 306.635254,440.654785 C307.111493,440.780111 307.580564,440.98242 308.04248,441.261719 C308.504397,441.541017 308.878579,441.954587 309.165039,442.502441 C309.451499,443.050296 309.594727,443.700192 309.594727,444.452148 C309.594727,445.211267 309.45866,445.914873 309.186523,446.562988 C308.914387,447.211104 308.579592,447.746417 308.182129,448.168945 C307.784666,448.591473 307.297692,448.997882 306.721191,449.388184 C306.144691,449.778485 305.612958,450.086425 305.125977,450.312012 C304.638995,450.537599 304.100101,450.790038 303.509277,451.069336 C302.918454,451.348634 302.4834,451.570637 302.204102,451.735352 C301.559567,452.114911 300.9043,452.634111 300.238281,453.292969 C300.811201,453.335938 301.618647,453.507811 302.660645,453.808594 C303.702642,454.109377 304.510088,454.259766 305.083008,454.259766 C305.612958,454.259766 306.116046,454.07715 306.592285,453.711914 C307.068525,453.346678 307.417642,452.856123 307.639648,452.240234 C307.711263,452.046874 307.779297,451.928711 307.84375,451.885742 C307.908203,451.842773 308.037108,451.821289 308.230469,451.821289 L308.799805,451.821289 C309.222333,451.821289 309.433594,451.917968 309.433594,452.111328 C309.433594,452.333334 309.324383,452.659178 309.105957,453.088867 C308.887531,453.518557 308.595705,453.975095 308.230469,454.458496 C307.865233,454.941897 307.367516,455.360838 306.737305,455.715332 C306.107093,456.069826 305.444665,456.24707 304.75,456.24707 C304.119789,456.24707 303.213873,456.026858 302.032227,455.586426 C300.85058,455.145994 300.084312,454.925781 299.733398,454.925781 C299.604492,454.925781 299.504232,454.932943 299.432617,454.947266 C299.196288,455.004558 298.990398,455.215818 298.814941,455.581055 C298.639485,455.946291 298.544596,456.136068 298.530273,456.150391 C298.444336,456.207683 298.297527,456.239909 298.089844,456.24707 L297.466797,456.24707 C297.087238,456.24707 296.897461,456.150392 296.897461,455.957031 Z" id="2" fill="#37C3BE"></path>
        <path d="M297.488281,601.25 C297.488281,600.619789 297.627928,600.16504 297.907227,599.885742 C298.186525,599.606444 298.501626,599.466797 298.852539,599.466797 C299.103191,599.466797 299.316243,599.547362 299.491699,599.708496 C299.667156,599.86963 299.754883,600.07552 299.754883,600.326172 C299.754883,600.548178 299.694011,600.761229 299.572266,600.965332 C299.45052,601.169435 299.389648,601.307291 299.389648,601.378906 C299.389648,601.49349 299.44694,601.636718 299.561523,601.808594 C299.676107,601.98047 299.921385,602.154133 300.297363,602.32959 C300.673342,602.505046 301.140622,602.592773 301.699219,602.592773 C303.23894,602.592773 304.341794,602.240075 305.007812,601.534668 C305.673831,600.829261 306.006836,599.921555 306.006836,598.811523 C306.006836,598.446287 305.944174,598.134767 305.818848,597.876953 C305.693522,597.619139 305.550294,597.427572 305.38916,597.302246 C305.228027,597.17692 305.011395,597.082032 304.739258,597.017578 C304.467121,596.953125 304.25407,596.915527 304.100098,596.904785 C303.946126,596.894043 303.747397,596.888672 303.503906,596.888672 L302.666016,596.888672 C302.580078,596.888672 302.506673,596.88151 302.445801,596.867188 C302.384928,596.852865 302.329427,596.817058 302.279297,596.759766 C302.229166,596.702474 302.211263,596.616537 302.225586,596.501953 C302.225586,596.48763 302.239909,596.399903 302.268555,596.23877 C302.297201,596.077636 302.340169,595.903972 302.397461,595.717773 C302.454753,595.531575 302.504883,595.409831 302.547852,595.352539 C302.633789,595.266601 302.819986,595.223633 303.106445,595.223633 L303.632812,595.223633 C304.134117,595.223633 304.529784,595.212891 304.819824,595.191406 C305.109865,595.169922 305.457192,595.085775 305.861816,594.938965 C306.266441,594.792154 306.615558,594.579103 306.90918,594.299805 C307.596683,593.626624 307.94043,592.795903 307.94043,591.807617 C307.94043,590.690424 307.134774,590.135417 305.523438,590.142578 C304.377598,590.142578 303.475264,590.377114 302.816406,590.846191 C302.157549,591.315269 301.828125,591.768227 301.828125,592.205078 C301.828125,592.427084 301.939126,592.538086 302.161133,592.538086 C302.29004,592.538086 302.402832,592.502279 302.499512,592.430664 C302.596192,592.359049 302.644531,592.269532 302.644531,592.162109 C302.644531,592.076171 302.596192,591.974122 302.499512,591.855957 C302.402832,591.737792 302.354492,591.650065 302.354492,591.592773 C302.354492,591.492513 302.533527,591.295574 302.891602,591.001953 C303.249676,590.708332 303.489583,590.561523 303.611328,590.561523 C303.754558,590.561523 303.91748,590.69938 304.100098,590.975098 C304.282716,591.250815 304.374023,591.567707 304.374023,591.925781 C304.374023,592.54167 304.107262,593.076983 303.57373,593.531738 C303.040199,593.986493 302.444014,594.213867 301.785156,594.213867 C301.269529,594.213867 300.843426,594.059897 300.506836,593.751953 C300.170246,593.444009 300.001953,593.032229 300.001953,592.516602 C300.001953,591.492508 300.565912,590.561528 301.693848,589.723633 C302.821783,588.885738 304.194979,588.466797 305.813477,588.466797 C307.002285,588.466797 307.972652,588.73893 308.724609,589.283203 C309.476566,589.827477 309.852539,590.625971 309.852539,591.678711 C309.852539,592.530929 309.6001,593.367021 309.095215,594.187012 C308.59033,595.007003 307.883143,595.660479 306.973633,596.147461 C307.675459,596.849287 308.026367,597.730138 308.026367,598.790039 C308.026367,599.978847 307.696943,600.997554 307.038086,601.846191 C306.379228,602.694828 305.56283,603.307127 304.588867,603.683105 C303.614904,604.059084 302.547857,604.24707 301.387695,604.24707 C300.21321,604.24707 299.269698,603.967776 298.557129,603.40918 C297.84456,602.850583 297.488281,602.130864 297.488281,601.25 Z" id="3" fill="#37C3BE"></path>
        <path d="M948.025391,432.927734 C948.025391,432.400388 948.279294,431.638677 948.787109,430.642578 C949.294924,429.646479 949.954098,428.58692 950.764648,427.463867 C951.575199,426.340815 952.673821,425.369145 954.060547,424.548828 C955.447273,423.728512 956.882805,423.318359 958.367188,423.318359 C960.320322,423.318359 961.838862,423.860346 962.922852,424.944336 C964.006841,426.028326 964.548828,427.283196 964.548828,428.708984 C964.548828,429.548832 963.84571,431.790021 962.439453,435.432617 C961.033196,439.075214 960.330078,441.794913 960.330078,443.591797 C960.330078,446.38478 961.775376,447.791016 964.666016,447.810547 C965.818365,447.810547 966.912104,447.468753 967.947266,446.785156 C968.982427,446.101559 969.841793,445.227544 970.525391,444.163086 C971.208988,443.098627 971.741209,442.170902 972.12207,441.379883 C972.502932,440.588863 972.810546,439.832035 973.044922,439.109375 C973.083985,438.992187 973.645502,436.750998 974.729492,432.385742 C975.813482,428.020486 976.453124,425.681642 976.648438,425.369141 C977.292972,424.255854 978.1914,423.689453 979.34375,423.669922 C979.949222,423.669922 980.471677,423.870115 980.911133,424.270508 C981.350588,424.6709 981.570312,425.173825 981.570312,425.779297 C981.570312,426.228518 981.472657,426.746091 981.277344,427.332031 L975.447266,450.623047 L975.330078,451.267578 C975.21289,451.658205 975.115235,451.975585 975.037109,452.219727 C974.958984,452.463868 974.836915,452.859372 974.670898,453.40625 C974.504882,453.953128 974.304689,454.426756 974.070312,454.827148 C973.835936,455.227541 973.557619,455.715817 973.235352,456.291992 C972.913084,456.868167 972.532229,457.395505 972.092773,457.874023 C971.653318,458.352541 971.165042,458.865232 970.62793,459.412109 C970.090818,459.958987 969.460941,460.471677 968.738281,460.950195 C968.015621,461.428713 967.234379,461.863279 966.394531,462.253906 C963.992175,463.406256 961.570325,463.992187 959.128906,464.011719 C956.921864,464.011719 955.12989,463.528325 953.75293,462.561523 C952.37597,461.594722 951.6875,460.349617 951.6875,458.826172 C951.6875,457.673822 952.039059,456.736332 952.742188,456.013672 C953.445316,455.291012 954.294917,454.929688 955.291016,454.929688 C955.974613,454.929688 956.555662,455.139646 957.03418,455.55957 C957.512698,455.979494 957.751953,456.531247 957.751953,457.214844 C957.751953,457.74219 957.576174,458.367184 957.224609,459.089844 C957.986332,459.363283 958.845698,459.5 959.802734,459.5 C961.970714,459.5 963.972647,458.831061 965.808594,457.493164 C967.64454,456.155267 968.923825,454.519541 969.646484,452.585938 C969.802735,452.136717 970.017577,451.345709 970.291016,450.212891 C968.083973,451.638679 965.935557,452.351562 963.845703,452.351562 L963.757812,452.351562 C961.355457,452.351562 959.29493,451.750983 957.576172,450.549805 C955.857413,449.348627 954.998047,447.332045 954.998047,444.5 C954.998047,442.253895 955.686517,439.260761 957.063477,435.520508 C958.440437,431.780255 959.128906,429.773439 959.128906,429.5 C959.128906,429.011716 958.977541,428.621095 958.674805,428.328125 C958.372069,428.035155 958.005862,427.888672 957.576172,427.888672 C956.658199,427.888672 955.779301,428.357417 954.939453,429.294922 C954.099605,430.232427 953.435549,431.40429 952.947266,432.810547 C952.791015,433.201174 952.625001,433.455078 952.449219,433.572266 C952.273437,433.689454 951.96094,433.748047 951.511719,433.748047 L949.460938,433.748047 C948.503901,433.748047 948.025391,433.474612 948.025391,432.927734 Z" id="y" fill="#37C3BE"></path>
        <path d="M525.5,402 L525.5,398 C528.147064,398 530.783477,397.942617 533.406402,397.828358 L533.580484,401.824568 C530.899559,401.941354 528.205106,402 525.5,402 Z M541.664972,401.292788 L541.313495,397.30826 C543.953891,397.075349 546.575222,396.784142 549.174158,396.435434 L549.706084,400.399908 C547.047102,400.756673 544.365606,401.054564 541.664972,401.292788 Z M557.699715,399.13785 L556.983453,395.202501 C559.593542,394.727446 562.17427,394.193406 564.721765,393.60158 L565.626926,397.49782 C563.016661,398.104228 560.372947,398.651302 557.699715,399.13785 Z M573.495431,395.461222 L572.395261,391.615494 C574.948296,390.885133 577.459142,390.095352 579.923344,389.247909 L581.224176,393.030479 C578.693418,393.90081 576.115661,394.711638 573.495431,395.461222 Z M588.808785,390.186634 L587.300006,386.482097 C589.762265,385.479272 592.166129,384.417013 594.506561,383.297831 L596.232188,386.906461 C593.820055,388.05993 591.343875,389.154146 588.808785,390.186634 Z M603.474491,383.157315 L601.521226,379.666648 C603.843952,378.366925 606.087414,377.008592 608.246068,375.595155 L610.437247,378.941606 C608.200401,380.406242 605.877579,381.812625 603.474491,383.157315 Z M617.065022,374.237475 L614.625145,371.067774 C616.733412,369.444936 618.735791,367.766016 620.626475,366.035759 L623.326939,368.986605 C621.35172,370.794225 619.262372,372.546064 617.065022,374.237475 Z M629.112625,363.170833 L626.142878,360.491168 C627.917681,358.524238 629.553944,356.506913 631.046126,354.445244 L634.286455,356.790508 C632.709202,358.969716 630.982526,361.09851 629.112625,363.170833 Z M638.732378,349.804398 L635.231119,347.870184 C636.499162,345.574807 637.594221,343.239396 638.511804,340.870761 L642.241709,342.315684 C641.258379,344.854039 640.086746,347.352758 638.732378,349.804398 Z M644.681554,334.324181 L640.779199,333.445758 C641.345072,330.931892 641.715675,328.392578 641.887972,325.833976 L645.878933,326.102728 C645.692764,328.867333 645.292418,331.610446 644.681554,334.324181 Z M645.797135,317.839154 L641.812286,318.186967 C641.589453,315.63399 641.168806,313.101217 640.553469,310.594894 L644.438105,309.641163 C645.102113,312.345727 645.556396,315.081032 645.797135,317.839154 Z M641.867834,301.74336 L638.163347,303.252261 C637.205033,300.899515 636.071004,298.5808 634.765838,296.302918 L638.236498,294.314322 C639.62934,296.745223 640.841666,299.224028 641.867834,301.74336 Z M633.715923,287.432167 L630.50704,289.820278 C628.986887,287.777663 627.324618,285.779923 625.525815,283.833042 L628.463763,281.118551 C630.357562,283.168248 632.110353,285.274778 633.715923,287.432167 Z M622.589473,275.345842 L619.921213,278.32584 C618.010994,276.615449 615.990885,274.956705 613.866687,273.354269 L616.275614,270.160983 C618.488374,271.830229 620.59503,273.560038 622.589473,275.345842 Z M609.611849,265.523092 L607.45001,268.888572 C605.278013,267.493375 603.022625,266.15345 600.689366,264.872238 L602.614641,261.366055 C605.027767,262.691123 607.362063,264.077927 609.611849,265.523092 Z M595.369279,257.68471 L593.669641,261.305653 C591.320255,260.202873 588.908523,259.157097 586.43945,258.170787 L587.923302,254.456196 C590.464833,255.471451 592.948526,256.548431 595.369279,257.68471 Z M580.279695,251.64821 L579.003942,255.439312 C576.532675,254.6077 574.015644,253.833814 571.457273,253.119375 L572.533132,249.266775 C575.158434,249.999905 577.742119,250.794284 580.279695,251.64821 Z M564.650588,247.27848 L563.769068,251.180137 C561.217086,250.603555 558.632596,250.084772 556.019439,249.624959 L556.712632,245.685482 C559.388736,246.156371 562.03602,246.687758 564.650588,247.27848 Z M548.668512,244.464013 L548.160128,248.431574 C545.558843,248.098258 542.935793,247.822411 540.294273,247.604809 L540.622671,243.618312 C543.32427,243.840864 546.007331,244.123021 548.668512,244.464013 Z M532.578596,243.134519 L532.426259,247.131617 C530.126896,247.043984 527.817511,247 525.5,247 C525.174172,247 524.8485,247.000869 524.52299,247.002607 L524.501633,243.002664 C524.834262,243.000888 525.167053,243 525.5,243 C527.868299,243 530.228472,243.044952 532.578596,243.134519 Z M516.419846,243.221704 L516.615673,247.216907 C513.968971,247.346637 511.337444,247.534315 508.724202,247.779285 L508.350872,243.796745 C511.023213,243.546235 513.713921,243.354336 516.419846,243.221704 Z M500.297246,244.736722 L500.851863,248.698086 C498.226161,249.065702 495.625031,249.491998 493.052103,249.97597 L492.312665,246.04491 C494.947048,245.549379 497.609801,245.112983 500.297246,244.736722 Z M484.392262,247.733207 L485.321289,251.623825 C482.739184,252.240396 480.193289,252.916254 477.687804,253.649904 L476.563732,249.811094 C479.133968,249.058483 481.744899,248.365361 484.392262,247.733207 Z M468.850629,252.291083 L470.176191,256.065058 C467.668719,256.945776 465.21205,257.886014 462.810971,258.883619 L461.27624,255.189759 C463.746591,254.163373 466.273011,253.196439 468.850629,252.291083 Z M453.852114,258.535767 L455.605566,262.130959 C453.213893,263.297429 450.891703,264.523037 448.644337,265.804742 L446.662701,262.330102 C448.985301,261.00549 451.383596,259.739716 453.852114,258.535767 Z M439.702412,266.627431 L441.924531,269.953418 C439.712111,271.431554 437.593126,272.967116 435.573309,274.55593 L433.100277,271.412029 C435.202063,269.758738 437.404764,268.162509 439.702412,266.627431 Z M426.934559,276.696813 L429.667718,279.617401 C427.728811,281.43188 425.913449,283.299733 424.227378,285.215468 L421.224698,282.572759 C422.996988,280.55906 424.90235,278.598604 426.934559,276.696813 Z M416.113132,289.051771 L419.387026,291.349949 C417.872181,293.507938 416.515652,295.711139 415.322489,297.952941 L411.791467,296.073611 C413.062516,293.685471 414.505061,291.342567 416.113132,289.051771 Z M408.386948,303.669186 L412.142363,305.046451 C411.247804,307.485661 410.541413,309.957022 410.026849,312.453911 L406.109175,311.646548 C406.663944,308.954569 407.424756,306.292811 408.386948,303.669186 Z M405.063342,319.892681 L409.058616,320.087065 C409.019565,320.889707 409,321.694076 409,322.5 C409,324.259694 409.093274,326.011878 409.278971,327.754707 L405.301485,328.178504 C405.100805,326.295051 405,324.401404 405,322.5 C405,321.629238 405.021141,320.760055 405.063342,319.892681 Z M406.822462,336.378142 L410.688257,335.350703 C411.341806,337.809717 412.18295,340.240599 413.207756,342.636614 L409.530033,344.209622 C408.430083,341.637918 407.525889,339.024826 406.822462,336.378142 Z M413.279591,351.570303 L416.718825,349.527838 C418.016045,351.712179 419.470361,353.855903 421.076535,355.952553 L417.90119,358.385079 C416.200488,356.165034 414.65793,353.89124 413.279591,351.570303 Z M423.243894,364.63779 L426.147653,361.886757 C427.90537,363.742054 429.7865,365.548212 431.785256,367.29998 L429.148803,370.308156 C427.057952,368.475672 425.087579,366.583828 423.243894,364.63779 Z M435.531012,375.441356 L437.908709,372.224749 C439.978258,373.754548 442.142009,375.230392 444.39428,376.648335 L442.263191,380.03337 C439.927333,378.562804 437.68131,377.030844 435.531012,375.441356 Z M449.255861,384.107424 L451.153079,380.585981 C453.43313,381.814385 455.784162,382.986365 458.200927,384.09906 L456.528084,387.73246 C454.035831,386.58501 451.609967,385.375726 449.255861,384.107424 Z M464.018133,390.916016 L465.475684,387.191027 C467.899604,388.139482 470.376112,389.030413 472.900522,389.861801 L471.649276,393.661062 C469.055717,392.806901 466.510414,391.89122 464.018133,390.916016 Z M479.446721,396.003483 L480.497967,392.144094 C483.018558,392.830669 485.577106,393.459433 488.169519,394.028994 L487.311178,397.935815 C484.654244,397.352078 482.031375,396.707508 479.446721,396.003483 Z M495.289509,399.487798 L495.959375,395.544287 C498.542308,395.983038 501.151448,396.364143 503.783265,396.686671 L503.296708,400.656968 C500.603669,400.326938 497.93341,399.936905 495.289509,399.487798 Z M511.361913,401.460093 L511.668571,397.471865 C514.286266,397.673141 516.920596,397.817238 519.568547,397.903552 L519.43823,401.901429 C516.731458,401.813197 514.038333,401.665884 511.361913,401.460093 Z" id="Oval-3" fill="#37C3BE" fill-rule="nonzero"></path>
        <polygon id="Line-2-Copy-4" fill="#37C3BE" fill-rule="nonzero" points="529 200 529 242.5 529 243.5 527 243.5 527 242.5 527 200 521 200 528 186 535 200"></polygon>
        <path d="M464.788701,164 L462.54163,164 L462.54163,145.007812 L468.660771,145.007812 C469.591765,145.007812 470.433879,145.105142 471.187138,145.299805 C471.940397,145.494467 472.60901,145.790688 473.192997,146.188477 C473.776985,146.586265 474.22978,147.119463 474.551396,147.788086 C474.873012,148.456709 475.033818,149.235347 475.033818,150.124023 C475.033818,150.860355 474.96611,151.518389 474.830693,152.098145 C474.695275,152.6779 474.46253,153.221677 474.132451,153.729492 C473.802371,154.237307 473.370735,154.658364 472.837529,154.992676 C472.304323,155.326987 471.620899,155.589355 470.787236,155.779785 C469.953573,155.970216 468.986623,156.06543 467.886357,156.06543 C467.014608,156.06543 465.982066,156.010417 464.788701,155.900391 L464.788701,164 Z M468.102177,154.123047 C468.931608,154.123047 469.642539,154.042644 470.23499,153.881836 C470.827441,153.721028 471.282351,153.522137 471.599736,153.285156 C471.91712,153.048176 472.166792,152.73926 472.348759,152.358398 C472.530726,151.977537 472.642867,151.62842 472.685185,151.311035 C472.727503,150.993651 472.748662,150.610679 472.748662,150.162109 C472.748662,149.087234 472.386849,148.295901 471.663212,147.788086 C470.939576,147.280271 469.955699,147.026367 468.711552,147.026367 L464.788701,147.026367 L464.788701,154.097656 C466.422172,154.114583 467.526653,154.123047 468.102177,154.123047 Z M486.089554,152.650391 C485.471713,151.905595 484.621135,151.533203 483.537796,151.533203 C482.454458,151.533203 481.570026,151.916175 480.884476,152.682129 C480.198926,153.448083 479.796912,154.495436 479.678421,155.824219 L487.029007,155.824219 C487.029007,154.444655 486.715859,153.386722 486.089554,152.650391 Z M483.956742,164.291992 C481.933945,164.291992 480.340699,163.648769 479.176957,162.362305 C478.013214,161.07584 477.431351,159.315441 477.431351,157.081055 C477.431351,154.922841 477.994171,153.173021 479.119828,151.831543 C480.245484,150.490065 481.726589,149.806641 483.563187,149.78125 C485.289758,149.78125 486.658722,150.371576 487.670121,151.552246 C488.681519,152.732916 489.18721,154.309235 489.18721,156.28125 C489.18721,156.382813 489.185095,156.569009 489.180863,156.839844 C489.176631,157.110678 489.174515,157.305338 489.174515,157.423828 L479.614945,157.423828 C479.640336,159.006518 480.048697,160.240067 480.840043,161.124512 C481.631388,162.008956 482.695667,162.451172 484.032914,162.451172 C485.505577,162.451172 486.98245,162.061853 488.463578,161.283203 L488.793656,162.99707 C487.380237,163.860356 485.767949,164.291992 483.956742,164.291992 Z M499.34158,149.946289 C499.722441,149.946289 500.069443,149.971679 500.382595,150.022461 L500.306423,151.977539 C499.917099,151.90983 499.57856,151.875977 499.290798,151.875977 C498.105897,151.875977 497.143179,152.28857 496.402615,153.11377 C495.662051,153.938969 495.291775,154.960931 495.291775,156.179688 L495.291775,164 L493.171658,164 C493.163194,155.45178 493.158963,150.809574 493.158963,150.073242 L494.923611,150.073242 L495.126736,152.574219 C495.60916,151.787105 496.222761,151.152346 496.967556,150.669922 C497.712352,150.187498 498.503685,149.946289 499.34158,149.946289 Z M509.165871,164.291992 C507.117684,164.291992 505.515974,163.627611 504.360695,162.298828 C503.205416,160.970045 502.627785,159.230805 502.627785,157.081055 C502.636249,154.914377 503.226575,153.156094 504.398781,151.806152 C505.570987,150.456211 507.176928,149.78125 509.216652,149.78125 C509.936057,149.78125 510.632176,149.870116 511.305031,150.047852 C511.977886,150.225587 512.508968,150.458332 512.898293,150.746094 L512.314308,152.396484 C511.324069,151.863279 510.278832,151.59668 509.178566,151.59668 C507.832856,151.59668 506.768577,152.08756 505.985695,153.069336 C505.202814,154.051112 504.811379,155.39257 504.811379,157.09375 C504.811379,158.752612 505.198582,160.066564 505.973,161.035645 C506.747418,162.004725 507.820161,162.489258 509.191261,162.489258 C510.283064,162.489258 511.40024,162.193037 512.542824,161.600586 L512.809426,163.289062 C511.886895,163.957686 510.672389,164.291992 509.165871,164.291992 Z M524.550709,152.650391 C523.932867,151.905595 523.08229,151.533203 521.998951,151.533203 C520.915612,151.533203 520.031181,151.916175 519.345631,152.682129 C518.66008,153.448083 518.258066,154.495436 518.139576,155.824219 L525.490162,155.824219 C525.490162,154.444655 525.177014,153.386722 524.550709,152.650391 Z M522.417896,164.291992 C520.3951,164.291992 518.801854,163.648769 517.638111,162.362305 C516.474368,161.07584 515.892506,159.315441 515.892506,157.081055 C515.892506,154.922841 516.455326,153.173021 517.580982,151.831543 C518.706639,150.490065 520.187744,149.806641 522.024342,149.78125 C523.750913,149.78125 525.119877,150.371576 526.131275,151.552246 C527.142674,152.732916 527.648365,154.309235 527.648365,156.28125 C527.648365,156.382813 527.646249,156.569009 527.642017,156.839844 C527.637786,157.110678 527.63567,157.305338 527.63567,157.423828 L518.0761,157.423828 C518.10149,159.006518 518.509852,160.240067 519.301197,161.124512 C520.092542,162.008956 521.156822,162.451172 522.494068,162.451172 C523.966732,162.451172 525.443605,162.061853 526.924732,161.283203 L527.25481,162.99707 C525.841392,163.860356 524.229103,164.291992 522.417896,164.291992 Z M531.556641,170.042969 L531.556641,150.073242 L533.422852,150.073242 L533.625977,151.964844 C534.844733,150.509107 536.308911,149.78125 538.018555,149.78125 C539.288092,149.78125 540.362951,150.09863 541.243164,150.733398 C542.123377,151.368167 542.772947,152.227208 543.191895,153.310547 C543.610842,154.393886 543.820312,155.659172 543.820312,157.106445 C543.820312,158.494473 543.591799,159.728022 543.134766,160.807129 C542.677732,161.886236 542.007003,162.736813 541.122559,163.358887 C540.238114,163.98096 539.203456,164.291992 538.018555,164.291992 C537.121415,164.291992 536.279301,164.090985 535.492188,163.688965 C534.705074,163.286945 534.074547,162.755863 533.600586,162.095703 C533.651367,163.00977 533.676758,163.898433 533.676758,164.761719 L533.676758,169.90332 L531.556641,170.042969 Z M537.726562,162.501953 C538.369795,162.501953 538.94531,162.355958 539.453125,162.063965 C539.96094,161.771971 540.371418,161.372073 540.68457,160.864258 C540.997723,160.356443 541.2347,159.778812 541.395508,159.131348 C541.556316,158.483883 541.636719,157.783532 541.636719,157.030273 C541.636719,155.43912 541.302412,154.133631 540.633789,153.11377 C539.965166,152.093908 538.987637,151.583984 537.701172,151.583984 C535.009752,151.583984 533.664062,153.323225 533.664062,156.801758 C533.664062,158.689137 533.979326,160.110998 534.609863,161.067383 C535.2404,162.023768 536.27929,162.501953 537.726562,162.501953 Z M552.210033,164.253906 C550.838933,164.253906 549.865635,163.9196 549.290111,163.250977 C548.714588,162.582353 548.409903,161.503263 548.376049,160.013672 L548.376049,151.647461 L546.306713,151.647461 L546.39558,150.250977 L548.363354,150.073242 L549.086986,146.886719 L550.483471,146.835938 L550.483471,150.073242 L554.355541,150.073242 L554.355541,151.647461 L550.483471,151.647461 L550.483471,159.632812 C550.483471,160.69076 550.644276,161.435545 550.965893,161.867188 C551.287509,162.29883 551.837634,162.514648 552.616283,162.514648 C552.895582,162.514648 553.500719,162.446941 554.431713,162.311523 L554.52058,163.987305 C553.513414,164.16504 552.743239,164.253906 552.210033,164.253906 Z M563.989403,149.946289 C564.370264,149.946289 564.717266,149.971679 565.030418,150.022461 L564.954246,151.977539 C564.564921,151.90983 564.226383,151.875977 563.938621,151.875977 C562.75372,151.875977 561.791001,152.28857 561.050438,153.11377 C560.309874,153.938969 559.939598,154.960931 559.939598,156.179688 L559.939598,164 L557.819481,164 C557.811017,155.45178 557.806785,150.809574 557.806785,150.073242 L559.571434,150.073242 L559.774559,152.574219 C560.256983,151.787105 560.870584,151.152346 561.615379,150.669922 C562.360175,150.187498 563.151508,149.946289 563.989403,149.946289 Z M569.471897,157.068359 C569.471897,158.718758 569.837941,160.041173 570.570041,161.035645 C571.302141,162.030116 572.370653,162.527344 573.775608,162.527344 C575.163636,162.527344 576.210988,162.032232 576.917698,161.041992 C577.624407,160.051753 577.977756,158.718758 577.977756,157.042969 C577.977756,155.341788 577.628639,154.002446 576.930393,153.024902 C576.232147,152.047358 575.167868,151.558594 573.737522,151.558594 C572.349494,151.558594 571.291562,152.057938 570.563694,153.056641 C569.835825,154.055344 569.471897,155.39257 569.471897,157.068359 Z M580.174045,157.030273 C580.174045,159.188487 579.59853,160.938307 578.447483,162.279785 C577.296435,163.621263 575.705305,164.291992 573.674045,164.291992 C571.718957,164.291992 570.163797,163.614916 569.008518,162.260742 C567.853239,160.906569 567.275608,159.167328 567.275608,157.042969 C567.275608,154.876291 567.855355,153.124356 569.014866,151.787109 C570.174377,150.449863 571.765506,149.78125 573.788303,149.78125 C575.777245,149.78125 577.338753,150.451979 578.472873,151.793457 C579.606994,153.134935 580.174045,154.880523 580.174045,157.030273 Z M584.133102,164 L584.133102,150.073242 L585.910446,150.073242 L586.177047,152.066406 C586.72718,151.380856 587.414836,150.828615 588.240036,150.409668 C589.065235,149.990721 589.956014,149.78125 590.912399,149.78125 C592.52048,149.78125 593.709596,150.231929 594.479782,151.133301 C595.249968,152.034672 595.635055,153.420564 595.635055,155.291016 L595.635055,164 L593.514938,164 C593.514938,158.414035 593.510706,155.422203 593.502243,155.024414 C593.468388,153.839512 593.229296,152.972008 592.784957,152.421875 C592.340619,151.871742 591.597951,151.59668 590.55693,151.59668 C589.465128,151.59668 588.555306,151.859047 587.827438,152.383789 C587.09957,152.908531 586.625616,153.58984 586.405563,154.427734 C586.320927,154.994795 586.27861,155.646481 586.27861,156.382812 L586.27861,164 L584.133102,164 Z" id="Perceptron" fill="#FFFFFF"></path>
    </g>
</svg>